<?xml version="1.0" encoding="utf-8"?>
<svg viewBox="13.1768 31.7302 473.1304 439.6995" width="473.1304" height="439.6995" xmlns="http://www.w3.org/2000/svg">
  <defs>
    <clipPath id="clip0_134_4035">
      <rect width="330" height="180" rx="25" fill="white"/>
    </clipPath>
    <clipPath id="clip1_134_4035">
      <rect width="55.6607" height="52.321" fill="white" transform="translate(166.259 35.9333) rotate(36.9231)"/>
    </clipPath>
    <linearGradient id="paint2_linear_134_4035" x1="177.29" y1="54.1653" x2="155.817" y2="75.6382" gradientUnits="userSpaceOnUse">
      <stop stop-color="white"/>
      <stop offset="0.5417" stop-color="white"/>
      <stop offset="1" stop-color="white" stop-opacity="0"/>
    </linearGradient>
    <linearGradient id="paint3_linear_134_4035" x1="179.689" y1="55.9676" x2="160.656" y2="78.4035" gradientUnits="userSpaceOnUse">
      <stop stop-color="#D9D9DE"/>
      <stop offset="1" stop-color="#D9D9DE" stop-opacity="0"/>
    </linearGradient>
    <linearGradient id="paint4_linear_134_4035" x1="184.303" y1="56.4634" x2="162.188" y2="85.8937" gradientUnits="userSpaceOnUse">
      <stop stop-color="white"/>
      <stop offset="0.7135" stop-color="white"/>
      <stop offset="0.9375" stop-color="white" stop-opacity="0"/>
    </linearGradient>
    <linearGradient id="paint5_linear_134_4035" x1="184.303" y1="56.4634" x2="166.051" y2="77.7565" gradientUnits="userSpaceOnUse">
      <stop stop-color="#D9D9DE"/>
      <stop offset="1" stop-color="#D9D9DE" stop-opacity="0"/>
    </linearGradient>
    <linearGradient id="paint6_linear_134_4035" x1="195.994" y1="60.9215" x2="171.475" y2="93.5506" gradientUnits="userSpaceOnUse">
      <stop stop-color="white"/>
      <stop offset="0.6979" stop-color="#F8F7F7"/>
      <stop offset="1" stop-color="#F5F4F4" stop-opacity="0"/>
    </linearGradient>
    <clipPath id="clip2_134_4035">
      <rect width="47.9348" height="70.9804" fill="white" transform="translate(120 48.8188) rotate(-10.5414)"/>
    </clipPath>
    <radialGradient id="paint7_radial_134_4035" cx="0" cy="0" r="1" gradientUnits="userSpaceOnUse" gradientTransform="translate(119.488 53.6367) rotate(-10.5414) scale(87.7917 88.5952)">
      <stop stop-color="white"/>
      <stop offset="0.5" stop-color="#D55C41"/>
      <stop offset="1" stop-color="#8F3333"/>
    </radialGradient>
    <radialGradient id="paint8_radial_134_4035" cx="0" cy="0" r="1" gradientUnits="userSpaceOnUse" gradientTransform="translate(162.018 59.7533) rotate(-10.5414) scale(30.2082 30.4847)">
      <stop stop-color="white"/>
      <stop offset="0.5" stop-color="#D57641"/>
      <stop offset="1" stop-color="#8F3333"/>
    </radialGradient>
    <radialGradient id="paint9_radial_134_4035" cx="0" cy="0" r="1" gradientUnits="userSpaceOnUse" gradientTransform="translate(120.167 47.5908) rotate(-10.5414) scale(39.3085 39.6682)">
      <stop stop-color="white"/>
      <stop offset="0.5" stop-color="#D54A41"/>
      <stop offset="1" stop-color="#8F3333"/>
    </radialGradient>
    <radialGradient id="paint10_radial_134_4035" cx="0" cy="0" r="1" gradientUnits="userSpaceOnUse" gradientTransform="translate(146.649 27.6317) rotate(-10.5414) scale(20.7565 20.9464)">
      <stop stop-color="white"/>
      <stop offset="0.5" stop-color="#D56541"/>
      <stop offset="1" stop-color="#712020"/>
    </radialGradient>
    <radialGradient id="paint11_radial_134_4035" cx="0" cy="0" r="1" gradientUnits="userSpaceOnUse" gradientTransform="translate(128.027 47.1284) rotate(-10.5414) scale(31.417 31.7045)">
      <stop stop-color="white"/>
      <stop offset="0.5" stop-color="#D54141"/>
      <stop offset="1" stop-color="#8F3333"/>
    </radialGradient>
    <linearGradient id="paint12_linear_134_4035" x1="144.445" y1="49.1729" x2="160.011" y2="132.823" gradientUnits="userSpaceOnUse">
      <stop offset="0.1" stop-color="#FAC438"/>
      <stop offset="0.6" stop-color="#E0783E"/>
      <stop offset="0.9" stop-color="#994646"/>
    </linearGradient>
    <linearGradient id="paint13_linear_134_4035" x1="144.13" y1="29.374" x2="161.466" y2="122.533" gradientUnits="userSpaceOnUse">
      <stop offset="0.1" stop-color="#FAC438"/>
      <stop offset="0.4" stop-color="#E15132"/>
      <stop offset="0.9" stop-color="#FB8442"/>
    </linearGradient>
    <radialGradient id="paint14_radial_134_4035" cx="0" cy="0" r="1" gradientUnits="userSpaceOnUse" gradientTransform="translate(147.319 55.2463) rotate(-10.5414) scale(19.4359 19.6138)">
      <stop stop-color="white"/>
      <stop offset="0.5" stop-color="#F8B626"/>
      <stop offset="1" stop-color="#C81B23"/>
    </radialGradient>
    <radialGradient id="paint15_radial_134_4035" cx="0" cy="0" r="1" gradientUnits="userSpaceOnUse" gradientTransform="translate(141.558 74.4925) rotate(-10.5414) scale(31.4436 31.7313)">
      <stop stop-color="white"/>
      <stop offset="0.5" stop-color="#D54191"/>
      <stop offset="1" stop-color="#62338F"/>
    </radialGradient>
    <radialGradient id="paint16_radial_134_4035" cx="0" cy="0" r="1" gradientUnits="userSpaceOnUse" gradientTransform="translate(178.279 106.648) rotate(-10.5414) scale(44.7505 45.1601)">
      <stop stop-color="white"/>
      <stop offset="0.5" stop-color="#D56541"/>
      <stop offset="1" stop-color="#8F3333"/>
    </radialGradient>
    <radialGradient id="paint17_radial_134_4035" cx="0" cy="0" r="1" gradientUnits="userSpaceOnUse" gradientTransform="translate(152.146 61.7708) rotate(-10.5414) scale(37.1838 37.5241)">
      <stop stop-color="white"/>
      <stop offset="0.5" stop-color="#F8B626"/>
      <stop offset="1" stop-color="#C81B23"/>
    </radialGradient>
    <radialGradient id="paint18_radial_134_4035" cx="0" cy="0" r="1" gradientUnits="userSpaceOnUse" gradientTransform="translate(167.332 101.672) rotate(-10.5414) scale(22.5031 22.709)">
      <stop stop-color="white"/>
      <stop offset="0.33" stop-color="white"/>
      <stop offset="0.66" stop-color="white" stop-opacity="0"/>
      <stop offset="1" stop-color="white" stop-opacity="0"/>
    </radialGradient>
    <radialGradient id="paint19_radial_134_4035" cx="0" cy="0" r="1" gradientUnits="userSpaceOnUse" gradientTransform="translate(152.283 57.6458) rotate(-10.5414) scale(19.7022 19.8825)">
      <stop stop-color="white"/>
      <stop offset="0.33" stop-color="white"/>
      <stop offset="0.66" stop-color="white" stop-opacity="0"/>
      <stop offset="1" stop-color="white" stop-opacity="0"/>
    </radialGradient>
    <radialGradient id="paint20_radial_134_4035" cx="0" cy="0" r="1" gradientUnits="userSpaceOnUse" gradientTransform="translate(137.225 91.6967) rotate(-10.5414) scale(28.7545 29.0176)">
      <stop stop-color="white"/>
      <stop offset="0.33" stop-color="white"/>
      <stop offset="0.66" stop-color="white" stop-opacity="0"/>
      <stop offset="1" stop-color="white" stop-opacity="0"/>
    </radialGradient>
  </defs>
  <g clip-path="url(#clip0_134_4035)" transform="matrix(6.146079063415527, 0, 0, 6.146079063415527, -768.9302368164062, -233.42288208007812)" style="">
    <g clip-path="url(#clip1_134_4035)">
      <path fill-rule="evenodd" clip-rule="evenodd" d="M157.727 55.6139L158.589 58.1483C158.626 58.2515 158.641 58.3275 158.635 58.3757C158.622 58.4787 158.528 58.5618 158.352 58.6253C158.249 58.6623 158.169 58.6776 158.114 58.6707C158.058 58.6642 158.014 58.6458 157.981 58.6154C157.948 58.5854 157.926 58.5553 157.914 58.5247C157.902 58.494 157.885 58.4487 157.863 58.3881L157.698 57.8978L156.51 57.7559L156.23 58.1929C156.194 58.2465 156.167 58.2855 156.148 58.3096C156.129 58.3337 156.101 58.3569 156.062 58.3798C156.022 58.4026 155.975 58.4106 155.919 58.4041C155.863 58.3976 155.79 58.3639 155.699 58.3034C155.543 58.2037 155.471 58.1018 155.484 57.9988C155.49 57.9502 155.523 57.8802 155.584 57.7886L157.038 55.527C157.077 55.4648 157.132 55.4176 157.201 55.3851C157.27 55.3526 157.34 55.3406 157.412 55.3494C157.566 55.3676 157.671 55.4559 157.727 55.6139ZM157.253 56.603L156.897 57.1577L157.467 57.2259L157.253 56.6033L157.253 56.603Z" fill="#000811"/>
      <path fill-rule="evenodd" clip-rule="evenodd" d="M157.583 59.8715C157.937 59.9636 158.177 60.3063 158.131 60.6809C158.08 61.0893 157.708 61.3811 157.301 61.3322C157.178 61.3175 157.066 61.2733 156.97 61.2081L156.953 61.3434L156.95 61.3717L156.869 62.0258C156.85 62.1797 156.709 62.2901 156.556 62.2718C156.402 62.2534 156.292 62.1127 156.311 61.9589L156.392 61.3048L156.395 61.2764L156.412 61.1412C156.304 61.1824 156.184 61.1985 156.061 61.1838C155.653 61.1353 155.363 60.7641 155.414 60.356C155.46 59.9813 155.776 59.7056 156.142 59.6994C156.136 59.646 156.137 59.5909 156.144 59.535C156.194 59.1266 156.566 58.8348 156.973 58.8837C157.381 58.9322 157.671 59.303 157.62 59.7115C157.614 59.7675 157.601 59.8208 157.583 59.872L157.583 59.8715Z" fill="#000811"/>
      <path fill-rule="evenodd" clip-rule="evenodd" d="M163.707 70.6803C164.324 70.8407 164.74 71.4369 164.66 72.0882C164.573 72.7994 163.926 73.3067 163.216 73.2216C163.002 73.1959 162.807 73.1195 162.641 73.0056L162.612 73.2411L162.606 73.2901L162.466 74.4284C162.432 74.6962 162.187 74.8888 161.92 74.857C161.653 74.8253 161.461 74.58 161.494 74.3126L161.635 73.1743L161.641 73.1253L161.67 72.8898C161.48 72.9614 161.272 72.9899 161.058 72.9642C160.348 72.8795 159.844 72.2341 159.932 71.5237C160.012 70.872 160.562 70.3916 161.199 70.381C161.19 70.2877 161.191 70.1921 161.203 70.0945C161.291 69.3833 161.937 68.876 162.647 68.9611C163.357 69.0459 163.861 69.6912 163.773 70.4017C163.761 70.4984 163.739 70.5921 163.708 70.6806L163.707 70.6803Z" fill="#000404"/>
      <path fill-rule="evenodd" clip-rule="evenodd" d="M176.697 53.7194L169.893 50.99C169.332 50.7648 168.727 50.7905 168.205 51.0142C167.684 51.2379 167.246 51.6583 167.019 52.2216L154.484 83.2697C154.256 83.833 154.279 84.4385 154.501 84.9598C154.722 85.481 155.14 85.9177 155.702 86.1429L162.912 89.0362L158.125 85.439C157.2 84.7433 156.644 83.7314 156.494 82.6615C156.345 81.5921 156.602 80.4626 157.3 79.5328L176.697 53.7198L176.697 53.7194Z" fill="url(#paint2_linear_134_4035)"/>
      <path fill-rule="evenodd" clip-rule="evenodd" d="M176.697 53.7193L174.147 52.6964L158.411 73.5397L154.483 83.2691C154.256 83.8324 154.279 84.4379 154.501 84.9592C154.722 85.4804 155.14 85.9171 155.702 86.1423L162.912 89.0356L158.125 85.4384C157.2 84.7427 156.643 83.7308 156.494 82.6609C156.345 81.5915 156.601 80.462 157.3 79.5322L176.697 53.7196L176.697 53.7193Z" fill="url(#paint3_linear_134_4035)"/>
      <path fill-rule="evenodd" clip-rule="evenodd" d="M170.704 53.2286L170.897 56.1633C170.907 56.2829 170.901 56.368 170.881 56.4179C170.839 56.5237 170.715 56.585 170.511 56.6022C170.391 56.6122 170.303 56.6059 170.245 56.5829C170.188 56.5598 170.146 56.528 170.121 56.4867C170.095 56.4457 170.08 56.4071 170.076 56.371C170.071 56.335 170.067 56.2819 170.061 56.2113L170.025 55.6435L168.808 55.1551L168.387 55.5395C168.334 55.5865 168.294 55.6197 168.267 55.6399C168.24 55.6598 168.203 55.6767 168.155 55.6896C168.108 55.7026 168.055 55.698 167.998 55.675C167.941 55.6523 167.872 55.5953 167.793 55.5056C167.656 55.3551 167.609 55.2271 167.652 55.1213C167.672 55.0714 167.728 55.0065 167.818 54.9268L169.999 52.9394C170.058 52.885 170.129 52.8499 170.212 52.8354C170.294 52.8204 170.372 52.8279 170.445 52.8575C170.603 52.9209 170.689 53.0444 170.704 53.2278L170.704 53.2286ZM169.921 54.1435L169.387 54.6307L169.972 54.8648L169.921 54.143L169.921 54.1435Z" fill="#000811"/>
      <path fill-rule="evenodd" clip-rule="evenodd" d="M166.886 57.6652L169.021 56.3783L169.667 58.7813L167.532 60.0682L166.886 57.6652Z" fill="#E50030"/>
      <path fill-rule="evenodd" clip-rule="evenodd" d="M167.529 88.2858L168.982 86.0285C169.043 85.9369 169.076 85.8668 169.082 85.8182C169.094 85.7153 169.023 85.6121 168.868 85.5094C168.776 85.4488 168.703 85.4159 168.648 85.409C168.592 85.4025 168.544 85.4097 168.505 85.4314C168.466 85.453 168.438 85.477 168.418 85.5039C168.399 85.5303 168.372 85.5709 168.336 85.6249L168.056 86.0623L166.869 85.9203L166.703 85.43C166.681 85.3694 166.664 85.3253 166.652 85.2977C166.639 85.2702 166.617 85.2406 166.584 85.2089C166.552 85.1773 166.508 85.1581 166.452 85.1517C166.396 85.1452 166.317 85.1601 166.214 85.1971C166.038 85.2575 165.944 85.3394 165.931 85.4424C165.926 85.4909 165.94 85.567 165.977 85.6698L166.839 88.2085C166.862 88.2781 166.904 88.337 166.962 88.3846C167.022 88.4325 167.087 88.4605 167.158 88.469C167.313 88.4872 167.436 88.4266 167.529 88.2865L167.529 88.2858ZM167.309 87.214L167.098 86.5919L167.669 86.6601L167.309 87.2143L167.309 87.214Z" fill="#000404"/>
      <path fill-rule="evenodd" clip-rule="evenodd" d="M168.62 82.5334C168.974 82.6255 169.213 82.9681 169.167 83.3427C169.117 83.7512 168.745 84.043 168.338 83.994C168.215 83.9793 168.102 83.9352 168.007 83.8699L167.99 84.0052L167.986 84.0333L167.905 84.6873C167.886 84.8412 167.745 84.9516 167.592 84.9333C167.438 84.915 167.328 84.7743 167.347 84.6204L167.428 83.9663L167.431 83.938L167.448 83.8027C167.34 83.8439 167.22 83.8601 167.097 83.8453C166.689 83.7968 166.399 83.4256 166.45 83.0175C166.496 82.6429 166.812 82.3672 167.178 82.361C167.173 82.3075 167.173 82.2521 167.18 82.1965C167.23 81.7881 167.602 81.4963 168.01 81.5452C168.417 81.5937 168.707 81.965 168.657 82.3731C168.65 82.429 168.637 82.4824 168.619 82.5335L168.62 82.5334Z" fill="#000404"/>
      <path fill-rule="evenodd" clip-rule="evenodd" d="M172.375 84.9508L174.156 83.8778L174.694 85.8806L172.914 86.9536L172.375 84.9508Z" fill="#E50013"/>
      <path fill-rule="evenodd" clip-rule="evenodd" d="M168.72 70.9426L172.077 68.9197L173.092 72.6964L169.736 74.7192L168.72 70.9426Z" fill="#231916"/>
      <path fill-rule="evenodd" clip-rule="evenodd" d="M186.847 58.3749L181.488 54.3482C181.019 53.9952 180.446 53.8674 179.901 53.9463C179.356 54.0248 178.841 54.3091 178.486 54.7808L158.953 80.7745C158.599 81.2463 158.469 81.8204 158.545 82.3656C158.621 82.9104 158.903 83.4256 159.373 83.7785L166.713 89.2946L162.031 83.3053C161.305 82.3766 161.026 81.2343 161.16 80.1423C161.295 79.0506 161.844 78.0069 162.774 77.2761L186.847 58.3749Z" fill="url(#paint4_linear_134_4035)"/>
      <path fill-rule="evenodd" clip-rule="evenodd" d="M186.847 58.3749L184.924 56.9301C180.372 60.4215 171.078 67.5662 165.68 71.822L158.953 80.7745C158.599 81.2463 158.469 81.8204 158.545 82.3656C158.621 82.9104 158.903 83.4256 159.373 83.7785L166.713 89.2946L162.031 83.3053C161.305 82.3766 161.026 81.2343 161.16 80.1423C161.295 79.0506 161.844 78.0069 162.774 77.2761L186.847 58.3749Z" fill="url(#paint5_linear_134_4035)"/>
      <path fill-rule="evenodd" clip-rule="evenodd" d="M171.815 90.6937L173.994 88.7108C174.084 88.631 174.139 88.5662 174.159 88.5163C174.202 88.4105 174.155 88.281 174.02 88.1276C173.941 88.0378 173.872 87.9813 173.815 87.9582C173.758 87.9352 173.706 87.9297 173.658 87.9415C173.611 87.9533 173.573 87.9706 173.545 87.9933C173.518 88.016 173.477 88.0509 173.424 88.0982L173.003 88.4826L171.786 87.9941L171.75 87.4264C171.744 87.3558 171.739 87.3043 171.733 87.2711C171.728 87.2383 171.712 87.2005 171.687 87.158C171.661 87.1154 171.62 87.0824 171.563 87.0597C171.506 87.037 171.418 87.0303 171.298 87.0404C171.094 87.0544 170.972 87.1144 170.929 87.2202C170.909 87.2701 170.904 87.3552 170.913 87.4748L171.105 90.4143C171.11 90.4949 171.137 90.5689 171.186 90.6362C171.236 90.7039 171.297 90.7523 171.37 90.7815C171.528 90.8449 171.677 90.8156 171.814 90.6934L171.815 90.6937ZM171.886 89.4933L171.84 88.7732L172.424 89.0073L171.886 89.4929L171.886 89.4933Z" fill="#000404"/>
      <path fill-rule="evenodd" clip-rule="evenodd" d="M181.686 56.6539L181.13 59.4579C181.109 59.5727 181.083 59.6511 181.051 59.693C180.984 59.7816 180.853 59.8082 180.658 59.7726C180.543 59.7521 180.462 59.7237 180.414 59.6879C180.366 59.652 180.335 59.6114 180.321 59.5661C180.308 59.5207 180.303 59.4813 180.308 59.4462C180.313 59.4116 180.322 59.3602 180.335 59.2927L180.443 58.7507L179.426 57.9862L178.935 58.2412C178.874 58.2722 178.828 58.2933 178.798 58.3053C178.768 58.3173 178.729 58.3237 178.681 58.3237C178.632 58.3242 178.584 58.3063 178.537 58.2704C178.489 58.2346 178.439 58.1643 178.387 58.0603C178.297 57.8847 178.285 57.7524 178.352 57.6638C178.383 57.6219 178.451 57.5751 178.555 57.5222L181.097 56.2051C181.166 56.1687 181.241 56.1541 181.323 56.1611C181.404 56.1681 181.475 56.1945 181.536 56.2403C181.668 56.3396 181.718 56.477 181.686 56.6527L181.686 56.6539ZM180.723 57.3156L180.1 57.6389L180.589 58.006L180.723 57.3156Z" fill="#000811"/>
      <path fill-rule="evenodd" clip-rule="evenodd" d="M173.323 92.1044L175.862 90.7911C175.967 90.739 176.035 90.6918 176.066 90.6498C176.133 90.5612 176.122 90.4277 176.033 90.2499C175.982 90.1455 175.932 90.0757 175.884 90.0398C175.836 90.0039 175.789 89.9856 175.741 89.9844C175.694 89.9835 175.655 89.99 175.623 90.0049C175.591 90.0191 175.544 90.0422 175.483 90.0732L174.992 90.3282L173.975 89.5637L174.083 89.0217C174.096 88.9542 174.104 88.9042 174.107 88.8717C174.11 88.8392 174.105 88.8002 174.092 88.754C174.079 88.7074 174.048 88.6664 174 88.6305C173.953 88.5946 173.871 88.5663 173.757 88.5453C173.563 88.5076 173.433 88.5329 173.366 88.6215C173.335 88.6635 173.309 88.7417 173.287 88.8566L172.729 91.6645C172.713 91.7411 172.72 91.8173 172.75 91.8936C172.779 91.9691 172.824 92.0306 172.885 92.0764C173.017 92.1757 173.163 92.1856 173.323 92.1053L173.323 92.1044ZM173.691 90.9956L173.828 90.3078L174.317 90.6748L173.691 90.9956Z" fill="#231916"/>
      <path fill-rule="evenodd" clip-rule="evenodd" d="M177.76 61.7772C177.798 61.9057 177.877 62.0153 178.012 62.1165C178.327 62.3535 178.777 62.2888 179.015 61.972C179.446 61.3979 179.306 60.3943 179.166 59.3908C178.163 59.5353 177.16 59.6799 176.728 60.2539C176.49 60.5707 176.553 61.0205 176.869 61.2575C177.003 61.3587 177.13 61.4041 177.265 61.405L176.694 62.1636C176.592 62.3002 176.619 62.4959 176.755 62.5984C176.891 62.7006 177.087 62.6728 177.19 62.5358L177.76 61.7772Z" fill="#000811"/>
      <path fill-rule="evenodd" clip-rule="evenodd" d="M177.129 86.9217C177.259 86.9226 177.382 86.9667 177.512 87.0647C177.817 87.2937 177.878 87.7281 177.648 88.0346C177.231 88.5894 176.262 88.7286 175.293 88.8687C175.157 87.8988 175.022 86.9292 175.439 86.3748C175.669 86.0687 176.104 86.0061 176.408 86.2351C176.539 86.3331 176.615 86.4386 176.652 86.563L177.203 85.8301C177.302 85.6978 177.491 85.6707 177.622 85.7697C177.754 85.8686 177.78 86.0572 177.681 86.1895L177.13 86.9224L177.129 86.9217Z" fill="#000404"/>
      <path fill-rule="evenodd" clip-rule="evenodd" d="M176.896 75.3746C176.956 75.5748 177.079 75.7449 177.289 75.9024C177.78 76.2714 178.478 76.1703 178.849 75.6776C179.52 74.7846 179.302 73.2235 179.084 71.662C177.524 71.8868 175.964 72.1117 175.292 73.0051C174.922 73.4978 175.02 74.1975 175.51 74.5662C175.72 74.7238 175.918 74.7945 176.127 74.7961L175.24 75.9759C175.08 76.1887 175.123 76.4925 175.334 76.6517C175.546 76.8109 175.85 76.7671 176.01 76.5544L176.896 75.3746Z" fill="#231916"/>
      <path fill-rule="evenodd" clip-rule="evenodd" d="M203.776 72.4721L193.146 58.8737C192.778 58.4027 192.249 58.1258 191.693 58.0593C191.138 57.9928 190.557 58.1372 190.085 58.5079L164.071 78.9337C163.599 79.3045 163.32 79.8351 163.252 80.3917C163.183 80.9482 163.325 81.529 163.693 82L174.323 95.5984C174.691 96.0694 175.22 96.3462 175.776 96.4128C176.332 96.4793 176.912 96.3349 177.384 95.9642L203.398 75.5383C203.87 75.1676 204.149 74.6369 204.217 74.0804C204.286 73.5239 204.144 72.9431 203.776 72.4721Z" fill="url(#paint6_linear_134_4035)"/>
      <path fill-rule="evenodd" clip-rule="evenodd" d="M203.776 72.4721L201.228 69.2136C201.228 69.2136 189.294 85.1744 172.8 72.0801L164.071 78.9338C163.599 79.3045 163.32 79.8352 163.251 80.3917C163.182 80.9482 163.324 81.529 163.693 82L174.323 95.5984C174.691 96.0694 175.22 96.3463 175.775 96.4128C176.331 96.4793 176.912 96.3349 177.384 95.9642L203.397 75.5384C203.869 75.1676 204.148 74.637 204.217 74.0804C204.286 73.5239 204.144 72.9431 203.776 72.4721Z" fill="#D9D9DE" fill-opacity="0.3"/>
      <path fill-rule="evenodd" clip-rule="evenodd" d="M185.15 76.1248C185.937 75.9629 186.441 76.0231 186.883 76.5882C187.37 77.2118 187.259 78.1166 186.634 78.6075C185.501 79.4967 183.485 79.2559 181.47 79.015C181.718 76.9957 181.967 74.9764 183.1 74.0872C183.725 73.5963 184.628 73.7043 185.116 74.328C185.557 74.8931 185.495 75.3983 185.15 76.1252L185.15 76.1248Z" fill="#E50030"/>
      <path fill-rule="evenodd" clip-rule="evenodd" d="M192.733 61.1946L191.45 63.8072C191.399 63.9146 191.353 63.985 191.311 64.0173C191.223 64.0869 191.087 64.0786 190.904 63.992C190.796 63.9415 190.724 63.8919 190.687 63.8443C190.649 63.7966 190.629 63.7483 190.628 63.7001C190.626 63.6519 190.632 63.6117 190.646 63.5787C190.66 63.5458 190.682 63.4979 190.712 63.4348L190.962 62.9302L190.164 61.9095L189.615 62.0309C189.547 62.045 189.496 62.0542 189.463 62.0582C189.431 62.0617 189.39 62.0576 189.343 62.0457C189.296 62.0335 189.254 62.0032 189.216 61.9553C189.178 61.9076 189.148 61.8253 189.124 61.7089C189.082 61.5123 189.105 61.3796 189.194 61.3096C189.235 61.2768 189.314 61.2483 189.431 61.2246L192.272 60.599C192.35 60.5817 192.428 60.5873 192.506 60.6154C192.583 60.6436 192.646 60.6883 192.694 60.7497C192.798 60.8825 192.81 61.0307 192.733 61.1953L192.733 61.1946ZM191.613 61.5918L190.917 61.7456L191.301 62.2358L191.613 61.5918Z" fill="#000811"/>
      <path fill-rule="evenodd" clip-rule="evenodd" d="M175.2 93.8708L178.037 93.2477C178.153 93.2237 178.233 93.1955 178.275 93.1627C178.363 93.0931 178.388 92.959 178.347 92.7606C178.324 92.6445 178.293 92.5619 178.256 92.5142C178.219 92.4662 178.177 92.4359 178.13 92.4227C178.084 92.4095 178.044 92.4058 178.008 92.4113C177.973 92.4171 177.921 92.4269 177.853 92.4413L177.304 92.5628L176.507 91.5421L176.756 91.0375C176.786 90.9743 176.807 90.9271 176.819 90.8964C176.83 90.8656 176.836 90.8255 176.835 90.7764C176.835 90.7272 176.816 90.6788 176.778 90.6308C176.741 90.5827 176.668 90.5336 176.561 90.483C176.381 90.3945 176.246 90.3853 176.158 90.4549C176.116 90.4876 176.07 90.558 176.018 90.6655L174.732 93.2809C174.696 93.3525 174.683 93.4292 174.692 93.5115C174.701 93.5938 174.729 93.6657 174.777 93.7275C174.881 93.8603 175.022 93.9079 175.2 93.8716L175.2 93.8708ZM175.853 92.8766L176.168 92.2364L176.552 92.7266L175.853 92.8769L175.853 92.8766Z" fill="#000811"/>
      <path fill-rule="evenodd" clip-rule="evenodd" d="M189.156 63.5247C189.542 63.4455 189.789 63.4747 190.005 63.7516C190.245 64.0572 190.19 64.5011 189.883 64.7415C189.328 65.1776 188.34 65.0593 187.352 64.941C187.474 63.9511 187.596 62.961 188.151 62.5255C188.457 62.2848 188.9 62.3378 189.139 62.6438C189.356 62.9211 189.325 63.1682 189.156 63.5247Z" fill="#E50030"/>
      <path fill-rule="evenodd" clip-rule="evenodd" d="M179.701 89.8577C180.087 89.7785 180.334 89.8081 180.55 90.0846C180.789 90.3902 180.735 90.8341 180.428 91.0745C179.873 91.5106 178.885 91.3923 177.896 91.274C178.019 90.2842 178.141 89.294 178.696 88.8586C179.002 88.6178 179.445 88.6708 179.684 88.9769C179.901 89.2541 179.87 89.5012 179.701 89.8577Z" fill="#E50030"/>
    </g>
    <g clip-path="url(#clip2_134_4035)">
      <path fill-rule="evenodd" clip-rule="evenodd" d="M161.196 69.5099C163.763 63.0197 165.457 56.2602 162.719 49.4345C164.999 61.6856 154.838 71.2014 149.404 80.5098C160.127 79.6568 167.503 87.6581 169.053 96.1316C173.828 90.504 174.677 81.7646 169.609 74.6127C167.328 72.3371 164.499 70.5515 161.196 69.5099Z" fill="url(#paint7_radial_134_4035)"/>
      <path fill-rule="evenodd" clip-rule="evenodd" d="M167.514 91.3237C168.234 92.8676 168.752 94.4875 169.053 96.1315C173.828 90.5039 174.677 81.7645 169.609 74.6127C173.457 81.5543 171.18 88.1764 167.514 91.3237Z" fill="url(#paint8_radial_134_4035)"/>
      <path fill-rule="evenodd" clip-rule="evenodd" d="M148.767 43.4658C128.193 47.2943 124.79 74.5574 128.64 95.2507C126.562 84.0825 133.008 76.1982 139.935 68.6836C140.468 57.199 147.395 51.5809 152.996 51.1454C154.876 46.4612 154.093 43.1578 148.768 43.4711L148.767 43.4658Z" fill="url(#paint9_radial_134_4035)"/>
      <path fill-rule="evenodd" clip-rule="evenodd" d="M148.767 43.4658C152.89 43.3271 152.835 47.1688 150.456 51.6727C151.317 51.3813 152.173 51.2057 153 51.1392C154.88 46.4549 154.097 43.1516 148.772 43.4648L148.767 43.4658Z" fill="url(#paint10_radial_134_4035)"/>
      <path fill-rule="evenodd" clip-rule="evenodd" d="M127.253 80.2863C127.252 85.3752 127.754 90.4854 128.64 95.2453C126.561 84.0772 133.007 76.1929 139.934 68.6783C140.018 66.8315 140.272 65.1391 140.656 63.5919C135.837 68.9269 130.4 74.142 127.259 80.2853L127.253 80.2863Z" fill="url(#paint11_radial_134_4035)"/>
      <path fill-rule="evenodd" clip-rule="evenodd" d="M165.321 99.3621C157.116 104.491 146.06 100.58 144.631 92.9036C141.887 78.1588 164.049 66.3281 160.967 49.766C160.097 45.0906 155.902 42.138 148.761 43.4668C158.373 42.9025 153.197 54.087 144.265 63.9807C136.087 73.0399 126.126 81.7369 128.64 95.2507C131.284 109.457 144 116.552 156.318 114.259C167.61 112.158 178.609 101.759 175.746 86.3703C174.927 81.9696 172.809 77.8105 169.61 74.6179C175.807 83.3526 173.162 94.4596 165.321 99.3621Z" fill="url(#paint12_linear_134_4035)"/>
      <path fill-rule="evenodd" clip-rule="evenodd" d="M165.322 99.3621C157.117 104.491 146.06 100.58 144.632 92.9035C142.491 81.3973 155.515 71.6657 159.875 60.0811C152.737 75.2764 132.725 80.815 136.28 100.093C138.039 109.632 146.696 116.045 156.318 114.254C167.61 112.153 178.609 101.754 175.745 86.3649C174.926 81.9642 172.809 77.8051 169.61 74.6126C175.806 83.3473 173.161 94.4543 165.321 99.3568L165.322 99.3621Z" fill="url(#paint13_linear_134_4035)"/>
      <path fill-rule="evenodd" clip-rule="evenodd" d="M148.767 43.4657C154.092 43.1525 154.88 46.4549 152.995 51.1401C157.571 50.786 161.263 53.8869 159.874 60.0758C161.103 56.8135 161.643 53.4007 160.966 49.7607C160.096 45.0853 155.901 42.1327 148.761 43.4614L148.767 43.4657Z" fill="url(#paint14_radial_134_4035)"/>
      <path opacity="0.2" fill-rule="evenodd" clip-rule="evenodd" d="M169.053 96.1315C170.43 103.937 166.829 112.15 156.323 114.253C167.615 112.152 178.614 101.753 175.75 86.364C174.931 81.9633 172.814 77.8042 169.615 74.6117C174.688 81.7626 173.834 90.503 169.058 96.1305L169.053 96.1315Z" fill="url(#paint15_radial_134_4035)"/>
      <path fill-rule="evenodd" clip-rule="evenodd" d="M165.321 99.3623C157.117 104.491 146.06 100.58 144.632 92.9037C143.848 88.6932 145.097 84.7222 147.206 80.8042C135.653 101.237 156.605 108.959 165.916 103.138C173.756 98.2355 178.488 85.3026 169.609 74.6129C175.806 83.3475 173.161 94.4545 165.32 99.357L165.321 99.3623Z" fill="url(#paint16_radial_134_4035)"/>
      <path fill-rule="evenodd" clip-rule="evenodd" d="M148.767 43.4658C158.378 42.9015 153.202 54.086 144.27 63.9797C136.087 73.0399 126.126 81.7369 128.64 95.2507C126.483 81.6759 137.935 73.3355 146.118 64.2754C155.05 54.3817 162.587 41.8559 148.767 43.4658Z" fill="url(#paint17_radial_134_4035)"/>
      <path fill-rule="evenodd" clip-rule="evenodd" d="M165.539 102.251C158.422 106.702 145.287 103.73 143.877 93.1262C144.884 104.127 158.798 107.589 165.916 103.143C172.316 99.1429 176.647 89.7884 173.19 80.6696C176.163 89.78 171.944 98.2502 165.539 102.251Z" fill="url(#paint18_radial_134_4035)"/>
      <path fill-rule="evenodd" clip-rule="evenodd" d="M153.261 43.5476C159.008 45.7631 152.938 56.1027 145.854 64.0785C142.651 67.6806 138.885 71.2785 135.942 75.0236C139.15 71.3057 142.893 67.8434 146.122 64.2691C153.838 55.7276 160.513 45.2043 153.261 43.5476Z" fill="url(#paint19_radial_134_4035)"/>
      <path fill-rule="evenodd" clip-rule="evenodd" d="M150.771 71.9638C142.712 79.9406 133.809 86.7024 136.279 100.093C137.555 107.005 142.453 112.281 148.721 113.979C142.514 111.74 138.528 105.687 137.452 99.8751C134.981 86.4789 143.21 80.6404 150.771 71.9638Z" fill="url(#paint20_radial_134_4035)"/>
    </g>
  </g>
</svg>