<?xml version="1.0" encoding="utf-8"?>
<svg viewBox="1.5588 26.9287 496.3312 439.964" width="496.3312" height="439.964" xmlns="http://www.w3.org/2000/svg">
  <defs>
    <clipPath id="clip0_134_4202">
      <rect width="159" height="180" rx="25" fill="white"/>
    </clipPath>
    <clipPath id="clip1_134_4202">
      <rect width="77.276" height="73.5962" fill="white" transform="translate(36.4688 49.0298) rotate(-8.57336)"/>
    </clipPath>
    <linearGradient id="paint2_linear_134_4202" x1="85.5907" y1="45.8758" x2="99.5195" y2="91.4837" gradientUnits="userSpaceOnUse">
      <stop stop-color="white"/>
      <stop offset="0.13" stop-color="#EFF2F5"/>
      <stop offset="0.29" stop-color="#E2E7ED"/>
      <stop offset="0.51" stop-color="#DBE1E9"/>
      <stop offset="1" stop-color="#D9E0E8"/>
    </linearGradient>
  </defs>
  <g clip-path="url(#clip0_134_4202)" transform="matrix(6.063652992248535, 0, 0, 6.063652992248535, -241.11170959472656, -230.4273681640625)" style="">
    <g clip-path="url(#clip1_134_4202)">
      <path d="M75.38 53.2126L44.8798 70.9144L47.6043 72.2907L75.9163 55.8493L107.817 63.213L110.015 61.0947L75.38 53.2126Z" fill="#B56700"/>
      <path d="M109.397 87.6832C110.777 87.8032 112.132 87.9096 113.485 88.0459C114.031 88.1004 114.584 88.1729 115.108 88.3227C116.438 88.7014 117.429 89.5715 117.94 90.8158C118.936 93.2414 119.805 95.7185 120.732 98.1717C121.151 99.2819 120.949 100.317 120.346 101.289C119.644 102.419 118.917 103.534 118.186 104.647C117.437 105.786 116.645 106.898 115.917 108.051C115.256 109.096 114.339 109.711 113.113 109.699C111.756 109.687 110.401 109.538 109.043 109.482C108.759 109.47 108.423 109.529 108.192 109.68C107.246 110.302 106.165 110.524 105.103 110.805C103.285 111.285 101.466 111.765 99.6391 112.207C98.2704 112.537 96.8922 112.899 95.4749 112.423C94.4492 112.079 93.6211 104.418 92.8379 103.713C91.7053 102.693 90.6108 108.63 89.5009 107.585C89.3392 107.433 89.1768 107.284 88.9094 107.035C88.9527 107.323 88.9755 107.474 88.9983 107.625C89.2089 109.022 89.4354 103.417 89.6161 104.817C89.6492 105.07 89.5622 105.4 89.4096 105.605C88.304 107.09 86.7683 107.966 85.0639 108.597C81.918 109.761 78.6634 110.258 75.3181 110.174C73.0755 110.118 70.8947 109.761 68.8723 108.719C68.7009 108.631 68.5206 108.557 68.3085 108.461C66.6358 110.734 64.1503 111.601 61.5859 112.274C57.9455 113.23 54.2505 113.514 50.5495 112.69C49.392 112.433 48.3002 111.878 47.1892 111.431C47.0489 111.374 46.9088 111.158 46.8835 110.996C46.2017 106.568 45.5299 109.139 44.8729 104.707C44.7651 103.979 45.0559 103.334 45.4711 102.754C46.3514 101.522 47.5918 100.737 48.9603 100.204C50.299 99.6809 51.7015 99.3186 53.075 98.8857C53.1505 98.8622 53.2244 98.8348 53.344 98.7945C52.8553 97.5895 52.377 96.4061 51.8948 95.2243C48.4469 86.7836 44.9959 78.3434 41.5526 69.9C41.149 68.9098 40.7536 67.9134 40.4096 66.9022C40.139 66.1087 40.088 65.2801 40.3008 64.4532C40.6371 63.149 41.433 62.2646 42.6967 61.7754C44.3014 61.1548 45.8924 60.4978 47.495 59.8704C47.8232 59.742 47.9974 59.5932 48.0354 59.1936C48.1918 57.5491 49.1363 56.1593 51.1636 55.6937C53.0939 55.2508 55.0057 54.7246 56.931 54.2622C57.3036 54.1727 57.4138 54.0437 57.3857 53.649C57.2715 52.0644 57.5864 50.6248 58.8387 49.4954C59.4595 48.9351 60.1988 48.7446 60.9736 48.6612C62.9428 48.4494 64.9164 48.2663 66.8897 48.0953C67.2299 48.0663 67.4397 47.9527 67.6371 47.6688C68.4192 46.5455 69.5127 46.0161 70.8855 46.0623C72.733 46.125 74.582 46.1773 76.4298 46.249C76.7509 46.2614 76.917 46.1736 77.0451 45.8606C77.6564 44.3641 79.25 43.1458 81.3659 43.5234C90.0013 45.0656 98.6469 46.5476 107.289 48.0553C108.724 48.3057 110.16 48.556 111.588 48.845C112.107 48.9499 112.635 49.1064 113.104 49.3444C114.659 50.1326 115.347 51.5961 115.045 53.5704C114.562 56.7192 114.03 59.8602 113.506 63.003C112.582 68.5388 111.648 74.0731 110.72 79.6086C110.303 82.0964 109.887 84.5839 109.473 87.0723C109.442 87.2613 109.424 87.4523 109.395 87.6845L109.397 87.6832ZM107.647 87.5188C107.675 87.4163 107.697 87.3563 107.707 87.295C108.422 83.0036 109.133 78.7109 109.851 74.4201C111.018 67.4493 112.194 60.4802 113.357 53.5081C113.586 52.1339 112.881 51.0384 111.54 50.6331C111.091 50.4973 110.637 50.3663 110.176 50.286C104.246 49.2523 98.3138 48.2299 92.3829 47.1993C88.5404 46.5323 84.6974 45.8622 80.8583 45.1774C80.2648 45.0715 79.7299 45.1795 79.341 45.5975C78.9879 45.9778 78.6691 46.4369 78.4884 46.9188C78.2634 47.5166 78.1703 48.1696 78.0637 48.8063C76.2176 59.8291 74.3778 70.853 72.5379 81.8769C72.3336 83.1025 72.1334 84.3284 71.9436 85.4758C72.69 85.8898 73.4149 86.2219 74.0607 86.6683C74.77 87.1587 75.2062 87.8341 75.3208 88.7554C75.5806 90.8485 75.933 92.9307 76.2476 95.0176L76.3272 95.5453C77.216 95.5064 78.0562 95.4537 78.8979 95.4382C80.6409 95.4062 82.365 95.5574 84.0488 96.0467C85.6934 96.5247 87.0924 97.383 88.2164 98.7555C88.2711 98.5407 88.318 98.3879 88.3491 98.2313C88.6455 96.756 88.9408 95.2808 89.2342 93.8059C89.6439 91.7516 90.8792 90.4283 92.8563 89.8113C94.0457 89.4407 95.2561 89.1286 96.4666 88.8307C97.9759 88.4583 99.4892 88.0986 101.013 87.7969C101.471 87.7067 101.971 87.8337 102.453 87.8573C102.608 87.8653 102.796 87.921 102.913 87.8558C103.825 87.3447 104.813 87.3627 105.804 87.4037C106.416 87.4289 107.027 87.4786 107.645 87.5179L107.647 87.5188ZM95.812 110.862C95.9428 110.063 96.023 109.405 96.162 108.761C96.7203 106.167 97.288 103.574 97.8745 100.986C97.9749 100.543 97.9259 100.164 97.7093 99.7756C96.9984 98.4947 95.9638 97.4863 94.9477 96.4589C94.3535 95.858 93.7762 95.2413 93.1909 94.632C93.9919 95.0924 94.7209 95.6335 95.4771 96.1331C96.3289 96.6952 97.1807 97.2643 98.0775 97.7488C98.8518 98.1666 99.7025 98.251 100.581 98.0214C102.086 97.6284 103.602 97.2733 105.111 96.8899C106.242 96.603 107.373 96.314 108.491 95.9844C108.721 95.9163 108.973 95.694 109.067 95.4785C109.121 95.3539 108.921 95.0509 108.762 94.914C107.283 93.6485 105.731 92.462 104.316 91.1313C102.932 89.8313 101.435 89.252 99.5754 89.7997C99.4667 89.8313 99.3536 89.8473 99.2443 89.8749C97.3755 90.3501 95.5169 90.8723 93.6344 91.2897C92.0223 91.6461 91.2049 92.6563 90.9044 94.1981C90.7521 94.9753 90.5831 95.7501 90.4338 96.5269C90.0104 98.7189 89.5755 100.909 89.1812 103.106C89.0123 104.048 89.1285 104.927 89.9099 105.64C91.4068 107.007 92.8587 108.425 94.3522 109.795C94.7638 110.173 95.2572 110.462 95.8143 110.864L95.812 110.862ZM113.435 92.0275L113.533 92.0958C113.134 92.8171 112.737 93.54 112.335 94.2598C111.953 94.9432 111.645 95.5687 111.757 96.461C111.883 97.4566 111.591 98.503 111.497 99.5296C111.474 99.776 111.458 100.05 111.54 100.273C112.302 102.338 113.077 104.399 113.88 106.449C113.964 106.665 114.228 106.869 114.454 106.947C114.562 106.984 114.822 106.741 114.935 106.574C116.081 104.882 117.181 103.158 118.358 101.487C119.151 100.361 119.388 99.1995 118.919 97.9075C118.195 95.9147 117.427 93.9365 116.742 91.9309C116.26 90.5222 115.278 89.8391 113.86 89.7065C111.262 89.4644 108.663 89.2426 106.063 89.0251C105.557 88.983 105.046 89.0044 104.537 88.9961C104.528 89.0328 104.519 89.0685 104.51 89.1043C105.222 89.6957 105.932 90.2872 106.645 90.8794C107.243 90.1048 107.862 89.9416 108.412 90.373C108.978 90.8163 108.94 91.4557 108.281 92.2497C109.248 93.0718 110.216 93.8938 111.198 94.7269C111.949 93.8188 112.692 92.9222 113.435 92.0255L113.435 92.0275ZM57.6049 55.889C57.3429 55.9457 57.1052 55.9886 56.872 56.0481C55.0766 56.499 53.2832 56.9566 51.4875 57.4056C50.2951 57.7028 49.6556 58.5484 49.7509 59.7784C49.7897 60.2778 49.8694 60.7801 49.9923 61.2658C50.6953 64.0333 51.4158 66.796 52.1333 69.5593C53.2013 73.673 54.2724 77.7862 55.3415 81.9008C55.8263 83.7656 56.3113 85.6314 56.8024 87.5246C57.49 87.1658 58.1389 86.826 58.7898 86.4859C58.6698 86.0119 58.5617 85.5705 58.4479 85.1321C57.4547 81.2997 56.4627 77.4682 55.4665 73.6362C54.7159 70.7474 53.9465 67.8624 53.2124 64.969C52.9333 63.87 52.678 62.7613 52.4991 61.6422C52.3008 60.4004 53.0265 58.5941 54.8436 58.1865C55.1916 58.1087 55.535 58.0073 55.8802 57.9178C56.5023 57.7562 57.1244 57.5946 57.7494 57.4325C57.6986 56.8934 57.6544 56.4121 57.605 55.89L57.6049 55.889ZM55.6463 98.4464C55.6435 98.374 55.6486 98.2932 55.6369 98.216C55.3853 96.5469 55.1375 94.8762 54.8759 93.2086C54.8391 92.9711 54.7561 92.7366 54.6656 92.5123C51.5017 84.7598 48.3284 77.0117 45.1759 69.2545C44.9459 68.6898 44.7946 68.0757 44.7156 67.471C44.5119 65.905 45.2865 64.5368 46.7115 63.8674C47.2395 63.6197 47.797 63.4324 48.3276 63.1884C48.4545 63.1298 48.6294 62.9384 48.6115 62.8398C48.5268 62.3858 48.382 61.9429 48.2576 61.4939C48.1516 61.5099 48.1027 61.5082 48.0606 61.5246C46.446 62.167 44.8248 62.7921 43.2225 63.4619C42.2921 63.8502 41.8281 64.6836 41.9642 65.6877C42.0329 66.1968 42.1632 66.7117 42.3536 67.1882C43.3518 69.6895 44.3769 72.1806 45.3951 74.6737C48.5903 82.4994 51.7894 90.3246 54.976 98.1536C55.1191 98.5047 55.2971 98.6034 55.6472 98.4453L55.6463 98.4464ZM68.9928 85.0175C69.0103 84.8579 69.0356 84.7164 69.0395 84.5741C69.0958 82.6287 69.145 80.6834 69.2022 78.7379C69.4057 71.881 69.605 65.0238 69.8185 58.1664C69.8756 56.3202 69.9116 54.469 70.0721 52.6304C70.2162 50.9847 71.4397 49.3149 73.777 49.5548C74.5633 49.6357 75.359 49.6241 76.1927 49.6564C76.2916 49.0826 76.3847 48.537 76.4879 47.9382C74.4333 47.8865 72.4421 47.8182 70.4502 47.8056C70.1287 47.8034 69.7627 47.9902 69.4919 48.19C68.6448 48.8149 68.5264 49.7703 68.4973 50.7203C68.4157 53.4248 68.3668 56.1315 68.2994 58.8369C68.2131 62.3035 68.1175 65.7695 68.0322 69.2359C67.9262 73.5135 67.8264 77.7911 67.7255 82.0688C67.7028 83.02 67.688 83.9709 67.6701 84.9476C68.1328 84.972 68.5476 84.9945 68.9938 85.0174L68.9928 85.0175ZM66.8083 49.9007C66.7117 49.892 66.6477 49.8773 66.5868 49.8835C64.7283 50.0634 62.8686 50.2426 61.0103 50.4306C60.5472 50.4771 60.151 50.6452 59.8227 51.0146C59.1296 51.7944 59.0783 52.7175 59.1733 53.6701C59.4744 56.6895 59.7936 59.7072 60.1057 62.7249C60.5088 66.6149 60.9118 70.5048 61.3149 74.3948C61.5855 77.0097 61.8431 79.6256 62.1335 82.2376C62.2488 83.2783 62.4389 84.3107 62.5955 85.3492L63.8379 85.1619C63.8182 84.8904 63.8093 84.6498 63.7833 84.4097C63.4909 81.7312 63.1926 79.0536 62.9032 76.3747C62.396 71.6793 61.8917 66.9835 61.3894 62.2874C61.1931 60.4479 60.9977 58.6073 60.8145 56.7669C60.6098 54.7171 61.3807 52.3967 64.379 52.3841C65.1527 52.3808 65.9251 52.2421 66.7387 52.161C66.7619 51.4011 66.7842 50.6749 66.8083 49.9007ZM54.3985 103.958C56.1003 103.908 57.7251 110.716 59.3186 110.304C59.4249 110.277 59.5554 110.06 59.5499 109.936C59.536 109.582 59.4722 109.226 59.4004 108.877C59.3399 108.583 59.4055 108.447 59.7241 108.37C60.3058 108.229 60.8805 108.048 61.4433 107.843C62.1983 107.568 62.9403 107.255 63.7461 106.934L63.99 108.552C64.202 108.418 64.3443 108.314 64.4985 108.235C65.3 107.825 65.6518 107.255 65.3636 106.318C65.1783 105.714 64.9068 105.526 64.3571 105.885C62.8178 106.893 61.133 107.54 59.357 107.977C56.1036 108.779 52.8268 109.028 49.5215 108.349C48.7227 108.184 47.947 107.906 47.1167 107.667C47.2127 108.304 47.3024 108.926 47.4039 109.546C47.4181 109.633 47.4708 109.754 47.5392 109.784C48.1217 110.039 48.7115 110.275 49.4105 110.562L49.1663 108.943C50.8383 109.078 52.4765 109.211 54.1547 109.347L54.3977 103.959L54.3985 103.958ZM80.8079 107.321C80.7276 106.789 80.6842 106.353 80.5907 105.927C80.5158 105.585 80.662 105.486 80.9603 105.395C81.8426 105.124 82.7175 104.825 83.588 104.517C84.0218 104.363 84.4402 104.168 84.9428 103.959L85.1971 105.646C85.7097 105.249 86.136 104.931 86.5438 104.592C86.6266 104.522 86.6931 104.366 86.6791 104.259C86.6003 103.622 86.4956 102.988 86.3908 102.293C86.0054 102.573 85.6926 102.823 85.3573 103.039C83.6544 104.13 81.7752 104.765 79.8111 105.192C76.6481 105.88 73.4764 106.033 70.3081 105.295C69.6433 105.14 69.0786 105.286 68.3964 105.445C68.5249 105.934 68.5024 106.558 68.7981 106.812C69.2383 107.191 69.9034 107.309 70.473 107.538C70.5076 107.492 70.5423 107.446 70.5769 107.401L70.3654 105.998C71.8446 106.098 73.2784 106.232 74.7134 106.274C75.2467 106.29 75.3897 106.466 75.445 106.953C75.5642 107.999 75.5972 108.05 76.6548 107.934C78.0215 107.785 79.3765 107.538 80.8061 107.323L80.8079 107.321ZM74.0229 91.6463C68.5624 95.0129 62.8319 95.6611 56.7565 93.894C56.8377 94.4325 56.924 95.025 57.0199 95.614C57.0341 95.7019 57.0766 95.8292 57.1417 95.8578C57.6905 96.0971 58.2486 96.3177 58.9192 96.5922L58.6898 95.0706C60.2044 95.1632 61.6885 95.2483 63.1714 95.3589C63.2851 95.367 63.4506 95.5446 63.4795 95.6688C63.5743 96.0757 63.6162 96.4946 63.6866 96.9619C65.3933 96.9243 67.0292 96.7121 68.6858 96.268L68.4461 94.6781C69.8687 94.1609 71.2298 93.6651 72.639 93.1529L72.8745 94.7151C73.3578 94.3385 73.7682 94.0296 74.1636 93.7017C74.2365 93.6411 74.2935 93.5019 74.2815 93.4085C74.2042 92.8015 74.1061 92.1977 74.0226 91.6443L74.0229 91.6463ZM65.8386 109.609C60.1085 112.808 54.1092 106.521 47.7632 104.969C47.831 105.418 47.8963 105.878 47.9726 106.338C47.9908 106.445 48.0139 106.612 48.0823 106.642C48.6739 106.903 49.2768 107.138 50.0042 107.434L49.7895 106.009C51.3764 106.057 52.929 106.1 54.48 106.165C54.5819 106.168 54.7372 106.338 54.7617 106.454C54.8563 106.894 54.9068 107.343 54.9776 107.812C56.7679 107.778 58.4702 107.529 60.2016 107.117L59.9534 105.471C61.4379 104.955 62.8685 104.456 64.3414 103.943L64.5791 105.52C65.0985 105.141 65.5412 104.824 65.9735 104.493C66.0372 104.445 66.089 104.324 66.0792 104.246C66.0075 103.69 65.918 110.136 65.8384 109.608L65.8386 109.609ZM87.0326 106.55C84.3082 108.366 81.3353 109.18 78.2345 109.581C75.1288 109.984 72.041 109.921 68.972 108.934C69.0581 109.505 69.1245 109.986 69.2078 110.464C69.225 110.565 69.2859 103.707 69.3648 103.739C69.9243 103.976 70.4936 104.19 71.1934 104.463L70.9744 110.011C72.6538 110.101 74.2678 110.187 75.936 110.277C75.9915 110.645 76.0691 104.059 76.1116 104.476C76.1424 104.781 76.2579 104.895 76.579 104.854C77.6735 104.714 78.7715 104.61 79.8655 104.468C80.3584 104.404 80.8444 104.28 81.3864 104.172C81.3147 103.696 81.2672 110.28 81.1852 109.871C81.1233 109.561 81.1947 109.43 81.5255 109.325C82.6994 108.953 83.8565 108.529 85.019 108.121C85.1663 108.07 85.3061 107.996 85.5115 107.906L85.7627 109.572C86.2999 109.177 86.7534 108.852 87.1956 108.512C87.2565 108.465 87.2955 108.341 87.2844 108.261C87.2136 107.717 87.1271 107.177 87.0326 106.55ZM59.2397 98.8929C60.8531 98.9817 62.4152 99.0672 64.0193 99.1554C64.0758 99.5296 64.145 99.9282 64.1932 100.329C64.2237 100.585 64.3182 100.701 64.6002 100.663C65.9978 100.47 67.3987 100.292 68.7966 100.102C68.9327 100.083 69.0608 100.012 69.2395 99.9479L69.0088 98.4174C70.4305 97.9206 71.7887 97.4465 73.1892 96.9569L73.4169 98.4676C73.926 98.0942 74.3533 97.7898 74.768 97.4691C74.8287 97.4215 74.8686 97.296 74.8573 97.2147C74.7896 96.6913 74.706 96.1704 74.632 95.6793C69.143 98.7363 63.4098 99.4205 57.3673 97.9521C57.4361 98.4085 57.4949 98.8593 57.5772 99.3045C57.5984 99.4177 57.6696 99.5741 57.7604 99.612C58.2826 99.836 58.8175 100.031 59.448 100.274L59.2396 98.8919L59.2397 98.8929ZM65.1123 109.056C65.6271 108.681 66.0702 108.367 66.4983 108.034C66.5699 107.978 66.616 107.833 66.6054 107.737C66.56 107.327 66.4897 106.922 66.4189 106.452C63.6795 108.209 60.7091 109.012 57.6103 109.406C54.5005 109.802 51.4145 109.731 48.3356 108.766C48.3775 109.044 48.3992 109.235 48.4368 109.424C48.4858 109.674 48.4688 110.073 48.6149 110.148C49.1852 110.443 49.809 110.635 50.5261 110.909L50.3642 109.835C52.0299 109.935 53.6559 110.034 55.3441 110.136L55.5447 111.466C57.2131 111.215 58.8269 110.978 60.4369 110.715C60.5348 110.699 60.6703 110.475 60.6668 110.351C60.6562 110.018 60.58 109.688 60.5408 109.428C62.0455 108.911 63.4732 108.42 64.9413 107.916L65.1129 109.054L65.1123 109.056ZM87.6398 110.564C81.8839 113.706 75.8936 107.419 69.5685 105.883C69.6262 106.267 69.682 106.663 69.7496 107.058C69.761 107.127 69.8122 107.225 69.8692 107.246C70.4442 107.472 71.0244 107.684 71.6687 107.925C71.6233 107.476 71.5901 107.148 71.5658 106.913C73.1682 106.97 74.72 107.02 76.2703 107.094C76.3704 107.1 76.5153 107.274 76.5455 107.394C76.6263 107.715 76.6554 108.049 76.706 108.385C78.5151 108.334 80.2119 108.129 81.928 107.683L81.7451 106.471C83.2254 105.959 84.646 105.468 86.1253 104.958L86.2988 106.108C86.8197 105.726 87.2555 105.424 87.6676 105.093C87.7589 105.019 87.8157 104.839 87.8051 104.715C87.7713 104.329 87.6985 110.947 87.6408 110.564L87.6398 110.564ZM75.1477 99.4632C69.6779 102.425 63.9649 103.109 57.9253 101.654C57.9719 101.963 58.014 102.295 58.0756 102.623C58.0973 102.74 58.14 102.916 58.2222 102.95C58.763 103.178 59.3174 103.374 59.9306 103.603C59.8874 103.175 59.8564 102.862 59.8307 102.605C61.1645 102.674 62.4568 102.75 63.7499 102.806C64.5515 102.84 64.5672 102.823 64.6865 103.641C64.7344 103.972 64.8586 104.07 65.1903 104.032C65.9962 103.941 66.8117 103.919 67.6135 103.808C68.3142 103.71 69.0022 103.528 69.7428 103.373L69.5665 102.204C70.9975 101.709 72.368 101.235 73.7624 100.752L73.91 101.731C75.2266 101.317 75.5834 100.633 75.1464 99.4614L75.1477 99.4632ZM47.3294 103.473C46.4942 104.157 46.4501 104.933 47.3038 105.501C47.8995 105.897 48.589 106.189 49.2745 106.407C50.77 106.885 52.3292 106.97 53.8858 106.905C55.076 106.855 56.262 106.711 57.4503 106.608C56.0162 106.512 54.5916 106.492 53.1711 106.418C51.6485 106.34 50.135 106.18 48.6825 105.666C47.5951 105.283 47.2435 104.744 47.349 103.61C47.3528 103.568 47.3372 103.524 47.3291 103.471L47.3294 103.473ZM66.6136 92.7461C65.3564 92.7139 64.0976 92.6981 62.8412 92.6446C61.3676 92.5822 59.8985 92.4615 58.4859 91.9971C57.1384 91.5543 56.8899 91.1969 56.9044 89.8278C56.1389 90.4424 56.1112 91.1796 56.8742 91.751C57.2202 92.0097 57.6173 92.2242 58.0235 92.3715C60.8406 93.3947 63.7179 93.1837 66.6135 92.7451L66.6136 92.7461ZM85.8013 100.016C86.0635 99.4497 85.9225 99.0122 85.277 98.575C83.8292 97.5945 82.1628 97.4022 80.478 97.3029C80.5855 97.3707 80.7045 97.3943 80.821 97.4273C82.0171 97.7664 83.2248 98.0683 84.4026 98.4608C85.113 98.6969 85.6504 99.19 85.8021 100.015L85.8013 100.016ZM73.4608 89.3831C73.6712 88.8967 73.5859 88.5259 73.288 88.2772C72.908 87.9608 72.4876 87.6658 72.0382 87.4673C70.9386 86.982 69.7664 86.7882 68.5646 86.781C68.7545 86.8709 68.9585 86.8998 69.1537 86.9585C70.1872 87.2674 71.2332 87.5451 72.2462 87.9128C72.855 88.1339 73.298 88.5986 73.4608 89.3831ZM102.596 105.375C102.755 104.958 102.811 104.516 103.058 104.254C103.301 103.995 103.738 103.918 104.109 103.754C103.823 103.399 103.429 103.324 102.999 103.447C102.536 103.58 102.254 103.909 102.197 104.388C102.148 104.808 102.254 105.18 102.596 105.376L102.596 105.375ZM78.5412 103.678L78.5318 103.569C77.4866 103.551 76.4405 103.549 75.3954 103.512C74.3534 103.476 74.2767 103.478 73.7238 104.032C75.3293 103.914 76.9358 103.796 78.5412 103.678ZM105.493 108.104C105.306 106.942 105.4 106.785 106.58 106.212C106.207 105.914 105.822 105.942 105.445 106.136C105.035 106.348 104.825 106.709 104.847 107.17C104.866 107.571 105.009 107.916 105.493 108.104ZM101.622 101.187C101.271 100.851 100.894 100.8 100.491 100.939C100.032 101.096 99.7684 101.436 99.7387 101.919C99.7141 102.313 99.808 102.674 100.231 102.89C100.211 101.69 100.384 101.477 101.622 101.188L101.622 101.187Z" fill="#08203C"/>
      <path d="M91.9729 75.6209C92.0657 76.8078 92.1515 77.8944 92.2401 79.0201C91.2065 78.5694 90.0749 78.3087 88.8877 78.4654C89.349 77.4451 89.8064 76.4335 90.3217 75.2948C89.8363 75.368 89.5368 75.4313 89.2344 75.4557C88.0091 75.5543 86.7465 74.7474 86.3177 73.6031C85.9824 72.71 86.1158 71.9083 86.8583 71.3154C88.0089 70.3978 89.2064 69.5368 90.4123 68.6908C90.9805 68.2923 91.6172 67.9928 92.211 67.6299C92.4503 67.4835 92.5997 67.5065 92.7853 67.7226C94.1575 69.324 95.4664 70.9623 96.5076 72.8141C97.3852 74.3747 96.3152 75.7459 95.1682 76.1355C94.2015 76.4645 93.2859 76.3595 92.41 75.8456C92.3144 75.7892 92.2133 75.7437 91.9738 75.6208L91.9729 75.6209Z" fill="#08203C"/>
      <path d="M80.2185 54.5148C80.2211 54.8475 80.2234 55.1519 80.2251 55.4656C79.9072 55.4203 79.5946 55.3763 79.2436 55.327C79.3596 55.0412 79.4814 54.7403 79.6209 54.3953C79.4349 54.3981 79.263 54.4543 79.1656 54.3931C78.8802 54.2134 78.5248 54.0341 78.3924 53.7604C78.307 53.584 78.4911 53.1583 78.6837 52.9906C79.1178 52.6102 79.6231 52.3062 80.12 52.0065C80.2148 51.9497 80.468 52.0027 80.5445 52.0934C80.8867 52.5015 81.1993 52.9353 81.5053 53.3721C81.7198 53.679 81.8437 54.0238 81.5704 54.3545C81.2928 54.691 80.9187 54.7505 80.5115 54.6164C80.422 54.5874 80.334 54.5551 80.2185 54.5148Z" fill="#08203C"/>
      <path d="M95.3235 106.694C95.4102 107.317 94.9681 107.899 94.3458 107.979C93.7215 108.059 93.1495 107.611 93.0743 106.985C93.0006 106.375 93.4229 105.823 94.0312 105.731C94.6583 105.636 95.2361 106.068 95.3235 106.694Z" fill="#08203C"/>
      <path d="M92.6254 98.6355C91.9967 98.7262 91.4218 98.2935 91.3385 97.6672C91.2544 97.042 91.6978 96.4679 92.3233 96.3898C92.9311 96.3143 93.4892 96.7365 93.5832 97.3399C93.6809 97.9681 93.2542 98.5447 92.6254 98.6355Z" fill="#08203C"/>
      <path d="M95.8855 103.662C95.9911 104.282 95.5672 104.872 94.944 104.972C94.3384 105.068 93.7682 104.667 93.6541 104.064C93.5357 103.44 93.9418 102.848 94.5653 102.735C95.1858 102.624 95.7795 103.04 95.8855 103.662Z" fill="#08203C"/>
      <path d="M91.2704 104.927C90.643 105.014 90.0705 104.576 89.9909 103.947C89.9141 103.337 90.3314 102.778 90.9351 102.683C91.5587 102.585 92.1431 103.013 92.2379 103.636C92.3317 104.258 91.8946 104.84 91.2704 104.927Z" fill="#08203C"/>
      <path d="M103.726 95.427C103.103 95.5351 102.514 95.1146 102.413 94.492C102.315 93.8862 102.713 93.3148 103.315 93.1987C103.939 93.0772 104.532 93.4809 104.647 94.1046C104.762 94.7281 104.35 95.3187 103.726 95.427Z" fill="#08203C"/>
      <path d="M100.323 95.2223C100.419 95.8447 99.987 96.4272 99.3622 96.5173C98.7345 96.6079 98.1645 96.1744 98.0795 95.5433C97.9979 94.935 98.4138 94.3731 99.0159 94.2742C99.6381 94.1734 100.227 94.5999 100.323 95.2213L100.323 95.2223Z" fill="#08203C"/>
      <path d="M95.8103 101.775C95.1842 101.856 94.6133 101.41 94.5411 100.783C94.4701 100.171 94.8915 99.6191 95.4992 99.5296C96.1246 99.4373 96.7058 99.8711 96.7907 100.495C96.8763 101.123 96.4394 101.693 95.8103 101.775Z" fill="#08203C"/>
      <path d="M95.9294 91.8386C96.5506 91.7318 97.1423 92.1549 97.2403 92.778C97.3383 93.4011 96.9089 93.9873 96.2866 94.0801C95.6821 94.1702 95.1127 93.7609 95.0029 93.1599C94.89 92.539 95.3063 91.9467 95.9285 91.8398L95.9294 91.8386Z" fill="#08203C"/>
      <path d="M101.998 91.5759C102.102 92.2012 101.679 92.7883 101.057 92.8842C100.437 92.9807 99.8471 92.5441 99.7588 91.9247C99.6721 91.3161 100.079 90.7536 100.684 90.6462C101.31 90.5355 101.895 90.9475 101.998 91.5749L101.998 91.5759Z" fill="#08203C"/>
      <path d="M91.9901 101.753C91.3661 101.855 90.7832 101.429 90.6879 100.804C90.5964 100.197 91.0002 99.6289 91.6015 99.518C92.2207 99.4044 92.8196 99.8214 92.9251 100.44C93.0324 101.065 92.6142 101.652 91.9891 101.753L91.9901 101.753Z" fill="#08203C"/>
      <path d="M114.19 98.6732C114.819 98.5834 115.392 99.0165 115.475 99.6448C115.56 100.27 115.115 100.843 114.487 100.92C113.879 100.993 113.322 100.573 113.228 99.9674C113.131 99.3432 113.561 98.7639 114.189 98.6743L114.19 98.6732Z" fill="#08203C"/>
      <path d="M116.927 98.4874C116.304 98.5853 115.72 98.1539 115.63 97.5286C115.541 96.9193 115.948 96.3568 116.553 96.2504C117.178 96.141 117.767 96.5554 117.871 97.1786C117.975 97.8008 117.55 98.3893 116.927 98.4872L116.927 98.4874Z" fill="#08203C"/>
      <path d="M110.613 90.4461C111.211 90.3671 111.752 90.7837 111.824 91.3784C111.895 91.9741 111.469 92.5142 110.875 92.5795C110.302 92.6426 109.769 92.2329 109.689 91.6659C109.604 91.0741 110.021 90.5243 110.613 90.4461Z" fill="#08203C"/>
      <path d="M81.8794 51.0649C81.5275 51.0896 81.1894 51.0981 81.1701 50.5674C81.1665 50.4626 80.9972 50.2938 80.8841 50.2764C80.4598 50.2108 79.9612 49.9346 79.7351 50.6329C79.7048 50.7276 79.3208 50.7075 78.9641 50.7613C79.5142 49.6851 79.9783 48.7444 80.4865 47.8274C80.5416 47.729 80.8594 47.7398 81.0474 47.7641C81.1776 47.7809 81.3849 47.8924 81.4016 47.9891C81.5784 49.0074 81.7235 50.0304 81.8794 51.0649ZM80.2709 49.6095C80.5685 49.6547 80.7862 49.6877 81.0382 49.7257L80.8359 48.3842C80.6221 48.8478 80.4625 49.1938 80.2709 49.6095Z" fill="#08203C"/>
      <path d="M107.646 87.5202C107.028 87.4809 106.416 87.4313 105.805 87.4059C104.813 87.3661 103.825 87.3471 102.914 87.8581C102.797 87.9233 102.609 87.8675 102.454 87.8596C101.973 87.8359 101.473 87.7088 101.014 87.7992C99.49 88.0999 97.9759 88.4608 96.4675 88.8329C95.257 89.1309 94.0476 89.4428 92.8572 89.8136C90.8802 90.4306 89.6449 91.7539 89.2352 93.8082C88.9408 95.2832 88.6466 96.7592 88.3501 98.2336C88.319 98.3901 88.2721 98.543 88.2173 98.7578C87.0934 97.3852 85.6944 96.527 84.0498 96.049C82.3659 95.5596 80.6429 95.4083 78.8989 95.4404C78.0581 95.4558 77.2172 95.5097 76.3282 95.5475L76.2486 95.0199C75.934 92.933 75.5826 90.8506 75.3217 88.7577C75.2072 87.8364 74.7711 87.162 74.0617 86.6705C73.4157 86.2232 72.691 85.892 71.9446 85.4781C72.1334 84.3308 72.3346 83.1047 72.5389 81.8792C74.3787 70.8553 76.2186 59.8314 78.0647 48.8086C78.1713 48.1718 78.2644 47.5189 78.4894 46.9211C78.6701 46.4392 78.9889 45.9801 79.342 45.5998C79.7308 45.1817 80.2658 45.0738 80.8593 45.1797C84.6984 45.8645 88.5412 46.5335 92.3839 47.2016C98.3148 48.2322 104.247 49.2546 110.177 50.2883C110.638 50.3686 111.092 50.4996 111.541 50.6354C112.882 51.0407 113.587 52.1362 113.358 53.5104C112.195 60.4815 111.019 67.4516 109.851 74.4224C109.133 78.7133 108.423 83.0059 107.708 87.2973C107.698 87.3585 107.676 87.4176 107.648 87.5211L107.646 87.5202ZM91.973 75.6213C92.2124 75.7441 92.3147 75.7905 92.4092 75.8461C93.2851 76.36 94.2005 76.464 95.1674 76.136C96.3154 75.7462 97.3844 74.3751 96.5067 72.8146C95.4657 70.9638 94.1567 69.3245 92.7845 67.723C92.5989 67.507 92.4495 67.484 92.2102 67.6304C91.6164 67.9933 90.9785 68.292 90.4115 68.6913C89.2066 69.5372 88.008 70.3982 86.8575 71.3159C86.1149 71.9078 85.9816 72.7105 86.3168 73.6036C86.7467 74.7477 88.0083 75.5548 89.2336 75.4561C89.5359 75.4318 89.8354 75.3684 90.3209 75.2952C89.8057 76.435 89.3481 77.4456 88.8869 78.4659C90.0741 78.3092 91.2057 78.5699 92.2393 79.0205C92.1506 77.8949 92.0658 76.8081 91.972 75.6214L91.973 75.6213ZM80.2171 54.5165C80.3326 54.5568 80.4206 54.5891 80.51 54.6181C80.9183 54.752 81.2914 54.6927 81.5689 54.3562C81.8421 54.0244 81.7182 53.6796 81.5039 53.3738C81.1979 52.9369 80.8853 52.5031 80.5431 52.0951C80.4677 52.0052 80.2134 51.9514 80.1186 52.0082C79.6207 52.308 79.1163 52.6119 78.6822 52.9922C78.4907 53.1598 78.3056 53.5856 78.391 53.7621C78.5234 54.0357 78.8787 54.215 79.1642 54.3947C79.2616 54.456 79.4336 54.4007 79.6195 54.397C79.479 54.7421 79.3572 55.043 79.2422 55.3286C79.5931 55.378 79.9048 55.4221 80.2236 55.4672C80.2208 55.1528 80.2186 54.8493 80.2171 54.5165ZM81.8794 51.0654C81.7234 50.0309 81.5781 49.0069 81.4015 47.9896C81.3849 47.8929 81.1776 47.7814 81.0473 47.7646C80.8603 47.7401 80.5415 47.7295 80.4864 47.8279C79.9781 48.7439 79.5141 49.6856 78.964 50.7617C79.3207 50.708 79.7037 50.7282 79.735 50.6334C79.9612 49.9361 80.4608 50.2121 80.884 50.2769C80.9961 50.2944 81.1654 50.4633 81.1701 50.5679C81.1893 51.0986 81.5274 51.0901 81.8794 51.0654Z" fill="url(#paint2_linear_134_4202)"/>
      <path d="M95.8123 110.863C95.2562 110.461 94.7627 110.172 94.3502 109.794C92.8568 108.424 91.4049 107.007 89.9079 105.64C89.1265 104.926 89.0103 104.048 89.1792 103.105C89.5735 100.908 90.0084 98.7184 90.4318 96.5263C90.582 95.7483 90.7511 94.9746 90.9025 94.1975C91.204 92.6556 92.0205 91.6465 93.6324 91.2891C95.5141 90.8728 97.3737 90.3505 99.2423 89.8744C99.3526 89.8466 99.4659 89.8315 99.5735 89.7991C101.434 89.2513 102.93 89.8307 104.314 91.1307C105.729 92.4614 107.281 93.6479 108.76 94.9134C108.919 95.0503 109.119 95.3533 109.065 95.4779C108.971 95.6934 108.719 95.9157 108.489 95.9838C107.371 96.3144 106.239 96.6025 105.109 96.8893C103.6 97.2727 102.085 97.6277 100.579 98.0208C99.7006 98.2504 98.8499 98.166 98.0756 97.7482C97.1788 97.2637 96.327 96.6946 95.4752 96.1325C94.719 95.6329 93.9899 95.0918 93.1889 94.6314C93.7743 95.2407 94.3516 95.8574 94.9457 96.4583C95.9617 97.4847 96.9963 98.4931 97.7073 99.775C97.9231 100.165 97.9731 100.543 97.8726 100.985C97.286 103.574 96.7183 106.166 96.16 108.76C96.0211 109.405 95.9408 110.062 95.81 110.861L95.8123 110.863ZM95.3237 106.694C95.2363 106.068 94.6587 105.637 94.0314 105.731C93.4231 105.823 93.0018 106.375 93.0745 106.985C93.1497 107.611 93.7227 108.058 94.346 107.979C94.9683 107.899 95.4115 107.317 95.3237 106.694ZM92.6242 98.6348C93.2529 98.5441 93.6797 97.9674 93.582 97.3392C93.4878 96.7348 92.9299 96.3137 92.3221 96.3891C91.6964 96.4662 91.253 97.0403 91.3373 97.6665C91.4216 98.2927 91.9965 98.7254 92.6242 98.6348ZM95.8849 103.662C95.779 103.04 95.1862 102.624 94.5647 102.735C93.9413 102.848 93.5351 103.44 93.6536 104.065C93.7677 104.667 94.3378 105.068 94.9434 104.972C95.5667 104.872 95.9905 104.282 95.8849 103.662ZM91.2697 104.927C91.8939 104.84 92.331 104.258 92.2373 103.636C92.1434 103.013 91.559 102.585 90.9345 102.683C90.3307 102.778 89.9125 103.338 89.9902 103.948C90.0698 104.576 90.6415 105.015 91.2697 104.927ZM103.725 95.4273C104.349 95.3191 104.761 94.7285 104.645 94.105C104.53 93.4805 103.938 93.0776 103.314 93.199C102.712 93.3162 102.313 93.8865 102.412 94.4924C102.513 95.116 103.102 95.5354 103.725 95.4273ZM100.322 95.2225C100.226 94.6011 99.6372 94.1736 99.0152 94.2754C98.4119 94.3735 97.9972 94.9362 98.0788 95.5445C98.1628 96.1758 98.7337 96.6091 99.3615 96.5185C99.9862 96.4284 100.418 95.8459 100.322 95.2235L100.322 95.2225ZM95.8091 101.775C96.4382 101.694 96.8751 101.124 96.7896 100.496C96.7047 99.8725 96.1234 99.4377 95.498 99.53C94.8904 99.6195 94.4699 100.171 94.5399 100.783C94.6123 101.411 95.1832 101.858 95.8091 101.775ZM95.9293 91.8389C95.3061 91.946 94.8899 92.5393 95.0036 93.159C95.1136 93.7611 95.6828 94.1693 96.2873 94.0792C96.9098 93.9874 97.339 93.4002 97.241 92.7771C97.1432 92.155 96.5515 91.7319 95.9301 91.8378L95.9293 91.8389ZM101.999 91.5759C101.895 90.9486 101.311 90.5355 100.684 90.6472C100.079 90.7546 99.6726 91.3171 99.7593 91.9257C99.8476 92.5452 100.438 92.9816 101.057 92.8853C101.68 92.7883 102.101 92.2024 101.999 91.5769L101.999 91.5759ZM91.99 101.754C92.6149 101.651 93.0331 101.065 92.9259 100.441C92.8195 99.8224 92.2216 99.4053 91.6024 99.5189C91 99.6299 90.5963 100.198 90.6888 100.805C90.7832 101.431 91.366 101.856 91.991 101.754L91.99 101.754Z" fill="#D9E0E8"/>
      <path d="M113.435 92.0285C112.693 92.9251 111.949 93.8228 111.198 94.73C110.216 93.8959 109.249 93.0737 108.281 92.2527C108.94 91.4587 108.978 90.8193 108.412 90.376C107.863 89.9445 107.243 90.1078 106.645 90.8825C105.932 90.2902 105.221 89.6989 104.51 89.1073C104.519 89.0706 104.528 89.0348 104.537 88.9991C105.046 89.0074 105.557 88.986 106.063 89.0282C108.663 89.2447 111.262 89.4674 113.86 89.7096C115.279 89.841 116.261 90.5251 116.742 91.9339C117.427 93.9396 118.195 95.9177 118.919 97.9105C119.388 99.2025 119.151 100.365 118.358 101.49C117.181 103.161 116.081 104.885 114.935 106.578C114.822 106.746 114.561 106.987 114.454 106.95C114.229 106.871 113.965 106.668 113.88 106.452C113.077 104.402 112.302 102.341 111.54 100.276C111.458 100.053 111.474 99.779 111.497 99.5326C111.591 98.507 111.883 97.4596 111.757 96.4641C111.645 95.5718 111.952 94.9452 112.335 94.2629C112.737 93.5431 113.134 92.8201 113.533 92.0988L113.435 92.0305L113.435 92.0285ZM114.19 98.673C113.562 98.7626 113.132 99.3418 113.229 99.966C113.323 100.571 113.879 100.992 114.488 100.918C115.116 100.842 115.56 100.269 115.477 99.6434C115.393 99.0151 114.82 98.5821 114.191 98.6718L114.19 98.673ZM116.927 98.4873C117.549 98.3893 117.974 97.8008 117.87 97.1786C117.766 96.5554 117.177 96.1411 116.552 96.2505C115.947 96.3569 115.54 96.9203 115.629 97.5286C115.72 98.1538 116.304 98.5852 116.926 98.4874L116.927 98.4873ZM110.614 90.4461C110.022 90.5252 109.605 91.075 109.689 91.6658C109.769 92.2328 110.302 92.6425 110.875 92.5794C111.469 92.5132 111.896 91.9729 111.824 91.3783C111.753 90.7836 111.21 90.3662 110.614 90.4461Z" fill="#D9E0E8"/>
      <path d="M57.6051 55.8894C57.6544 56.4115 57.6986 56.8929 57.7495 57.4319C57.1244 57.594 56.5023 57.7556 55.8802 57.9172C55.535 58.0068 55.1916 58.1081 54.8436 58.1859C53.0265 58.5935 52.3008 60.3998 52.4991 61.6416C52.6779 62.7598 52.9333 63.8695 53.2125 64.9684C53.9476 67.8617 54.7157 70.7458 55.4665 73.6357C56.4626 77.4666 57.4548 81.2991 58.448 85.1315C58.5617 85.57 58.6706 86.0102 58.7899 86.4853C58.139 86.8254 57.4899 87.1642 56.8024 87.524C56.3103 85.631 55.8264 83.765 55.3416 81.9002C54.2725 77.7867 53.2015 73.6734 52.1333 69.5587C51.4158 66.7955 50.6953 64.0327 49.9924 61.2652C49.8685 60.7797 49.7897 60.2772 49.7509 59.7779C49.6556 58.5479 50.2962 57.7021 51.4875 57.405C53.2834 56.9571 55.0768 56.4994 56.872 56.0475C57.1063 55.9889 57.3439 55.945 57.6049 55.8884L57.6051 55.8894Z" fill="#D9E0E8"/>
      <path d="M55.6458 98.4468C55.2958 98.6048 55.1178 98.5061 54.9747 98.1551C51.788 90.325 48.589 82.5009 45.3938 74.6751C44.3755 72.182 43.3505 69.6909 42.3523 67.1897C42.1619 66.7132 42.0326 66.1981 41.9629 65.6892C41.8267 64.6851 42.292 63.8525 43.2212 63.4634C44.8235 62.7935 46.4457 62.1683 48.0593 61.5261C48.1014 61.5096 48.1512 61.5112 48.2563 61.4954C48.3807 61.9444 48.5255 62.3873 48.6101 62.8413C48.628 62.9398 48.4542 63.1311 48.3263 63.1899C47.7957 63.4339 47.2391 63.62 46.7102 63.8689C45.2851 64.5383 44.5106 65.9065 44.7143 67.4725C44.7933 68.0772 44.9446 68.6912 45.1746 69.2559C48.3269 77.0122 51.5004 84.7612 54.6642 92.5138C54.7558 92.7379 54.8378 92.9726 54.8746 93.21C55.1361 94.8776 55.3838 96.5473 55.6356 98.2175C55.6474 98.2957 55.6422 98.3754 55.645 98.4479L55.6458 98.4468Z" fill="#D9E0E8"/>
      <path d="M68.9925 85.0176C68.5462 84.9937 68.1315 84.9722 67.6688 84.9478C67.6879 83.9719 67.7025 83.02 67.7242 82.069C67.8251 77.7913 67.9259 73.5135 68.0309 69.2361C68.1162 65.7697 68.2118 62.3037 68.2981 58.8371C68.3655 56.1317 68.4145 53.426 68.496 50.7205C68.5251 49.7705 68.6435 48.8151 69.4906 48.1902C69.7614 47.9904 70.1274 47.8036 70.4489 47.8058C72.4408 47.8184 74.4321 47.8867 76.4866 47.9384C76.3835 48.5382 76.2903 49.0828 76.1914 49.6566C75.3577 49.6243 74.562 49.6359 73.7757 49.555C71.4384 49.3151 70.2149 50.9849 70.0708 52.6306C69.9103 54.4692 69.8743 56.3204 69.8172 58.1666C69.6047 65.0238 69.4042 71.8802 69.201 78.7381C69.1437 80.6836 69.0935 82.6291 69.0382 84.5743C69.0343 84.7166 69.0089 84.8571 68.9915 85.0177L68.9925 85.0176Z" fill="#D9E0E8"/>
      <path d="M66.8083 49.901C66.7844 50.6761 66.762 51.4014 66.7387 52.1612C65.9252 52.2423 65.1527 52.3811 64.3791 52.3843C61.3817 52.3968 60.6099 54.7173 60.8145 56.7671C60.9979 58.6085 61.1932 60.4481 61.3894 62.2876C61.8917 66.9837 62.396 71.6795 62.9033 76.3749C63.1926 79.0539 63.4909 81.7315 63.7833 84.41C63.8092 84.6491 63.8183 84.8907 63.8379 85.1621L62.5955 85.3494C62.4388 84.3099 62.2487 83.2775 62.1335 82.2378C61.8431 79.6259 61.5855 77.01 61.3149 74.395C60.9119 70.505 60.5088 66.6151 60.1057 62.7251C59.7937 59.7074 59.4745 56.6897 59.1733 53.6703C59.0782 52.7167 59.1295 51.7937 59.8227 51.0149C60.151 50.6454 60.5472 50.4774 61.0103 50.4308C62.8688 50.2438 64.7275 50.0648 66.5869 49.8837C66.6478 49.8776 66.7119 49.8932 66.8083 49.901Z" fill="#D9E0E8"/>
      <path d="M54.3982 110.958L54.1552 109.346C52.477 109.21 50.8389 109.078 49.1668 108.942L49.411 110.562C48.7121 110.274 48.1222 110.038 47.5397 109.784C47.4714 109.753 47.4186 109.632 47.4044 109.545C47.3029 108.925 47.2133 108.304 47.1172 107.666C47.9475 107.905 48.7232 108.184 49.522 108.348C52.8273 109.027 56.1032 108.778 59.3575 107.977C61.1336 107.539 62.8193 106.892 64.3576 105.884C64.9072 105.524 65.1788 105.713 65.3641 106.317C65.6524 107.254 65.2995 107.824 64.4991 108.234C64.3448 108.313 64.2025 108.418 63.9905 108.551L63.7466 106.933C62.9397 107.253 62.1988 107.567 61.4438 107.842C60.8808 108.047 60.3064 108.228 59.7246 108.369C59.405 108.446 59.3394 108.583 59.4009 108.876C59.4729 109.226 59.5365 109.581 59.5504 109.935C59.5559 110.059 59.4255 110.276 59.3191 110.303C57.7258 110.716 56.1008 110.907 54.399 110.957L54.3982 110.958Z" fill="#F9C626"/>
      <path d="M80.8084 107.32C79.3788 107.536 78.0238 107.783 76.6571 107.932C75.5995 108.048 75.5666 107.997 75.4473 106.951C75.392 106.463 75.249 106.287 74.7157 106.271C73.2797 106.23 71.8471 106.096 70.3677 105.995L70.5792 107.398C70.5446 107.444 70.5099 107.49 70.4753 107.535C69.9058 107.306 69.2404 107.188 68.8004 106.81C68.5047 106.556 68.5262 105.932 68.3988 105.443C69.0809 105.283 69.6456 105.137 70.3104 105.292C73.4787 106.031 76.6505 105.879 79.8135 105.19C81.7777 104.763 83.6567 104.128 85.3596 103.037C85.6951 102.822 86.0067 102.571 86.3931 102.291C86.4979 102.986 86.6026 103.62 86.6815 104.257C86.6945 104.363 86.6289 104.52 86.5461 104.589C86.1384 104.929 85.711 105.247 85.1994 105.644L84.9451 103.957C84.4425 104.165 84.0242 104.361 83.5903 104.514C82.7197 104.822 81.8457 105.121 80.9626 105.392C80.6643 105.484 80.5181 105.583 80.593 105.925C80.6854 106.35 80.7298 106.785 80.8102 107.319L80.8084 107.32Z" fill="#F9C626"/>
      <path d="M74.0236 91.6452C74.107 92.1986 74.2052 92.8025 74.2825 93.4094C74.2945 93.5028 74.2375 93.642 74.1646 93.7026C73.7692 94.0305 73.3588 94.3395 72.8755 94.7161L72.64 93.1539C71.2317 93.6659 69.8697 94.1618 68.447 94.679L68.6867 96.2689C67.0311 96.7129 65.3942 96.9243 63.6876 96.9629C63.6173 96.4966 63.5753 96.0767 63.4805 95.6697C63.4515 95.5445 63.286 95.368 63.1723 95.3598C61.6895 95.2492 60.2054 95.1642 58.6908 95.0716L58.9202 96.5932C58.2488 96.3198 57.6916 96.099 57.1427 95.8588C57.0776 95.8301 57.0351 95.7029 57.0208 95.6149C56.9248 95.0249 56.8387 94.4335 56.7575 93.8949C62.8337 95.6609 68.5642 95.0127 74.0239 91.6472L74.0236 91.6452Z" fill="#F9C626"/>
      <path d="M65.8396 109.609C65.9192 110.136 66.0087 110.69 66.0804 111.246C66.0902 111.324 66.0384 111.445 65.9747 111.493C65.5422 111.823 65.0996 112.14 64.5803 112.52L64.3426 110.943C62.8706 111.455 61.439 111.954 59.9546 112.471L60.2028 114.118C58.4714 114.529 56.7691 114.778 54.9788 114.812C54.908 114.343 54.8566 113.894 54.7629 113.454C54.7384 113.339 54.5822 113.17 54.4812 113.165C52.9302 113.1 51.3776 113.058 49.7907 113.009L50.0054 114.434C49.278 114.139 48.6751 113.903 48.0835 113.642C48.0151 113.612 47.9921 113.445 47.9738 113.338C47.8985 112.878 47.8322 112.419 47.7644 111.969C54.1104 113.521 60.1088 112.808 65.8398 109.61L65.8396 109.609Z" fill="#F9C626"/>
      <path d="M87.0333 106.549C87.1276 107.175 87.2142 107.716 87.2851 108.26C87.2952 108.34 87.2562 108.465 87.1963 108.511C86.7542 108.851 86.3008 109.178 85.7634 109.572L85.5122 107.905C85.307 107.996 85.167 108.069 85.0197 108.12C83.8573 108.528 82.7001 108.952 81.5262 109.324C81.1954 109.429 81.124 109.56 81.1859 109.87C81.2678 110.279 81.3155 110.696 81.3871 111.171C80.8451 111.279 80.3592 111.403 79.8663 111.467C78.7722 111.61 77.6744 111.714 76.5797 111.853C76.2587 111.894 76.1432 111.78 76.1124 111.475C76.0698 111.058 75.9922 110.645 75.9367 110.276C74.2686 110.187 72.6545 110.1 70.9752 110.01L71.1941 111.462C70.4943 111.189 69.9251 110.975 69.3655 110.739C69.2865 110.705 69.2268 110.564 69.2086 110.464C69.1243 109.985 69.0587 109.503 68.9727 108.933C72.0427 109.92 75.1303 109.982 78.2353 109.581C81.3361 109.179 84.309 108.366 87.0333 106.549Z" fill="#F9C626"/>
      <path d="M59.2402 98.892L59.4486 100.274C58.8181 100.031 58.2832 99.8362 57.761 99.6122C57.671 99.5731 57.5988 99.4169 57.5779 99.3046C57.4954 98.8584 57.4367 98.4086 57.3679 97.9522C63.4104 99.4206 69.1436 98.7365 74.6326 95.6795C74.7066 96.1705 74.7912 96.6913 74.858 97.2149C74.8682 97.2963 74.8295 97.4227 74.7686 97.4693C74.3539 97.79 73.9266 98.0944 73.4175 98.4678L73.1898 96.9571C71.7893 97.4466 70.4311 97.9207 69.0094 98.4175L69.2401 99.9481C69.0612 100.011 68.9333 100.083 68.7972 100.102C67.3993 100.292 65.9984 100.47 64.6008 100.663C64.3188 100.701 64.2244 100.586 64.1938 100.329C64.1466 99.9283 64.0764 99.5298 64.0199 99.1556C62.4158 99.0673 60.8547 98.9817 59.2404 98.893L59.2402 98.892Z" fill="#F9C626"/>
      <path d="M75.1485 99.4611C75.5856 100.634 75.2288 101.318 73.9121 101.731L73.7645 100.752C72.37 101.235 71.0006 101.708 69.5686 102.204L69.7448 103.373C69.0041 103.527 68.3153 103.71 67.6156 103.807C66.8128 103.919 65.9983 103.941 65.1923 104.032C64.8606 104.07 64.7365 103.972 64.6886 103.641C64.5693 102.823 64.5535 102.839 63.752 102.805C62.4589 102.75 61.1666 102.674 59.8328 102.604C59.8584 102.862 59.8904 103.175 59.9327 103.603C59.3195 103.373 58.7651 103.177 58.2242 102.95C58.1431 102.916 58.1003 102.74 58.0776 102.623C58.0159 102.294 57.974 101.962 57.9274 101.653C63.967 103.109 69.6799 102.425 75.1498 99.463L75.1485 99.4611Z" fill="#F9C626"/>
      <path d="M47.3299 103.471C47.338 103.525 47.3536 103.568 47.3498 103.61C47.2443 104.745 47.5959 105.283 48.6833 105.667C50.1356 106.18 51.6503 106.34 53.1719 106.419C54.5932 106.491 56.0169 106.511 57.4511 106.609C56.2628 106.711 55.0768 106.855 53.8866 106.905C52.329 106.971 50.7708 106.885 49.2753 106.408C48.5898 106.189 47.8995 105.898 47.3046 105.501C46.4509 104.933 46.495 104.157 47.3302 103.473L47.3299 103.471Z" fill="#F9C626"/>
      <path d="M66.6139 92.744C63.7182 93.1825 60.8408 93.3926 58.0239 92.3704C57.6177 92.2231 57.2196 92.0087 56.8745 91.7499C56.1115 91.1785 56.1392 90.4412 56.9048 89.8267C56.8913 91.1956 57.1397 91.553 58.4862 91.9959C59.8988 92.4603 61.369 92.5809 62.8415 92.6434C64.098 92.697 65.3568 92.7127 66.614 92.7449L66.6139 92.744Z" fill="#F9C626"/>
      <path d="M85.8026 100.012C85.651 99.1879 85.1136 98.6948 84.4031 98.4587C83.2253 98.0662 82.0175 97.7633 80.8215 97.4252C80.7051 97.3922 80.5859 97.3676 80.4785 97.3008C82.1643 97.4 83.8297 97.5924 85.2776 98.5729C85.9231 99.0102 86.065 99.4474 85.8018 100.014L85.8026 100.012Z" fill="#F9C626"/>
      <path d="M73.4626 89.3808C73.2998 88.5964 72.8568 88.1316 72.248 87.9106C71.235 87.5429 70.1892 87.2662 69.1555 86.9563C68.9602 86.8976 68.7563 86.8686 68.5664 86.7788C69.769 86.7848 70.9404 86.9798 72.0399 87.4651C72.4894 87.6636 72.9099 87.9596 73.2898 88.2749C73.5885 88.5225 73.6728 88.8935 73.4626 89.3808Z" fill="#F9C626"/>
      <path d="M102.598 105.373C102.255 105.177 102.15 104.805 102.199 104.385C102.254 103.906 102.538 103.578 103 103.444C103.431 103.321 103.824 103.396 104.111 103.751C103.741 103.916 103.304 103.993 103.059 104.252C102.813 104.513 102.758 104.955 102.598 105.372L102.598 105.373Z" fill="#D9E0E8"/>
      <path d="M78.5441 103.676C76.9386 103.793 75.3321 103.911 73.7267 104.029C74.2797 103.476 74.3563 103.474 75.3983 103.51C76.4435 103.547 77.4895 103.549 78.5348 103.567L78.5441 103.676Z" fill="#F9C626"/>
      <path d="M105.495 108.102C105.01 107.914 104.868 107.569 104.848 107.168C104.826 106.707 105.036 106.346 105.446 106.134C105.823 105.94 106.208 105.912 106.581 106.21C105.401 106.782 105.307 106.94 105.495 108.102Z" fill="#D9E0E8"/>
      <path d="M101.623 101.185C100.384 101.474 100.212 101.687 100.232 102.886C99.81 102.67 99.7162 102.311 99.7397 101.916C99.7693 101.433 100.033 101.093 100.492 100.936C100.895 100.797 101.272 100.847 101.623 101.184L101.623 101.185Z" fill="#D9E0E8"/>
      <path d="M80.2706 49.6098C80.4623 49.1942 80.6219 48.8481 80.8357 48.3846L81.0379 49.726C80.786 49.6881 80.5682 49.6551 80.2706 49.6098Z" fill="#EFEFEF"/>
      <path d="M74.768 97.4671C74.8287 97.4195 74.8686 97.294 74.8573 97.2127C74.7896 96.6893 74.706 96.1683 74.6319 95.6773C72.168 97.0501 69.6549 97.9423 67.0871 98.378C66.8635 99.1802 66.2028 100.168 64.3163 100.25C64.271 100.251 64.2268 100.254 64.1846 100.256C64.1882 100.28 64.1918 100.304 64.1942 100.327C64.2246 100.582 64.3192 100.699 64.6012 100.66C65.9988 100.468 67.3997 100.29 68.7976 100.1C68.9336 100.081 69.0618 100.01 69.2405 99.9457L69.0098 98.4152C70.4315 97.9184 71.7897 97.4443 73.1902 96.9547L73.4179 98.4655C73.927 98.092 74.3543 97.7877 74.769 97.467L74.768 97.4671Z" fill="#B56700"/>
      <path d="M63.8187 96.9512C63.8038 96.9535 63.7901 96.9566 63.7764 96.9596C65.4509 96.9168 67.0594 96.7047 68.6878 96.2688L68.4481 94.6789C69.8708 94.1617 71.2318 93.6659 72.641 93.1537L72.8766 94.7159C73.3599 94.3393 73.7703 94.0304 74.1656 93.7025C74.2386 93.6419 74.2956 93.5027 74.2836 93.4093C74.2062 92.8024 74.1081 92.1985 74.0247 91.6451C71.8701 92.9733 69.6741 93.8785 67.4302 94.3788C67.0699 95.3028 66.1512 96.4811 63.8195 96.9501L63.8187 96.9512Z" fill="#B56700"/>
      <path d="M69.7446 103.373L69.5683 102.204C70.9993 101.709 72.3697 101.235 73.7632 100.752L73.9108 101.731C75.2274 101.317 75.5842 100.633 75.1472 99.4612C72.3059 100.999 69.4002 101.922 66.416 102.251C66.4421 102.82 66.2142 103.573 65.0338 104.038C65.0798 104.04 65.1322 104.038 65.1899 104.031C65.9959 103.94 66.8113 103.918 67.6132 103.807C68.3129 103.709 69.0018 103.527 69.7424 103.372L69.7446 103.373Z" fill="#B56700"/>
      <path d="M56.7578 93.894C56.839 94.4325 56.9252 95.025 57.0211 95.614C57.0354 95.7019 57.0779 95.8292 57.143 95.8578C57.348 95.9474 57.5546 96.0337 57.7675 96.1221L57.5571 94.7262C62.5326 95.6163 66.1764 95.2816 68.7547 94.5659C69.5097 94.2911 70.2512 94.0214 70.9928 93.7516C72.9734 92.8354 73.884 91.8122 74.0239 91.6443C68.5642 95.0097 62.8337 95.658 56.7575 93.892L56.7578 93.894Z" fill="#FFE7A4"/>
      <path d="M57.7621 99.6122C57.9484 99.6914 58.1361 99.7674 58.328 99.8438L58.1556 98.7004C63.167 99.3714 66.8568 98.965 69.4608 98.2586C70.2568 97.9806 71.0365 97.7081 71.8191 97.4352C73.6351 96.637 74.5011 95.8149 74.634 95.6815C74.6338 95.6805 74.6337 95.6795 74.6335 95.6785C69.1446 98.7355 63.4114 99.4196 57.3689 97.9513C57.4377 98.4076 57.4965 98.8584 57.5788 99.3037C57.6 99.4169 57.6712 99.5733 57.762 99.6112L57.7621 99.6122Z" fill="#FFE7A4"/>
      <path d="M75.1076 99.4836C69.651 102.426 63.9514 103.104 57.9274 101.651C57.974 101.96 58.016 102.293 58.0776 102.621C58.0993 102.738 58.1421 102.914 58.2242 102.948C58.4244 103.032 58.6269 103.112 58.8332 103.191L58.7041 102.334C59.3464 102.461 59.9685 102.562 60.5733 102.642C61.647 102.7 62.6995 102.759 63.752 102.803C64.0437 102.816 64.232 102.822 64.3579 102.864C71.04 102.748 74.6652 99.8561 75.1064 99.4827L75.1076 99.4836Z" fill="#FFE7A4"/>
      <path d="M87.1971 108.51C87.258 108.463 87.297 108.339 87.2859 108.258C87.2151 107.715 87.1285 107.174 87.0341 106.548C84.5031 108.235 81.7583 109.056 78.8969 109.487C78.4885 110.307 77.6779 111.368 76.1564 111.674C76.2183 111.828 76.3431 111.883 76.5806 111.853C77.6752 111.713 78.7731 111.609 79.8672 111.467C80.3601 111.402 80.846 111.279 81.388 111.17C81.3164 110.695 81.2688 110.279 81.1868 109.869C81.1249 109.56 81.1963 109.429 81.5271 109.324C82.701 108.952 83.8582 108.528 85.0206 108.12C85.1679 108.068 85.3078 107.995 85.5131 107.905L85.7643 109.571C86.3016 109.176 86.7551 108.851 87.1973 108.511L87.1971 108.51Z" fill="#B56700"/>
      <path d="M86.391 102.293C86.0056 102.573 85.6928 102.823 85.3575 103.039C83.6546 104.13 81.7754 104.765 79.8114 105.192C79.4297 105.275 79.0488 105.35 78.6667 105.417C78.1875 106.25 77.2472 107.399 75.5943 107.734C75.7234 108.012 75.98 108.007 76.6559 107.933C78.0225 107.784 79.3775 107.537 80.8071 107.321C80.7269 106.789 80.6834 106.353 80.5899 105.928C80.515 105.585 80.6612 105.486 80.9595 105.395C81.8418 105.124 82.7167 104.825 83.5872 104.517C84.0211 104.363 84.4394 104.168 84.942 103.959L85.1963 105.646C85.7089 105.249 86.1353 104.932 86.543 104.592C86.6258 104.522 86.6923 104.366 86.6784 104.259C86.5995 103.622 86.4948 102.988 86.39 102.293L86.391 102.293Z" fill="#B56700"/>
      <path d="M69.5693 112.883C69.6271 113.266 69.6828 113.662 69.7505 114.057C69.7619 114.126 69.8131 114.224 69.8701 114.246C70.2298 114.387 70.5917 114.523 70.9696 114.663L70.7987 113.53C80.7722 115.197 87.378 110.764 87.6435 110.582C87.6426 110.576 87.6415 110.569 87.6406 110.563C81.8848 113.705 75.8945 114.418 69.5693 112.883Z" fill="#FFE7A4"/>
      <path d="M78.2349 109.581C75.1291 109.983 72.0413 109.92 68.9723 108.933C69.0584 109.504 69.1249 109.985 69.2082 110.464C69.2254 110.564 69.2862 110.706 69.3651 110.739C69.7104 110.885 70.0605 111.023 70.4425 111.171L70.2397 109.825C75.5326 110.488 79.3915 109.96 82.0666 109.148C82.4652 109.016 82.8631 108.88 83.2597 108.741C85.7066 107.806 86.8615 106.716 87.0228 106.556C84.3007 108.367 81.3316 109.179 78.2357 109.58L78.2349 109.581Z" fill="#FFE7A4"/>
      <path d="M78.5328 103.566C77.4876 103.548 76.4415 103.546 75.3964 103.509C74.3544 103.473 74.2777 103.475 73.7248 104.028C75.3303 103.911 76.9368 103.793 78.5422 103.675C78.5388 103.639 78.5352 103.602 78.5328 103.566Z" fill="#FFE7A4"/>
      <path d="M80.4787 97.3008C80.5862 97.3686 80.7052 97.3922 80.8217 97.4253C82.0178 97.7643 83.2255 98.0662 84.4033 98.4587C85.1137 98.6948 85.6511 99.1879 85.8028 100.012C86.065 99.4464 85.9241 99.009 85.2786 98.5718C83.8307 97.5912 82.1643 97.399 80.4795 97.2997L80.4787 97.3008Z" fill="#FFE7A4"/>
      <path d="M85.3585 103.039C83.6555 104.13 81.7764 104.765 79.8123 105.192C76.6492 105.88 73.4775 106.033 70.3092 105.295C69.6445 105.14 69.0798 105.286 68.3976 105.445C68.5261 105.934 68.5036 106.558 68.7993 106.812C69.088 107.06 69.4722 107.196 69.8625 107.325L69.6001 105.585C74.3865 106.692 78.1233 106.281 80.845 105.436C80.8805 105.422 80.9189 105.408 80.9616 105.396C81.0429 105.37 81.124 105.344 81.2053 105.319C84.5492 104.197 86.2558 102.451 86.3948 102.305C86.3942 102.301 86.3937 102.298 86.3931 102.294C86.0077 102.574 85.6949 102.824 85.3596 103.04L85.3585 103.039Z" fill="#FFE7A4"/>
      <path d="M65.363 106.317C65.1777 105.713 64.9062 105.525 64.3565 105.884C62.8173 106.892 61.1325 107.539 59.3564 107.977C58.7604 108.123 58.1637 108.252 57.5659 108.359C57.4225 109.088 56.8173 110.404 54.3426 110.589L54.3979 110.957C56.0998 110.907 57.7245 110.715 59.318 110.303C59.4244 110.276 59.5548 110.059 59.5493 109.935C59.5354 109.581 59.4716 109.225 59.3998 108.876C59.3393 108.583 59.4049 108.446 59.7236 108.369C60.3053 108.229 60.8799 108.048 61.4427 107.842C62.1977 107.568 62.9398 107.254 63.7456 106.933L63.9894 108.551C64.2014 108.418 64.3437 108.313 64.498 108.234C65.2994 107.824 65.6513 107.254 65.363 106.317Z" fill="#B56700"/>
      <path d="M65.9738 111.493C66.0374 111.445 66.0892 111.325 66.0794 111.246C66.0077 110.69 65.9182 110.136 65.8387 109.609C63.206 111.079 60.5151 112.022 57.7608 112.464C57.6995 113.2 57.2344 114.376 54.9601 114.688C54.9662 114.729 54.9724 114.769 54.9786 114.811C56.769 114.777 58.4713 114.528 60.2026 114.117L59.9544 112.47C61.439 111.954 62.8696 111.456 64.3425 110.942L64.5802 112.519C65.0996 112.14 65.5423 111.823 65.9746 111.492L65.9738 111.493Z" fill="#B56700"/>
      <path d="M47.4054 109.546C47.4196 109.633 47.4723 109.755 47.5407 109.785C47.6936 109.851 47.8464 109.917 48.002 109.982L47.8034 108.664C48.324 108.777 48.8299 108.873 49.3246 108.955C50.8407 109.078 52.3321 109.198 53.8513 109.321C56.085 109.298 57.9567 108.95 59.4882 108.469C59.5427 108.427 59.62 108.395 59.7246 108.37C59.8116 108.349 59.8974 108.327 59.9843 108.305C62.1636 107.544 63.5877 106.532 64.328 105.904C62.7972 106.901 61.1228 107.543 59.3575 107.978C56.1041 108.779 52.8273 109.028 49.522 108.349C48.7232 108.185 47.9477 107.907 47.1172 107.668C47.2132 108.304 47.3029 108.927 47.4044 109.546L47.4054 109.546Z" fill="#FFE7A4"/>
      <path d="M47.3302 103.471C46.495 104.155 46.4509 104.931 47.3046 105.499C47.9003 105.895 48.5898 106.187 49.2753 106.406C50.7708 106.883 52.33 106.969 53.8866 106.903C55.0768 106.853 56.2628 106.709 57.4511 106.607C56.017 106.51 54.5924 106.49 53.1719 106.417C51.6493 106.338 50.1358 106.179 48.6833 105.665C47.5959 105.281 47.2443 104.743 47.3498 103.608C47.3536 103.566 47.338 103.523 47.3299 103.469L47.3302 103.471Z" fill="#FFE7A4"/>
      <path d="M47.7648 111.968C47.8326 112.418 47.8978 112.877 47.9742 113.337C47.9924 113.444 48.0155 113.611 48.0839 113.641C48.25 113.714 48.4167 113.785 48.5864 113.856L48.4026 112.636C49.2493 112.815 50.0709 112.949 50.8659 113.041C52.0823 113.077 53.2834 113.113 54.4825 113.164C54.5071 113.165 54.5361 113.176 54.5641 113.194C61.3792 112.958 65.4946 109.877 65.8393 109.61C60.1093 112.808 54.1108 113.52 47.7658 111.968L47.7648 111.968Z" fill="#FFE7A4"/>
      <path d="M45.1447 106.503L45.1357 106.517L45.1693 106.666C45.1611 106.612 45.1529 106.557 45.1448 106.504L45.1447 106.503Z" fill="#FFE7A4"/>
      <path d="M74.7539 87.3174C74.9115 87.5224 75.0399 87.7491 75.1363 87.9988C75.172 87.8254 75.1515 87.6898 74.9383 87.4921C74.8924 87.4494 74.8286 87.3892 74.7539 87.3174Z" fill="#FFE7A4"/>
      <path d="M72.9883 86.0332C73.3629 86.2329 73.7238 86.4356 74.0632 86.671C74.104 86.6993 74.1427 86.7279 74.1817 86.7574C73.8209 86.4008 73.4807 86.0602 73.4807 86.0602L72.9884 86.0342L72.9883 86.0332Z" fill="#FFE7A4"/>
      <path d="M72.248 87.9106C72.8568 88.1316 73.2998 88.5964 73.4626 89.3808C73.673 88.8945 73.5877 88.5236 73.2898 88.2749C72.9098 87.9586 72.4894 87.6636 72.0399 87.4651C70.9404 86.9798 69.7682 86.7859 68.5664 86.7788C68.7563 86.8686 68.9602 86.8976 69.1555 86.9563C70.189 87.2652 71.235 87.5429 72.248 87.9106Z" fill="#FFE7A4"/>
      <path d="M58.4862 91.995C57.1387 91.5521 56.8903 91.1947 56.9048 89.8257C56.1392 90.4403 56.1115 91.1775 56.8745 91.7489C57.2206 92.0076 57.6177 92.2221 58.0239 92.3694C60.841 93.3926 63.7182 93.1815 66.6139 92.743C65.3566 92.7108 64.0978 92.695 62.8414 92.6414C61.3678 92.5791 59.8987 92.4584 58.4861 91.994L58.4862 91.995Z" fill="#FFE7A4"/>
      <path d="M71.9785 85.2781C71.975 85.302 71.9705 85.3259 71.967 85.3497L72.0958 85.5591C72.7889 85.9356 73.461 86.2534 74.063 86.6709C74.7722 87.1614 75.2084 87.8368 75.323 88.7581C75.5828 90.8512 75.9352 92.9334 76.2499 95.0203L76.3294 95.5479C77.2183 95.5091 78.0584 95.4564 78.9001 95.4408C80.6431 95.4089 82.3672 95.5601 84.051 96.0494C85.6957 96.5274 87.0947 97.3856 88.2186 98.7582C88.2733 98.5434 88.3202 98.3906 88.3513 98.234C88.6477 96.7587 88.9431 95.2835 89.2365 93.8086C89.6462 91.7543 90.8814 90.431 92.8585 89.814C94.0477 89.4424 95.2583 89.1313 96.4688 88.8334C97.9781 88.461 99.4914 88.1013 101.015 87.7996C101.473 87.7094 101.973 87.8364 102.455 87.86C102.61 87.8679 102.798 87.9237 102.915 87.8585C103.827 87.3474 104.816 87.3654 105.807 87.4063C106.418 87.4316 107.029 87.4813 107.648 87.5206C107.676 87.4182 107.698 87.3581 107.708 87.2968C108.423 83.0055 109.134 78.7127 109.852 74.4219C111.019 67.4512 112.195 60.482 113.358 53.5099C113.565 52.2698 113.01 51.2569 111.914 50.7732C111.762 52.4667 107.666 93.9239 71.9786 85.2791L71.9785 85.2781Z" fill="#A3AEC1"/>
      <path d="M61.037 71.7242C61.4588 71.4298 61.8833 71.141 62.3078 70.8583C62.1935 69.7972 62.0802 68.737 61.9659 67.6759C61.5554 67.9373 61.1338 68.2125 60.7028 68.4992C60.8142 69.5738 60.9257 70.6495 61.037 71.7242Z" fill="#A3AEC1"/>
      <path d="M54.087 77.0792C54.6944 76.5715 55.3201 76.057 55.961 75.5432C55.7963 74.9079 55.6315 74.2716 55.4658 73.6364C55.3689 73.2622 55.271 72.8882 55.173 72.5142C54.5588 72.9966 53.9326 73.501 53.2948 74.0285C53.5596 75.0456 53.8232 76.0619 54.088 77.079L54.087 77.0792Z" fill="#A3AEC1"/>
      <path d="M68.0758 67.5072C68.5736 67.2671 69.0668 67.044 69.555 66.8408C69.5888 65.7209 69.6218 64.6022 69.6556 63.4824C69.2241 63.6719 68.7247 63.9011 68.1612 64.1754C68.1321 65.2865 68.1039 66.3964 68.0758 67.5072Z" fill="#A3AEC1"/>
      <path d="M46.6825 72.9559C46.1875 73.3758 45.6959 73.7982 45.2101 74.2258C45.2712 74.3756 45.3324 74.5263 45.3945 74.6759C45.7253 75.4856 46.0561 76.2954 46.3858 77.1042C46.8561 76.682 47.3432 76.2502 47.845 75.808C47.4574 74.857 47.07 73.9069 46.6834 72.9558L46.6825 72.9559Z" fill="#A3AEC1"/>
      <path d="M56.8021 87.5238C57.4897 87.165 58.1386 86.8251 58.7895 86.485C58.6694 86.0111 58.5614 85.5697 58.4476 85.1312C57.7917 82.6017 57.1356 80.0712 56.4796 77.5417C55.8507 78.0344 55.2242 78.543 54.604 79.0668C54.8497 80.0108 55.0954 80.9549 55.3412 81.8999C55.826 83.7647 56.311 85.6305 56.8021 87.5238Z" fill="#A3AEC1"/>
      <path d="M61.3148 74.3951C61.5854 77.0101 61.843 79.626 62.1335 82.2379C62.2488 83.2786 62.4389 84.311 62.5955 85.3495L63.8379 85.1622C63.8182 84.8908 63.8093 84.6502 63.7832 84.4101C63.4909 81.7316 63.1926 79.054 62.9032 76.375C62.7904 75.3309 62.6784 74.2857 62.5656 73.2417C62.1442 73.5117 61.7152 73.791 61.2815 74.0802C61.2923 74.1849 61.303 74.2896 61.3135 74.3933L61.3148 74.3951Z" fill="#A3AEC1"/>
      <path d="M67.669 84.948C68.1317 84.9724 68.5465 84.9949 68.9927 85.0177C69.0102 84.8582 69.0355 84.7167 69.0393 84.5743C69.0956 82.629 69.1448 80.6836 69.2021 78.7381C69.2955 75.5671 69.3889 72.3961 69.4833 69.2249C69.0522 69.4499 68.5578 69.7128 68.0122 70.0117C67.9139 74.0309 67.8186 78.0496 67.7244 82.0692C67.7016 83.0204 67.6869 83.9713 67.669 84.948Z" fill="#A3AEC1"/>
      <path d="M49.8665 80.7623C49.4935 79.8476 49.1205 78.9328 48.7466 78.0182C48.2728 78.4582 47.7948 78.91 47.3124 79.3735C47.6821 80.2796 48.0526 81.1846 48.4223 82.0908C48.8701 81.6739 49.3521 81.2287 49.8665 80.7623Z" fill="#A3AEC1"/>
      <path d="M61.6706 64.9061C61.5775 64.0332 61.4835 63.1614 61.3904 62.2885C61.3828 62.2178 61.3753 62.1481 61.3677 62.0773C60.9586 62.3476 60.5442 62.6237 60.1247 62.9056C60.2239 63.8596 60.3222 64.8137 60.4213 65.7667C60.8382 65.4741 61.255 65.1875 61.6706 64.9061Z" fill="#A3AEC1"/>
      <path d="M68.2441 60.9839C68.7548 60.7287 69.259 60.4907 69.754 60.2723C69.7758 59.5704 69.7968 58.8697 69.8187 58.1677C69.8329 57.6978 69.8464 57.229 69.8606 56.7591C69.3881 57.0389 68.8749 57.3451 68.3271 57.6768C68.3186 58.0638 68.3091 58.451 68.2994 58.8372C68.2816 59.5527 68.2628 60.2683 68.2441 60.9839Z" fill="#A3AEC1"/>
      <path d="M54.9745 98.1551C55.1176 98.5061 55.2956 98.6048 55.6457 98.4467C55.6428 98.3742 55.6479 98.2935 55.6363 98.2163C55.3846 96.5472 55.1368 94.8765 54.8753 93.2088C54.8384 92.9714 54.7555 92.7369 54.6649 92.5126C53.3344 89.2525 52.0021 85.9937 50.6708 82.7347C50.1986 83.2251 49.7399 83.7245 49.2958 84.2329C51.1899 88.8731 53.0841 93.5133 54.9735 98.1552L54.9745 98.1551Z" fill="#A3AEC1"/>
      <path d="M52.6859 71.6866C53.3016 71.1806 53.9265 70.6744 54.5598 70.1708C54.3122 69.2271 54.0654 68.2822 53.8205 67.337C53.1894 67.8017 52.5577 68.2756 51.925 68.7567C51.9946 69.0237 52.0644 69.2916 52.133 69.5586C52.317 70.268 52.5019 70.9772 52.6859 71.6866Z" fill="#A3AEC1"/>
      <path d="M78.4892 46.921C78.2643 47.5189 78.1712 48.1718 78.0645 48.8086C76.2184 59.8314 74.3786 70.8553 72.5388 81.8792C72.3344 83.1047 72.1342 84.3307 71.9445 85.4781C72.3977 85.7287 72.8415 85.9503 73.2659 86.185L78.6639 56.4607C78.7927 55.7487 78.9919 55.0677 79.2511 54.4211C79.2182 54.4179 79.1897 54.4101 79.165 54.3946C78.8796 54.2149 78.5243 54.0356 78.3918 53.7619C78.3064 53.5854 78.4905 53.1598 78.6831 52.992C79.1172 52.6117 79.6225 52.3077 80.1194 52.008C80.2142 51.9512 80.4674 52.0042 80.5439 52.0949C80.5452 52.0967 80.5465 52.0986 80.5488 52.1002C80.8249 51.7275 81.1242 51.3736 81.4452 51.0427C81.2905 50.9911 81.1819 50.8627 81.171 50.5687C81.1674 50.4639 80.9981 50.2951 80.885 50.2777C80.4607 50.2121 79.9621 49.9359 79.736 50.6342C79.7057 50.7289 79.3217 50.7088 78.965 50.7626C79.5151 49.6864 79.9792 48.7457 80.4874 47.8287C80.5425 47.7303 80.8603 47.7411 81.0483 47.7654C81.1785 47.7822 81.3859 47.8937 81.4025 47.9904C81.5567 48.8794 81.6874 49.773 81.8222 50.674C84.1261 48.5214 87.3677 47.4273 90.7137 47.9799L113.005 51.6601C112.688 51.1895 112.189 50.8323 111.541 50.6364C111.092 50.5006 110.638 50.3696 110.177 50.2893C104.247 49.2555 98.3148 48.2332 92.3839 47.2026C88.5414 46.5355 84.6984 45.8655 80.8593 45.1807C80.2658 45.0747 79.7308 45.1827 79.342 45.6008C78.9889 45.981 78.6701 46.4402 78.4894 46.922L78.4892 46.921Z" fill="white"/>
      <path d="M81.0379 49.727L80.8357 48.3856C80.6219 48.8491 80.4623 49.1952 80.2706 49.6108C80.5682 49.6561 80.786 49.689 81.0379 49.727Z" fill="white"/>
      <path d="M69.4928 48.1909C68.6457 48.8157 68.5273 49.7711 68.4983 50.7212C68.4166 53.4257 68.3677 56.1323 68.3003 58.8377C68.214 62.3043 68.1184 65.7703 68.0331 69.2368C67.9271 73.5143 67.8273 77.7919 67.7265 82.0697C67.7062 82.9232 67.6922 83.7778 67.6766 84.6489L69.4243 50.539C69.4652 49.7421 70.1149 49.1116 70.914 49.0954L76.3088 48.9827C76.367 48.6429 76.4259 48.3009 76.4879 47.9392C74.4333 47.8875 72.4421 47.8191 70.4501 47.8066C70.1286 47.8044 69.7626 47.9912 69.4918 48.191L69.4928 48.1909Z" fill="white"/>
      <path d="M51.4871 57.4046C50.2947 57.7018 49.6552 58.5474 49.7504 59.7774C49.7892 60.2768 49.869 60.7791 49.9919 61.2648C50.6948 64.0323 51.4153 66.795 52.1329 69.5583C53.2009 73.672 54.2719 77.7852 55.3411 81.8998C55.8259 83.7646 56.3108 85.6304 56.802 87.5236C56.8048 87.5222 56.8076 87.5207 56.8104 87.5193L50.8807 60.8088C50.5992 59.5401 51.3565 58.2727 52.6071 57.9181L57.6603 56.487C57.6418 56.2904 57.6232 56.0927 57.6046 55.889C57.3426 55.9457 57.1049 55.9886 56.8717 56.048C55.0763 56.4989 53.2829 56.9566 51.4872 57.4055L51.4871 57.4046Z" fill="white"/>
      <path d="M61.9601 51.323L66.7806 50.815C66.7901 50.5149 66.7991 50.2118 66.8091 49.9015C66.7125 49.8928 66.6485 49.8781 66.5876 49.8842C64.7291 50.0642 62.8694 50.2433 61.011 50.4313C60.5479 50.4779 60.1517 50.6459 59.8234 51.0154C59.1304 51.7952 59.079 52.7182 59.174 53.6708C59.4752 56.6902 59.7944 59.7079 60.1065 62.7257C60.5095 66.6156 60.9126 70.5056 61.3156 74.3955C61.5862 77.0105 61.8438 79.6264 62.1342 82.2384C62.2403 83.1903 62.408 84.135 62.5554 85.0858L59.9782 53.7156C59.879 52.5136 60.7595 51.4514 61.9604 51.325L61.9601 51.323Z" fill="white"/>
      <path d="M48.0604 61.5256C46.4458 62.1679 44.8246 62.793 43.2224 63.4629C42.292 63.8512 41.8279 64.6846 41.9641 65.6887C42.0327 66.1977 42.163 66.7127 42.3534 67.1892C43.3516 69.6904 44.3767 72.1815 45.395 74.6746C48.5901 82.5004 51.7893 90.3255 54.9758 98.1546C55.0759 98.4017 55.1944 98.5226 55.3772 98.5183L42.8404 66.7766C42.3916 65.6414 42.9446 64.3562 44.0776 63.8999L48.4419 62.1404C48.3821 61.9256 48.3173 61.7106 48.2574 61.4949C48.1514 61.5109 48.1025 61.5091 48.0604 61.5256Z" fill="white"/>
      <path d="M95.8125 110.863C95.9433 110.063 96.0236 109.406 96.1625 108.762C96.5927 106.763 97.029 104.764 97.4749 102.768C97.0924 103.135 96.5374 103.621 95.8799 104.065C95.7914 104.52 95.4283 104.893 94.9436 104.972C94.7269 105.006 94.5157 104.976 94.3273 104.896C93.35 105.276 92.288 105.396 91.2846 104.924C91.2797 104.925 91.2747 104.925 91.2707 104.926C90.6434 105.012 90.0709 104.575 89.9913 103.946C89.989 103.931 89.9889 103.917 89.9877 103.902C89.7259 103.598 89.4733 103.233 89.2348 102.8C89.2166 102.901 89.1973 103.002 89.1793 103.104C89.0103 104.047 89.1266 104.925 89.908 105.639C91.4049 107.006 92.8568 108.423 94.3502 109.793C94.7619 110.172 95.2552 110.46 95.8123 110.862L95.8125 110.863ZM93.0747 106.985C93.001 106.375 93.4233 105.822 94.0316 105.731C94.6587 105.636 95.2365 106.067 95.3239 106.694C95.4106 107.317 94.9685 107.899 94.3462 107.979C93.7229 108.058 93.1499 107.611 93.0747 106.985Z" fill="#A3AEC1"/>
      <path d="M108.493 95.9851C108.723 95.917 108.975 95.6947 109.068 95.4792C109.122 95.3546 108.923 95.0516 108.763 94.9146C107.533 93.8618 106.254 92.8629 105.043 91.7911C105.246 92.4823 105.248 93.3103 104.648 94.1155C104.757 94.7349 104.347 95.3203 103.727 95.4269C103.512 95.4643 103.303 95.4372 103.115 95.3632C101.846 96.0536 99.8629 96.6493 96.8383 97.0192C97.2447 97.2749 97.6569 97.5225 98.0792 97.7495C98.8535 98.1673 99.7042 98.2517 100.583 98.0221C102.088 97.6291 103.604 97.274 105.112 96.8906C106.244 96.6037 107.374 96.3147 108.493 95.9851Z" fill="#A3AEC1"/>
      <path d="M106.583 106.21C106.209 105.912 105.825 105.94 105.448 106.134C105.038 106.346 104.828 106.707 104.85 107.168C104.868 107.569 105.012 107.914 105.496 108.102C105.309 106.94 105.403 106.783 106.583 106.21Z" fill="white"/>
      <path d="M103 103.444C102.538 103.577 102.255 103.906 102.199 104.385C102.15 104.805 102.255 105.177 102.598 105.373C102.757 104.956 102.813 104.514 103.059 104.252C103.303 103.994 103.74 103.916 104.111 103.752C103.825 103.397 103.431 103.322 103 103.445L103 103.444Z" fill="white"/>
      <path d="M100.232 102.887C100.212 101.687 100.386 101.474 101.623 101.186C101.272 100.849 100.896 100.798 100.492 100.937C100.034 101.094 99.7699 101.435 99.7403 101.917C99.7157 102.312 99.8095 102.672 100.232 102.888L100.232 102.887Z" fill="white"/>
      <path d="M112.662 96.3368C112.823 93.5596 114.796 91.5601 115.96 90.6121C115.434 90.0769 114.729 89.7883 113.86 89.7076C111.262 89.4655 108.663 89.2437 106.063 89.0262C105.557 88.984 105.046 89.0055 104.537 88.9971C104.528 89.0339 104.519 89.0696 104.51 89.1054C105.222 89.6968 105.932 90.2883 106.645 90.8805C107.243 90.1058 107.862 89.9427 108.412 90.374C108.978 90.8173 108.94 91.4568 108.281 92.2508C109.248 93.0729 110.216 93.8949 111.198 94.728C111.949 93.8199 112.692 92.9233 113.435 92.0266C113.468 92.049 113.501 92.0724 113.532 92.0949C113.133 92.8162 112.737 93.5392 112.335 94.2589C111.952 94.9423 111.644 95.5678 111.757 96.4601C111.882 97.4557 111.59 98.5021 111.497 99.5287C111.474 99.7751 111.458 100.049 111.54 100.272C112.302 102.337 113.077 104.398 113.879 106.448C113.964 106.664 114.228 106.869 114.454 106.946C114.562 106.983 114.821 106.741 114.935 106.574C115.527 105.701 116.106 104.819 116.689 103.94C114.48 105.541 112.435 100.216 112.661 96.335L112.662 96.3368ZM110.876 92.5804C110.303 92.6436 109.77 92.2339 109.689 91.6668C109.605 91.0751 110.022 90.5252 110.614 90.4471C111.212 90.3681 111.753 90.7847 111.825 91.3794C111.896 91.9751 111.47 92.5152 110.876 92.5804Z" fill="#A3AEC1"/>
      <path d="M118.919 97.9076C118.195 95.9148 117.427 93.9367 116.742 91.931C116.26 90.5224 115.278 89.8392 113.86 89.7066C111.262 89.4645 108.663 89.2427 106.063 89.0253C105.557 88.9831 105.046 89.0045 104.537 88.9962C104.528 89.0329 104.519 89.0687 104.51 89.1044C104.646 89.2166 104.782 89.3298 104.917 89.442L114.495 90.2043C114.495 90.2043 115.684 90.7823 116.137 91.9544C116.522 92.9523 119.049 98.219 118.888 100.537C119.228 99.7047 119.258 98.8396 118.919 97.9066L118.919 97.9076Z" fill="white"/>
      <path d="M40.3045 64.4526C40.6409 63.1485 41.4367 62.2641 42.7005 61.7749C44.3051 61.1543 45.8962 60.4973 47.4988 59.8699C47.827 59.7414 48.0011 59.5927 48.0392 59.1931C48.1955 57.5485 49.1401 56.1587 51.1673 55.6931C53.0977 55.2502 55.0094 54.7241 56.9348 54.2617C57.3073 54.1721 57.4176 54.0431 57.3895 53.6484C57.2752 52.0639 57.5902 50.6243 58.8425 49.4949C59.4632 48.9345 60.2026 48.7441 60.9773 48.6607C62.9465 48.4489 64.9201 48.2657 66.8935 48.0948C67.2336 48.0658 67.4435 47.9521 67.6408 47.6683C68.4229 46.5449 69.5164 46.0156 70.8893 46.0617C72.7368 46.1244 74.5857 46.1768 76.4336 46.2485C76.7546 46.2608 76.9207 46.173 77.0488 45.8601C77.6602 44.3636 79.2537 43.1453 81.3696 43.5229C90.005 45.0651 98.6506 46.547 107.293 48.0548C108.728 48.3052 110.164 48.5554 111.592 48.8444C112.111 48.9494 112.638 49.1058 113.108 49.3438C114.063 49.8285 114.691 50.5682 114.963 51.5234C114.916 50.0695 114.225 48.977 112.955 48.333C112.486 48.095 111.958 47.9387 111.439 47.8336C110.012 47.5447 108.576 47.2944 107.141 47.044C98.4992 45.5361 89.8526 44.0543 81.2172 42.5121C79.1012 42.1335 77.5066 43.352 76.8964 44.8493C76.7683 45.1622 76.6024 45.2511 76.2812 45.2377C74.4332 45.165 72.5854 45.1135 70.7369 45.051C69.3641 45.0048 68.2715 45.534 67.4884 46.6575C67.2909 46.9404 67.0811 47.054 66.7411 47.084C64.7677 47.255 62.7951 47.4379 60.8249 47.6499C60.0492 47.7335 59.31 47.9249 58.6901 48.4841C57.4378 49.6135 57.1228 51.0531 57.2371 52.6377C57.2652 53.0323 57.1559 53.1612 56.7824 53.2509C54.8562 53.7145 52.9453 54.2395 51.0149 54.6824C48.9875 55.147 48.0431 56.5377 47.8868 58.1823C47.8487 58.5819 47.6746 58.7307 47.3464 58.8591C45.7438 59.4865 44.1526 60.1425 42.5481 60.7641C41.2853 61.2531 40.4884 62.1367 40.1522 63.4419C39.9643 64.1718 39.9824 64.9032 40.1751 65.6102C40.1638 65.2261 40.2046 64.8383 40.3044 64.4516L40.3045 64.4526Z" fill="#F9C626"/>
      <path d="M118.744 89.9686C118.204 88.7369 117.19 87.8913 115.852 87.5443C115.324 87.4073 114.77 87.348 114.224 87.3059C112.868 87.2014 111.51 87.1288 110.128 87.0415C110.151 86.8091 110.164 86.6179 110.191 86.4285C110.546 83.9318 110.901 81.4341 111.26 78.938C112.055 73.382 112.857 67.8271 113.649 62.2707C113.684 62.0213 113.721 61.7709 113.756 61.5215C113.673 62.0159 113.591 62.5103 113.508 63.0047C112.585 68.5404 111.651 74.0747 110.723 79.6102C110.305 82.0981 109.89 84.5856 109.476 87.0739C109.445 87.2629 109.427 87.4539 109.398 87.6851C110.778 87.8051 112.133 87.9116 113.486 88.0478C114.032 88.1023 114.585 88.1748 115.109 88.3246C116.438 88.7033 117.43 89.5734 117.941 90.8177C118.937 93.2433 109.806 95.7205 110.733 98.1737C111.152 99.2839 110.95 100.319 110.346 101.291C109.644 102.421 108.918 103.536 108.187 104.649C107.438 105.788 106.646 106.9 105.918 108.052C105.737 108.337 105.538 108.59 105.32 108.807C106.077 108.556 106.674 108.013 107.133 107.249C107.833 106.079 108.598 104.949 109.32 103.792C110.024 102.664 110.724 101.531 111.398 100.385C111.978 99.3993 112.156 98.36 111.71 97.2598C110.724 94.8297 119.796 92.3736 118.743 89.9718L118.744 89.9686Z" fill="#F9C626"/>
    </g>
    <mask id="path-96-outside-1_134_4202" maskUnits="userSpaceOnUse" x="40" y="79" width="82" height="36" fill="black">
      <rect fill="white" x="40" y="79" width="82" height="36"/>
      <path d="M51.7948 82.436H56.1268V97.332V97.75V101.664V102.044V112H51.7948V100.334H53.1248L53.0488 100.296L51.7948 99.574L48.1848 97.484V112H43.8528V94.976V94.558V90.644V90.264V82.436H48.1848V92.734L51.7948 94.824V82.436ZM65.6957 112H59.5397V107.668V94.976V94.558V94.292V90.644V90.264L67.4817 94.824V90.264H71.8137V97.332V97.75V101.664V102.044V107.668V112H67.4817V109.986L65.6957 112ZM63.8717 97.484V107.668H67.4817V100.334H68.8117L67.4817 99.574L63.8717 97.484ZM79.5586 112H75.2266V94.938V94.558V94.102V90.606V90.226L87.5006 97.294V97.712V97.826V101.626V102.044V111.962V112H83.1686V111.962V100.296H84.4986L79.5586 97.446V112ZM98.8554 82.436H103.187V93.228V94.748V97.142V97.332V97.75V99.194V101.664V102.044V107.668V112H98.8554H95.2454H90.9134V107.668V94.976V94.596V94.558V90.644V90.264L98.8554 94.824V82.436ZM98.8554 100.334H100.185L100.109 100.296L98.8554 99.574L95.2454 97.484V107.668H98.8554V100.334ZM106.6 90.226H118.874V90.606V94.558V95.508H114.542V94.558H110.932V96.572L118.874 101.17V101.322V101.55V105.464V105.882V107.668V111.506V112H106.6V111.506V107.668V104.21H110.932V107.668H114.542V104.134H115.872L115.796 104.096L114.542 103.374L106.6 98.814V98.51V98.396V94.558V94.482V94.064V90.606V90.226Z"/>
    </mask>
    <path d="M51.7948 82.436H56.1268V97.332V97.75V101.664V102.044V112H51.7948V100.334H53.1248L53.0488 100.296L51.7948 99.574L48.1848 97.484V112H43.8528V94.976V94.558V90.644V90.264V82.436H48.1848V92.734L51.7948 94.824V82.436ZM65.6957 112H59.5397V107.668V94.976V94.558V94.292V90.644V90.264L67.4817 94.824V90.264H71.8137V97.332V97.75V101.664V102.044V107.668V112H67.4817V109.986L65.6957 112ZM63.8717 97.484V107.668H67.4817V100.334H68.8117L67.4817 99.574L63.8717 97.484ZM79.5586 112H75.2266V94.938V94.558V94.102V90.606V90.226L87.5006 97.294V97.712V97.826V101.626V102.044V111.962V112H83.1686V111.962V100.296H84.4986L79.5586 97.446V112ZM98.8554 82.436H103.187V93.228V94.748V97.142V97.332V97.75V99.194V101.664V102.044V107.668V112H98.8554H95.2454H90.9134V107.668V94.976V94.596V94.558V90.644V90.264L98.8554 94.824V82.436ZM98.8554 100.334H100.185L100.109 100.296L98.8554 99.574L95.2454 97.484V107.668H98.8554V100.334ZM106.6 90.226H118.874V90.606V94.558V95.508H114.542V94.558H110.932V96.572L118.874 101.17V101.322V101.55V105.464V105.882V107.668V111.506V112H106.6V111.506V107.668V104.21H110.932V107.668H114.542V104.134H115.872L115.796 104.096L114.542 103.374L106.6 98.814V98.51V98.396V94.558V94.482V94.064V90.606V90.226Z" fill="white"/>
    <path d="M51.7948 82.436V79.436H48.7948V82.436H51.7948ZM56.1268 82.436H59.1268V79.436H56.1268V82.436ZM56.1268 112V115H59.1268V112H56.1268ZM51.7948 112H48.7948V115H51.7948V112ZM51.7948 100.334V97.334H48.7948V100.334H51.7948ZM53.1248 100.334V103.334L54.4665 97.6507L53.1248 100.334ZM53.0488 100.296L51.5519 102.896L51.6283 102.94L51.7072 102.979L53.0488 100.296ZM51.7948 99.574L50.2917 102.17L50.2979 102.174L51.7948 99.574ZM48.1848 97.484L49.6879 94.8877L45.1848 92.2807V97.484H48.1848ZM48.1848 112V115H51.1848V112H48.1848ZM43.8528 112H40.8528V115H43.8528V112ZM43.8528 82.436V79.436H40.8528V82.436H43.8528ZM48.1848 82.436H51.1848V79.436H48.1848V82.436ZM48.1848 92.734H45.1848V94.4637L46.6817 95.3303L48.1848 92.734ZM51.7948 94.824L50.2917 97.4203L54.7948 100.027V94.824H51.7948ZM51.7948 85.436H56.1268V79.436H51.7948V85.436ZM53.1268 82.436V97.332H59.1268V82.436H53.1268ZM53.1268 97.332V97.75H59.1268V97.332H53.1268ZM53.1268 97.75V101.664H59.1268V97.75H53.1268ZM53.1268 101.664V102.044H59.1268V101.664H53.1268ZM53.1268 102.044V112H59.1268V102.044H53.1268ZM56.1268 109H51.7948V115H56.1268V109ZM54.7948 112V100.334H48.7948V112H54.7948ZM51.7948 103.334H53.1248V97.334H51.7948V103.334ZM54.4665 97.6507L54.3905 97.6127L51.7072 102.979L51.7832 103.017L54.4665 97.6507ZM54.5457 97.6961L53.2917 96.9741L50.2979 102.174L51.5519 102.896L54.5457 97.6961ZM53.2979 96.9777L49.6879 94.8877L46.6817 100.08L50.2917 102.17L53.2979 96.9777ZM45.1848 97.484V112H51.1848V97.484H45.1848ZM48.1848 109H43.8528V115H48.1848V109ZM46.8528 112V94.976H40.8528V112H46.8528ZM46.8528 94.976V94.558H40.8528V94.976H46.8528ZM46.8528 94.558V90.644H40.8528V94.558H46.8528ZM46.8528 90.644V90.264H40.8528V90.644H46.8528ZM46.8528 90.264V82.436H40.8528V90.264H46.8528ZM43.8528 85.436H48.1848V79.436H43.8528V85.436ZM45.1848 82.436V92.734H51.1848V82.436H45.1848ZM46.6817 95.3303L50.2917 97.4203L53.2979 92.2277L49.6879 90.1377L46.6817 95.3303ZM54.7948 94.824V82.436H48.7948V94.824H54.7948ZM65.6957 112V115H67.045L67.9403 113.99L65.6957 112ZM59.5397 112H56.5397V115H59.5397V112ZM59.5397 90.264L61.0335 87.6623L56.5397 85.0822V90.264H59.5397ZM67.4817 94.824L65.9879 97.4257L70.4817 100.006V94.824H67.4817ZM67.4817 90.264V87.264H64.4817V90.264H67.4817ZM71.8137 90.264H74.8137V87.264H71.8137V90.264ZM71.8137 112V115H74.8137V112H71.8137ZM67.4817 112H64.4817V115H67.4817V112ZM67.4817 109.986H70.4817V102.081L65.2371 107.996L67.4817 109.986ZM63.8717 97.484L65.3748 94.8877L60.8717 92.2807V97.484H63.8717ZM63.8717 107.668H60.8717V110.668H63.8717V107.668ZM67.4817 107.668V110.668H70.4817V107.668H67.4817ZM67.4817 100.334V97.334H64.4817V100.334H67.4817ZM68.8117 100.334V103.334H80.1084L70.3001 97.7293L68.8117 100.334ZM67.4817 99.574L65.9786 102.17L65.9859 102.175L65.9933 102.179L67.4817 99.574ZM65.6957 109H59.5397V115H65.6957V109ZM62.5397 112V107.668H56.5397V112H62.5397ZM62.5397 107.668V94.976H56.5397V107.668H62.5397ZM62.5397 94.976V94.558H56.5397V94.976H62.5397ZM62.5397 94.558V94.292H56.5397V94.558H62.5397ZM62.5397 94.292V90.644H56.5397V94.292H62.5397ZM62.5397 90.644V90.264H56.5397V90.644H62.5397ZM58.0459 92.8657L65.9879 97.4257L68.9755 92.2223L61.0335 87.6623L58.0459 92.8657ZM70.4817 94.824V90.264H64.4817V94.824H70.4817ZM67.4817 93.264H71.8137V87.264H67.4817V93.264ZM68.8137 90.264V97.332H74.8137V90.264H68.8137ZM68.8137 97.332V97.75H74.8137V97.332H68.8137ZM68.8137 97.75V101.664H74.8137V97.75H68.8137ZM68.8137 101.664V102.044H74.8137V101.664H68.8137ZM68.8137 102.044V107.668H74.8137V102.044H68.8137ZM68.8137 107.668V112H74.8137V107.668H68.8137ZM71.8137 109H67.4817V115H71.8137V109ZM70.4817 112V109.986H64.4817V112H70.4817ZM65.2371 107.996L63.4511 110.01L67.9403 113.99L69.7262 111.976L65.2371 107.996ZM60.8717 97.484V107.668H66.8717V97.484H60.8717ZM63.8717 110.668H67.4817V104.668H63.8717V110.668ZM70.4817 107.668V100.334H64.4817V107.668H70.4817ZM67.4817 103.334H68.8117V97.334H67.4817V103.334ZM70.3001 97.7293L68.9701 96.9693L65.9933 102.179L67.3233 102.939L70.3001 97.7293ZM68.9848 96.9777L65.3748 94.8877L62.3686 100.08L65.9786 102.17L68.9848 96.9777ZM79.5586 112V115H82.5586V112H79.5586ZM75.2266 112H72.2266V115H75.2266V112ZM75.2266 90.226L76.7236 87.6262L72.2266 85.0366V90.226H75.2266ZM87.5006 97.294H90.5006V95.5597L88.9976 94.6942L87.5006 97.294ZM87.5006 112V115H90.5006V112H87.5006ZM83.1686 112H80.1686V115H83.1686V112ZM83.1686 100.296V97.296H80.1686V100.296H83.1686ZM84.4986 100.296V103.296H95.7019L85.9977 97.6974L84.4986 100.296ZM79.5586 97.446L81.0577 94.8474L76.5586 92.2518V97.446H79.5586ZM79.5586 109H75.2266V115H79.5586V109ZM78.2266 112V94.938H72.2266V112H78.2266ZM78.2266 94.938V94.558H72.2266V94.938H78.2266ZM78.2266 94.558V94.102H72.2266V94.558H78.2266ZM78.2266 94.102V90.606H72.2266V94.102H78.2266ZM78.2266 90.606V90.226H72.2266V90.606H78.2266ZM73.7295 92.8258L86.0035 99.8938L88.9976 94.6942L76.7236 87.6262L73.7295 92.8258ZM84.5006 97.294V97.712H90.5006V97.294H84.5006ZM84.5006 97.712V97.826H90.5006V97.712H84.5006ZM84.5006 97.826V101.626H90.5006V97.826H84.5006ZM84.5006 101.626V102.044H90.5006V101.626H84.5006ZM84.5006 102.044V111.962H90.5006V102.044H84.5006ZM84.5006 111.962V112H90.5006V111.962H84.5006ZM87.5006 109H83.1686V115H87.5006V109ZM86.1686 112V111.962H80.1686V112H86.1686ZM86.1686 111.962V100.296H80.1686V111.962H86.1686ZM83.1686 103.296H84.4986V97.296H83.1686V103.296ZM85.9977 97.6974L81.0577 94.8474L78.0594 100.045L82.9994 102.895L85.9977 97.6974ZM76.5586 97.446V112H82.5586V97.446H76.5586ZM98.8554 82.436V79.436H95.8554V82.436H98.8554ZM103.187 82.436H106.187V79.436H103.187V82.436ZM103.187 112V115H106.187V112H103.187ZM90.9134 112H87.9134V115H90.9134V112ZM90.9134 90.264L92.4072 87.6623L87.9134 85.0822V90.264H90.9134ZM98.8554 94.824L97.3617 97.4257L101.855 100.006V94.824H98.8554ZM98.8554 100.334V97.334H95.8554V100.334H98.8554ZM100.185 100.334V103.334L101.527 97.6507L100.185 100.334ZM100.109 100.296L98.6125 102.896L98.6889 102.94L98.7678 102.979L100.109 100.296ZM98.8554 99.574L97.3523 102.17L97.3585 102.174L98.8554 99.574ZM95.2454 97.484L96.7485 94.8877L92.2454 92.2807V97.484H95.2454ZM95.2454 107.668H92.2454V110.668H95.2454V107.668ZM98.8554 107.668V110.668H101.855V107.668H98.8554ZM98.8554 85.436H103.187V79.436H98.8554V85.436ZM100.187 82.436V93.228H106.187V82.436H100.187ZM100.187 93.228V94.748H106.187V93.228H100.187ZM100.187 94.748V97.142H106.187V94.748H100.187ZM100.187 97.142V97.332H106.187V97.142H100.187ZM100.187 97.332V97.75H106.187V97.332H100.187ZM100.187 97.75V99.194H106.187V97.75H100.187ZM100.187 99.194V101.664H106.187V99.194H100.187ZM100.187 101.664V102.044H106.187V101.664H100.187ZM100.187 102.044V107.668H106.187V102.044H100.187ZM100.187 107.668V112H106.187V107.668H100.187ZM103.187 109H98.8554V115H103.187V109ZM98.8554 109H95.2454V115H98.8554V109ZM95.2454 109H90.9134V115H95.2454V109ZM93.9134 112V107.668H87.9134V112H93.9134ZM93.9134 107.668V94.976H87.9134V107.668H93.9134ZM93.9134 94.976V94.596H87.9134V94.976H93.9134ZM93.9134 94.596V94.558H87.9134V94.596H93.9134ZM93.9134 94.558V90.644H87.9134V94.558H93.9134ZM93.9134 90.644V90.264H87.9134V90.644H93.9134ZM89.4197 92.8657L97.3617 97.4257L100.349 92.2223L92.4072 87.6623L89.4197 92.8657ZM101.855 94.824V82.436H95.8554V94.824H101.855ZM98.8554 103.334H100.185V97.334H98.8554V103.334ZM101.527 97.6507L101.451 97.6127L98.7678 102.979L98.8438 103.017L101.527 97.6507ZM101.606 97.6961L100.352 96.9741L97.3585 102.174L98.6125 102.896L101.606 97.6961ZM100.359 96.9777L96.7485 94.8877L93.7423 100.08L97.3523 102.17L100.359 96.9777ZM92.2454 97.484V107.668H98.2454V97.484H92.2454ZM95.2454 110.668H98.8554V104.668H95.2454V110.668ZM101.855 107.668V100.334H95.8554V107.668H101.855ZM106.6 90.226V87.226H103.6V90.226H106.6ZM118.874 90.226H121.874V87.226H118.874V90.226ZM118.874 95.508V98.508H121.874V95.508H118.874ZM114.542 95.508H111.542V98.508H114.542V95.508ZM114.542 94.558H117.542V91.558H114.542V94.558ZM110.932 94.558V91.558H107.932V94.558H110.932ZM110.932 96.572H107.932V98.3017L109.429 99.1683L110.932 96.572ZM118.874 101.17H121.874V99.4403L120.377 98.5737L118.874 101.17ZM118.874 112V115H121.874V112H118.874ZM106.6 112H103.6V115H106.6V112ZM106.6 104.21V101.21H103.6V104.21H106.6ZM110.932 104.21H113.932V101.21H110.932V104.21ZM110.932 107.668H107.932V110.668H110.932V107.668ZM114.542 107.668V110.668H117.542V107.668H114.542ZM114.542 104.134V101.134H111.542V104.134H114.542ZM115.872 104.134V107.134L117.214 101.451L115.872 104.134ZM115.796 104.096L114.299 106.696L114.376 106.74L114.455 106.779L115.796 104.096ZM114.542 103.374L116.039 100.774L116.036 100.772L114.542 103.374ZM106.6 98.814H103.6V100.551L105.107 101.416L106.6 98.814ZM106.6 93.226H118.874V87.226H106.6V93.226ZM115.874 90.226V90.606H121.874V90.226H115.874ZM115.874 90.606V94.558H121.874V90.606H115.874ZM115.874 94.558V95.508H121.874V94.558H115.874ZM118.874 92.508H114.542V98.508H118.874V92.508ZM117.542 95.508V94.558H111.542V95.508H117.542ZM114.542 91.558H110.932V97.558H114.542V91.558ZM107.932 94.558V96.572H113.932V94.558H107.932ZM109.429 99.1683L117.371 103.766L120.377 98.5737L112.435 93.9757L109.429 99.1683ZM115.874 101.17V101.322H121.874V101.17H115.874ZM115.874 101.322V101.55H121.874V101.322H115.874ZM115.874 101.55V105.464H121.874V101.55H115.874ZM115.874 105.464V105.882H121.874V105.464H115.874ZM115.874 105.882V107.668H121.874V105.882H115.874ZM115.874 107.668V111.506H121.874V107.668H115.874ZM115.874 111.506V112H121.874V111.506H115.874ZM118.874 109H106.6V115H118.874V109ZM109.6 112V111.506H103.6V112H109.6ZM109.6 111.506V107.668H103.6V111.506H109.6ZM109.6 107.668V104.21H103.6V107.668H109.6ZM106.6 107.21H110.932V101.21H106.6V107.21ZM107.932 104.21V107.668H113.932V104.21H107.932ZM110.932 110.668H114.542V104.668H110.932V110.668ZM117.542 107.668V104.134H111.542V107.668H117.542ZM114.542 107.134H115.872V101.134H114.542V107.134ZM117.214 101.451L117.138 101.413L114.455 106.779L114.531 106.817L117.214 101.451ZM117.293 101.496L116.039 100.774L113.045 105.974L114.299 106.696L117.293 101.496ZM116.036 100.772L108.094 96.2123L105.107 101.416L113.049 105.976L116.036 100.772ZM109.6 98.814V98.51H103.6V98.814H109.6ZM109.6 98.51V98.396H103.6V98.51H109.6ZM109.6 98.396V94.558H103.6V98.396H109.6ZM109.6 94.558V94.482H103.6V94.558H109.6ZM109.6 94.482V94.064H103.6V94.482H109.6ZM109.6 94.064V90.606H103.6V94.064H109.6ZM109.6 90.606V90.226H103.6V90.606H109.6Z" fill="#08203C" mask="url(#path-96-outside-1_134_4202)"/>
    <path d="M51.7948 82.436H56.1268V97.332V97.75V101.664V102.044V112H51.7948V100.334H53.1248L53.0488 100.296L51.7948 99.574L48.1848 97.484V112H43.8528V94.976V94.558V90.644V90.264V82.436H48.1848V92.734L51.7948 94.824V82.436ZM65.6957 112H59.5397V107.668V94.976V94.558V94.292V90.644V90.264L67.4817 94.824V90.264H71.8137V97.332V97.75V101.664V102.044V107.668V112H67.4817V109.986L65.6957 112ZM63.8717 97.484V107.668H67.4817V100.334H68.8117L67.4817 99.574L63.8717 97.484ZM79.5586 112H75.2266V94.938V94.558V94.102V90.606V90.226L87.5006 97.294V97.712V97.826V101.626V102.044V111.962V112H83.1686V111.962V100.296H84.4986L79.5586 97.446V112ZM98.8554 82.436H103.187V93.228V94.748V97.142V97.332V97.75V99.194V101.664V102.044V107.668V112H98.8554H95.2454H90.9134V107.668V94.976V94.596V94.558V90.644V90.264L98.8554 94.824V82.436ZM98.8554 100.334H100.185L100.109 100.296L98.8554 99.574L95.2454 97.484V107.668H98.8554V100.334ZM106.6 90.226H118.874V90.606V94.558V95.508H114.542V94.558H110.932V96.572L118.874 101.17V101.322V101.55V105.464V105.882V107.668V111.506V112H106.6V111.506V107.668V104.21H110.932V107.668H114.542V104.134H115.872L115.796 104.096L114.542 103.374L106.6 98.814V98.51V98.396V94.558V94.482V94.064V90.606V90.226Z" fill="white"/>
    <path d="M51.7948 82.436H56.1268V97.332V97.75V101.664V102.044V112H51.7948V100.334H53.1248L53.0488 100.296L51.7948 99.574L48.1848 97.484V112H43.8528V94.976V94.558V90.644V90.264V82.436H48.1848V92.734L51.7948 94.824V82.436ZM65.6957 112H59.5397V107.668V94.976V94.558V94.292V90.644V90.264L67.4817 94.824V90.264H71.8137V97.332V97.75V101.664V102.044V107.668V112H67.4817V109.986L65.6957 112ZM63.8717 97.484V107.668H67.4817V100.334H68.8117L67.4817 99.574L63.8717 97.484ZM79.5586 112H75.2266V94.938V94.558V94.102V90.606V90.226L87.5006 97.294V97.712V97.826V101.626V102.044V111.962V112H83.1686V111.962V100.296H84.4986L79.5586 97.446V112ZM98.8554 82.436H103.187V93.228V94.748V97.142V97.332V97.75V99.194V101.664V102.044V107.668V112H98.8554H95.2454H90.9134V107.668V94.976V94.596V94.558V90.644V90.264L98.8554 94.824V82.436ZM98.8554 100.334H100.185L100.109 100.296L98.8554 99.574L95.2454 97.484V107.668H98.8554V100.334ZM106.6 90.226H118.874V90.606V94.558V95.508H114.542V94.558H110.932V96.572L118.874 101.17V101.322V101.55V105.464V105.882V107.668V111.506V112H106.6V111.506V107.668V104.21H110.932V107.668H114.542V104.134H115.872L115.796 104.096L114.542 103.374L106.6 98.814V98.51V98.396V94.558V94.482V94.064V90.606V90.226Z" fill="white"/>
  </g>
</svg>