<svg width="126" height="92" viewBox="0 0 126 92" fill="none" xmlns="http://www.w3.org/2000/svg">
<path fill-rule="evenodd" clip-rule="evenodd" d="M17.9771 24.2958L43.6882 16.3301C46.3237 15.5171 49.1431 16.9428 50.0631 19.5135L63.1683 19.0043C66.0007 18.8953 68.404 21.1199 68.516 23.9467L68.576 25.6L77.8836 27.7126C80.6423 28.342 82.399 31.1114 81.7666 33.8756L81.6677 34.3266L90.6931 39.0752C93.2006 40.3978 94.166 43.526 92.852 46.031L88.2272 54.8133C92.1982 58.7544 75.1621 46.2379 75.3251 51.8442C75.4992 57.6438 69.6544 46.9799 65.666 51.1991C61.6832 55.4213 62.7229 62.3284 56.9177 62.4995C51.1211 62.668 59.6572 68.4715 55.435 64.4887C51.5989 60.8724 55.4142 68.4733 54.8812 63.2727L53.4365 63.4116C52.8841 63.2869 53.4365 63.4116 39.4917 67.9782L39.2276 67.9871L32.1975 70.1637C29.4903 71.0029 26.5889 69.4754 25.7497 66.7682L14.5845 30.7381C13.7453 28.0309 15.2699 25.1351 17.9771 24.2958ZM52.331 62.8159C53.3138 60.0964 54.8494 57.5812 56.8625 55.4097L56.9682 55.2938L57.0005 55.2607L57.0327 55.2277L57.0972 55.1615L57.1294 55.1285L57.1616 55.0954L57.1938 55.0623L57.3227 54.9301L57.352 54.9026L57.3842 54.8695L57.4486 54.8034L57.4809 54.7704L57.5131 54.7373L57.5423 54.7098L57.5745 54.6768L57.639 54.6106L57.6712 54.5776L57.7034 54.5445L57.7327 54.517L57.7649 54.484L57.8641 54.3934L57.8964 54.3603L57.9226 54.3384L57.9634 54.3028L57.9956 54.2697L58.0656 54.2066L58.0979 54.1735L58.1241 54.1516L58.1649 54.116L58.2027 54.0859L58.2405 54.0559L58.2783 54.0258L58.3161 53.9958L58.3423 53.9739L58.3832 53.9382L58.421 53.9082L58.4588 53.8781L58.4966 53.8481L58.5344 53.818L58.5722 53.788L58.61 53.7579L58.6478 53.7279L58.6856 53.6978L58.7235 53.6678L58.8575 53.5527L58.8953 53.5226L59.035 53.4106L59.0728 53.3805L59.1106 53.3505L59.1484 53.3204L48.7782 20.1466C48.1685 18.1898 46.0659 17.0783 44.1091 17.688L18.3924 25.6507C16.4357 26.2604 15.3272 28.3574 15.9369 30.3142L27.1248 66.3421C27.7344 68.2988 29.8371 69.4103 31.7938 68.8007L52.3254 62.8128L52.331 62.8159ZM60.2913 52.4162C60.8743 52.0028 61.4848 51.6186 62.1056 51.2687L62.2267 51.2043L62.3307 51.1451L62.3397 51.1283L62.4664 51.067C62.6598 50.9622 62.8587 50.8605 63.0606 50.7532L63.1787 50.6944L63.2853 50.6437L63.3171 50.6248C63.5448 50.5098 63.7776 50.4119 64.0079 50.3055L64.0453 50.2896L64.2523 50.1995L64.2695 50.1943L64.3902 50.1441L64.5109 50.0939L64.7554 49.9879C65.1635 49.8188 65.5737 49.6725 65.9922 49.5378L66.0265 49.5275L66.2443 49.4575L66.2959 49.4421L66.3934 49.4082L66.5223 49.3696C66.6855 49.3207 66.8487 49.2717 67.0145 49.2314L67.0575 49.2186L67.2749 49.1628L67.3148 49.1555L67.5408 49.0972L67.5721 49.0925L67.7379 49.0521L67.878 49.0195L67.9265 49.0097L67.9437 49.0045L68.0752 48.9745L67.1011 24.0054C67.0189 21.9656 65.2696 20.3456 63.2327 20.4222L50.5111 20.9148L60.2968 52.4192L60.2913 52.4162ZM78.3246 49.1525C81.5677 49.9925 84.5924 51.5721 87.1628 53.8074L91.6096 45.3686C92.5647 43.5563 91.8567 41.2873 90.0445 40.3322L81.3626 35.7616L78.3272 49.1611L78.3246 49.1525ZM76.9382 48.8376L80.3974 33.5556C80.8499 31.5661 79.5754 29.5465 77.5803 29.0909L68.639 27.0604L69.491 48.7001L69.5138 48.698L69.5365 48.6958L69.7075 48.6727L69.7474 48.6654L69.7844 48.6637L69.8329 48.6538L70.0438 48.6234L70.0838 48.6161L70.2547 48.593L70.2947 48.5857L70.3174 48.5836L70.3402 48.5814L70.5851 48.5549L70.8355 48.5313L70.8466 48.5374L70.881 48.5271L71.1143 48.5087L71.1254 48.5147L71.3419 48.4873L71.3844 48.4886L71.4244 48.4813L71.6405 48.468L71.646 48.4711L71.8934 48.4531L71.9218 48.454L71.933 48.46L72.1946 48.4425L72.4557 48.4391L72.4871 48.4344L72.5579 48.4366L72.6885 48.4349L72.7053 48.4439L72.731 48.4362L72.7478 48.4452L72.9381 48.4397L73.0034 48.4389L73.0089 48.4419L73.2332 48.4403L73.2701 48.4385L73.307 48.4368L73.5283 48.4408L73.5338 48.4438L73.8032 48.452L73.8199 48.4611L74.0467 48.468L74.0695 48.4659L74.1176 48.4702L74.313 48.4819L74.3297 48.4909L74.4092 48.4905L74.4857 48.4957L74.5621 48.5009L74.6046 48.5022L74.6386 48.506L74.715 48.5112L74.7915 48.5164L74.8679 48.5216L74.8791 48.5276L74.9388 48.5237L75.0887 48.5397L75.148 48.55L75.1591 48.556L75.2356 48.5612L75.3091 48.572L75.3825 48.5827L75.4559 48.5935L75.5294 48.6043L75.6028 48.615L75.7497 48.6366L75.8232 48.6473L75.8966 48.6581L76.0435 48.6796L76.117 48.6904L76.1904 48.7012L76.2639 48.7119L76.3373 48.7227L76.4107 48.7334L76.549 48.7575L76.5546 48.7606L76.6281 48.7713L76.6985 48.7877L76.769 48.804L76.8394 48.8204L76.9098 48.8367L76.9377 48.8517L76.9382 48.8376Z" fill="#14323D"/>
<path d="M17.9771 24.2958L43.6882 16.3301C46.3237 15.5171 49.1431 16.9428 50.0631 19.5135L63.1683 19.0043C66.0007 18.8953 68.404 21.1199 68.516 23.9467L68.576 25.6L77.8836 27.7126C80.6423 28.342 82.399 31.1114 81.7666 33.8756L81.6677 34.3266L90.6931 39.0752C93.2006 40.3978 94.166 43.526 92.852 46.031L88.2272 54.8133C92.1981 58.7544 71.5716 47.6601 71.7346 53.2664C71.9086 59.066 74.2007 50.3881 70.2123 54.6073C66.2295 58.8295 71.6264 56.7958 65.8212 56.9669C60.0246 57.1354 65.116 64.5719 60.8938 60.5891C57.0576 56.9728 56.2599 68.3054 55.7269 63.1049L54.3029 62.961L55.0149 63.033C53.4958 62.4161 39.9512 68.2619 39.4917 67.9782L39.2276 67.9871L32.1975 70.1637C29.4903 71.0029 26.5889 69.4754 25.7497 66.7681L14.5845 30.7381C13.7453 28.0309 15.2699 25.1351 17.9771 24.2958ZM52.331 62.8159C53.3138 60.0964 54.8494 57.5812 56.8625 55.4097L56.9682 55.2938L57.0005 55.2607L57.0327 55.2277L57.0972 55.1615L57.1294 55.1285L57.1616 55.0954L57.1938 55.0623L57.3227 54.9301L57.352 54.9026L57.3842 54.8695L57.4486 54.8034L57.4809 54.7704L57.5131 54.7373L57.5423 54.7098L57.5745 54.6768L57.639 54.6106L57.6712 54.5776L57.7034 54.5445L57.7327 54.517L57.7649 54.484L57.8641 54.3934L57.8964 54.3603L57.9226 54.3384L57.9634 54.3028L57.9956 54.2697L58.0657 54.2066L58.0979 54.1735L58.1241 54.1516L58.1649 54.116L58.2027 54.0859L58.2405 54.0559L58.2783 54.0258L58.3161 53.9958L58.3423 53.9739L58.3832 53.9382L58.421 53.9082L58.4588 53.8781L58.4966 53.8481L58.5344 53.818L58.5722 53.788L58.61 53.7579L58.6478 53.7279L58.6856 53.6978L58.7235 53.6678L58.8575 53.5527L58.8953 53.5226L59.035 53.4106L59.0728 53.3805L59.1106 53.3505L59.1484 53.3204L48.7782 20.1466C48.1685 18.1898 46.0659 17.0783 44.1091 17.688L18.3924 25.6507C16.4357 26.2604 15.3272 28.3574 15.9369 30.3142L27.1248 66.3421C27.7345 68.2988 29.8371 69.4103 31.7938 68.8007L52.3254 62.8128L52.331 62.8159ZM60.2913 52.4162C60.8743 52.0028 61.4848 51.6186 62.1056 51.2687L62.2267 51.2043L62.3307 51.1451L62.3397 51.1283L62.4664 51.067C62.6598 50.9622 62.8587 50.8605 63.0606 50.7532L63.1787 50.6944L63.2853 50.6437L63.3171 50.6248C63.5448 50.5098 63.7776 50.4119 64.0079 50.3055L64.0453 50.2896L64.2523 50.1995L64.2695 50.1943L64.3902 50.1441L64.5109 50.0939L64.7554 49.9879C65.1635 49.8188 65.5737 49.6725 65.9922 49.5378L66.0265 49.5275L66.2443 49.4575L66.2959 49.4421L66.3934 49.4082L66.5223 49.3696C66.6855 49.3207 66.8487 49.2717 67.0146 49.2314L67.0575 49.2186L67.2749 49.1628L67.3148 49.1555L67.5408 49.0972L67.5721 49.0925L67.7379 49.0521L67.878 49.0195L67.9265 49.0097L67.9437 49.0045L68.0752 48.9745L67.1011 24.0054C67.0189 21.9656 65.2696 20.3456 63.2327 20.4222L50.5111 20.9148L60.2968 52.4192L60.2913 52.4162ZM78.3246 49.1525C81.5677 49.9925 84.5924 51.5721 87.1628 53.8074L91.6096 45.3686C92.5647 43.5563 91.8568 41.2873 90.0445 40.3322L81.3626 35.7616L78.3272 49.1611L78.3246 49.1525ZM76.9382 48.8376L80.3974 33.5556C80.8499 31.5661 79.5754 29.5465 77.5803 29.0909L68.639 27.0604L69.491 48.7001L69.5138 48.698L69.5365 48.6958L69.7075 48.6727L69.7474 48.6654L69.7844 48.6637L69.8329 48.6538L70.0438 48.6234L70.0838 48.6161L70.2547 48.593L70.2947 48.5857L70.3174 48.5836L70.3402 48.5814L70.5851 48.5549L70.8355 48.5313L70.8466 48.5374L70.881 48.5271L71.1143 48.5087L71.1254 48.5147L71.3419 48.4873L71.3844 48.4886L71.4244 48.4813L71.6405 48.468L71.646 48.4711L71.8934 48.4531L71.9218 48.454L71.933 48.46L72.1946 48.4425L72.4557 48.4391L72.4871 48.4344L72.5579 48.4366L72.6885 48.4349L72.7053 48.4439L72.731 48.4362L72.7478 48.4452L72.9381 48.4397L73.0034 48.4389L73.0089 48.4419L73.2332 48.4403L73.2701 48.4385L73.307 48.4368L73.5283 48.4408L73.5338 48.4438L73.8032 48.452L73.8199 48.4611L74.0467 48.468L74.0695 48.4659L74.1176 48.4702L74.313 48.4819L74.3297 48.4909L74.4092 48.4905L74.4857 48.4957L74.5621 48.5008L74.6046 48.5022L74.6386 48.506L74.715 48.5112L74.7915 48.5164L74.8679 48.5216L74.8791 48.5276L74.9388 48.5237L75.0887 48.5397L75.148 48.55L75.1591 48.556L75.2356 48.5612L75.309 48.572L75.3825 48.5827L75.4559 48.5935L75.5294 48.6043L75.6028 48.615L75.7497 48.6366L75.8232 48.6473L75.8966 48.6581L76.0435 48.6796L76.117 48.6904L76.1904 48.7012L76.2639 48.7119L76.3373 48.7227L76.4107 48.7334L76.549 48.7575L76.5546 48.7606L76.6281 48.7713L76.6985 48.7877L76.769 48.804L76.8394 48.8204L76.9098 48.8367L76.9377 48.8517L76.9382 48.8376Z" stroke="#FF4600" stroke-width="4" stroke-linejoin="round"/>
<path d="M18.2049 25.0462C15.9131 25.7563 14.6177 28.2136 15.3333 30.5084L18.2049 25.0462ZM26.5212 66.5363C27.2343 68.8226 29.6887 70.1236 31.9805 69.4135L52.8183 63.3386C53.0074 63.282 53.162 63.142 53.233 62.9569M26.5298 66.5338L53.233 62.9569L26.5298 66.5338ZM53.233 62.9569C54.2312 60.3826 55.5556 57.7247 57.4324 55.7392L53.233 62.9569ZM53.233 62.9569L57.4324 55.7392L53.233 62.9569ZM57.4324 55.7392C58.0748 55.0552 58.767 54.4124 59.4914 53.8303C59.6951 53.6662 59.7742 53.3991 59.6996 53.1499M57.4324 55.7392L59.6996 53.1499L57.4324 55.7392ZM59.6996 53.1499L49.3839 19.9551L59.6996 53.1499ZM59.694 53.1469L49.3839 19.9551L59.694 53.1469ZM49.3839 19.9551C48.6708 17.6689 46.2165 16.3678 43.9217 17.0835L49.3839 19.9551ZM86.7378 54.2852C86.8842 54.4145 87.0784 54.4687 87.2725 54.4293C87.4637 54.3954 87.6291 54.2756 87.7168 54.0995L92.1637 45.6608C93.2786 43.5384 92.4518 40.8883 90.3325 39.7678L81.6506 35.1971C81.4776 35.1039 81.2705 35.1004 81.0893 35.1828C80.908 35.2652 80.7782 35.4258 80.7382 35.6203L77.7027 49.0198C77.6244 49.3523 77.8326 49.6878 78.1621 49.7717C81.3124 50.5833 84.2447 52.1203 86.7404 54.2938L86.7378 54.2852ZM68.6373 49.2783C68.7005 49.161 68.7216 49.0283 68.7114 48.9003L67.73 23.9849C67.6329 21.5984 65.5885 19.697 63.202 19.7941L50.4804 20.2866C50.2815 20.2947 50.0998 20.3913 49.9898 20.5554C49.8742 20.7164 49.8423 20.9226 49.9019 21.106L59.6821 52.6074C59.7444 52.7995 59.8899 52.9572 60.0866 53.0199C60.2803 53.0883 60.4912 53.0579 60.6566 52.9381C62.9187 51.3475 65.4645 50.2195 68.1561 49.6097C68.3555 49.5874 68.5381 49.4625 68.6373 49.2783ZM72.221 49.0987C73.766 49.0524 75.2917 49.1758 76.7812 49.4598C76.9191 49.4981 77.0699 49.4857 77.2052 49.4217C77.3865 49.3393 77.5162 49.1787 77.5618 48.9871L81.021 33.7052C81.5493 31.3747 80.061 29.0165 77.7249 28.4852L68.7836 26.4547C68.5921 26.4091 68.3919 26.4597 68.2376 26.5855C68.0834 26.7113 68.0039 26.899 68.0119 27.0978L68.8583 48.7345C68.8613 48.9162 68.9497 49.0864 69.091 49.1985C69.2292 49.3163 69.4122 49.3644 69.5917 49.3387C70.4556 49.2063 71.3349 49.1254 72.2266 49.1017L72.221 49.0987Z" fill="white"/>
<path d="M18.2049 25.0462L43.9217 17.0835M18.2049 25.0462C15.9131 25.7563 14.6177 28.2136 15.3333 30.5084M18.2049 25.0462L15.3333 30.5084M43.9217 17.0835C46.2165 16.3678 48.6708 17.6689 49.3839 19.9551M43.9217 17.0835L49.3839 19.9551M15.3333 30.5084L26.5212 66.5363C27.2343 68.8226 29.6887 70.1236 31.9805 69.4135L52.8183 63.3386C53.0074 63.282 53.162 63.142 53.233 62.9569M53.233 62.9569L26.5298 66.5338M53.233 62.9569C54.2312 60.3827 55.5556 57.7247 57.4324 55.7392M53.233 62.9569L57.4324 55.7392M57.4324 55.7392C58.0748 55.0552 58.767 54.4124 59.4914 53.8303C59.6951 53.6662 59.7742 53.3991 59.6996 53.1499M57.4324 55.7392L59.6996 53.1499M59.6996 53.1499L49.3839 19.9551M49.3839 19.9551L59.694 53.1469M86.7378 54.2852C86.8842 54.4145 87.0784 54.4687 87.2725 54.4293C87.4637 54.3954 87.6291 54.2756 87.7168 54.0995L92.1637 45.6608C93.2786 43.5384 92.4518 40.8884 90.3325 39.7678L81.6506 35.1971C81.4776 35.1039 81.2705 35.1004 81.0893 35.1828C80.908 35.2652 80.7782 35.4258 80.7382 35.6203L77.7027 49.0198C77.6244 49.3523 77.8326 49.6878 78.162 49.7717C81.3124 50.5833 84.2447 52.1203 86.7404 54.2938L86.7378 54.2852ZM68.6373 49.2783C68.7005 49.161 68.7216 49.0283 68.7114 48.9003L67.73 23.9849C67.6329 21.5984 65.5885 19.697 63.202 19.7941L50.4804 20.2866C50.2815 20.2947 50.0998 20.3913 49.9898 20.5554C49.8742 20.7164 49.8423 20.9226 49.9019 21.106L59.6821 52.6074C59.7444 52.7995 59.8899 52.9572 60.0866 53.0199C60.2803 53.0883 60.4912 53.0579 60.6566 52.9381C62.9187 51.3475 65.4645 50.2195 68.1561 49.6097C68.3555 49.5874 68.5381 49.4625 68.6373 49.2783ZM72.221 49.0987C73.766 49.0524 75.2917 49.1758 76.7812 49.4598C76.9191 49.4981 77.0699 49.4857 77.2052 49.4217C77.3865 49.3393 77.5162 49.1787 77.5618 48.9871L81.021 33.7052C81.5493 31.3747 80.061 29.0165 77.7249 28.4852L68.7836 26.4547C68.5921 26.4091 68.3919 26.4597 68.2376 26.5855C68.0834 26.7113 68.0039 26.899 68.0119 27.0978L68.8583 48.7345C68.8613 48.9162 68.9497 49.0864 69.091 49.1985C69.2292 49.3163 69.4122 49.3644 69.5917 49.3387C70.4556 49.2063 71.3349 49.1254 72.2266 49.1017L72.221 49.0987Z" stroke="#FF4600" stroke-width="2" stroke-linejoin="round"/>
<path d="M84.821 42.0566C84.8469 41.768 84.9294 41.4811 85.0768 41.2075L84.821 42.0566ZM84.821 42.0566L84.8154 42.0536C83.6821 41.4428 82.2537 41.8474 81.6541 42.9867C81.046 44.1286 81.5222 45.5308 82.656 46.1274M84.821 42.0566L88.7221 44.1085C89.8615 44.7081 90.3322 46.1073 89.724 47.2492C89.1244 48.3885 87.6935 48.7845 86.5572 48.1793C86.2668 48.0229 86.0234 47.8196 85.8237 47.5751C85.8373 47.9643 85.9768 48.2268 86.2392 48.3682C86.5463 48.5337 86.6651 48.9147 86.4997 49.2218C86.3342 49.5288 85.9532 49.6477 85.6431 49.4878L82.0997 47.6142C81.7926 47.4487 81.6738 47.0677 81.8337 46.7576C81.9991 46.4506 82.3802 46.3317 82.6902 46.4916C82.9526 46.633 83.2374 46.5992 83.5644 46.3936C83.256 46.3643 82.9437 46.2752 82.656 46.1274M88.6886 44.0905C88.8867 43.9235 89.0573 43.7272 89.1948 43.4988C89.2099 43.4709 89.2219 43.4485 89.237 43.4206C89.8507 42.2817 89.3688 40.8765 88.2351 40.28C87.0988 39.6748 85.6734 40.0737 85.0683 41.2101L88.68 44.0931L88.6886 44.0905ZM88.6886 44.0905C88.6886 44.0905 88.711 44.1025 88.7221 44.1085L88.6886 44.0905Z" fill="#14323D"/>
<path d="M84.821 42.0566C84.8468 41.768 84.9294 41.4811 85.0768 41.2075L84.821 42.0566ZM84.821 42.0566L84.8154 42.0536C83.6821 41.4428 82.2537 41.8474 81.6541 42.9867C81.0459 44.1286 81.5222 45.5308 82.656 46.1274M84.821 42.0566L88.7221 44.1085M82.656 46.1274C82.9437 46.2752 83.256 46.3643 83.5644 46.3936C83.2374 46.5992 82.9526 46.633 82.6902 46.4916C82.3802 46.3317 81.9991 46.4506 81.8337 46.7576C81.6738 47.0677 81.7926 47.4487 82.0997 47.6142L85.6431 49.4878C85.9532 49.6477 86.3342 49.5288 86.4997 49.2218C86.6651 48.9147 86.5463 48.5337 86.2392 48.3682C85.9768 48.2268 85.8373 47.9643 85.8237 47.5751C86.0234 47.8196 86.2668 48.0229 86.5572 48.1793C87.6935 48.7845 89.1244 48.3885 89.724 47.2492C90.3322 46.1073 89.8615 44.7081 88.7221 44.1085M82.656 46.1274L82.9569 45.5691M88.7221 44.1085C88.711 44.1025 88.6886 44.0905 88.6886 44.0905M88.7221 44.1085L88.6886 44.0905M88.6886 44.0905C88.8867 43.9235 89.0573 43.7272 89.1948 43.4988C89.2099 43.4709 89.2219 43.4485 89.237 43.4206C89.8507 42.2817 89.3688 40.8765 88.2351 40.28C87.0988 39.6748 85.6734 40.0737 85.0683 41.2101L88.68 44.0931L88.6886 44.0905Z" stroke="#FF4600" stroke-width="2" stroke-linejoin="round"/>
<path d="M72.0124 33.0351C71.7826 33.221 71.7103 33.5423 71.8356 33.8044L74.0817 38.4729C74.1671 38.6486 74.3277 38.7784 74.5167 38.8154C74.7027 38.8579 74.9085 38.8103 75.0541 38.6871L79.0271 35.4322C79.2484 35.2489 79.3233 34.9362 79.1979 34.6742L77.0076 30.0357C76.9222 29.86 76.7672 29.7332 76.5757 29.6877C76.3841 29.6421 76.1869 29.6871 76.0357 29.8073L72.0038 33.0377L72.0124 33.0351Z" fill="#FF4600" stroke="#FF4600" stroke-width="2" stroke-linejoin="round"/>
<path d="M60.1388 30.0944C60.0942 29.7894 60.282 29.4944 60.5771 29.4013C60.6974 29.3653 60.8371 29.2532 60.9866 29.0024C61.0649 28.8572 61.1439 28.6837 61.2037 28.4926C61.0379 28.5329 60.8669 28.5561 60.6964 28.565L60.1444 30.0974L60.1388 30.0944ZM60.1388 30.0944C60.1833 30.3994 60.4401 30.6314 60.7464 30.638L60.752 30.641C60.752 30.641 60.7833 30.6363 60.7975 30.6367L64.1981 30.5026C64.5134 30.4924 64.7764 30.2451 64.8031 29.9281C64.8355 29.6141 64.6259 29.3211 64.3189 29.2493C64.1922 29.217 64.0418 29.1216 63.8817 28.884C63.7838 28.7448 63.701 28.5777 63.6216 28.3908M60.1332 30.0914L63.6216 28.3908L60.1332 30.0914ZM63.6216 28.3908C63.7882 28.4158 63.9609 28.4296 64.1314 28.4206C65.3586 28.376 66.4543 27.4391 66.3993 26.1775C66.3724 25.5723 66.1218 25.0482 65.8006 24.6014C65.4821 24.1631 65.063 23.7644 64.6594 23.4172C64.4743 23.2526 64.2832 23.0992 64.1007 22.9432C64.0784 22.9312 64.0646 22.9166 64.0453 22.899C63.8461 22.7339 63.6524 22.5719 63.4785 22.4134C63.1195 22.0903 62.8529 21.8097 62.6962 21.5523C62.5773 21.3586 62.3595 21.2412 62.1323 21.2485C61.9051 21.2557 61.6967 21.3883 61.591 21.5979C61.4521 21.8689 61.2132 22.1652 60.8733 22.5151C60.7092 22.686 60.5309 22.8565 60.3435 23.0437C60.3259 23.063 60.3113 23.0768 60.2937 23.0961C60.124 23.264 59.9457 23.4344 59.7729 23.6079C59.3952 23.9879 59.0132 24.416 58.7266 24.8811C58.4399 25.3462 58.2331 25.8903 58.2514 26.4981C58.3008 27.7567 59.4581 28.6037 60.6883 28.5534L63.6246 28.3852L63.6216 28.3908Z" fill="#14323D"/>
<path d="M60.1388 30.0944C60.0942 29.7894 60.282 29.4944 60.5771 29.4013C60.6974 29.3653 60.8371 29.2532 60.9866 29.0024C61.0649 28.8572 61.1439 28.6837 61.2037 28.4926C61.0379 28.5329 60.8669 28.5561 60.6964 28.565L60.1444 30.0974L60.1388 30.0944ZM60.1388 30.0944C60.1833 30.3994 60.4401 30.6314 60.7464 30.638L60.752 30.641C60.752 30.641 60.7833 30.6363 60.7975 30.6367L64.1981 30.5026C64.5134 30.4924 64.7764 30.2451 64.8031 29.9281C64.8355 29.6141 64.6259 29.3211 64.3189 29.2493C64.1922 29.217 64.0418 29.1216 63.8817 28.884C63.7838 28.7448 63.701 28.5777 63.6216 28.3908M63.6216 28.3908L60.1332 30.0914M63.6216 28.3908C63.7882 28.4158 63.9609 28.4296 64.1314 28.4206C65.3586 28.376 66.4543 27.4391 66.3993 26.1775C66.3724 25.5723 66.1218 25.0482 65.8006 24.6014C65.4821 24.1631 65.063 23.7644 64.6594 23.4172C64.4743 23.2526 64.2832 23.0992 64.1007 22.9432C64.0784 22.9312 64.0646 22.9166 64.0453 22.899C63.8461 22.7339 63.6524 22.5719 63.4785 22.4134C63.1195 22.0903 62.8529 21.8097 62.6962 21.5523C62.5773 21.3586 62.3595 21.2412 62.1323 21.2485C61.9051 21.2557 61.6967 21.3883 61.591 21.5979C61.4521 21.8689 61.2132 22.1652 60.8733 22.5151C60.7092 22.686 60.5309 22.8565 60.3435 23.0437C60.3259 23.063 60.3113 23.0768 60.2937 23.0961C60.124 23.264 59.9457 23.4344 59.7729 23.6079C59.3952 23.9879 59.0132 24.416 58.7266 24.8811C58.4399 25.3462 58.2331 25.8903 58.2514 26.4981C58.3008 27.7567 59.4581 28.6037 60.6883 28.5534L63.6246 28.3852L63.6216 28.3908Z" stroke="#FF4600" stroke-width="2" stroke-linejoin="round"/>
<path d="M45.5884 27.8578C45.3534 27.9329 45.0974 27.8598 44.93 27.6759C44.6419 27.3549 44.2228 27.0498 43.7074 26.736C43.4541 26.5779 43.1835 26.4249 42.9048 26.2603C42.8769 26.2452 42.8545 26.2332 42.8266 26.2182C42.5728 26.0742 42.3109 25.9186 42.0489 25.763C40.9345 25.0904 39.7042 24.2184 39.2644 22.8288C38.8332 21.4365 39.5493 19.9205 40.9472 19.4923C41.6977 19.2628 42.4738 19.4001 43.0887 19.7963C43.3733 19.1212 43.9293 18.5707 44.6828 18.3356L45.5884 27.8578ZM45.5884 27.8578C45.8234 27.7827 45.997 27.5809 46.0271 27.3378L45.5884 27.8578ZM45.5884 27.8578L46.0271 27.3378L45.5884 27.8578ZM46.0271 27.3378C46.0857 26.9083 46.2594 26.4255 46.5005 25.8711C46.6196 25.5967 46.7559 25.3171 46.8926 25.0233C46.9076 24.9954 46.9197 24.9731 46.9347 24.9452C47.0619 24.6823 47.1952 24.4083 47.3173 24.1283C47.8529 22.9473 48.3787 21.5305 47.9505 20.1326M46.0301 27.3322L47.9505 20.1326L46.0301 27.3322ZM47.9505 20.1326C47.5193 18.7403 46.0725 17.8958 44.6772 18.3326L47.9505 20.1326Z" fill="#FF4600"/>
<path d="M45.5884 27.8578C45.3534 27.9329 45.0974 27.8598 44.93 27.6759C44.6419 27.3549 44.2228 27.0498 43.7074 26.736C43.4541 26.5779 43.1835 26.4249 42.9048 26.2603C42.8769 26.2452 42.8545 26.2332 42.8266 26.2182C42.5728 26.0742 42.3109 25.9186 42.0489 25.763C40.9345 25.0904 39.7042 24.2184 39.2644 22.8288C38.8332 21.4365 39.5493 19.9205 40.9472 19.4923C41.6977 19.2628 42.4738 19.4001 43.0887 19.7963C43.3733 19.1212 43.9293 18.5707 44.6828 18.3356L45.5884 27.8578ZM45.5884 27.8578C45.8234 27.7827 45.997 27.5809 46.0271 27.3378M45.5884 27.8578L46.0271 27.3378M46.0271 27.3378C46.0857 26.9083 46.2594 26.4255 46.5005 25.8711C46.6196 25.5967 46.7559 25.3171 46.8926 25.0233C46.9076 24.9954 46.9197 24.9731 46.9347 24.9452C47.0619 24.6823 47.1952 24.4083 47.3173 24.1283C47.8529 22.9473 48.3787 21.5305 47.9505 20.1326M47.9505 20.1326L46.0301 27.3322M47.9505 20.1326C47.5193 18.7403 46.0725 17.8958 44.6772 18.3326L47.9505 20.1326Z" stroke="#FF4600" stroke-width="2" stroke-linejoin="round"/>
<path fill-rule="evenodd" clip-rule="evenodd" d="M57.9716 44.9564L57.4504 31.6863C57.4262 31.0896 56.9156 30.62 56.319 30.6442L53.5605 30.7498L57.9716 44.9564ZM28.4248 32.902L34.7366 31.0156L40.2322 29.3737C40.8078 29.2012 41.4163 29.5291 41.5832 30.1018L43.7816 37.4389L48.2251 52.2538L48.2328 52.2795L48.2405 52.3053L48.2482 52.3311L48.256 52.3569L48.2637 52.3826L48.2714 52.4084L48.2791 52.4342L48.2813 52.457L48.2834 52.4797L48.2855 52.5025L48.2877 52.5253L48.2898 52.548L48.289 52.5764L48.2881 52.6047L48.2761 52.6271L48.2808 52.6584L48.2687 52.6807L48.2734 52.7121L48.2614 52.7344L48.2661 52.7658L48.2541 52.7881L48.2476 52.8135L48.2532 52.8165L48.2412 52.8388L48.2292 52.8611L48.2171 52.8835L48.181 52.9505L48.169 52.9728L48.0577 53.1794L48.0456 53.2017L48.0336 53.224L48.0216 53.2463L48.0095 53.2687L47.9975 53.291L47.9919 53.288L47.9799 53.3103L47.9511 53.3236L47.9391 53.346L47.9103 53.3593L47.8982 53.3816L47.8695 53.3949L47.8574 53.4172L47.8286 53.4305L47.8054 53.4469L47.7852 53.4576L47.765 53.4683L47.7449 53.4791L47.7247 53.4898L47.7045 53.5005L47.6787 53.5082L47.6529 53.516L47.6271 53.5237L47.6014 53.5314L47.5756 53.5391L47.5498 53.5469L47.5241 53.5546L41.2123 55.441L39.7689 55.8735L39.7333 55.8327L39.6813 55.7687L39.6594 55.7424L39.6294 55.7046L39.6238 55.7016L39.5199 55.5736L39.5143 55.5706L39.4761 55.5212L39.4649 55.5152L39.4404 55.4804L39.413 55.4511L39.4018 55.4451L39.3636 55.3957L39.3524 55.3897L39.2949 55.3227L39.2781 55.3136L39.2399 55.2642L39.2343 55.2612L39.2043 55.2234L39.1824 55.1972L39.1656 55.1882L39.1274 55.1388L39.0918 55.098L39.0639 55.0829L39.0506 55.0541L39.0094 55.0103L38.9681 54.9665L38.9458 54.9544L38.9269 54.9226L38.8883 54.8874L38.847 54.8436L38.8303 54.8346L38.8084 54.8084L38.7753 54.7761L38.7698 54.7731L38.7285 54.7293L38.7118 54.7203L38.6843 54.691L38.6512 54.6588L38.6401 54.6528L38.5989 54.609L38.5821 54.5999L38.549 54.5677L38.51 54.5467L38.4962 54.5321L38.455 54.4882L38.4438 54.4822L38.4108 54.45L38.3773 54.4319L38.3635 54.4173L38.3137 54.3761L38.3081 54.3731L38.2695 54.3378L38.2416 54.3228L38.2278 54.3082L38.178 54.2669L38.1278 54.2398L38.1029 54.2192L38.0806 54.2072L38.0337 54.1603L37.9779 54.1303L37.9586 54.1126L37.9307 54.0976L37.9281 54.089L37.8834 54.0649L37.8366 54.0181L37.7864 53.991L37.7447 53.9614L37.7392 53.9584L37.6924 53.9115L37.6365 53.8814L37.5974 53.8604L37.5863 53.8544L37.5335 53.8187L37.5167 53.8097L37.4806 53.783L37.4416 53.762L37.4278 53.7474L37.3776 53.7203L37.3664 53.7143L37.3273 53.6932L37.2938 53.6751L37.2157 53.633L37.171 53.609L37.1431 53.5939L37.1208 53.5819L32.7438 51.2231L32.144 49.2212L27.7005 34.4064L27.6928 34.3806L27.6851 34.3549L27.6773 34.3291L27.6696 34.3033L27.6619 34.2775L27.6542 34.2518L27.6465 34.226L27.6443 34.2032L27.6422 34.1805L27.64 34.1577L27.6379 34.1349L27.6358 34.1122L27.6366 34.0838L27.6375 34.0555L27.6495 34.0331L27.6448 34.0018L27.6568 33.9794L27.6521 33.9481L27.6642 33.9257L27.6595 33.8944L27.6715 33.8721L27.6779 33.8467L27.6724 33.8437L27.6844 33.8214L27.6964 33.799L27.7085 33.7767L27.7446 33.7097L27.7566 33.6874L27.8679 33.4808L27.88 33.4585L27.892 33.4362L27.904 33.4138L27.9161 33.3915L27.9281 33.3692L27.9401 33.3468L27.9689 33.3335L27.9809 33.3112L28.0097 33.2979L28.0218 33.2756L28.0505 33.2623L28.0626 33.2399L28.0914 33.2266L28.1146 33.2103L28.1348 33.1996L28.155 33.1888L28.1751 33.1781L28.1953 33.1674L28.2155 33.1566L28.2413 33.1489L28.2671 33.1412L28.2929 33.1335L28.3186 33.1258L28.3444 33.118L28.3702 33.1103L28.3959 33.1026L28.4123 32.9385L28.4248 32.902Z" fill="#E3E5E8"/>
<path d="M57.9716 44.9564L57.4504 31.6863C57.4262 31.0896 56.9156 30.62 56.319 30.6442L53.5605 30.7498L57.9716 44.9564ZM28.4248 32.902L34.7366 31.0156L40.2322 29.3737C40.8078 29.2012 41.4163 29.5291 41.5832 30.1018L43.7816 37.4389L48.2251 52.2538L48.2328 52.2795L48.2405 52.3053L48.2482 52.3311L48.256 52.3569L48.2637 52.3826L48.2714 52.4084L48.2791 52.4342L48.2813 52.457L48.2834 52.4797L48.2855 52.5025L48.2877 52.5253L48.2898 52.548L48.289 52.5764L48.2881 52.6047L48.2761 52.6271L48.2808 52.6584L48.2687 52.6807L48.2734 52.7121L48.2614 52.7344L48.2661 52.7658L48.2541 52.7881L48.2476 52.8135L48.2532 52.8165L48.2412 52.8388L48.2292 52.8611L48.2171 52.8835L48.181 52.9505L48.169 52.9728L48.0577 53.1794L48.0456 53.2017L48.0336 53.224L48.0216 53.2463L48.0095 53.2687L47.9975 53.291L47.9919 53.288L47.9799 53.3103L47.9511 53.3236L47.9391 53.346L47.9103 53.3593L47.8982 53.3816L47.8695 53.3949L47.8574 53.4172L47.8286 53.4306L47.8054 53.4469L47.7852 53.4576L47.765 53.4683L47.7449 53.4791L47.7247 53.4898L47.7045 53.5005L47.6787 53.5082L47.6529 53.516L47.6271 53.5237L47.6014 53.5314L47.5756 53.5391L47.5498 53.5469L47.5241 53.5546L41.2123 55.441L39.7689 55.8735L39.7333 55.8327L39.6813 55.7687L39.6594 55.7424L39.6294 55.7046L39.6238 55.7016L39.5199 55.5736L39.5143 55.5706L39.4761 55.5212L39.4649 55.5152L39.4404 55.4804L39.413 55.4511L39.4018 55.4451L39.3636 55.3957L39.3524 55.3897L39.2949 55.3227L39.2781 55.3136L39.2399 55.2642L39.2343 55.2612L39.2043 55.2234L39.1824 55.1972L39.1656 55.1882L39.1274 55.1388L39.0918 55.098L39.0639 55.0829L39.0506 55.0541L39.0094 55.0103L38.9681 54.9665L38.9458 54.9544L38.9269 54.9226L38.8883 54.8874L38.847 54.8436L38.8303 54.8346L38.8084 54.8084L38.7753 54.7761L38.7698 54.7731L38.7285 54.7293L38.7118 54.7203L38.6843 54.691L38.6512 54.6588L38.6401 54.6528L38.5989 54.609L38.5821 54.5999L38.549 54.5677L38.51 54.5467L38.4962 54.5321L38.455 54.4882L38.4438 54.4822L38.4108 54.45L38.3773 54.4319L38.3635 54.4173L38.3137 54.3761L38.3081 54.3731L38.2695 54.3378L38.2416 54.3228L38.2278 54.3082L38.178 54.2669L38.1278 54.2398L38.1029 54.2192L38.0806 54.2072L38.0337 54.1603L37.9779 54.1303L37.9586 54.1126L37.9307 54.0976L37.9281 54.089L37.8834 54.0649L37.8366 54.0181L37.7864 53.991L37.7447 53.9614L37.7392 53.9584L37.6924 53.9115L37.6365 53.8814L37.5974 53.8604L37.5863 53.8544L37.5335 53.8187L37.5167 53.8097L37.4806 53.783L37.4416 53.762L37.4278 53.7474L37.3776 53.7203L37.3664 53.7143L37.3273 53.6932L37.2938 53.6751L37.2157 53.633L37.171 53.609L37.1431 53.5939L37.1208 53.5819L32.7438 51.2231L32.144 49.2212L27.7005 34.4064L27.6928 34.3806L27.6851 34.3549L27.6773 34.3291L27.6696 34.3033L27.6619 34.2775L27.6542 34.2518L27.6465 34.226L27.6443 34.2032L27.6422 34.1805L27.64 34.1577L27.6379 34.1349L27.6358 34.1122L27.6366 34.0838L27.6375 34.0555L27.6495 34.0331L27.6448 34.0018L27.6568 33.9794L27.6521 33.9481L27.6642 33.9257L27.6595 33.8944L27.6715 33.8721L27.6779 33.8467L27.6724 33.8437L27.6844 33.8214L27.6964 33.799L27.7085 33.7767L27.7446 33.7097L27.7566 33.6874L27.8679 33.4808L27.88 33.4585L27.892 33.4362L27.904 33.4138L27.9161 33.3915L27.9281 33.3692L27.9401 33.3468L27.9689 33.3335L27.9809 33.3112L28.0097 33.2979L28.0218 33.2756L28.0505 33.2623L28.0626 33.2399L28.0914 33.2266L28.1146 33.2103L28.1348 33.1996L28.155 33.1888L28.1751 33.1781L28.1953 33.1674L28.2155 33.1566L28.2413 33.1489L28.2671 33.1412L28.2929 33.1335L28.3186 33.1258L28.3444 33.118L28.3702 33.1103L28.3959 33.1026L28.4123 32.9385L28.4248 32.902Z" stroke="#FF4600" stroke-width="4" stroke-linejoin="round"/>
<path fill-rule="evenodd" clip-rule="evenodd" d="M17.9771 24.2958L43.6882 16.3301C46.3237 15.5171 49.1431 16.9428 50.0631 19.5135L63.1683 19.0043C66.0007 18.8953 68.404 21.1199 68.516 23.9467L68.576 25.6L77.8836 27.7126C80.6423 28.342 82.399 31.1114 81.7666 33.8756L81.6677 34.3266L90.6931 39.0752C93.2006 40.3978 94.166 43.526 92.852 46.031L88.2272 54.8133C92.1982 58.7544 77.4245 53.3301 77.5874 58.9364C77.7615 64.736 78.2043 53.0729 74.2159 57.2921C70.2331 61.5143 74.0648 58.0595 68.2596 58.2306C62.463 58.3991 64.8293 59.7031 60.9889 61.5757C57.1527 57.9594 55.8117 69.605 55.2787 64.4044L55.7269 63.1049L55.5028 63.7547C53.9838 63.1378 39.9512 68.2619 39.4917 67.9782L39.2276 67.9871L32.1975 70.1637C29.4903 71.0029 26.5889 69.4754 25.7497 66.7681L14.5845 30.7381C13.7453 28.0309 15.2699 25.1351 17.9771 24.2958ZM52.331 62.8159C53.3138 60.0964 54.8494 57.5812 56.8625 55.4097L56.9682 55.2938L57.0005 55.2607L57.0327 55.2277L57.0972 55.1615L57.1294 55.1285L57.1616 55.0954L57.1938 55.0623L57.3227 54.9301L57.352 54.9026L57.3842 54.8695L57.4486 54.8034L57.4809 54.7704L57.5131 54.7373L57.5423 54.7098L57.5745 54.6768L57.639 54.6106L57.6712 54.5776L57.7034 54.5445L57.7327 54.517L57.7649 54.484L57.8641 54.3934L57.8964 54.3603L57.9226 54.3384L57.9634 54.3028L57.9956 54.2697L58.0657 54.2066L58.0979 54.1735L58.1241 54.1516L58.1649 54.116L58.2027 54.0859L58.2405 54.0559L58.2783 54.0258L58.3161 53.9958L58.3424 53.9739L58.3832 53.9382L58.421 53.9082L58.4588 53.8781L58.4966 53.8481L58.5344 53.818L58.5722 53.788L58.61 53.7579L58.6478 53.7279L58.6856 53.6978L58.7235 53.6678L58.8575 53.5527L58.8953 53.5226L59.035 53.4106L59.0728 53.3805L59.1106 53.3505L59.1484 53.3204L48.7782 20.1466C48.1685 18.1898 46.0659 17.0783 44.1091 17.688L18.3924 25.6507C16.4357 26.2604 15.3272 28.3574 15.9369 30.3142L27.1248 66.3421C27.7344 68.2988 29.8371 69.4103 31.7938 68.8007L52.3254 62.8128L52.331 62.8159ZM60.2913 52.4162C60.8743 52.0028 61.4848 51.6186 62.1056 51.2687L62.2267 51.2043L62.3307 51.1451L62.3397 51.1283L62.4664 51.067C62.6598 50.9622 62.8587 50.8605 63.0606 50.7532L63.1787 50.6944L63.2853 50.6437L63.3171 50.6248C63.5448 50.5098 63.7776 50.4119 64.0079 50.3055L64.0453 50.2896L64.2523 50.1995L64.2695 50.1943L64.3902 50.1441L64.5109 50.0939L64.7554 49.9879C65.1635 49.8188 65.5737 49.6725 65.9922 49.5378L66.0265 49.5275L66.2443 49.4575L66.2959 49.4421L66.3934 49.4082L66.5223 49.3696C66.6855 49.3207 66.8487 49.2717 67.0146 49.2314L67.0575 49.2186L67.2749 49.1628L67.3148 49.1555L67.5408 49.0972L67.5721 49.0925L67.7379 49.0521L67.878 49.0195L67.9265 49.0097L67.9437 49.0045L68.0752 48.9745L67.1011 24.0054C67.0189 21.9656 65.2696 20.3456 63.2327 20.4222L50.5111 20.9148L60.2968 52.4192L60.2913 52.4162ZM82.2702 57.0309C85.5133 57.8709 84.5924 51.5721 87.1628 53.8074L91.6096 45.3686C92.5647 43.5563 91.8568 41.2873 90.0445 40.3322L81.3626 35.7616L78.3272 49.1611L82.2702 57.0309ZM76.9382 48.8376L80.3974 33.5556C80.8499 31.5661 79.5754 29.5465 77.5803 29.0909L68.6391 27.0604L69.491 48.7001L69.5138 48.698L69.5365 48.6958L69.7075 48.6727L69.7474 48.6654L69.7844 48.6637L69.8329 48.6538L70.0438 48.6234L70.0838 48.6161L70.2547 48.593L70.2947 48.5857L70.3174 48.5836L70.3402 48.5814L70.5851 48.5549L70.8355 48.5313L70.8466 48.5374L70.881 48.5271L71.1143 48.5087L71.1254 48.5147L71.3419 48.4873L71.3844 48.4886L71.4244 48.4813L71.6405 48.468L71.646 48.4711L71.8934 48.4531L71.9218 48.454L71.933 48.46L72.1946 48.4425L72.4557 48.4391L72.4871 48.4344L72.5579 48.4366L72.6885 48.4349L72.7053 48.4439L72.731 48.4362L72.7478 48.4452L72.9381 48.4397L73.0034 48.4389L73.0089 48.4419L73.2332 48.4403L73.2701 48.4385L73.3071 48.4368L73.5283 48.4408L73.5338 48.4438L73.8032 48.452L73.8199 48.4611L74.0467 48.468L74.0695 48.4659L74.1176 48.4702L74.313 48.4819L74.3298 48.4909L74.4092 48.4905L74.4857 48.4957L74.5621 48.5009L74.6047 48.5022L74.6386 48.506L74.715 48.5112L74.7915 48.5164L74.8679 48.5216L74.8791 48.5276L74.9388 48.5237L75.0887 48.5397L75.148 48.55L75.1592 48.556L75.2356 48.5612L75.3091 48.572L75.3825 48.5827L75.4559 48.5935L75.5294 48.6043L75.6028 48.615L75.7497 48.6366L75.8232 48.6473L75.8966 48.6581L76.0435 48.6796L76.117 48.6904L76.1904 48.7011L76.2639 48.7119L76.3373 48.7227L76.4108 48.7334L76.549 48.7575L76.5546 48.7606L76.6281 48.7713L76.6985 48.7877L76.769 48.804L76.8394 48.8204L76.9098 48.8367L76.9377 48.8517L76.9382 48.8376Z" fill="#14323D"/>
<path fill-rule="evenodd" clip-rule="evenodd" d="M87.1543 53.8105L91.6012 45.3717C92.5563 43.5594 91.8483 41.2904 90.036 40.3353L81.3542 35.7647L76.4392 58.0992C79.6823 58.9393 84.5865 51.5837 87.1569 53.8191L87.1543 53.8105ZM18.3926 25.6512C16.4359 26.2609 15.3274 28.358 15.937 30.3147L27.125 66.3426C27.7346 68.2994 29.8372 69.4109 31.794 68.8012L52.6319 62.7263C53.6396 60.1211 55.0004 57.382 56.9624 55.3055C57.6254 54.5965 58.3378 53.943 59.0828 53.3359L48.7783 20.1471C48.1687 18.1904 46.0661 17.0788 44.1093 17.6885L18.3926 25.6512ZM68.0848 58.7448C65.2849 59.3684 62.6317 50.7746 60.2854 52.4279L50.5082 20.9208L63.2299 20.4283C65.2697 20.3461 67.0217 21.9747 67.0983 24.0115L68.0749 48.9892L68.0848 58.7448ZM73.3642 60.7416C71.8154 60.4472 75.0325 59.7411 73.4363 59.7887C72.5218 59.8146 69.9328 58.6798 69.0376 58.8169L68.6444 27.0781L77.5857 29.1086C79.5751 29.5612 80.8497 31.5808 80.3971 33.5703L75.1815 60.8791L73.3642 60.7416Z" fill="white"/>
<path d="M88.6799 43.1198C88.4482 43.5496 88.0564 43.8356 87.6161 43.9441L87.6217 43.9471C87.1547 44.0917 86.7577 44.3604 86.4509 44.649C86.6584 44.6383 86.8667 44.5993 87.0785 44.5405L87.0725 44.5517C87.4995 44.4144 87.9866 44.4463 88.4165 44.678C89.2625 45.1267 89.5916 46.147 89.1579 46.9651C88.7272 47.7776 87.6962 48.0865 86.8532 47.6322C86.4178 47.3975 86.1147 47.0109 85.9915 46.5843L85.9765 46.6122C85.8864 46.3115 85.7443 46.0404 85.5812 45.8084C85.4806 46.0352 85.3133 46.4926 85.2268 47.0007C85.111 47.7235 85.1795 48.5457 85.9361 48.9463L82.3871 47.0697C83.6914 47.751 84.887 46.0539 85.1882 45.575C84.9528 45.5707 84.7024 45.5942 84.4481 45.6517C83.988 45.8504 83.4322 45.839 82.9435 45.5828C82.103 45.1371 81.7684 44.1139 82.202 43.2958C82.6327 42.4832 83.6637 42.1743 84.5011 42.6256C84.9533 42.8693 85.256 43.2702 85.3813 43.7195C85.4465 43.906 85.5319 44.0817 85.632 44.2436C85.6871 43.8339 85.6903 43.3601 85.5517 42.882C85.3835 42.4455 85.3957 41.955 85.6248 41.5165C86.0554 40.704 87.0864 40.3951 87.9294 40.8494C88.7699 41.2951 89.1045 42.3184 88.6709 43.1365L88.6799 43.1198Z" fill="#14323D"/>
<path d="M72.4073 33.5295L76.4391 30.2991L78.6238 34.9345L74.6508 38.1894L72.4047 33.5209L72.4073 33.5295Z" fill="#FF4600"/>
<path d="M60.7622 30.0055C61.4156 29.7957 61.7582 28.9862 61.9333 28.18C62.0094 27.8248 62.0542 27.4743 62.0831 27.1801C61.7948 27.6083 61.2749 27.9044 60.6641 27.9283C59.7067 27.967 58.9209 27.313 58.8868 26.4806C58.8247 24.7109 61.4324 23.321 62.1515 21.893C62.9835 23.2635 65.6939 24.4504 65.7731 26.2149C65.8072 27.0474 65.0703 27.7597 64.1159 27.7929C63.5051 27.8167 62.9652 27.5618 62.6428 27.1575C62.6934 27.4514 62.765 27.7997 62.868 28.1434C63.1048 28.9338 63.5066 29.7123 64.177 29.8719L60.7764 30.006L60.7708 30.003L60.7622 30.0055Z" fill="#14323D"/>
<path d="M45.402 27.2537C45.6841 25.1795 48.044 22.6186 47.3425 20.3243C47.007 19.2357 45.8908 18.6198 44.868 18.9403C43.8366 19.2634 43.2684 20.398 43.6069 21.481C43.2769 20.3954 42.1664 19.7825 41.1294 20.1026C40.0954 20.4171 39.5297 21.5603 39.8682 22.6433C40.5955 24.9299 43.9881 25.7064 45.399 27.2592L45.402 27.2537Z" fill="#FF4600"/>
<path fill-rule="evenodd" clip-rule="evenodd" d="M57.9715 44.9565L57.4504 31.6863C57.4261 31.0897 56.9155 30.62 56.3189 30.6443L53.5604 30.7499L57.9715 44.9565Z" fill="#E3E5E8"/>
<path d="M38.8882 28.0846L28.5774 31.2348C27.5725 31.5419 27.0067 32.6054 27.3137 33.6103L33.8662 55.0569C34.1732 56.0618 35.2368 56.6276 36.2417 56.3205L46.5525 53.1703C47.5575 52.8633 48.1232 51.7997 47.8162 50.7948L41.2637 29.3483C40.9567 28.3433 39.8931 27.7776 38.8882 28.0846Z" fill="#E3E5E8"/>
<mask id="path-22-outside-1_134_4577" maskUnits="userSpaceOnUse" x="7.56934" y="33.7822" width="118" height="53" fill="black">
<rect fill="white" x="7.56934" y="33.7822" width="118" height="53"/>
<path d="M97.1942 72.4576H96.0159H75.5027H74.2802H56.7783V58.5845H66.3802V54.6583C66.3802 53.9604 66.184 53.4807 65.791 53.2191C65.3987 52.9567 64.9836 52.8263 64.5471 52.8263V50.8632H70.047V57.0142C70.1048 57.5673 70.3594 57.9672 70.8102 58.2139C71.261 58.4612 71.6468 58.5845 71.9671 58.5845H74.2802H75.5027H90.036V54.6583C90.036 53.9604 89.847 53.4807 89.4689 53.2191C89.0902 52.9567 88.668 52.8263 88.2029 52.8263V50.8632H93.7028V58.5845H96.0159H97.1942H105.268C104.366 58.2652 103.698 57.6543 103.261 56.7526C102.825 55.8515 102.606 54.9056 102.606 53.9169C102.606 52.7828 102.853 51.8305 103.348 51.0592C103.842 50.2893 104.483 49.6635 105.268 49.1837C106.054 48.7033 106.942 48.3547 107.931 48.1366C108.92 47.9185 109.909 47.8094 110.899 47.8094H117.359V56.7091C117.359 57.0576 117.431 57.3492 117.577 57.5816C117.722 57.8147 117.896 58.0107 118.1 58.1704C118.304 58.3308 118.522 58.4398 118.755 58.4976C118.988 58.556 119.177 58.5845 119.322 58.5845V72.4576H97.1942ZM113.692 49.7725H112.339C112.048 49.7725 111.597 49.7939 110.986 49.8381C110.375 49.8816 109.764 50.0341 109.153 50.2957C108.542 50.5574 108.004 50.9722 107.538 51.5389C107.072 52.1063 106.84 52.9133 106.84 53.9604C106.84 54.9498 107.051 55.7425 107.473 56.3377C107.894 56.9343 108.411 57.3998 109.022 57.7341C109.633 58.0684 110.272 58.2944 110.942 58.4099C111.611 58.5268 112.208 58.5845 112.732 58.5845H113.692V49.7725ZM115.001 45.4535C114.216 45.4535 113.546 45.1776 112.994 44.6245C112.441 44.0727 112.165 43.4034 112.165 42.6179C112.165 41.8323 112.441 41.1637 112.994 40.6112C113.546 40.0588 114.216 39.7822 115.001 39.7822C115.787 39.7822 116.456 40.0588 117.009 40.6112C117.562 41.1637 117.839 41.8323 117.839 42.6179C117.839 43.4034 117.562 44.0727 117.009 44.6245C116.456 45.1776 115.787 45.4535 115.001 45.4535ZM108.106 45.4535C107.32 45.4535 106.651 45.1776 106.098 44.6245C105.545 44.0727 105.268 43.4034 105.268 42.6179C105.268 41.8323 105.545 41.1637 106.098 40.6112C106.651 40.0588 107.32 39.7822 108.106 39.7822C108.891 39.7822 109.56 40.0588 110.113 40.6112C110.665 41.1637 110.942 41.8323 110.942 42.6179C110.942 43.4034 110.665 44.0727 110.113 44.6245C109.56 45.1776 108.891 45.4535 108.106 45.4535ZM24.4807 72.4576H13.5693V58.5845H13.7006C13.8454 58.5845 14.028 58.556 14.2462 58.4976C14.4645 58.4398 14.6749 58.345 14.8789 58.2139C15.0821 58.0827 15.2569 57.9159 15.4024 57.712C15.5479 57.5089 15.6207 57.2615 15.6207 56.9707V45.0607C15.6207 44.3344 15.4309 43.8468 15.0536 43.5994C14.6749 43.3528 14.2526 43.2288 13.7876 43.2288V41.2656H19.2868V57.0142C19.3453 57.5673 19.607 57.9672 20.0728 58.2139C20.5378 58.4612 20.9308 58.5845 21.2511 58.5845H24.4807H25.7032H33.2102C33.268 58.0328 33.3843 57.4875 33.559 56.9486C33.7338 56.4111 34.0098 55.9385 34.3885 55.5308C34.0098 55.6769 33.6318 55.7489 33.2537 55.7489C32.7003 55.7489 32.2424 55.6334 31.8786 55.4003C31.5148 55.1679 31.2167 54.8621 30.9842 54.4836C30.7509 54.1065 30.584 53.6767 30.482 53.197C30.38 52.7172 30.3294 52.2304 30.3294 51.7357C30.3294 50.1361 30.8094 48.7981 31.7695 47.7217C32.7302 46.6461 34.0826 46.1079 35.8286 46.1079C36.9049 46.1079 38.1417 46.341 39.5382 46.8057C40.5568 47.1265 41.4733 47.3297 42.2886 47.4166C43.1024 47.5036 43.9319 47.5478 44.7757 47.5478H52.6322V56.8395C52.6607 57.4796 52.916 57.9301 53.3961 58.1918C53.8761 58.4541 54.2755 58.5845 54.5965 58.5845V72.4576H25.7032H24.4807ZM42.5938 58.5845V54.9641C42.2443 54.9641 41.7864 55.0004 41.2187 55.0731C40.6516 55.1458 40.0981 55.2984 39.5604 55.5308C39.0218 55.7639 38.5418 56.1196 38.1203 56.6C37.698 57.0797 37.4577 57.7412 37.3999 58.5845H42.5938ZM35.2616 54.7017C36.1631 54.0331 37.1888 53.5826 38.3385 53.3495C39.4876 53.1171 40.5275 53.0009 41.459 53.0009H46.26V58.5845H48.966V51.4299H47.3077C46.4925 51.4299 45.6337 51.4156 44.7322 51.3864C43.8299 51.3579 42.9426 51.2923 42.0703 51.1903C41.1973 51.0884 40.3385 50.9216 39.4947 50.6885C38.651 50.4561 37.8507 50.151 37.0946 49.7725C35.9006 49.1331 34.7815 48.8123 33.7338 48.8123C33.0355 48.8123 32.4528 48.9948 31.9877 49.3577C31.522 49.7219 31.2894 50.325 31.2894 51.1682C31.2894 51.4598 31.3037 51.6779 31.333 51.8226C31.828 51.2709 32.482 50.9936 33.2973 50.9936C33.9085 50.9936 34.4606 51.1832 34.9556 51.561C35.4506 51.9395 35.6981 52.4627 35.6981 53.1314C35.6981 53.6845 35.5519 54.2078 35.2616 54.7017ZM81.5254 74.2461C82.3114 74.2461 82.9798 74.522 83.5332 75.0751C84.0853 75.6269 84.3627 76.2962 84.3627 77.0817C84.3627 77.8673 84.0853 78.5359 83.5332 79.0883C82.9798 79.6408 82.3114 79.9174 81.5254 79.9174C80.7401 79.9174 80.0632 79.6408 79.4962 79.0883C78.9285 78.5359 78.6446 77.8673 78.6446 77.0817C78.6446 76.2962 78.9285 75.6269 79.4962 75.0751C80.0632 74.522 80.7401 74.2461 81.5254 74.2461ZM88.1159 74.2461C88.9012 74.2461 89.5702 74.522 90.1237 75.0751C90.6758 75.6269 90.9532 76.2962 90.9532 77.0817C90.9532 77.8673 90.6758 78.5359 90.1237 79.0883C89.5702 79.6408 88.9012 79.9174 88.1159 79.9174C87.3306 79.9174 86.6609 79.6408 86.1081 79.0883C85.5553 78.5359 85.2793 77.8673 85.2793 77.0817C85.2793 76.2962 85.5553 75.6269 86.1081 75.0751C86.6609 74.522 87.3306 74.2461 88.1159 74.2461Z"/>
</mask>
<path d="M97.1942 72.4576H96.0159H75.5027H74.2802H56.7783V58.5845H66.3802V54.6583C66.3802 53.9604 66.184 53.4807 65.791 53.2191C65.3987 52.9567 64.9836 52.8263 64.5471 52.8263V50.8632H70.047V57.0142C70.1048 57.5673 70.3594 57.9672 70.8102 58.2139C71.261 58.4612 71.6468 58.5845 71.9671 58.5845H74.2802H75.5027H90.036V54.6583C90.036 53.9604 89.847 53.4807 89.4689 53.2191C89.0902 52.9567 88.668 52.8263 88.2029 52.8263V50.8632H93.7028V58.5845H96.0159H97.1942H105.268C104.366 58.2652 103.698 57.6543 103.261 56.7526C102.825 55.8515 102.606 54.9056 102.606 53.9169C102.606 52.7828 102.853 51.8305 103.348 51.0592C103.842 50.2893 104.483 49.6635 105.268 49.1837C106.054 48.7033 106.942 48.3547 107.931 48.1366C108.92 47.9185 109.909 47.8094 110.899 47.8094H117.359V56.7091C117.359 57.0576 117.431 57.3492 117.577 57.5816C117.722 57.8147 117.896 58.0107 118.1 58.1704C118.304 58.3308 118.522 58.4398 118.755 58.4976C118.988 58.556 119.177 58.5845 119.322 58.5845V72.4576H97.1942ZM113.692 49.7725H112.339C112.048 49.7725 111.597 49.7939 110.986 49.8381C110.375 49.8816 109.764 50.0341 109.153 50.2957C108.542 50.5574 108.004 50.9722 107.538 51.5389C107.072 52.1063 106.84 52.9133 106.84 53.9604C106.84 54.9498 107.051 55.7425 107.473 56.3377C107.894 56.9343 108.411 57.3998 109.022 57.7341C109.633 58.0684 110.272 58.2944 110.942 58.4099C111.611 58.5268 112.208 58.5845 112.732 58.5845H113.692V49.7725ZM115.001 45.4535C114.216 45.4535 113.546 45.1776 112.994 44.6245C112.441 44.0727 112.165 43.4034 112.165 42.6179C112.165 41.8323 112.441 41.1637 112.994 40.6112C113.546 40.0588 114.216 39.7822 115.001 39.7822C115.787 39.7822 116.456 40.0588 117.009 40.6112C117.562 41.1637 117.839 41.8323 117.839 42.6179C117.839 43.4034 117.562 44.0727 117.009 44.6245C116.456 45.1776 115.787 45.4535 115.001 45.4535ZM108.106 45.4535C107.32 45.4535 106.651 45.1776 106.098 44.6245C105.545 44.0727 105.268 43.4034 105.268 42.6179C105.268 41.8323 105.545 41.1637 106.098 40.6112C106.651 40.0588 107.32 39.7822 108.106 39.7822C108.891 39.7822 109.56 40.0588 110.113 40.6112C110.665 41.1637 110.942 41.8323 110.942 42.6179C110.942 43.4034 110.665 44.0727 110.113 44.6245C109.56 45.1776 108.891 45.4535 108.106 45.4535ZM24.4807 72.4576H13.5693V58.5845H13.7006C13.8454 58.5845 14.028 58.556 14.2462 58.4976C14.4645 58.4398 14.6749 58.345 14.8789 58.2139C15.0821 58.0827 15.2569 57.9159 15.4024 57.712C15.5479 57.5089 15.6207 57.2615 15.6207 56.9707V45.0607C15.6207 44.3344 15.4309 43.8468 15.0536 43.5994C14.6749 43.3528 14.2526 43.2288 13.7876 43.2288V41.2656H19.2868V57.0142C19.3453 57.5673 19.607 57.9672 20.0728 58.2139C20.5378 58.4612 20.9308 58.5845 21.2511 58.5845H24.4807H25.7032H33.2102C33.268 58.0328 33.3843 57.4875 33.559 56.9486C33.7338 56.4111 34.0098 55.9385 34.3885 55.5308C34.0098 55.6769 33.6318 55.7489 33.2537 55.7489C32.7003 55.7489 32.2424 55.6334 31.8786 55.4003C31.5148 55.1679 31.2167 54.8621 30.9842 54.4836C30.7509 54.1065 30.584 53.6767 30.482 53.197C30.38 52.7172 30.3294 52.2304 30.3294 51.7357C30.3294 50.1361 30.8094 48.7981 31.7695 47.7217C32.7302 46.6461 34.0826 46.1079 35.8286 46.1079C36.9049 46.1079 38.1417 46.341 39.5382 46.8057C40.5568 47.1265 41.4733 47.3297 42.2886 47.4166C43.1024 47.5036 43.9319 47.5478 44.7757 47.5478H52.6322V56.8395C52.6607 57.4796 52.916 57.9301 53.3961 58.1918C53.8761 58.4541 54.2755 58.5845 54.5965 58.5845V72.4576H25.7032H24.4807ZM42.5938 58.5845V54.9641C42.2443 54.9641 41.7864 55.0004 41.2187 55.0731C40.6516 55.1458 40.0981 55.2984 39.5604 55.5308C39.0218 55.7639 38.5418 56.1196 38.1203 56.6C37.698 57.0797 37.4577 57.7412 37.3999 58.5845H42.5938ZM35.2616 54.7017C36.1631 54.0331 37.1888 53.5826 38.3385 53.3495C39.4876 53.1171 40.5275 53.0009 41.459 53.0009H46.26V58.5845H48.966V51.4299H47.3077C46.4925 51.4299 45.6337 51.4156 44.7322 51.3864C43.8299 51.3579 42.9426 51.2923 42.0703 51.1903C41.1973 51.0884 40.3385 50.9216 39.4947 50.6885C38.651 50.4561 37.8507 50.151 37.0946 49.7725C35.9006 49.1331 34.7815 48.8123 33.7338 48.8123C33.0355 48.8123 32.4528 48.9948 31.9877 49.3577C31.522 49.7219 31.2894 50.325 31.2894 51.1682C31.2894 51.4598 31.3037 51.6779 31.333 51.8226C31.828 51.2709 32.482 50.9936 33.2973 50.9936C33.9085 50.9936 34.4606 51.1832 34.9556 51.561C35.4506 51.9395 35.6981 52.4627 35.6981 53.1314C35.6981 53.6845 35.5519 54.2078 35.2616 54.7017ZM81.5254 74.2461C82.3114 74.2461 82.9798 74.522 83.5332 75.0751C84.0853 75.6269 84.3627 76.2962 84.3627 77.0817C84.3627 77.8673 84.0853 78.5359 83.5332 79.0883C82.9798 79.6408 82.3114 79.9174 81.5254 79.9174C80.7401 79.9174 80.0632 79.6408 79.4962 79.0883C78.9285 78.5359 78.6446 77.8673 78.6446 77.0817C78.6446 76.2962 78.9285 75.6269 79.4962 75.0751C80.0632 74.522 80.7401 74.2461 81.5254 74.2461ZM88.1159 74.2461C88.9012 74.2461 89.5702 74.522 90.1237 75.0751C90.6758 75.6269 90.9532 76.2962 90.9532 77.0817C90.9532 77.8673 90.6758 78.5359 90.1237 79.0883C89.5702 79.6408 88.9012 79.9174 88.1159 79.9174C87.3306 79.9174 86.6609 79.6408 86.1081 79.0883C85.5553 78.5359 85.2793 77.8673 85.2793 77.0817C85.2793 76.2962 85.5553 75.6269 86.1081 75.0751C86.6609 74.522 87.3306 74.2461 88.1159 74.2461Z" fill="url(#paint0_linear_134_4577)"/>
<path d="M97.1942 72.4576H96.0159H75.5027H74.2802H56.7783V58.5845H66.3802V54.6583C66.3802 53.9604 66.184 53.4807 65.791 53.2191C65.3987 52.9567 64.9836 52.8263 64.5471 52.8263V50.8632H70.047V57.0142C70.1048 57.5673 70.3594 57.9672 70.8102 58.2139C71.261 58.4612 71.6468 58.5845 71.9671 58.5845H74.2802H75.5027H90.036V54.6583C90.036 53.9604 89.847 53.4807 89.4689 53.2191C89.0902 52.9567 88.668 52.8263 88.2029 52.8263V50.8632H93.7028V58.5845H96.0159H97.1942H105.268C104.366 58.2652 103.698 57.6543 103.261 56.7526C102.825 55.8515 102.606 54.9056 102.606 53.9169C102.606 52.7828 102.853 51.8305 103.348 51.0592C103.842 50.2893 104.483 49.6635 105.268 49.1837C106.054 48.7033 106.942 48.3547 107.931 48.1366C108.92 47.9185 109.909 47.8094 110.899 47.8094H117.359V56.7091C117.359 57.0576 117.431 57.3492 117.577 57.5816C117.722 57.8147 117.896 58.0107 118.1 58.1704C118.304 58.3308 118.522 58.4398 118.755 58.4976C118.988 58.556 119.177 58.5845 119.322 58.5845V72.4576H97.1942ZM113.692 49.7725H112.339C112.048 49.7725 111.597 49.7939 110.986 49.8381C110.375 49.8816 109.764 50.0341 109.153 50.2957C108.542 50.5574 108.004 50.9722 107.538 51.5389C107.072 52.1063 106.84 52.9133 106.84 53.9604C106.84 54.9498 107.051 55.7425 107.473 56.3377C107.894 56.9343 108.411 57.3998 109.022 57.7341C109.633 58.0684 110.272 58.2944 110.942 58.4099C111.611 58.5268 112.208 58.5845 112.732 58.5845H113.692V49.7725ZM115.001 45.4535C114.216 45.4535 113.546 45.1776 112.994 44.6245C112.441 44.0727 112.165 43.4034 112.165 42.6179C112.165 41.8323 112.441 41.1637 112.994 40.6112C113.546 40.0588 114.216 39.7822 115.001 39.7822C115.787 39.7822 116.456 40.0588 117.009 40.6112C117.562 41.1637 117.839 41.8323 117.839 42.6179C117.839 43.4034 117.562 44.0727 117.009 44.6245C116.456 45.1776 115.787 45.4535 115.001 45.4535ZM108.106 45.4535C107.32 45.4535 106.651 45.1776 106.098 44.6245C105.545 44.0727 105.268 43.4034 105.268 42.6179C105.268 41.8323 105.545 41.1637 106.098 40.6112C106.651 40.0588 107.32 39.7822 108.106 39.7822C108.891 39.7822 109.56 40.0588 110.113 40.6112C110.665 41.1637 110.942 41.8323 110.942 42.6179C110.942 43.4034 110.665 44.0727 110.113 44.6245C109.56 45.1776 108.891 45.4535 108.106 45.4535ZM24.4807 72.4576H13.5693V58.5845H13.7006C13.8454 58.5845 14.028 58.556 14.2462 58.4976C14.4645 58.4398 14.6749 58.345 14.8789 58.2139C15.0821 58.0827 15.2569 57.9159 15.4024 57.712C15.5479 57.5089 15.6207 57.2615 15.6207 56.9707V45.0607C15.6207 44.3344 15.4309 43.8468 15.0536 43.5994C14.6749 43.3528 14.2526 43.2288 13.7876 43.2288V41.2656H19.2868V57.0142C19.3453 57.5673 19.607 57.9672 20.0728 58.2139C20.5378 58.4612 20.9308 58.5845 21.2511 58.5845H24.4807H25.7032H33.2102C33.268 58.0328 33.3843 57.4875 33.559 56.9486C33.7338 56.4111 34.0098 55.9385 34.3885 55.5308C34.0098 55.6769 33.6318 55.7489 33.2537 55.7489C32.7003 55.7489 32.2424 55.6334 31.8786 55.4003C31.5148 55.1679 31.2167 54.8621 30.9842 54.4836C30.7509 54.1065 30.584 53.6767 30.482 53.197C30.38 52.7172 30.3294 52.2304 30.3294 51.7357C30.3294 50.1361 30.8094 48.7981 31.7695 47.7217C32.7302 46.6461 34.0826 46.1079 35.8286 46.1079C36.9049 46.1079 38.1417 46.341 39.5382 46.8057C40.5568 47.1265 41.4733 47.3297 42.2886 47.4166C43.1024 47.5036 43.9319 47.5478 44.7757 47.5478H52.6322V56.8395C52.6607 57.4796 52.916 57.9301 53.3961 58.1918C53.8761 58.4541 54.2755 58.5845 54.5965 58.5845V72.4576H25.7032H24.4807ZM42.5938 58.5845V54.9641C42.2443 54.9641 41.7864 55.0004 41.2187 55.0731C40.6516 55.1458 40.0981 55.2984 39.5604 55.5308C39.0218 55.7639 38.5418 56.1196 38.1203 56.6C37.698 57.0797 37.4577 57.7412 37.3999 58.5845H42.5938ZM35.2616 54.7017C36.1631 54.0331 37.1888 53.5826 38.3385 53.3495C39.4876 53.1171 40.5275 53.0009 41.459 53.0009H46.26V58.5845H48.966V51.4299H47.3077C46.4925 51.4299 45.6337 51.4156 44.7322 51.3864C43.8299 51.3579 42.9426 51.2923 42.0703 51.1903C41.1973 51.0884 40.3385 50.9216 39.4947 50.6885C38.651 50.4561 37.8507 50.151 37.0946 49.7725C35.9006 49.1331 34.7815 48.8123 33.7338 48.8123C33.0355 48.8123 32.4528 48.9948 31.9877 49.3577C31.522 49.7219 31.2894 50.325 31.2894 51.1682C31.2894 51.4598 31.3037 51.6779 31.333 51.8226C31.828 51.2709 32.482 50.9936 33.2973 50.9936C33.9085 50.9936 34.4606 51.1832 34.9556 51.561C35.4506 51.9395 35.6981 52.4627 35.6981 53.1314C35.6981 53.6845 35.5519 54.2078 35.2616 54.7017ZM81.5254 74.2461C82.3114 74.2461 82.9798 74.522 83.5332 75.0751C84.0853 75.6269 84.3627 76.2962 84.3627 77.0817C84.3627 77.8673 84.0853 78.5359 83.5332 79.0883C82.9798 79.6408 82.3114 79.9174 81.5254 79.9174C80.7401 79.9174 80.0632 79.6408 79.4962 79.0883C78.9285 78.5359 78.6446 77.8673 78.6446 77.0817C78.6446 76.2962 78.9285 75.6269 79.4962 75.0751C80.0632 74.522 80.7401 74.2461 81.5254 74.2461ZM88.1159 74.2461C88.9012 74.2461 89.5702 74.522 90.1237 75.0751C90.6758 75.6269 90.9532 76.2962 90.9532 77.0817C90.9532 77.8673 90.6758 78.5359 90.1237 79.0883C89.5702 79.6408 88.9012 79.9174 88.1159 79.9174C87.3306 79.9174 86.6609 79.6408 86.1081 79.0883C85.5553 78.5359 85.2793 77.8673 85.2793 77.0817C85.2793 76.2962 85.5553 75.6269 86.1081 75.0751C86.6609 74.522 87.3306 74.2461 88.1159 74.2461Z" stroke="#FF4600" stroke-width="12" mask="url(#path-22-outside-1_134_4577)"/>
<mask id="path-23-outside-2_134_4577" maskUnits="userSpaceOnUse" x="9.56934" y="35.7822" width="114" height="49" fill="black">
<rect fill="white" x="9.56934" y="35.7822" width="114" height="49"/>
<path d="M97.1942 72.4576H96.0159H75.5027H74.2802H56.7783V58.5845H66.3802V54.6583C66.3802 53.9604 66.184 53.4807 65.791 53.2191C65.3987 52.9567 64.9836 52.8263 64.5471 52.8263V50.8632H70.047V57.0142C70.1048 57.5673 70.3594 57.9672 70.8102 58.2139C71.261 58.4612 71.6468 58.5845 71.9671 58.5845H74.2802H75.5027H90.036V54.6583C90.036 53.9604 89.847 53.4807 89.4689 53.2191C89.0902 52.9567 88.668 52.8263 88.2029 52.8263V50.8632H93.7028V58.5845H96.0159H97.1942H105.268C104.366 58.2652 103.698 57.6543 103.261 56.7526C102.825 55.8515 102.606 54.9056 102.606 53.9169C102.606 52.7828 102.853 51.8305 103.348 51.0592C103.842 50.2893 104.483 49.6635 105.268 49.1837C106.054 48.7033 106.942 48.3547 107.931 48.1366C108.92 47.9185 109.909 47.8094 110.899 47.8094H117.359V56.7091C117.359 57.0576 117.431 57.3492 117.577 57.5816C117.722 57.8147 117.896 58.0107 118.1 58.1704C118.304 58.3308 118.522 58.4398 118.755 58.4976C118.988 58.556 119.177 58.5845 119.322 58.5845V72.4576H97.1942ZM113.692 49.7725H112.339C112.048 49.7725 111.597 49.7939 110.986 49.8381C110.375 49.8816 109.764 50.0341 109.153 50.2957C108.542 50.5574 108.004 50.9722 107.538 51.5389C107.072 52.1063 106.84 52.9133 106.84 53.9604C106.84 54.9498 107.051 55.7425 107.473 56.3377C107.894 56.9343 108.411 57.3998 109.022 57.7341C109.633 58.0684 110.272 58.2944 110.942 58.4099C111.611 58.5268 112.208 58.5845 112.732 58.5845H113.692V49.7725ZM115.001 45.4535C114.216 45.4535 113.546 45.1776 112.994 44.6245C112.441 44.0727 112.165 43.4034 112.165 42.6179C112.165 41.8323 112.441 41.1637 112.994 40.6112C113.546 40.0588 114.216 39.7822 115.001 39.7822C115.787 39.7822 116.456 40.0588 117.009 40.6112C117.562 41.1637 117.839 41.8323 117.839 42.6179C117.839 43.4034 117.562 44.0727 117.009 44.6245C116.456 45.1776 115.787 45.4535 115.001 45.4535ZM108.106 45.4535C107.32 45.4535 106.651 45.1776 106.098 44.6245C105.545 44.0727 105.268 43.4034 105.268 42.6179C105.268 41.8323 105.545 41.1637 106.098 40.6112C106.651 40.0588 107.32 39.7822 108.106 39.7822C108.891 39.7822 109.56 40.0588 110.113 40.6112C110.665 41.1637 110.942 41.8323 110.942 42.6179C110.942 43.4034 110.665 44.0727 110.113 44.6245C109.56 45.1776 108.891 45.4535 108.106 45.4535ZM24.4807 72.4576H13.5693V58.5845H13.7006C13.8454 58.5845 14.028 58.556 14.2462 58.4976C14.4645 58.4398 14.6749 58.345 14.8789 58.2139C15.0821 58.0827 15.2569 57.9159 15.4024 57.712C15.5479 57.5089 15.6207 57.2615 15.6207 56.9707V45.0607C15.6207 44.3344 15.4309 43.8468 15.0536 43.5994C14.6749 43.3528 14.2526 43.2288 13.7876 43.2288V41.2656H19.2868V57.0142C19.3453 57.5673 19.607 57.9672 20.0728 58.2139C20.5378 58.4612 20.9308 58.5845 21.2511 58.5845H24.4807H25.7032H33.2102C33.268 58.0328 33.3843 57.4875 33.559 56.9486C33.7338 56.4111 34.0098 55.9385 34.3885 55.5308C34.0098 55.6769 33.6318 55.7489 33.2537 55.7489C32.7003 55.7489 32.2424 55.6334 31.8786 55.4003C31.5148 55.1679 31.2167 54.8621 30.9842 54.4836C30.7509 54.1065 30.584 53.6767 30.482 53.197C30.38 52.7172 30.3294 52.2304 30.3294 51.7357C30.3294 50.1361 30.8094 48.7981 31.7695 47.7217C32.7302 46.6461 34.0826 46.1079 35.8286 46.1079C36.9049 46.1079 38.1417 46.341 39.5382 46.8057C40.5568 47.1265 41.4733 47.3297 42.2886 47.4166C43.1024 47.5036 43.9319 47.5478 44.7757 47.5478H52.6322V56.8395C52.6607 57.4796 52.916 57.9301 53.3961 58.1918C53.8761 58.4541 54.2755 58.5845 54.5965 58.5845V72.4576H25.7032H24.4807ZM42.5938 58.5845V54.9641C42.2443 54.9641 41.7864 55.0004 41.2187 55.0731C40.6516 55.1458 40.0981 55.2984 39.5604 55.5308C39.0218 55.7639 38.5418 56.1196 38.1203 56.6C37.698 57.0797 37.4577 57.7412 37.3999 58.5845H42.5938ZM35.2616 54.7017C36.1631 54.0331 37.1888 53.5826 38.3385 53.3495C39.4876 53.1171 40.5275 53.0009 41.459 53.0009H46.26V58.5845H48.966V51.4299H47.3077C46.4925 51.4299 45.6337 51.4156 44.7322 51.3864C43.8299 51.3579 42.9426 51.2923 42.0703 51.1903C41.1973 51.0884 40.3385 50.9216 39.4947 50.6885C38.651 50.4561 37.8507 50.151 37.0946 49.7725C35.9006 49.1331 34.7815 48.8123 33.7338 48.8123C33.0355 48.8123 32.4528 48.9948 31.9877 49.3577C31.522 49.7219 31.2894 50.325 31.2894 51.1682C31.2894 51.4598 31.3037 51.6779 31.333 51.8226C31.828 51.2709 32.482 50.9936 33.2973 50.9936C33.9085 50.9936 34.4606 51.1832 34.9556 51.561C35.4506 51.9395 35.6981 52.4627 35.6981 53.1314C35.6981 53.6845 35.5519 54.2078 35.2616 54.7017ZM81.5254 74.2461C82.3114 74.2461 82.9798 74.522 83.5332 75.0751C84.0853 75.6269 84.3627 76.2962 84.3627 77.0817C84.3627 77.8673 84.0853 78.5359 83.5332 79.0883C82.9798 79.6408 82.3114 79.9174 81.5254 79.9174C80.7401 79.9174 80.0632 79.6408 79.4962 79.0883C78.9285 78.5359 78.6446 77.8673 78.6446 77.0817C78.6446 76.2962 78.9285 75.6269 79.4962 75.0751C80.0632 74.522 80.7401 74.2461 81.5254 74.2461ZM88.1159 74.2461C88.9012 74.2461 89.5702 74.522 90.1237 75.0751C90.6758 75.6269 90.9532 76.2962 90.9532 77.0817C90.9532 77.8673 90.6758 78.5359 90.1237 79.0883C89.5702 79.6408 88.9012 79.9174 88.1159 79.9174C87.3306 79.9174 86.6609 79.6408 86.1081 79.0883C85.5553 78.5359 85.2793 77.8673 85.2793 77.0817C85.2793 76.2962 85.5553 75.6269 86.1081 75.0751C86.6609 74.522 87.3306 74.2461 88.1159 74.2461Z"/>
</mask>
<path d="M97.1942 72.4576H96.0159H75.5027H74.2802H56.7783V58.5845H66.3802V54.6583C66.3802 53.9604 66.184 53.4807 65.791 53.2191C65.3987 52.9567 64.9836 52.8263 64.5471 52.8263V50.8632H70.047V57.0142C70.1048 57.5673 70.3594 57.9672 70.8102 58.2139C71.261 58.4612 71.6468 58.5845 71.9671 58.5845H74.2802H75.5027H90.036V54.6583C90.036 53.9604 89.847 53.4807 89.4689 53.2191C89.0902 52.9567 88.668 52.8263 88.2029 52.8263V50.8632H93.7028V58.5845H96.0159H97.1942H105.268C104.366 58.2652 103.698 57.6543 103.261 56.7526C102.825 55.8515 102.606 54.9056 102.606 53.9169C102.606 52.7828 102.853 51.8305 103.348 51.0592C103.842 50.2893 104.483 49.6635 105.268 49.1837C106.054 48.7033 106.942 48.3547 107.931 48.1366C108.92 47.9185 109.909 47.8094 110.899 47.8094H117.359V56.7091C117.359 57.0576 117.431 57.3492 117.577 57.5816C117.722 57.8147 117.896 58.0107 118.1 58.1704C118.304 58.3308 118.522 58.4398 118.755 58.4976C118.988 58.556 119.177 58.5845 119.322 58.5845V72.4576H97.1942ZM113.692 49.7725H112.339C112.048 49.7725 111.597 49.7939 110.986 49.8381C110.375 49.8816 109.764 50.0341 109.153 50.2957C108.542 50.5574 108.004 50.9722 107.538 51.5389C107.072 52.1063 106.84 52.9133 106.84 53.9604C106.84 54.9498 107.051 55.7425 107.473 56.3377C107.894 56.9343 108.411 57.3998 109.022 57.7341C109.633 58.0684 110.272 58.2944 110.942 58.4099C111.611 58.5268 112.208 58.5845 112.732 58.5845H113.692V49.7725ZM115.001 45.4535C114.216 45.4535 113.546 45.1776 112.994 44.6245C112.441 44.0727 112.165 43.4034 112.165 42.6179C112.165 41.8323 112.441 41.1637 112.994 40.6112C113.546 40.0588 114.216 39.7822 115.001 39.7822C115.787 39.7822 116.456 40.0588 117.009 40.6112C117.562 41.1637 117.839 41.8323 117.839 42.6179C117.839 43.4034 117.562 44.0727 117.009 44.6245C116.456 45.1776 115.787 45.4535 115.001 45.4535ZM108.106 45.4535C107.32 45.4535 106.651 45.1776 106.098 44.6245C105.545 44.0727 105.268 43.4034 105.268 42.6179C105.268 41.8323 105.545 41.1637 106.098 40.6112C106.651 40.0588 107.32 39.7822 108.106 39.7822C108.891 39.7822 109.56 40.0588 110.113 40.6112C110.665 41.1637 110.942 41.8323 110.942 42.6179C110.942 43.4034 110.665 44.0727 110.113 44.6245C109.56 45.1776 108.891 45.4535 108.106 45.4535ZM24.4807 72.4576H13.5693V58.5845H13.7006C13.8454 58.5845 14.028 58.556 14.2462 58.4976C14.4645 58.4398 14.6749 58.345 14.8789 58.2139C15.0821 58.0827 15.2569 57.9159 15.4024 57.712C15.5479 57.5089 15.6207 57.2615 15.6207 56.9707V45.0607C15.6207 44.3344 15.4309 43.8468 15.0536 43.5994C14.6749 43.3528 14.2526 43.2288 13.7876 43.2288V41.2656H19.2868V57.0142C19.3453 57.5673 19.607 57.9672 20.0728 58.2139C20.5378 58.4612 20.9308 58.5845 21.2511 58.5845H24.4807H25.7032H33.2102C33.268 58.0328 33.3843 57.4875 33.559 56.9486C33.7338 56.4111 34.0098 55.9385 34.3885 55.5308C34.0098 55.6769 33.6318 55.7489 33.2537 55.7489C32.7003 55.7489 32.2424 55.6334 31.8786 55.4003C31.5148 55.1679 31.2167 54.8621 30.9842 54.4836C30.7509 54.1065 30.584 53.6767 30.482 53.197C30.38 52.7172 30.3294 52.2304 30.3294 51.7357C30.3294 50.1361 30.8094 48.7981 31.7695 47.7217C32.7302 46.6461 34.0826 46.1079 35.8286 46.1079C36.9049 46.1079 38.1417 46.341 39.5382 46.8057C40.5568 47.1265 41.4733 47.3297 42.2886 47.4166C43.1024 47.5036 43.9319 47.5478 44.7757 47.5478H52.6322V56.8395C52.6607 57.4796 52.916 57.9301 53.3961 58.1918C53.8761 58.4541 54.2755 58.5845 54.5965 58.5845V72.4576H25.7032H24.4807ZM42.5938 58.5845V54.9641C42.2443 54.9641 41.7864 55.0004 41.2187 55.0731C40.6516 55.1458 40.0981 55.2984 39.5604 55.5308C39.0218 55.7639 38.5418 56.1196 38.1203 56.6C37.698 57.0797 37.4577 57.7412 37.3999 58.5845H42.5938ZM35.2616 54.7017C36.1631 54.0331 37.1888 53.5826 38.3385 53.3495C39.4876 53.1171 40.5275 53.0009 41.459 53.0009H46.26V58.5845H48.966V51.4299H47.3077C46.4925 51.4299 45.6337 51.4156 44.7322 51.3864C43.8299 51.3579 42.9426 51.2923 42.0703 51.1903C41.1973 51.0884 40.3385 50.9216 39.4947 50.6885C38.651 50.4561 37.8507 50.151 37.0946 49.7725C35.9006 49.1331 34.7815 48.8123 33.7338 48.8123C33.0355 48.8123 32.4528 48.9948 31.9877 49.3577C31.522 49.7219 31.2894 50.325 31.2894 51.1682C31.2894 51.4598 31.3037 51.6779 31.333 51.8226C31.828 51.2709 32.482 50.9936 33.2973 50.9936C33.9085 50.9936 34.4606 51.1832 34.9556 51.561C35.4506 51.9395 35.6981 52.4627 35.6981 53.1314C35.6981 53.6845 35.5519 54.2078 35.2616 54.7017ZM81.5254 74.2461C82.3114 74.2461 82.9798 74.522 83.5332 75.0751C84.0853 75.6269 84.3627 76.2962 84.3627 77.0817C84.3627 77.8673 84.0853 78.5359 83.5332 79.0883C82.9798 79.6408 82.3114 79.9174 81.5254 79.9174C80.7401 79.9174 80.0632 79.6408 79.4962 79.0883C78.9285 78.5359 78.6446 77.8673 78.6446 77.0817C78.6446 76.2962 78.9285 75.6269 79.4962 75.0751C80.0632 74.522 80.7401 74.2461 81.5254 74.2461ZM88.1159 74.2461C88.9012 74.2461 89.5702 74.522 90.1237 75.0751C90.6758 75.6269 90.9532 76.2962 90.9532 77.0817C90.9532 77.8673 90.6758 78.5359 90.1237 79.0883C89.5702 79.6408 88.9012 79.9174 88.1159 79.9174C87.3306 79.9174 86.6609 79.6408 86.1081 79.0883C85.5553 78.5359 85.2793 77.8673 85.2793 77.0817C85.2793 76.2962 85.5553 75.6269 86.1081 75.0751C86.6609 74.522 87.3306 74.2461 88.1159 74.2461Z" fill="url(#paint1_linear_134_4577)"/>
<path d="M97.1942 72.4576H96.0159H75.5027H74.2802H56.7783V58.5845H66.3802V54.6583C66.3802 53.9604 66.184 53.4807 65.791 53.2191C65.3987 52.9567 64.9836 52.8263 64.5471 52.8263V50.8632H70.047V57.0142C70.1048 57.5673 70.3594 57.9672 70.8102 58.2139C71.261 58.4612 71.6468 58.5845 71.9671 58.5845H74.2802H75.5027H90.036V54.6583C90.036 53.9604 89.847 53.4807 89.4689 53.2191C89.0902 52.9567 88.668 52.8263 88.2029 52.8263V50.8632H93.7028V58.5845H96.0159H97.1942H105.268C104.366 58.2652 103.698 57.6543 103.261 56.7526C102.825 55.8515 102.606 54.9056 102.606 53.9169C102.606 52.7828 102.853 51.8305 103.348 51.0592C103.842 50.2893 104.483 49.6635 105.268 49.1837C106.054 48.7033 106.942 48.3547 107.931 48.1366C108.92 47.9185 109.909 47.8094 110.899 47.8094H117.359V56.7091C117.359 57.0576 117.431 57.3492 117.577 57.5816C117.722 57.8147 117.896 58.0107 118.1 58.1704C118.304 58.3308 118.522 58.4398 118.755 58.4976C118.988 58.556 119.177 58.5845 119.322 58.5845V72.4576H97.1942ZM113.692 49.7725H112.339C112.048 49.7725 111.597 49.7939 110.986 49.8381C110.375 49.8816 109.764 50.0341 109.153 50.2957C108.542 50.5574 108.004 50.9722 107.538 51.5389C107.072 52.1063 106.84 52.9133 106.84 53.9604C106.84 54.9498 107.051 55.7425 107.473 56.3377C107.894 56.9343 108.411 57.3998 109.022 57.7341C109.633 58.0684 110.272 58.2944 110.942 58.4099C111.611 58.5268 112.208 58.5845 112.732 58.5845H113.692V49.7725ZM115.001 45.4535C114.216 45.4535 113.546 45.1776 112.994 44.6245C112.441 44.0727 112.165 43.4034 112.165 42.6179C112.165 41.8323 112.441 41.1637 112.994 40.6112C113.546 40.0588 114.216 39.7822 115.001 39.7822C115.787 39.7822 116.456 40.0588 117.009 40.6112C117.562 41.1637 117.839 41.8323 117.839 42.6179C117.839 43.4034 117.562 44.0727 117.009 44.6245C116.456 45.1776 115.787 45.4535 115.001 45.4535ZM108.106 45.4535C107.32 45.4535 106.651 45.1776 106.098 44.6245C105.545 44.0727 105.268 43.4034 105.268 42.6179C105.268 41.8323 105.545 41.1637 106.098 40.6112C106.651 40.0588 107.32 39.7822 108.106 39.7822C108.891 39.7822 109.56 40.0588 110.113 40.6112C110.665 41.1637 110.942 41.8323 110.942 42.6179C110.942 43.4034 110.665 44.0727 110.113 44.6245C109.56 45.1776 108.891 45.4535 108.106 45.4535ZM24.4807 72.4576H13.5693V58.5845H13.7006C13.8454 58.5845 14.028 58.556 14.2462 58.4976C14.4645 58.4398 14.6749 58.345 14.8789 58.2139C15.0821 58.0827 15.2569 57.9159 15.4024 57.712C15.5479 57.5089 15.6207 57.2615 15.6207 56.9707V45.0607C15.6207 44.3344 15.4309 43.8468 15.0536 43.5994C14.6749 43.3528 14.2526 43.2288 13.7876 43.2288V41.2656H19.2868V57.0142C19.3453 57.5673 19.607 57.9672 20.0728 58.2139C20.5378 58.4612 20.9308 58.5845 21.2511 58.5845H24.4807H25.7032H33.2102C33.268 58.0328 33.3843 57.4875 33.559 56.9486C33.7338 56.4111 34.0098 55.9385 34.3885 55.5308C34.0098 55.6769 33.6318 55.7489 33.2537 55.7489C32.7003 55.7489 32.2424 55.6334 31.8786 55.4003C31.5148 55.1679 31.2167 54.8621 30.9842 54.4836C30.7509 54.1065 30.584 53.6767 30.482 53.197C30.38 52.7172 30.3294 52.2304 30.3294 51.7357C30.3294 50.1361 30.8094 48.7981 31.7695 47.7217C32.7302 46.6461 34.0826 46.1079 35.8286 46.1079C36.9049 46.1079 38.1417 46.341 39.5382 46.8057C40.5568 47.1265 41.4733 47.3297 42.2886 47.4166C43.1024 47.5036 43.9319 47.5478 44.7757 47.5478H52.6322V56.8395C52.6607 57.4796 52.916 57.9301 53.3961 58.1918C53.8761 58.4541 54.2755 58.5845 54.5965 58.5845V72.4576H25.7032H24.4807ZM42.5938 58.5845V54.9641C42.2443 54.9641 41.7864 55.0004 41.2187 55.0731C40.6516 55.1458 40.0981 55.2984 39.5604 55.5308C39.0218 55.7639 38.5418 56.1196 38.1203 56.6C37.698 57.0797 37.4577 57.7412 37.3999 58.5845H42.5938ZM35.2616 54.7017C36.1631 54.0331 37.1888 53.5826 38.3385 53.3495C39.4876 53.1171 40.5275 53.0009 41.459 53.0009H46.26V58.5845H48.966V51.4299H47.3077C46.4925 51.4299 45.6337 51.4156 44.7322 51.3864C43.8299 51.3579 42.9426 51.2923 42.0703 51.1903C41.1973 51.0884 40.3385 50.9216 39.4947 50.6885C38.651 50.4561 37.8507 50.151 37.0946 49.7725C35.9006 49.1331 34.7815 48.8123 33.7338 48.8123C33.0355 48.8123 32.4528 48.9948 31.9877 49.3577C31.522 49.7219 31.2894 50.325 31.2894 51.1682C31.2894 51.4598 31.3037 51.6779 31.333 51.8226C31.828 51.2709 32.482 50.9936 33.2973 50.9936C33.9085 50.9936 34.4606 51.1832 34.9556 51.561C35.4506 51.9395 35.6981 52.4627 35.6981 53.1314C35.6981 53.6845 35.5519 54.2078 35.2616 54.7017ZM81.5254 74.2461C82.3114 74.2461 82.9798 74.522 83.5332 75.0751C84.0853 75.6269 84.3627 76.2962 84.3627 77.0817C84.3627 77.8673 84.0853 78.5359 83.5332 79.0883C82.9798 79.6408 82.3114 79.9174 81.5254 79.9174C80.7401 79.9174 80.0632 79.6408 79.4962 79.0883C78.9285 78.5359 78.6446 77.8673 78.6446 77.0817C78.6446 76.2962 78.9285 75.6269 79.4962 75.0751C80.0632 74.522 80.7401 74.2461 81.5254 74.2461ZM88.1159 74.2461C88.9012 74.2461 89.5702 74.522 90.1237 75.0751C90.6758 75.6269 90.9532 76.2962 90.9532 77.0817C90.9532 77.8673 90.6758 78.5359 90.1237 79.0883C89.5702 79.6408 88.9012 79.9174 88.1159 79.9174C87.3306 79.9174 86.6609 79.6408 86.1081 79.0883C85.5553 78.5359 85.2793 77.8673 85.2793 77.0817C85.2793 76.2962 85.5553 75.6269 86.1081 75.0751C86.6609 74.522 87.3306 74.2461 88.1159 74.2461Z" stroke="#14323D" stroke-width="8" mask="url(#path-23-outside-2_134_4577)"/>
<path d="M97.1942 72.4576H96.0159H75.5027H74.2802H56.7783V58.5845H66.3802V54.6583C66.3802 53.9604 66.184 53.4807 65.791 53.2191C65.3987 52.9567 64.9836 52.8263 64.5471 52.8263V50.8632H70.047V57.0142C70.1048 57.5673 70.3594 57.9672 70.8102 58.2139C71.261 58.4612 71.6468 58.5845 71.9671 58.5845H74.2802H75.5027H90.036V54.6583C90.036 53.9604 89.847 53.4807 89.4689 53.2191C89.0902 52.9567 88.668 52.8263 88.2029 52.8263V50.8632H93.7028V58.5845H96.0159H97.1942H105.268C104.366 58.2652 103.698 57.6543 103.261 56.7526C102.825 55.8515 102.606 54.9056 102.606 53.9169C102.606 52.7828 102.853 51.8305 103.348 51.0592C103.842 50.2893 104.483 49.6635 105.268 49.1837C106.054 48.7033 106.942 48.3547 107.931 48.1366C108.92 47.9185 109.909 47.8094 110.899 47.8094H117.359V56.7091C117.359 57.0576 117.431 57.3492 117.577 57.5816C117.722 57.8147 117.896 58.0107 118.1 58.1704C118.304 58.3308 118.522 58.4398 118.755 58.4976C118.988 58.556 119.177 58.5845 119.322 58.5845V72.4576H97.1942ZM113.692 49.7725H112.339C112.048 49.7725 111.597 49.7939 110.986 49.8381C110.375 49.8816 109.764 50.0341 109.153 50.2957C108.542 50.5574 108.004 50.9722 107.538 51.5389C107.072 52.1063 106.84 52.9133 106.84 53.9604C106.84 54.9498 107.051 55.7425 107.473 56.3377C107.894 56.9343 108.411 57.3998 109.022 57.7341C109.633 58.0684 110.272 58.2944 110.942 58.4099C111.611 58.5268 112.208 58.5845 112.732 58.5845H113.692V49.7725ZM115.001 45.4535C114.216 45.4535 113.546 45.1776 112.994 44.6245C112.441 44.0727 112.165 43.4034 112.165 42.6179C112.165 41.8323 112.441 41.1637 112.994 40.6112C113.546 40.0588 114.216 39.7822 115.001 39.7822C115.787 39.7822 116.456 40.0588 117.009 40.6112C117.562 41.1637 117.839 41.8323 117.839 42.6179C117.839 43.4034 117.562 44.0727 117.009 44.6245C116.456 45.1776 115.787 45.4535 115.001 45.4535ZM108.106 45.4535C107.32 45.4535 106.651 45.1776 106.098 44.6245C105.545 44.0727 105.268 43.4034 105.268 42.6179C105.268 41.8323 105.545 41.1637 106.098 40.6112C106.651 40.0588 107.32 39.7822 108.106 39.7822C108.891 39.7822 109.56 40.0588 110.113 40.6112C110.665 41.1637 110.942 41.8323 110.942 42.6179C110.942 43.4034 110.665 44.0727 110.113 44.6245C109.56 45.1776 108.891 45.4535 108.106 45.4535ZM24.4807 72.4576H13.5693V58.5845H13.7006C13.8454 58.5845 14.028 58.556 14.2462 58.4976C14.4645 58.4398 14.6749 58.345 14.8789 58.2139C15.0821 58.0827 15.2569 57.9159 15.4024 57.712C15.5479 57.5089 15.6207 57.2615 15.6207 56.9707V45.0607C15.6207 44.3344 15.4309 43.8468 15.0536 43.5994C14.6749 43.3528 14.2526 43.2288 13.7876 43.2288V41.2656H19.2868V57.0142C19.3453 57.5673 19.607 57.9672 20.0728 58.2139C20.5378 58.4612 20.9308 58.5845 21.2511 58.5845H24.4807H25.7032H33.2102C33.268 58.0328 33.3843 57.4875 33.559 56.9486C33.7338 56.4111 34.0098 55.9385 34.3885 55.5308C34.0098 55.6769 33.6318 55.7489 33.2537 55.7489C32.7003 55.7489 32.2424 55.6334 31.8786 55.4003C31.5148 55.1679 31.2167 54.8621 30.9842 54.4836C30.7509 54.1065 30.584 53.6767 30.482 53.197C30.38 52.7172 30.3294 52.2304 30.3294 51.7357C30.3294 50.1361 30.8094 48.7981 31.7695 47.7217C32.7302 46.6461 34.0826 46.1079 35.8286 46.1079C36.9049 46.1079 38.1417 46.341 39.5382 46.8057C40.5568 47.1265 41.4733 47.3297 42.2886 47.4166C43.1024 47.5036 43.9319 47.5478 44.7757 47.5478H52.6322V56.8395C52.6607 57.4796 52.916 57.9301 53.3961 58.1918C53.8761 58.4541 54.2755 58.5845 54.5965 58.5845V72.4576H25.7032H24.4807ZM42.5938 58.5845V54.9641C42.2443 54.9641 41.7864 55.0004 41.2187 55.0731C40.6516 55.1458 40.0981 55.2984 39.5604 55.5308C39.0218 55.7639 38.5418 56.1196 38.1203 56.6C37.698 57.0797 37.4577 57.7412 37.3999 58.5845H42.5938ZM35.2616 54.7017C36.1631 54.0331 37.1888 53.5826 38.3385 53.3495C39.4876 53.1171 40.5275 53.0009 41.459 53.0009H46.26V58.5845H48.966V51.4299H47.3077C46.4925 51.4299 45.6337 51.4156 44.7322 51.3864C43.8299 51.3579 42.9426 51.2923 42.0703 51.1903C41.1973 51.0884 40.3385 50.9216 39.4947 50.6885C38.651 50.4561 37.8507 50.151 37.0946 49.7725C35.9006 49.1331 34.7815 48.8123 33.7338 48.8123C33.0355 48.8123 32.4528 48.9948 31.9877 49.3577C31.522 49.7219 31.2894 50.325 31.2894 51.1682C31.2894 51.4598 31.3037 51.6779 31.333 51.8226C31.828 51.2709 32.482 50.9936 33.2973 50.9936C33.9085 50.9936 34.4606 51.1832 34.9556 51.561C35.4506 51.9395 35.6981 52.4627 35.6981 53.1314C35.6981 53.6845 35.5519 54.2078 35.2616 54.7017ZM81.5254 74.2461C82.3114 74.2461 82.9798 74.522 83.5332 75.0751C84.0853 75.6269 84.3627 76.2962 84.3627 77.0817C84.3627 77.8673 84.0853 78.5359 83.5332 79.0883C82.9798 79.6408 82.3114 79.9174 81.5254 79.9174C80.7401 79.9174 80.0632 79.6408 79.4962 79.0883C78.9285 78.5359 78.6446 77.8673 78.6446 77.0817C78.6446 76.2962 78.9285 75.6269 79.4962 75.0751C80.0632 74.522 80.7401 74.2461 81.5254 74.2461ZM88.1159 74.2461C88.9012 74.2461 89.5702 74.522 90.1237 75.0751C90.6758 75.6269 90.9532 76.2962 90.9532 77.0817C90.9532 77.8673 90.6758 78.5359 90.1237 79.0883C89.5702 79.6408 88.9012 79.9174 88.1159 79.9174C87.3306 79.9174 86.6609 79.6408 86.1081 79.0883C85.5553 78.5359 85.2793 77.8673 85.2793 77.0817C85.2793 76.2962 85.5553 75.6269 86.1081 75.0751C86.6609 74.522 87.3306 74.2461 88.1159 74.2461Z" stroke="#14323D" stroke-width="8" mask="url(#path-23-outside-2_134_4577)"/>
<path d="M97.1942 72.4576H96.0159H75.5027H74.2802H56.7783V58.5845H66.3802V54.6583C66.3802 53.9604 66.184 53.4807 65.791 53.2191C65.3987 52.9567 64.9836 52.8263 64.5471 52.8263V50.8632H70.047V57.0142C70.1048 57.5673 70.3594 57.9672 70.8102 58.2139C71.261 58.4612 71.6468 58.5845 71.9671 58.5845H74.2802H75.5027H90.036V54.6583C90.036 53.9604 89.847 53.4807 89.4689 53.2191C89.0902 52.9567 88.668 52.8263 88.2029 52.8263V50.8632H93.7028V58.5845H96.0159H97.1942H105.268C104.366 58.2652 103.698 57.6543 103.261 56.7526C102.825 55.8515 102.606 54.9056 102.606 53.9169C102.606 52.7828 102.853 51.8305 103.348 51.0592C103.842 50.2893 104.483 49.6635 105.268 49.1837C106.054 48.7033 106.942 48.3547 107.931 48.1366C108.92 47.9185 109.909 47.8094 110.899 47.8094H117.359V56.7091C117.359 57.0576 117.431 57.3492 117.577 57.5816C117.722 57.8147 117.896 58.0107 118.1 58.1704C118.304 58.3308 118.522 58.4398 118.755 58.4976C118.988 58.556 119.177 58.5845 119.322 58.5845V72.4576H97.1942ZM113.692 49.7725H112.339C112.048 49.7725 111.597 49.7939 110.986 49.8381C110.375 49.8816 109.764 50.0341 109.153 50.2957C108.542 50.5574 108.004 50.9722 107.538 51.5389C107.072 52.1063 106.84 52.9133 106.84 53.9604C106.84 54.9498 107.051 55.7425 107.473 56.3377C107.894 56.9343 108.411 57.3998 109.022 57.7341C109.633 58.0684 110.272 58.2944 110.942 58.4099C111.611 58.5268 112.208 58.5845 112.732 58.5845H113.692V49.7725ZM115.001 45.4535C114.216 45.4535 113.546 45.1776 112.994 44.6245C112.441 44.0727 112.165 43.4034 112.165 42.6179C112.165 41.8323 112.441 41.1637 112.994 40.6112C113.546 40.0588 114.216 39.7822 115.001 39.7822C115.787 39.7822 116.456 40.0588 117.009 40.6112C117.562 41.1637 117.839 41.8323 117.839 42.6179C117.839 43.4034 117.562 44.0727 117.009 44.6245C116.456 45.1776 115.787 45.4535 115.001 45.4535ZM108.106 45.4535C107.32 45.4535 106.651 45.1776 106.098 44.6245C105.545 44.0727 105.268 43.4034 105.268 42.6179C105.268 41.8323 105.545 41.1637 106.098 40.6112C106.651 40.0588 107.32 39.7822 108.106 39.7822C108.891 39.7822 109.56 40.0588 110.113 40.6112C110.665 41.1637 110.942 41.8323 110.942 42.6179C110.942 43.4034 110.665 44.0727 110.113 44.6245C109.56 45.1776 108.891 45.4535 108.106 45.4535ZM24.4807 72.4576H13.5693V58.5845H13.7006C13.8454 58.5845 14.028 58.556 14.2462 58.4976C14.4645 58.4398 14.6749 58.345 14.8789 58.2139C15.0821 58.0827 15.2569 57.9159 15.4024 57.712C15.5479 57.5089 15.6207 57.2615 15.6207 56.9707V45.0607C15.6207 44.3344 15.4309 43.8468 15.0536 43.5994C14.6749 43.3528 14.2526 43.2288 13.7876 43.2288V41.2656H19.2868V57.0142C19.3453 57.5673 19.607 57.9672 20.0728 58.2139C20.5378 58.4612 20.9308 58.5845 21.2511 58.5845H24.4807H25.7032H33.2102C33.268 58.0328 33.3843 57.4875 33.559 56.9486C33.7338 56.4111 34.0098 55.9385 34.3885 55.5308C34.0098 55.6769 33.6318 55.7489 33.2537 55.7489C32.7003 55.7489 32.2424 55.6334 31.8786 55.4003C31.5148 55.1679 31.2167 54.8621 30.9842 54.4836C30.7509 54.1065 30.584 53.6767 30.482 53.197C30.38 52.7172 30.3294 52.2304 30.3294 51.7357C30.3294 50.1361 30.8094 48.7981 31.7695 47.7217C32.7302 46.6461 34.0826 46.1079 35.8286 46.1079C36.9049 46.1079 38.1417 46.341 39.5382 46.8057C40.5568 47.1265 41.4733 47.3297 42.2886 47.4166C43.1024 47.5036 43.9319 47.5478 44.7757 47.5478H52.6322V56.8395C52.6607 57.4796 52.916 57.9301 53.3961 58.1918C53.8761 58.4541 54.2755 58.5845 54.5965 58.5845V72.4576H25.7032H24.4807ZM42.5938 58.5845V54.9641C42.2443 54.9641 41.7864 55.0004 41.2187 55.0731C40.6516 55.1458 40.0981 55.2984 39.5604 55.5308C39.0218 55.7639 38.5418 56.1196 38.1203 56.6C37.698 57.0797 37.4577 57.7412 37.3999 58.5845H42.5938ZM35.2616 54.7017C36.1631 54.0331 37.1888 53.5826 38.3385 53.3495C39.4876 53.1171 40.5275 53.0009 41.459 53.0009H46.26V58.5845H48.966V51.4299H47.3077C46.4925 51.4299 45.6337 51.4156 44.7322 51.3864C43.8299 51.3579 42.9426 51.2923 42.0703 51.1903C41.1973 51.0884 40.3385 50.9216 39.4947 50.6885C38.651 50.4561 37.8507 50.151 37.0946 49.7725C35.9006 49.1331 34.7815 48.8123 33.7338 48.8123C33.0355 48.8123 32.4528 48.9948 31.9877 49.3577C31.522 49.7219 31.2894 50.325 31.2894 51.1682C31.2894 51.4598 31.3037 51.6779 31.333 51.8226C31.828 51.2709 32.482 50.9936 33.2973 50.9936C33.9085 50.9936 34.4606 51.1832 34.9556 51.561C35.4506 51.9395 35.6981 52.4627 35.6981 53.1314C35.6981 53.6845 35.5519 54.2078 35.2616 54.7017ZM81.5254 74.2461C82.3114 74.2461 82.9798 74.522 83.5332 75.0751C84.0853 75.6269 84.3627 76.2962 84.3627 77.0817C84.3627 77.8673 84.0853 78.5359 83.5332 79.0883C82.9798 79.6408 82.3114 79.9174 81.5254 79.9174C80.7401 79.9174 80.0632 79.6408 79.4962 79.0883C78.9285 78.5359 78.6446 77.8673 78.6446 77.0817C78.6446 76.2962 78.9285 75.6269 79.4962 75.0751C80.0632 74.522 80.7401 74.2461 81.5254 74.2461ZM88.1159 74.2461C88.9012 74.2461 89.5702 74.522 90.1237 75.0751C90.6758 75.6269 90.9532 76.2962 90.9532 77.0817C90.9532 77.8673 90.6758 78.5359 90.1237 79.0883C89.5702 79.6408 88.9012 79.9174 88.1159 79.9174C87.3306 79.9174 86.6609 79.6408 86.1081 79.0883C85.5553 78.5359 85.2793 77.8673 85.2793 77.0817C85.2793 76.2962 85.5553 75.6269 86.1081 75.0751C86.6609 74.522 87.3306 74.2461 88.1159 74.2461Z" stroke="#14323D" stroke-width="8" mask="url(#path-23-outside-2_134_4577)"/>
<path d="M97.1942 72.4576H96.0159H75.5027H74.2802H56.7783V58.5845H66.3802V54.6583C66.3802 53.9604 66.184 53.4807 65.791 53.2191C65.3987 52.9567 64.9836 52.8263 64.5471 52.8263V50.8632H70.047V57.0142C70.1048 57.5673 70.3594 57.9672 70.8102 58.2139C71.261 58.4612 71.6468 58.5845 71.9671 58.5845H74.2802H75.5027H90.036V54.6583C90.036 53.9604 89.847 53.4807 89.4689 53.2191C89.0902 52.9567 88.668 52.8263 88.2029 52.8263V50.8632H93.7028V58.5845H96.0159H97.1942H105.268C104.366 58.2652 103.698 57.6543 103.261 56.7526C102.825 55.8515 102.606 54.9056 102.606 53.9169C102.606 52.7828 102.853 51.8305 103.348 51.0592C103.842 50.2893 104.483 49.6635 105.268 49.1837C106.054 48.7033 106.942 48.3547 107.931 48.1366C108.92 47.9185 109.909 47.8094 110.899 47.8094H117.359V56.7091C117.359 57.0576 117.431 57.3492 117.577 57.5816C117.722 57.8147 117.896 58.0107 118.1 58.1704C118.304 58.3308 118.522 58.4398 118.755 58.4976C118.988 58.556 119.177 58.5845 119.322 58.5845V72.4576H97.1942ZM113.692 49.7725H112.339C112.048 49.7725 111.597 49.7939 110.986 49.8381C110.375 49.8816 109.764 50.0341 109.153 50.2957C108.542 50.5574 108.004 50.9722 107.538 51.5389C107.072 52.1063 106.84 52.9133 106.84 53.9604C106.84 54.9498 107.051 55.7425 107.473 56.3377C107.894 56.9343 108.411 57.3998 109.022 57.7341C109.633 58.0684 110.272 58.2944 110.942 58.4099C111.611 58.5268 112.208 58.5845 112.732 58.5845H113.692V49.7725ZM115.001 45.4535C114.216 45.4535 113.546 45.1776 112.994 44.6245C112.441 44.0727 112.165 43.4034 112.165 42.6179C112.165 41.8323 112.441 41.1637 112.994 40.6112C113.546 40.0588 114.216 39.7822 115.001 39.7822C115.787 39.7822 116.456 40.0588 117.009 40.6112C117.562 41.1637 117.839 41.8323 117.839 42.6179C117.839 43.4034 117.562 44.0727 117.009 44.6245C116.456 45.1776 115.787 45.4535 115.001 45.4535ZM108.106 45.4535C107.32 45.4535 106.651 45.1776 106.098 44.6245C105.545 44.0727 105.268 43.4034 105.268 42.6179C105.268 41.8323 105.545 41.1637 106.098 40.6112C106.651 40.0588 107.32 39.7822 108.106 39.7822C108.891 39.7822 109.56 40.0588 110.113 40.6112C110.665 41.1637 110.942 41.8323 110.942 42.6179C110.942 43.4034 110.665 44.0727 110.113 44.6245C109.56 45.1776 108.891 45.4535 108.106 45.4535ZM24.4807 72.4576H13.5693V58.5845H13.7006C13.8454 58.5845 14.028 58.556 14.2462 58.4976C14.4645 58.4398 14.6749 58.345 14.8789 58.2139C15.0821 58.0827 15.2569 57.9159 15.4024 57.712C15.5479 57.5089 15.6207 57.2615 15.6207 56.9707V45.0607C15.6207 44.3344 15.4309 43.8468 15.0536 43.5994C14.6749 43.3528 14.2526 43.2288 13.7876 43.2288V41.2656H19.2868V57.0142C19.3453 57.5673 19.607 57.9672 20.0728 58.2139C20.5378 58.4612 20.9308 58.5845 21.2511 58.5845H24.4807H25.7032H33.2102C33.268 58.0328 33.3843 57.4875 33.559 56.9486C33.7338 56.4111 34.0098 55.9385 34.3885 55.5308C34.0098 55.6769 33.6318 55.7489 33.2537 55.7489C32.7003 55.7489 32.2424 55.6334 31.8786 55.4003C31.5148 55.1679 31.2167 54.8621 30.9842 54.4836C30.7509 54.1065 30.584 53.6767 30.482 53.197C30.38 52.7172 30.3294 52.2304 30.3294 51.7357C30.3294 50.1361 30.8094 48.7981 31.7695 47.7217C32.7302 46.6461 34.0826 46.1079 35.8286 46.1079C36.9049 46.1079 38.1417 46.341 39.5382 46.8057C40.5568 47.1265 41.4733 47.3297 42.2886 47.4166C43.1024 47.5036 43.9319 47.5478 44.7757 47.5478H52.6322V56.8395C52.6607 57.4796 52.916 57.9301 53.3961 58.1918C53.8761 58.4541 54.2755 58.5845 54.5965 58.5845V72.4576H25.7032H24.4807ZM42.5938 58.5845V54.9641C42.2443 54.9641 41.7864 55.0004 41.2187 55.0731C40.6516 55.1458 40.0981 55.2984 39.5604 55.5308C39.0218 55.7639 38.5418 56.1196 38.1203 56.6C37.698 57.0797 37.4577 57.7412 37.3999 58.5845H42.5938ZM35.2616 54.7017C36.1631 54.0331 37.1888 53.5826 38.3385 53.3495C39.4876 53.1171 40.5275 53.0009 41.459 53.0009H46.26V58.5845H48.966V51.4299H47.3077C46.4925 51.4299 45.6337 51.4156 44.7322 51.3864C43.8299 51.3579 42.9426 51.2923 42.0703 51.1903C41.1973 51.0884 40.3385 50.9216 39.4947 50.6885C38.651 50.4561 37.8507 50.151 37.0946 49.7725C35.9006 49.1331 34.7815 48.8123 33.7338 48.8123C33.0355 48.8123 32.4528 48.9948 31.9877 49.3577C31.522 49.7219 31.2894 50.325 31.2894 51.1682C31.2894 51.4598 31.3037 51.6779 31.333 51.8226C31.828 51.2709 32.482 50.9936 33.2973 50.9936C33.9085 50.9936 34.4606 51.1832 34.9556 51.561C35.4506 51.9395 35.6981 52.4627 35.6981 53.1314C35.6981 53.6845 35.5519 54.2078 35.2616 54.7017ZM81.5254 74.2461C82.3114 74.2461 82.9798 74.522 83.5332 75.0751C84.0853 75.6269 84.3627 76.2962 84.3627 77.0817C84.3627 77.8673 84.0853 78.5359 83.5332 79.0883C82.9798 79.6408 82.3114 79.9174 81.5254 79.9174C80.7401 79.9174 80.0632 79.6408 79.4962 79.0883C78.9285 78.5359 78.6446 77.8673 78.6446 77.0817C78.6446 76.2962 78.9285 75.6269 79.4962 75.0751C80.0632 74.522 80.7401 74.2461 81.5254 74.2461ZM88.1159 74.2461C88.9012 74.2461 89.5702 74.522 90.1237 75.0751C90.6758 75.6269 90.9532 76.2962 90.9532 77.0817C90.9532 77.8673 90.6758 78.5359 90.1237 79.0883C89.5702 79.6408 88.9012 79.9174 88.1159 79.9174C87.3306 79.9174 86.6609 79.6408 86.1081 79.0883C85.5553 78.5359 85.2793 77.8673 85.2793 77.0817C85.2793 76.2962 85.5553 75.6269 86.1081 75.0751C86.6609 74.522 87.3306 74.2461 88.1159 74.2461Z" fill="url(#paint2_linear_134_4577)"/>
<defs>
<linearGradient id="paint0_linear_134_4577" x1="66.4722" y1="79.9174" x2="66.4722" y2="39.7648" gradientUnits="userSpaceOnUse">
<stop stop-color="#FFDB89"/>
<stop offset="1" stop-color="#FAAF00"/>
</linearGradient>
<linearGradient id="paint1_linear_134_4577" x1="66.4722" y1="79.9174" x2="66.4722" y2="39.7648" gradientUnits="userSpaceOnUse">
<stop stop-color="#FFDB89"/>
<stop offset="1" stop-color="#FAAF00"/>
</linearGradient>
<linearGradient id="paint2_linear_134_4577" x1="66.4722" y1="79.9174" x2="66.4722" y2="39.7648" gradientUnits="userSpaceOnUse">
<stop stop-color="#FFDB89"/>
<stop offset="1" stop-color="#FAAF00"/>
</linearGradient>
</defs>
</svg>
