<svg width="106" height="81" viewBox="0 0 106 81" fill="none" xmlns="http://www.w3.org/2000/svg">
<path fill-rule="evenodd" clip-rule="evenodd" d="M15.066 21.3909L36.6137 14.3776C38.8224 13.6618 41.1852 14.917 41.9562 17.1803L52.9393 16.7321C55.313 16.6361 57.3272 18.5947 57.421 21.0835L57.4713 22.5391L65.2718 24.3992C67.5837 24.9533 69.0559 27.3915 68.5259 29.8253L68.443 30.2223L76.0069 34.4032C78.1084 35.5676 78.9175 38.3218 77.8163 40.5273L73.9404 48.2595C77.2683 51.7294 62.9909 40.7094 63.1275 45.6454C63.2734 50.7516 58.3751 41.3627 55.0325 45.0774C51.6947 48.7948 52.566 54.8761 47.7008 55.0267C42.8429 55.1751 49.9968 60.2847 46.4583 56.7781C43.2433 53.5942 46.4408 60.2863 45.9942 55.7075L44.7834 55.8298C44.3205 55.72 44.7834 55.8298 33.0967 59.8504L32.8753 59.8582L26.9836 61.7746C24.7148 62.5134 22.2833 61.1685 21.5799 58.785L12.2228 27.0629C11.5195 24.6794 12.7971 22.1298 15.066 21.3909ZM43.8569 55.3053C44.6806 52.911 45.9675 50.6965 47.6546 48.7846L47.7432 48.6826L47.7702 48.6535L47.7972 48.6244L47.8512 48.5661L47.8783 48.537L47.9053 48.5079L47.9323 48.4788L48.0403 48.3624L48.0648 48.3382L48.0918 48.3091L48.1458 48.2508L48.1728 48.2217L48.1998 48.1926L48.2243 48.1684L48.2513 48.1393L48.3053 48.0811L48.3324 48.052L48.3594 48.0229L48.3838 47.9987L48.4109 47.9696L48.494 47.8898L48.521 47.8607L48.543 47.8414L48.5772 47.81L48.6042 47.7809L48.6629 47.7254L48.6899 47.6963L48.7119 47.677L48.7461 47.6456L48.7778 47.6191L48.8095 47.5927L48.8412 47.5662L48.8728 47.5398L48.8948 47.5205L48.929 47.4891L48.9607 47.4626L48.9924 47.4362L49.0241 47.4097L49.0558 47.3833L49.0875 47.3568L49.1191 47.3303L49.1508 47.3039L49.1825 47.2774L49.2142 47.251L49.3265 47.1496L49.3582 47.1232L49.4753 47.0245L49.5069 46.9981L49.5386 46.9716L49.5703 46.9451L40.8794 17.7377C40.3684 16.015 38.6063 15.0364 36.9664 15.5731L15.414 22.5838C13.7742 23.1206 12.8452 24.9669 13.3561 26.6897L22.7323 58.4099C23.2433 60.1327 25.0054 61.1113 26.6453 60.5745L43.8522 55.3026L43.8569 55.3053ZM50.5281 46.1491C51.0167 45.7851 51.5284 45.4468 52.0486 45.1388L52.1502 45.0821L52.2373 45.0299L52.2449 45.0152L52.3511 44.9611C52.5131 44.8689 52.6798 44.7793 52.849 44.6849L52.948 44.6331L53.0373 44.5885L53.064 44.5719C53.2548 44.4706 53.4499 44.3844 53.6429 44.2907L53.6742 44.2767L53.8478 44.1974L53.8622 44.1928L53.9633 44.1486L54.0645 44.1044L54.2694 44.0111C54.6114 43.8622 54.9552 43.7334 55.3059 43.6148L55.3347 43.6057L55.5172 43.5441L55.5604 43.5305L55.6421 43.5007L55.7501 43.4667C55.8869 43.4236 56.0237 43.3806 56.1627 43.3451L56.1987 43.3337L56.3809 43.2846L56.4144 43.2782L56.6037 43.2269L56.63 43.2227L56.769 43.1872L56.8863 43.1585L56.927 43.1498L56.9414 43.1453L57.0516 43.1189L56.2352 21.1352C56.1664 19.3393 54.7003 17.913 52.9932 17.9804L42.3317 18.4141L50.5328 46.1517L50.5281 46.1491ZM65.6413 43.2756C68.3592 44.0151 70.8941 45.4058 73.0483 47.3739L76.7751 39.9441C77.5755 38.3485 76.9822 36.3508 75.4633 35.5099L68.1874 31.4857L65.6434 43.2831L65.6413 43.2756ZM64.4794 42.9983L67.3784 29.5435C67.7577 27.7919 66.6895 26.0137 65.0176 25.6126L57.5241 23.8249L58.2381 42.8773L58.2572 42.8754L58.2763 42.8735L58.4196 42.8531L58.453 42.8467L58.484 42.8452L58.5247 42.8365L58.7014 42.8097L58.7349 42.8033L58.8782 42.783L58.9117 42.7765L58.9308 42.7747L58.9498 42.7728L59.155 42.7494L59.3649 42.7287L59.3743 42.734L59.4031 42.7249L59.5985 42.7087L59.6079 42.714L59.7893 42.6899L59.825 42.691L59.8585 42.6846L60.0395 42.673L60.0442 42.6756L60.2516 42.6598L60.2753 42.6606L60.2847 42.6659L60.5039 42.6504L60.7228 42.6475L60.7491 42.6433L60.8084 42.6452L60.9179 42.6438L60.9319 42.6517L60.9535 42.6449L60.9676 42.6529L61.127 42.648L61.1817 42.6473L61.1864 42.6499L61.3743 42.6485L61.4053 42.647L61.4362 42.6455L61.6216 42.649L61.6263 42.6516L61.852 42.6589L61.8661 42.6668L62.0561 42.6729L62.0752 42.6711L62.1155 42.6749L62.2793 42.6851L62.2933 42.6931L62.3599 42.6927L62.424 42.6973L62.4881 42.7018L62.5237 42.703L62.5522 42.7064L62.6162 42.711L62.6803 42.7155L62.7444 42.7201L62.7537 42.7254L62.8038 42.722L62.9294 42.736L62.9791 42.7451L62.9884 42.7504L63.0525 42.755L63.1141 42.7645L63.1756 42.7739L63.2372 42.7834L63.2987 42.7929L63.3603 42.8024L63.4834 42.8213L63.5449 42.8308L63.6065 42.8403L63.7296 42.8592L63.7911 42.8687L63.8527 42.8782L63.9142 42.8877L63.9758 42.8971L64.0374 42.9066L64.1533 42.9278L64.1579 42.9305L64.2195 42.94L64.2785 42.9544L64.3376 42.9688L64.3966 42.9831L64.4556 42.9975L64.479 43.0108L64.4794 42.9983Z" fill="#14323D"/>
<path d="M15.066 21.3909L36.6137 14.3776C38.8224 13.6618 41.1852 14.917 41.9562 17.1803L52.9393 16.7321C55.313 16.6361 57.3272 18.5947 57.421 21.0835L57.4713 22.5391L65.2718 24.3992C67.5837 24.9533 69.0559 27.3915 68.5259 29.8253L68.443 30.2223L76.0069 34.4032C78.1084 35.5676 78.9175 38.3218 77.8163 40.5273L73.9404 48.2595C77.2683 51.7294 59.9818 41.9616 60.1184 46.8976C60.2643 52.0038 62.1851 44.3634 58.8426 48.0782C55.5047 51.7955 60.0277 50.005 55.1626 50.1556C50.3046 50.304 54.5716 56.8513 51.0331 53.3447C47.8181 50.1608 47.1495 60.1385 46.7029 55.5598L45.5095 55.4331L46.1062 55.4964C44.8331 54.9533 33.4818 60.1001 33.0967 59.8504L32.8753 59.8582L26.9836 61.7746C24.7148 62.5134 22.2833 61.1685 21.5799 58.785L12.2228 27.0629C11.5195 24.6794 12.7971 22.1298 15.066 21.3909ZM43.8569 55.3053C44.6806 52.911 45.9675 50.6965 47.6546 48.7846L47.7432 48.6826L47.7702 48.6535L47.7972 48.6244L47.8512 48.5661L47.8783 48.537L47.9053 48.5079L47.9323 48.4788L48.0403 48.3624L48.0648 48.3382L48.0918 48.3091L48.1458 48.2508L48.1728 48.2217L48.1998 48.1926L48.2243 48.1684L48.2513 48.1393L48.3053 48.0811L48.3324 48.052L48.3594 48.0229L48.3838 47.9987L48.4109 47.9696L48.494 47.8898L48.521 47.8607L48.543 47.8414L48.5772 47.81L48.6042 47.7809L48.6629 47.7254L48.6899 47.6963L48.7119 47.677L48.7461 47.6456L48.7778 47.6191L48.8095 47.5927L48.8412 47.5662L48.8728 47.5398L48.8948 47.5205L48.929 47.4891L48.9607 47.4626L48.9924 47.4362L49.0241 47.4097L49.0558 47.3833L49.0875 47.3568L49.1191 47.3303L49.1508 47.3039L49.1825 47.2774L49.2142 47.251L49.3265 47.1496L49.3582 47.1232L49.4753 47.0245L49.5069 46.9981L49.5386 46.9716L49.5703 46.9451L40.8794 17.7377C40.3684 16.015 38.6063 15.0364 36.9664 15.5731L15.414 22.5838C13.7742 23.1206 12.8452 24.9669 13.3561 26.6897L22.7323 58.4099C23.2433 60.1327 25.0054 61.1113 26.6453 60.5745L43.8522 55.3026L43.8569 55.3053ZM50.5281 46.1491C51.0167 45.7851 51.5284 45.4468 52.0486 45.1388L52.1502 45.0821L52.2373 45.0299L52.2449 45.0152L52.3511 44.9611C52.5131 44.8689 52.6798 44.7793 52.849 44.6849L52.948 44.6331L53.0373 44.5885L53.064 44.5719C53.2548 44.4706 53.4499 44.3844 53.6429 44.2907L53.6742 44.2767L53.8478 44.1974L53.8622 44.1928L53.9633 44.1486L54.0645 44.1044L54.2694 44.0111C54.6114 43.8622 54.9552 43.7334 55.3059 43.6148L55.3347 43.6057L55.5172 43.5441L55.5604 43.5305L55.6421 43.5007L55.7501 43.4667C55.8869 43.4236 56.0237 43.3806 56.1627 43.3451L56.1987 43.3337L56.3809 43.2846L56.4144 43.2782L56.6037 43.2269L56.63 43.2227L56.769 43.1872L56.8863 43.1585L56.927 43.1498L56.9414 43.1453L57.0516 43.1189L56.2352 21.1352C56.1664 19.3393 54.7003 17.913 52.9932 17.9804L42.3317 18.4141L50.5328 46.1517L50.5281 46.1491ZM65.6413 43.2755C68.3592 44.0151 70.8941 45.4058 73.0483 47.3739L76.7751 39.9441C77.5755 38.3485 76.9822 36.3508 75.4633 35.5099L68.1874 31.4857L65.6434 43.2831L65.6413 43.2755ZM64.4794 42.9983L67.3784 29.5435C67.7577 27.7919 66.6895 26.0137 65.0176 25.6126L57.5241 23.8249L58.2381 42.8773L58.2572 42.8754L58.2763 42.8735L58.4196 42.8531L58.453 42.8467L58.484 42.8452L58.5247 42.8365L58.7014 42.8097L58.7349 42.8033L58.8782 42.783L58.9117 42.7765L58.9308 42.7747L58.9498 42.7728L59.155 42.7494L59.3649 42.7287L59.3743 42.734L59.4031 42.7249L59.5985 42.7087L59.6079 42.714L59.7893 42.6899L59.825 42.691L59.8584 42.6846L60.0395 42.673L60.0442 42.6756L60.2516 42.6598L60.2753 42.6606L60.2847 42.6659L60.5039 42.6504L60.7228 42.6475L60.749 42.6433L60.8084 42.6453L60.9179 42.6438L60.9319 42.6517L60.9535 42.6449L60.9676 42.6529L61.127 42.648L61.1817 42.6473L61.1864 42.6499L61.3743 42.6485L61.4053 42.647L61.4362 42.6455L61.6216 42.649L61.6263 42.6516L61.852 42.6589L61.8661 42.6668L62.0561 42.6729L62.0752 42.6711L62.1155 42.6748L62.2793 42.6851L62.2933 42.6931L62.3599 42.6927L62.424 42.6973L62.4881 42.7018L62.5237 42.703L62.5522 42.7064L62.6162 42.711L62.6803 42.7155L62.7444 42.7201L62.7537 42.7254L62.8038 42.722L62.9294 42.736L62.9791 42.7451L62.9884 42.7504L63.0525 42.755L63.1141 42.7645L63.1756 42.7739L63.2372 42.7834L63.2987 42.7929L63.3603 42.8024L63.4834 42.8213L63.5449 42.8308L63.6065 42.8403L63.7296 42.8592L63.7911 42.8687L63.8527 42.8782L63.9143 42.8877L63.9758 42.8971L64.0374 42.9066L64.1533 42.9278L64.1579 42.9305L64.2195 42.94L64.2785 42.9544L64.3376 42.9688L64.3966 42.9831L64.4556 42.9975L64.479 43.0108L64.4794 42.9983Z" stroke="#FF4600" stroke-width="4" stroke-linejoin="round"/>
<path d="M15.2577 22.0518C13.337 22.6769 12.2513 24.8405 12.8511 26.8609L15.2577 22.0518ZM22.2274 58.5811C22.825 60.594 24.8819 61.7395 26.8025 61.1143L44.2661 55.7658C44.4245 55.7159 44.5541 55.5927 44.6136 55.4297M22.2346 58.5789L44.6136 55.4297L22.2346 58.5789ZM44.6136 55.4297C45.4502 53.1632 46.5601 50.8231 48.1331 49.075L44.6136 55.4297ZM44.6136 55.4297L48.1331 49.075L44.6136 55.4297ZM48.1331 49.075C48.6714 48.4728 49.2515 47.9069 49.8586 47.3943C50.0293 47.2499 50.0956 47.0147 50.0331 46.7953M48.1331 49.075L50.0331 46.7953L48.1331 49.075ZM50.0331 46.7953L41.3878 17.5694L50.0331 46.7953ZM50.0284 46.7927L41.3878 17.5694L50.0284 46.7927ZM41.3878 17.5694C40.7902 15.5565 38.7333 14.411 36.8101 15.0411L41.3878 17.5694ZM72.6929 47.7948C72.8157 47.9087 72.9783 47.9564 73.1411 47.9217C73.3013 47.8918 73.4399 47.7864 73.5134 47.6314L77.2402 40.2016C78.1746 38.333 77.4817 35.9998 75.7055 35.0132L68.4296 30.989C68.2845 30.9069 68.111 30.9038 67.9591 30.9764C67.8071 31.0489 67.6984 31.1903 67.6648 31.3616L65.1209 43.159C65.0553 43.4517 65.2298 43.7471 65.5059 43.821C68.1461 44.5355 70.6035 45.8888 72.6951 47.8024L72.6929 47.7948ZM57.5235 43.3865C57.5765 43.2833 57.5941 43.1665 57.5855 43.0538L56.7631 21.1174C56.6817 19.0162 54.9684 17.3422 52.9683 17.4277L42.3067 17.8613C42.1401 17.8684 41.9878 17.9535 41.8956 18.0979C41.7987 18.2397 41.772 18.4212 41.822 18.5827L50.0185 46.3177C50.0706 46.4867 50.1926 46.6256 50.3574 46.6808C50.5198 46.741 50.6965 46.7142 50.8351 46.6088C52.7309 45.2083 54.8644 44.2153 57.1202 43.6783C57.2873 43.6587 57.4403 43.5487 57.5235 43.3865ZM60.5269 43.2284C61.8217 43.1877 63.1003 43.2963 64.3486 43.5464C64.4642 43.5801 64.5905 43.5691 64.7039 43.5128C64.8559 43.4403 64.9646 43.2989 65.0029 43.1302L67.9019 29.6754C68.3446 27.6236 67.0973 25.5474 65.1395 25.0796L57.6461 23.2919C57.4856 23.2517 57.3178 23.2963 57.1885 23.407C57.0593 23.5178 56.9926 23.683 56.9994 23.8581L57.7087 42.9078C57.7112 43.0678 57.7853 43.2176 57.9037 43.3163C58.0196 43.42 58.1729 43.4624 58.3234 43.4398C59.0473 43.3232 59.7842 43.252 60.5315 43.2311L60.5269 43.2284Z" fill="white"/>
<path d="M15.2577 22.0518L36.8101 15.0411M15.2577 22.0518C13.337 22.6769 12.2513 24.8405 12.8511 26.8609M15.2577 22.0518L12.8511 26.8609M36.8101 15.0411C38.7333 14.411 40.7902 15.5565 41.3878 17.5694M36.8101 15.0411L41.3878 17.5694M12.8511 26.8609L22.2274 58.5811C22.825 60.594 24.8819 61.7395 26.8025 61.1143L44.2661 55.7658C44.4245 55.7159 44.5542 55.5927 44.6136 55.4297M44.6136 55.4297L22.2346 58.5789M44.6136 55.4297C45.4502 53.1632 46.5601 50.8231 48.1331 49.075M44.6136 55.4297L48.1331 49.075M48.1331 49.075C48.6714 48.4728 49.2515 47.9069 49.8586 47.3943C50.0293 47.2499 50.0956 47.0147 50.0331 46.7953M48.1331 49.075L50.0331 46.7953M50.0331 46.7953L41.3878 17.5694M41.3878 17.5694L50.0284 46.7927M72.6929 47.7948C72.8157 47.9087 72.9784 47.9564 73.1411 47.9217C73.3013 47.8918 73.4399 47.7864 73.5134 47.6314L77.2402 40.2016C78.1746 38.333 77.4817 35.9998 75.7055 35.0132L68.4296 30.989C68.2845 30.9069 68.111 30.9038 67.9591 30.9764C67.8071 31.0489 67.6984 31.1903 67.6648 31.3616L65.1209 43.159C65.0553 43.4517 65.2298 43.7471 65.5059 43.821C68.1461 44.5355 70.6035 45.8888 72.6951 47.8024L72.6929 47.7948ZM57.5235 43.3865C57.5765 43.2833 57.5941 43.1665 57.5855 43.0538L56.7631 21.1174C56.6817 19.0162 54.9684 17.3422 52.9683 17.4277L42.3067 17.8613C42.1401 17.8684 41.9878 17.9535 41.8956 18.0979C41.7987 18.2397 41.772 18.4212 41.822 18.5827L50.0185 46.3177C50.0706 46.4867 50.1926 46.6256 50.3574 46.6808C50.5198 46.741 50.6965 46.7142 50.8351 46.6088C52.7309 45.2083 54.8644 44.2153 57.1202 43.6783C57.2873 43.6587 57.4403 43.5487 57.5235 43.3865ZM60.5269 43.2284C61.8217 43.1877 63.1003 43.2963 64.3486 43.5464C64.4642 43.5801 64.5905 43.5691 64.7039 43.5128C64.8559 43.4403 64.9646 43.2989 65.0029 43.1302L67.9019 29.6754C68.3446 27.6236 67.0973 25.5474 65.1395 25.0796L57.6461 23.2919C57.4856 23.2517 57.3178 23.2963 57.1885 23.407C57.0593 23.5178 56.9926 23.683 56.9994 23.8581L57.7087 42.9078C57.7112 43.0678 57.7853 43.2176 57.9037 43.3163C58.0196 43.42 58.1729 43.4624 58.3234 43.4398C59.0473 43.3232 59.7842 43.252 60.5315 43.2311L60.5269 43.2284Z" stroke="#FF4600" stroke-width="2" stroke-linejoin="round"/>
<path d="M71.0855 37.0281C71.1072 36.774 71.1764 36.5214 71.3 36.2805L71.0855 37.0281ZM71.0855 37.0281L71.0809 37.0254C70.1311 36.4877 68.934 36.8439 68.4315 37.847C67.9218 38.8524 68.321 40.0869 69.2711 40.6121M71.0855 37.0281L74.355 38.8347C75.3098 39.3626 75.7043 40.5945 75.1946 41.5998C74.6921 42.6029 73.4929 42.9516 72.5406 42.4187C72.2973 42.281 72.0932 42.102 71.9259 41.8868C71.9373 42.2294 72.0542 42.4605 72.2741 42.585C72.5315 42.7307 72.6311 43.0662 72.4924 43.3366C72.3537 43.6069 72.0344 43.7115 71.7745 43.5708L68.8049 41.9212C68.5476 41.7755 68.448 41.44 68.582 41.167C68.7206 40.8967 69.04 40.7921 69.2998 40.9328C69.5197 41.0573 69.7584 41.0276 70.0324 40.8465C69.774 40.8207 69.5123 40.7423 69.2711 40.6121M74.3269 38.8188C74.4929 38.6717 74.6359 38.499 74.7511 38.2978C74.7637 38.2732 74.7738 38.2536 74.7864 38.229C75.3008 37.2263 74.897 35.9891 73.9468 35.4639C72.9945 34.931 71.8 35.2823 71.2928 36.2828L74.3197 38.8211L74.3269 38.8188ZM74.3269 38.8188C74.3269 38.8188 74.3456 38.8294 74.355 38.8347L74.3269 38.8188Z" fill="#14323D"/>
<path d="M71.0855 37.0281C71.1072 36.774 71.1764 36.5214 71.3 36.2805L71.0855 37.0281ZM71.0855 37.0281L71.0809 37.0254C70.1311 36.4877 68.934 36.8439 68.4315 37.847C67.9218 38.8524 68.321 40.0869 69.2711 40.6121M71.0855 37.0281L74.355 38.8347M69.2711 40.6121C69.5123 40.7423 69.774 40.8207 70.0324 40.8465C69.7584 41.0276 69.5197 41.0573 69.2998 40.9328C69.04 40.7921 68.7206 40.8967 68.582 41.167C68.448 41.44 68.5476 41.7755 68.8049 41.9212L71.7745 43.5708C72.0344 43.7115 72.3537 43.6069 72.4924 43.3366C72.6311 43.0662 72.5315 42.7307 72.2741 42.585C72.0542 42.4605 71.9373 42.2294 71.9259 41.8868C72.0932 42.102 72.2973 42.281 72.5406 42.4187C73.4929 42.9516 74.6921 42.6029 75.1946 41.5998C75.7043 40.5945 75.3098 39.3626 74.355 38.8347M69.2711 40.6121L69.5233 40.1206M74.355 38.8347C74.3456 38.8294 74.3269 38.8188 74.3269 38.8188M74.355 38.8347L74.3269 38.8188M74.3269 38.8188C74.4929 38.6717 74.6359 38.499 74.7511 38.2978C74.7637 38.2732 74.7738 38.2536 74.7864 38.229C75.3008 37.2263 74.897 35.9891 73.9468 35.4639C72.9945 34.931 71.8 35.2823 71.2928 36.2828L74.3197 38.8211L74.3269 38.8188Z" stroke="#FF4600" stroke-width="2" stroke-linejoin="round"/>
<path d="M60.3509 29.0855C60.1583 29.2492 60.0977 29.532 60.2027 29.7627L62.0851 33.8731C62.1567 34.0278 62.2913 34.142 62.4497 34.1746C62.6056 34.2121 62.778 34.1702 62.9001 34.0617L66.2297 31.196C66.4152 31.0346 66.4779 30.7593 66.3729 30.5285L64.5373 26.4447C64.4657 26.29 64.3358 26.1784 64.1752 26.1383C64.0147 26.0981 63.8494 26.1378 63.7227 26.2436L60.3437 29.0877L60.3509 29.0855Z" fill="#FF4600" stroke="#FF4600" stroke-width="2" stroke-linejoin="round"/>
<path d="M50.4003 26.4963C50.3629 26.2278 50.5203 25.968 50.7676 25.8861C50.8684 25.8543 50.9855 25.7557 51.1108 25.5349C51.1764 25.4071 51.2427 25.2543 51.2927 25.086C51.1538 25.1215 51.0105 25.1419 50.8676 25.1498L50.4049 26.499L50.4003 26.4963ZM50.4003 26.4963C50.4376 26.7648 50.6528 26.9691 50.9095 26.9749L50.9141 26.9775C50.9141 26.9775 50.9404 26.9734 50.9523 26.9738L53.8023 26.8557C54.0665 26.8467 54.2869 26.629 54.3093 26.3499C54.3364 26.0734 54.1608 25.8155 53.9034 25.7522C53.7973 25.7238 53.6713 25.6398 53.5371 25.4306C53.4551 25.3081 53.3856 25.1609 53.3191 24.9964M50.3956 26.4937L53.3191 24.9964L50.3956 26.4937ZM53.3191 24.9964C53.4588 25.0184 53.6035 25.0305 53.7464 25.0226C54.7748 24.9833 55.6931 24.1585 55.647 23.0478C55.6245 22.5149 55.4144 22.0534 55.1453 21.66C54.8783 21.2742 54.5271 20.9231 54.1888 20.6174C54.0337 20.4725 53.8736 20.3375 53.7206 20.2001C53.7019 20.1896 53.6904 20.1767 53.6742 20.1612C53.5072 20.0159 53.3449 19.8733 53.1992 19.7337C52.8983 19.4492 52.6749 19.2021 52.5435 18.9756C52.4439 18.805 52.2614 18.7017 52.071 18.708C51.8806 18.7144 51.7059 18.8312 51.6173 19.0157C51.501 19.2543 51.3007 19.5151 51.0159 19.8232C50.8783 19.9737 50.7289 20.1238 50.5719 20.2886C50.5571 20.3056 50.5449 20.3177 50.5301 20.3347C50.3879 20.4826 50.2384 20.6326 50.0937 20.7854C49.7771 21.1199 49.457 21.4969 49.2167 21.9063C48.9765 22.3158 48.8032 22.7949 48.8185 23.33C48.8599 24.4381 49.8298 25.1838 50.8608 25.1396L53.3216 24.9915L53.3191 24.9964Z" fill="#14323D"/>
<path d="M50.4003 26.4963C50.3629 26.2278 50.5203 25.968 50.7676 25.8861C50.8684 25.8543 50.9855 25.7557 51.1108 25.5349C51.1764 25.4071 51.2427 25.2543 51.2927 25.086C51.1538 25.1215 51.0105 25.1419 50.8676 25.1498L50.4049 26.499L50.4003 26.4963ZM50.4003 26.4963C50.4376 26.7648 50.6528 26.9691 50.9095 26.9749L50.9141 26.9775C50.9141 26.9775 50.9404 26.9734 50.9523 26.9738L53.8023 26.8557C54.0665 26.8467 54.2869 26.629 54.3093 26.3499C54.3364 26.0734 54.1608 25.8155 53.9034 25.7522C53.7973 25.7238 53.6713 25.6398 53.5371 25.4306C53.4551 25.3081 53.3856 25.1609 53.3191 24.9964M53.3191 24.9964L50.3956 26.4937M53.3191 24.9964C53.4588 25.0184 53.6035 25.0305 53.7464 25.0226C54.7748 24.9833 55.6931 24.1585 55.647 23.0478C55.6245 22.5149 55.4144 22.0534 55.1453 21.66C54.8783 21.2742 54.5271 20.9231 54.1888 20.6174C54.0337 20.4725 53.8736 20.3375 53.7206 20.2001C53.7019 20.1896 53.6904 20.1767 53.6742 20.1612C53.5072 20.0159 53.3449 19.8733 53.1992 19.7337C52.8983 19.4492 52.6749 19.2021 52.5435 18.9756C52.4439 18.805 52.2614 18.7017 52.071 18.708C51.8806 18.7144 51.7059 18.8312 51.6173 19.0157C51.501 19.2543 51.3007 19.5151 51.0159 19.8232C50.8783 19.9737 50.7289 20.1238 50.5719 20.2886C50.5571 20.3056 50.5449 20.3177 50.5301 20.3347C50.3879 20.4826 50.2384 20.6326 50.0937 20.7854C49.7771 21.1199 49.457 21.4969 49.2167 21.9063C48.9765 22.3158 48.8032 22.7949 48.8185 23.33C48.8599 24.4381 49.8298 25.1838 50.8608 25.1396L53.3216 24.9915L53.3191 24.9964Z" stroke="#FF4600" stroke-width="2" stroke-linejoin="round"/>
<path d="M38.2058 24.5269C38.0088 24.593 37.7943 24.5287 37.654 24.3667C37.4125 24.0842 37.0613 23.8155 36.6294 23.5393C36.417 23.4001 36.1903 23.2653 35.9567 23.1204C35.9333 23.1072 35.9146 23.0966 35.8912 23.0833C35.6785 22.9566 35.459 22.8196 35.2394 22.6826C34.3055 22.0904 33.2744 21.3227 32.9058 20.0992C32.5445 18.8734 33.1446 17.5387 34.3161 17.1617C34.9451 16.9596 35.5955 17.0804 36.1109 17.4293C36.3494 16.8349 36.8154 16.3503 37.4468 16.1433L38.2058 24.5269ZM38.2058 24.5269C38.4027 24.4608 38.5482 24.2831 38.5734 24.0691L38.2058 24.5269ZM38.2058 24.5269L38.5734 24.0691L38.2058 24.5269ZM38.5734 24.0691C38.6225 23.6909 38.7681 23.2659 38.9702 22.7778C39.07 22.5361 39.1842 22.29 39.2988 22.0314C39.3114 22.0068 39.3214 21.9871 39.3341 21.9625C39.4407 21.7311 39.5524 21.4899 39.6547 21.2434C40.1035 20.2036 40.5442 18.9561 40.1854 17.7254M38.576 24.0642L40.1854 17.7254L38.576 24.0642ZM40.1854 17.7254C39.824 16.4996 38.6115 15.756 37.4421 16.1406L40.1854 17.7254Z" fill="#FF4600"/>
<path d="M38.2058 24.5269C38.0088 24.593 37.7943 24.5287 37.654 24.3667C37.4125 24.0842 37.0613 23.8155 36.6294 23.5393C36.417 23.4001 36.1903 23.2653 35.9567 23.1204C35.9333 23.1072 35.9146 23.0966 35.8912 23.0833C35.6785 22.9566 35.459 22.8196 35.2394 22.6826C34.3055 22.0904 33.2744 21.3227 32.9058 20.0992C32.5445 18.8734 33.1446 17.5387 34.3161 17.1617C34.9451 16.9596 35.5955 17.0804 36.1109 17.4293C36.3494 16.8349 36.8154 16.3503 37.4468 16.1433L38.2058 24.5269ZM38.2058 24.5269C38.4027 24.4608 38.5482 24.2831 38.5734 24.0691M38.2058 24.5269L38.5734 24.0691M38.5734 24.0691C38.6225 23.6909 38.7681 23.2659 38.9702 22.7778C39.07 22.5361 39.1842 22.29 39.2988 22.0314C39.3114 22.0068 39.3214 21.9871 39.3341 21.9625C39.4407 21.7311 39.5524 21.4899 39.6547 21.2434C40.1035 20.2036 40.5442 18.9561 40.1854 17.7254M40.1854 17.7254L38.576 24.0642M40.1854 17.7254C39.824 16.4996 38.6115 15.756 37.4421 16.1406L40.1854 17.7254Z" stroke="#FF4600" stroke-width="2" stroke-linejoin="round"/>
<path fill-rule="evenodd" clip-rule="evenodd" d="M48.5842 39.5813L48.1475 27.8978C48.1271 27.3725 47.6992 26.959 47.1992 26.9803L44.8874 27.0733L48.5842 39.5813ZM23.822 28.9682L29.1117 27.3073L33.7174 25.8617C34.1998 25.7098 34.7098 25.9986 34.8496 26.5027L36.692 32.9626L40.416 46.0061L40.4224 46.0288L40.4289 46.0515L40.4354 46.0742L40.4419 46.0969L40.4483 46.1196L40.4548 46.1423L40.4613 46.165L40.4631 46.185L40.4649 46.2051L40.4667 46.2251L40.4685 46.2451L40.4702 46.2652L40.4695 46.2901L40.4688 46.3151L40.4587 46.3348L40.4627 46.3624L40.4526 46.382L40.4565 46.4096L40.4464 46.4293L40.4504 46.4569L40.4403 46.4766L40.4349 46.4989L40.4396 46.5015L40.4295 46.5212L40.4194 46.5409L40.4093 46.5605L40.3791 46.6195L40.369 46.6392L40.2757 46.821L40.2656 46.8407L40.2555 46.8604L40.2454 46.88L40.2353 46.8997L40.2252 46.9193L40.2206 46.9167L40.2105 46.9364L40.1864 46.9481L40.1763 46.9677L40.1521 46.9794L40.1421 46.9991L40.1179 47.0108L40.1079 47.0305L40.0837 47.0422L40.0643 47.0566L40.0474 47.066L40.0304 47.0755L40.0135 47.0849L39.9966 47.0944L39.9797 47.1038L39.9581 47.1106L39.9365 47.1174L39.9149 47.1242L39.8933 47.131L39.8717 47.1378L39.8501 47.1446L39.8285 47.1514L34.5388 48.8123L33.3291 49.193L33.2993 49.1571L33.2557 49.1007L33.2374 49.0777L33.2122 49.0444L33.2075 49.0417L33.1204 48.929L33.1157 48.9264L33.0837 48.8829L33.0744 48.8776L33.0538 48.8469L33.0308 48.8212L33.0215 48.8159L32.9894 48.7724L32.9801 48.7671L32.9319 48.7081L32.9178 48.7001L32.8858 48.6566L32.8811 48.654L32.8559 48.6207L32.8376 48.5976L32.8236 48.5897L32.7915 48.5462L32.7617 48.5102L32.7383 48.497L32.7271 48.4716L32.6926 48.4331L32.658 48.3945L32.6393 48.3839L32.6235 48.3559L32.5911 48.3249L32.5565 48.2863L32.5425 48.2783L32.5242 48.2553L32.4965 48.2269L32.4918 48.2242L32.4572 48.1857L32.4432 48.1777L32.4202 48.152L32.3925 48.1236L32.3831 48.1183L32.3486 48.0797L32.3345 48.0718L32.3068 48.0434L32.2741 48.0249L32.2625 48.012L32.228 47.9734L32.2186 47.9681L32.1909 47.9397L32.1629 47.9238L32.1513 47.911L32.1096 47.8747L32.1049 47.872L32.0725 47.841L32.0491 47.8277L32.0376 47.8149L31.9959 47.7786L31.9538 47.7547L31.9329 47.7366L31.9142 47.726L31.875 47.6847L31.8282 47.6582L31.812 47.6427L31.7886 47.6295L31.7864 47.6219L31.749 47.6007L31.7098 47.5595L31.6677 47.5357L31.6327 47.5095L31.6281 47.5069L31.5888 47.4657L31.5421 47.4392L31.5093 47.4206L31.4999 47.4153L31.4557 47.3839L31.4416 47.376L31.4114 47.3525L31.3787 47.334L31.3671 47.3211L31.325 47.2973L31.3157 47.292L31.2829 47.2734L31.2549 47.2575L31.1893 47.2205L31.1519 47.1993L31.1285 47.186L31.1098 47.1754L27.4416 45.0987L26.9389 43.3362L23.215 30.2927L23.2085 30.27L23.2021 30.2473L23.1956 30.2246L23.1891 30.2019L23.1826 30.1792L23.1762 30.1565L23.1697 30.1338L23.1679 30.1138L23.1661 30.0937L23.1643 30.0737L23.1625 30.0537L23.1607 30.0336L23.1615 30.0086L23.1622 29.9837L23.1723 29.964L23.1683 29.9364L23.1784 29.9168L23.1745 29.8891L23.1845 29.8695L23.1806 29.8419L23.1907 29.8222L23.1961 29.7999L23.1914 29.7973L23.2015 29.7776L23.2116 29.7579L23.2217 29.7383L23.2519 29.6793L23.262 29.6596L23.3553 29.4778L23.3654 29.4581L23.3755 29.4384L23.3856 29.4188L23.3956 29.3991L23.4057 29.3795L23.4158 29.3598L23.4399 29.3481L23.45 29.3284L23.4741 29.3167L23.4842 29.297L23.5084 29.2853L23.5184 29.2657L23.5426 29.2539L23.562 29.2396L23.5789 29.2301L23.5958 29.2207L23.6128 29.2112L23.6297 29.2018L23.6466 29.1923L23.6682 29.1855L23.6898 29.1787L23.7114 29.1719L23.733 29.1651L23.7546 29.1583L23.7762 29.1515L23.7978 29.1448L23.8115 29.0003L23.822 28.9682Z" fill="#E3E5E8"/>
<path d="M48.5842 39.5813L48.1475 27.8978C48.1271 27.3725 47.6992 26.959 47.1992 26.9803L44.8874 27.0733L48.5842 39.5813ZM23.822 28.9682L29.1117 27.3073L33.7174 25.8617C34.1998 25.7098 34.7098 25.9986 34.8496 26.5027L36.692 32.9626L40.416 46.0061L40.4224 46.0288L40.4289 46.0515L40.4354 46.0742L40.4419 46.0969L40.4483 46.1196L40.4548 46.1423L40.4613 46.165L40.4631 46.185L40.4649 46.2051L40.4667 46.2251L40.4685 46.2451L40.4702 46.2652L40.4695 46.2901L40.4688 46.3151L40.4587 46.3348L40.4627 46.3624L40.4526 46.382L40.4565 46.4096L40.4464 46.4293L40.4504 46.4569L40.4403 46.4766L40.4349 46.4989L40.4396 46.5015L40.4295 46.5212L40.4194 46.5409L40.4093 46.5605L40.3791 46.6195L40.369 46.6392L40.2757 46.821L40.2656 46.8407L40.2555 46.8604L40.2454 46.88L40.2353 46.8997L40.2252 46.9193L40.2206 46.9167L40.2105 46.9364L40.1864 46.9481L40.1763 46.9677L40.1521 46.9794L40.1421 46.9991L40.1179 47.0108L40.1079 47.0305L40.0837 47.0422L40.0643 47.0566L40.0474 47.066L40.0304 47.0755L40.0135 47.0849L39.9966 47.0944L39.9797 47.1038L39.9581 47.1106L39.9365 47.1174L39.9149 47.1242L39.8933 47.131L39.8717 47.1378L39.8501 47.1446L39.8285 47.1514L34.5388 48.8123L33.3291 49.193L33.2993 49.1571L33.2557 49.1007L33.2374 49.0777L33.2122 49.0444L33.2075 49.0417L33.1204 48.929L33.1157 48.9264L33.0837 48.8829L33.0744 48.8776L33.0538 48.8469L33.0308 48.8212L33.0215 48.8159L32.9894 48.7724L32.9801 48.7671L32.9319 48.7081L32.9178 48.7001L32.8858 48.6566L32.8811 48.654L32.8559 48.6207L32.8376 48.5976L32.8236 48.5897L32.7915 48.5462L32.7617 48.5102L32.7383 48.497L32.7271 48.4716L32.6926 48.4331L32.658 48.3945L32.6393 48.3839L32.6235 48.3559L32.5911 48.3249L32.5565 48.2863L32.5425 48.2783L32.5242 48.2553L32.4965 48.2269L32.4918 48.2242L32.4572 48.1856L32.4432 48.1777L32.4202 48.152L32.3925 48.1236L32.3831 48.1183L32.3486 48.0797L32.3345 48.0718L32.3068 48.0434L32.2741 48.0249L32.2625 48.012L32.228 47.9734L32.2186 47.9681L32.1909 47.9397L32.1629 47.9238L32.1513 47.911L32.1096 47.8747L32.1049 47.872L32.0725 47.841L32.0491 47.8277L32.0376 47.8149L31.9959 47.7786L31.9538 47.7547L31.9329 47.7366L31.9142 47.726L31.875 47.6847L31.8282 47.6582L31.812 47.6427L31.7886 47.6295L31.7864 47.6219L31.749 47.6007L31.7098 47.5595L31.6677 47.5357L31.6327 47.5095L31.6281 47.5069L31.5888 47.4657L31.5421 47.4392L31.5093 47.4206L31.4999 47.4153L31.4557 47.3839L31.4416 47.376L31.4114 47.3525L31.3787 47.334L31.3671 47.3211L31.325 47.2973L31.3157 47.292L31.2829 47.2734L31.2549 47.2575L31.1893 47.2205L31.1519 47.1993L31.1285 47.186L31.1098 47.1754L27.4416 45.0987L26.9389 43.3362L23.215 30.2927L23.2085 30.27L23.2021 30.2473L23.1956 30.2246L23.1891 30.2019L23.1826 30.1792L23.1762 30.1565L23.1697 30.1338L23.1679 30.1138L23.1661 30.0937L23.1643 30.0737L23.1625 30.0537L23.1607 30.0336L23.1615 30.0086L23.1622 29.9837L23.1723 29.964L23.1683 29.9364L23.1784 29.9168L23.1745 29.8891L23.1845 29.8695L23.1806 29.8419L23.1907 29.8222L23.1961 29.7999L23.1914 29.7973L23.2015 29.7776L23.2116 29.7579L23.2217 29.7383L23.2519 29.6793L23.262 29.6596L23.3553 29.4778L23.3654 29.4581L23.3755 29.4384L23.3856 29.4188L23.3956 29.3991L23.4057 29.3795L23.4158 29.3598L23.4399 29.3481L23.45 29.3284L23.4741 29.3167L23.4842 29.297L23.5084 29.2853L23.5184 29.2657L23.5426 29.254L23.562 29.2396L23.5789 29.2301L23.5958 29.2207L23.6128 29.2112L23.6297 29.2018L23.6466 29.1923L23.6682 29.1855L23.6898 29.1787L23.7114 29.1719L23.733 29.1651L23.7546 29.1583L23.7762 29.1515L23.7978 29.1448L23.8115 29.0003L23.822 28.9682Z" stroke="#FF4600" stroke-width="4" stroke-linejoin="round"/>
<path fill-rule="evenodd" clip-rule="evenodd" d="M15.066 21.3909L36.6137 14.3776C38.8224 13.6618 41.1852 14.917 41.9562 17.1803L52.9393 16.7321C55.313 16.6361 57.3272 18.5947 57.421 21.0835L57.4713 22.5391L65.2718 24.3992C67.5837 24.9533 69.0559 27.3916 68.5259 29.8253L68.443 30.2223L76.0069 34.4032C78.1084 35.5676 78.9175 38.3218 77.8163 40.5273L73.9404 48.2595C77.2683 51.7294 64.8869 46.9537 65.0235 51.8897C65.1694 56.9959 65.5405 46.7272 62.1979 50.4419C58.8601 54.1593 62.0713 51.1176 57.2062 51.2682C52.3482 51.4166 54.3313 52.5647 51.1128 54.2134C47.8978 51.0295 46.7739 61.2826 46.3273 56.7039L46.7029 55.5598L46.5151 56.1318C45.242 55.5887 33.4818 60.1001 33.0967 59.8504L32.8753 59.8582L26.9836 61.7746C24.7148 62.5135 22.2833 61.1685 21.5799 58.785L12.2228 27.0629C11.5195 24.6794 12.7971 22.1298 15.066 21.3909ZM43.8569 55.3053C44.6806 52.911 45.9675 50.6965 47.6546 48.7846L47.7432 48.6826L47.7702 48.6535L47.7972 48.6244L47.8512 48.5661L47.8783 48.537L47.9053 48.5079L47.9323 48.4788L48.0403 48.3624L48.0648 48.3382L48.0918 48.3091L48.1458 48.2508L48.1728 48.2217L48.1998 48.1926L48.2243 48.1684L48.2513 48.1393L48.3053 48.0811L48.3324 48.052L48.3594 48.0229L48.3838 47.9987L48.4109 47.9696L48.494 47.8898L48.521 47.8607L48.543 47.8414L48.5772 47.81L48.6042 47.7809L48.6629 47.7254L48.6899 47.6963L48.7119 47.677L48.7461 47.6456L48.7778 47.6191L48.8095 47.5927L48.8412 47.5662L48.8728 47.5398L48.8948 47.5205L48.929 47.4891L48.9607 47.4626L48.9924 47.4362L49.0241 47.4097L49.0558 47.3833L49.0875 47.3568L49.1191 47.3303L49.1508 47.3039L49.1825 47.2774L49.2142 47.251L49.3265 47.1497L49.3582 47.1232L49.4753 47.0245L49.5069 46.9981L49.5386 46.9716L49.5703 46.9451L40.8794 17.7377C40.3684 16.015 38.6063 15.0364 36.9664 15.5731L15.414 22.5838C13.7742 23.1206 12.8452 24.9669 13.3561 26.6897L22.7323 58.4099C23.2433 60.1327 25.0054 61.1113 26.6453 60.5745L43.8522 55.3026L43.8569 55.3053ZM50.5281 46.1491C51.0167 45.7851 51.5284 45.4468 52.0486 45.1388L52.1502 45.0821L52.2373 45.0299L52.2449 45.0152L52.3511 44.9611C52.5131 44.8689 52.6798 44.7793 52.849 44.6849L52.948 44.6331L53.0373 44.5885L53.064 44.5719C53.2548 44.4706 53.4499 44.3844 53.6429 44.2907L53.6742 44.2767L53.8478 44.1974L53.8622 44.1928L53.9633 44.1486L54.0645 44.1044L54.2694 44.0111C54.6114 43.8622 54.9552 43.7334 55.3059 43.6148L55.3347 43.6057L55.5172 43.5441L55.5604 43.5305L55.6421 43.5007L55.7501 43.4667C55.8869 43.4236 56.0237 43.3806 56.1627 43.3451L56.1987 43.3337L56.3809 43.2846L56.4144 43.2782L56.6037 43.2269L56.63 43.2227L56.769 43.1872L56.8863 43.1585L56.927 43.1498L56.9414 43.1453L57.0516 43.1189L56.2352 21.1352C56.1664 19.3393 54.7003 17.913 52.9932 17.9804L42.3317 18.4141L50.5328 46.1517L50.5281 46.1491ZM68.948 50.212C71.6659 50.9516 70.8941 45.4058 73.0483 47.3739L76.7751 39.9441C77.5755 38.3485 76.9822 36.3508 75.4633 35.5099L68.1874 31.4857L65.6435 43.2831L68.948 50.212ZM64.4794 42.9983L67.3784 29.5435C67.7577 27.7919 66.6895 26.0137 65.0176 25.6126L57.5241 23.8249L58.2381 42.8773L58.2572 42.8754L58.2763 42.8735L58.4196 42.8531L58.453 42.8467L58.484 42.8452L58.5247 42.8365L58.7014 42.8097L58.7349 42.8033L58.8782 42.783L58.9117 42.7765L58.9308 42.7747L58.9498 42.7728L59.155 42.7494L59.3649 42.7287L59.3743 42.734L59.4031 42.7249L59.5985 42.7087L59.6079 42.714L59.7893 42.6899L59.825 42.691L59.8585 42.6846L60.0395 42.673L60.0442 42.6756L60.2516 42.6598L60.2753 42.6606L60.2847 42.6659L60.5039 42.6504L60.7228 42.6475L60.749 42.6433L60.8084 42.6453L60.9179 42.6438L60.9319 42.6517L60.9535 42.6449L60.9676 42.6529L61.127 42.648L61.1817 42.6473L61.1864 42.6499L61.3743 42.6485L61.4053 42.647L61.4362 42.6455L61.6216 42.649L61.6263 42.6516L61.852 42.6589L61.8661 42.6668L62.0561 42.6729L62.0752 42.6711L62.1155 42.6749L62.2793 42.6851L62.2933 42.6931L62.3599 42.6927L62.424 42.6973L62.4881 42.7018L62.5237 42.703L62.5522 42.7064L62.6162 42.711L62.6803 42.7155L62.7444 42.7201L62.7537 42.7254L62.8038 42.722L62.9294 42.736L62.9791 42.7451L62.9884 42.7504L63.0525 42.755L63.1141 42.7645L63.1756 42.7739L63.2372 42.7834L63.2987 42.7929L63.3603 42.8024L63.4834 42.8213L63.5449 42.8308L63.6065 42.8403L63.7296 42.8592L63.7911 42.8687L63.8527 42.8782L63.9143 42.8877L63.9758 42.8971L64.0374 42.9066L64.1533 42.9278L64.1579 42.9305L64.2195 42.94L64.2785 42.9544L64.3376 42.9688L64.3966 42.9831L64.4556 42.9975L64.479 43.0108L64.4794 42.9983Z" fill="#14323D"/>
<path fill-rule="evenodd" clip-rule="evenodd" d="M73.0413 47.3769L76.7681 39.9471C77.5685 38.3515 76.9752 36.3537 75.4564 35.5129L68.1804 31.4887L64.0612 51.1528C66.7792 51.8924 70.8893 45.4164 73.0434 47.3844L73.0413 47.3769ZM15.4143 22.5845C13.7744 23.1213 12.8454 24.9676 13.3563 26.6903L22.7326 58.4106C23.2435 60.1334 25.0057 61.112 26.6455 60.5752L44.1091 55.2266C44.9536 52.9329 46.0941 50.5213 47.7384 48.6931C48.294 48.0689 48.8911 47.4936 49.5155 46.9591L40.8796 17.7384C40.3686 16.0157 38.6065 15.0371 36.9666 15.5738L15.4143 22.5845ZM57.0597 51.7212C54.7132 52.2702 52.4896 44.7039 50.5233 46.1596L42.3294 18.4197L52.9909 17.986C54.7005 17.9137 56.1687 19.3475 56.2329 21.1408L57.0514 43.132L57.0597 51.7212ZM61.4842 53.4792C60.1862 53.2201 62.8824 52.5984 61.5447 52.6403C60.7783 52.6631 58.6085 51.664 57.8583 51.7847L57.5287 23.8407L65.0221 25.6285C66.6894 26.0269 67.7576 27.8051 67.3783 29.5567L63.0073 53.6003L61.4842 53.4792Z" fill="white"/>
<path d="M74.3195 37.9641C74.1254 38.3426 73.797 38.5943 73.428 38.6899L73.4327 38.6925C73.0413 38.8198 72.7086 39.0564 72.4515 39.3105C72.6254 39.3011 72.8 39.2667 72.9775 39.215L72.9724 39.2248C73.3303 39.1039 73.7385 39.1321 74.0988 39.336C74.8078 39.7311 75.0836 40.6294 74.7202 41.3497C74.3592 42.065 73.4952 42.337 72.7887 41.937C72.4237 41.7304 72.1697 41.3899 72.0665 41.0144L72.0539 41.039C71.9784 40.7742 71.8593 40.5355 71.7226 40.3313C71.6383 40.5309 71.4981 40.9336 71.4256 41.381C71.3286 42.0174 71.3859 42.7413 72.0201 43.0939L69.0458 41.4417C70.1388 42.0415 71.1408 40.5474 71.3933 40.1258C71.196 40.1219 70.9861 40.1427 70.773 40.1933C70.3874 40.3682 69.9216 40.3582 69.512 40.1327C68.8077 39.7402 68.5272 38.8393 68.8907 38.119C69.2516 37.4037 70.1156 37.1317 70.8175 37.529C71.1964 37.7436 71.4501 38.0965 71.5551 38.4921C71.6098 38.6563 71.6813 38.811 71.7652 38.9536C71.8114 38.5928 71.814 38.1757 71.6979 37.7547C71.5569 37.3705 71.5671 36.9386 71.7591 36.5525C72.1201 35.8372 72.9841 35.5652 73.6906 35.9652C74.3949 36.3576 74.6754 37.2585 74.312 37.9788L74.3195 37.9641Z" fill="#14323D"/>
<path d="M60.6824 29.5205L64.0614 26.6763L65.8923 30.7575L62.5627 33.6232L60.6803 29.5129L60.6824 29.5205Z" fill="#FF4600"/>
<path d="M50.9228 26.4181C51.4704 26.2333 51.7575 25.5206 51.9043 24.8108C51.9681 24.4981 52.0056 24.1895 52.0298 23.9305C51.7882 24.3074 51.3525 24.5682 50.8406 24.5892C50.0382 24.6233 49.3796 24.0475 49.3511 23.3146C49.299 21.7565 51.4845 20.5327 52.0872 19.2755C52.7844 20.4822 55.0559 21.5271 55.1223 23.0807C55.1509 23.8136 54.5333 24.4408 53.7334 24.47C53.2215 24.491 52.7691 24.2665 52.4989 23.9106C52.5413 24.1693 52.6013 24.476 52.6876 24.7786C52.8861 25.4745 53.2228 26.1599 53.7847 26.3004L50.9347 26.4185L50.93 26.4158L50.9228 26.4181Z" fill="#14323D"/>
<path d="M38.0502 23.9951C38.2866 22.169 40.2643 19.9143 39.6764 17.8942C39.3952 16.9358 38.4598 16.3936 37.6026 16.6758C36.7382 16.9602 36.262 17.9592 36.5457 18.9127C36.2692 17.9569 35.3385 17.4173 34.4694 17.6991C33.6028 17.976 33.1288 18.9825 33.4125 19.936C34.022 21.9492 36.8652 22.6329 38.0476 24L38.0502 23.9951Z" fill="#FF4600"/>
<path fill-rule="evenodd" clip-rule="evenodd" d="M48.5845 39.5813L48.1477 27.8978C48.1274 27.3725 47.6995 26.959 47.1995 26.9804L44.8877 27.0733L48.5845 39.5813Z" fill="#E3E5E8"/>
<path d="M32.5909 24.7265L23.9497 27.5C23.1075 27.7704 22.6334 28.7067 22.8907 29.5915L28.3821 48.4738C28.6394 49.3586 29.5308 49.8567 30.3729 49.5864L39.0141 46.8128C39.8563 46.5425 40.3305 45.6061 40.0731 44.7213L34.5817 25.839C34.3244 24.9543 33.4331 24.4562 32.5909 24.7265Z" fill="#E3E5E8"/>
<mask id="path-22-outside-1_474_4060" maskUnits="userSpaceOnUse" x="5.37158" y="29.0256" width="101" height="48" fill="black">
<rect fill="white" x="5.37158" y="29.0256" width="101" height="48"/>
<path d="M81.4549 63.7942H80.4674H63.276H62.2514H47.5837V51.5798H55.6307V48.123C55.6307 47.5086 55.4663 47.0862 55.1369 46.8559C54.8081 46.6249 54.4603 46.5101 54.0944 46.5101V44.7817H58.7037V50.1972C58.7521 50.6842 58.9655 51.0363 59.3433 51.2535C59.7211 51.4713 60.0445 51.5798 60.3129 51.5798H62.2514H63.276H75.4558V48.123C75.4558 47.5086 75.2974 47.0862 74.9806 46.8559C74.6632 46.6249 74.3093 46.5101 73.9196 46.5101V44.7817H78.5289V51.5798H80.4674H81.4549H88.2215C87.4654 51.2987 86.9053 50.7608 86.5394 49.9669C86.1736 49.1736 85.9907 48.3408 85.9907 47.4703C85.9907 46.4718 86.1975 45.6333 86.6124 44.9543C87.0266 44.2765 87.5634 43.7254 88.2215 43.303C88.8802 42.88 89.6239 42.5731 90.4529 42.3811C91.282 42.1891 92.1111 42.093 92.9402 42.093H98.3541V49.9286C98.3541 50.2355 98.4145 50.4922 98.537 50.6968C98.6583 50.902 98.8048 51.0746 98.9758 51.2152C99.1461 51.3564 99.329 51.4524 99.5245 51.5033C99.7194 51.5547 99.8778 51.5798 99.9997 51.5798V63.7942H81.4549ZM95.281 43.8214H94.1477C93.9032 43.8214 93.5254 43.8403 93.0137 43.8792C92.5015 43.9175 91.9892 44.0518 91.4775 44.2821C90.9652 44.5124 90.5139 44.8777 90.1236 45.3766C89.7333 45.8762 89.5384 46.5866 89.5384 47.5086C89.5384 48.3797 89.7153 49.0776 90.0692 49.6016C90.4225 50.1269 90.8552 50.5368 91.3675 50.8311C91.8798 51.1254 92.4154 51.3244 92.9767 51.4261C93.5374 51.529 94.0377 51.5798 94.4764 51.5798H95.281V43.8214ZM96.3785 40.0188C95.7204 40.0188 95.1591 39.7759 94.6958 39.2889C94.2326 38.8032 94.0012 38.2138 94.0012 37.5222C94.0012 36.8306 94.2326 36.2419 94.6958 35.7555C95.1591 35.2691 95.7204 35.0256 96.3785 35.0256C97.0372 35.0256 97.5979 35.2691 98.0612 35.7555C98.5245 36.2419 98.7564 36.8306 98.7564 37.5222C98.7564 38.2138 98.5245 38.8032 98.0612 39.2889C97.5979 39.7759 97.0372 40.0188 96.3785 40.0188ZM90.5994 40.0188C89.9407 40.0188 89.38 39.7759 88.9167 39.2889C88.4535 38.8032 88.2215 38.2138 88.2215 37.5222C88.2215 36.8306 88.4535 36.2419 88.9167 35.7555C89.38 35.2691 89.9407 35.0256 90.5994 35.0256C91.2575 35.0256 91.8182 35.2691 92.2821 35.7555C92.7447 36.2419 92.9767 36.8306 92.9767 37.5222C92.9767 38.2138 92.7447 38.8032 92.2821 39.2889C91.8182 39.7759 91.2575 40.0188 90.5994 40.0188ZM20.5161 63.7942H11.3716V51.5798H11.4816C11.6029 51.5798 11.7559 51.5547 11.9389 51.5033C12.1218 51.4524 12.2981 51.369 12.4691 51.2535C12.6394 51.138 12.7859 50.9911 12.9078 50.8116C13.0298 50.6328 13.0907 50.415 13.0907 50.1589V39.673C13.0907 39.0335 12.9317 38.6042 12.6155 38.3864C12.2981 38.1693 11.9442 38.0601 11.5545 38.0601V36.3317H16.1632V50.1972C16.2122 50.6842 16.4316 51.0363 16.8219 51.2535C17.2117 51.4713 17.541 51.5798 17.8094 51.5798H20.5161H21.5406H27.832C27.8804 51.0941 27.9778 50.614 28.1243 50.1395C28.2708 49.6663 28.5021 49.2502 28.8195 48.8912C28.5021 49.0199 28.1853 49.0832 27.8685 49.0832C27.4046 49.0832 27.0208 48.9816 26.716 48.7763C26.4111 48.5717 26.1613 48.3025 25.9664 47.9693C25.7709 47.6372 25.6311 47.2588 25.5456 46.8364C25.4601 46.4141 25.4177 45.9854 25.4177 45.5499C25.4177 44.1415 25.82 42.9635 26.6245 42.0158C27.4297 41.0688 28.5631 40.595 30.0264 40.595C30.9284 40.595 31.9649 40.8002 33.1353 41.2094C33.9889 41.4918 34.757 41.6707 35.4402 41.7472C36.1223 41.8238 36.8175 41.8627 37.5246 41.8627H44.1089V50.0435C44.1328 50.6071 44.3468 51.0037 44.7491 51.234C45.1514 51.465 45.4861 51.5798 45.7551 51.5798V63.7942H21.5406H20.5161ZM35.6961 51.5798V48.3923C35.4032 48.3923 35.0194 48.4243 34.5436 48.4883C34.0684 48.5523 33.6045 48.6866 33.1538 48.8912C32.7025 49.0964 32.3002 49.4096 31.947 49.8326C31.5931 50.255 31.3916 50.8374 31.3432 51.5798H35.6961ZM29.5511 48.1613C30.3067 47.5726 31.1663 47.176 32.1299 46.9707C33.0929 46.7661 33.9644 46.6638 34.7451 46.6638H38.7685V51.5798H41.0364V45.2806H39.6467C38.9634 45.2806 38.2437 45.2681 37.4882 45.2423C36.732 45.2172 35.9884 45.1595 35.2573 45.0697C34.5257 44.98 33.806 44.8331 33.0988 44.6279C32.3917 44.4233 31.721 44.1547 31.0874 43.8214C30.0867 43.2585 29.1489 42.9761 28.2708 42.9761C27.6855 42.9761 27.1972 43.1367 26.8074 43.4562C26.4171 43.7769 26.2222 44.3078 26.2222 45.0503C26.2222 45.307 26.2342 45.499 26.2587 45.6264C26.6735 45.1407 27.2217 44.8965 27.9049 44.8965C28.4172 44.8965 28.8799 45.0635 29.2947 45.3961C29.7096 45.7293 29.917 46.19 29.917 46.7787C29.917 47.2657 29.7944 47.7264 29.5511 48.1613ZM68.3234 65.3688C68.9821 65.3688 69.5422 65.6117 70.0061 66.0987C70.4688 66.5845 70.7013 67.1738 70.7013 67.8654C70.7013 68.557 70.4688 69.1457 70.0061 69.6321C69.5422 70.1185 68.9821 70.362 68.3234 70.362C67.6653 70.362 67.098 70.1185 66.6228 69.6321C66.147 69.1457 65.9091 68.557 65.9091 67.8654C65.9091 67.1738 66.147 66.5845 66.6228 66.0987C67.098 65.6117 67.6653 65.3688 68.3234 65.3688ZM73.8467 65.3688C74.5048 65.3688 75.0655 65.6117 75.5294 66.0987C75.992 66.5845 76.2246 67.1738 76.2246 67.8654C76.2246 68.557 75.992 69.1457 75.5294 69.6321C75.0655 70.1185 74.5048 70.362 73.8467 70.362C73.1886 70.362 72.6273 70.1185 72.164 69.6321C71.7007 69.1457 71.4694 68.557 71.4694 67.8654C71.4694 67.1738 71.7007 66.5845 72.164 66.0987C72.6273 65.6117 73.1886 65.3688 73.8467 65.3688Z"/>
</mask>
<path d="M81.4549 63.7942H80.4674H63.276H62.2514H47.5837V51.5798H55.6307V48.123C55.6307 47.5086 55.4663 47.0862 55.1369 46.8559C54.8081 46.6249 54.4603 46.5101 54.0944 46.5101V44.7817H58.7037V50.1972C58.7521 50.6842 58.9655 51.0363 59.3433 51.2535C59.7211 51.4713 60.0445 51.5798 60.3129 51.5798H62.2514H63.276H75.4558V48.123C75.4558 47.5086 75.2974 47.0862 74.9806 46.8559C74.6632 46.6249 74.3093 46.5101 73.9196 46.5101V44.7817H78.5289V51.5798H80.4674H81.4549H88.2215C87.4654 51.2987 86.9053 50.7608 86.5394 49.9669C86.1736 49.1736 85.9907 48.3408 85.9907 47.4703C85.9907 46.4718 86.1975 45.6333 86.6124 44.9543C87.0266 44.2765 87.5634 43.7254 88.2215 43.303C88.8802 42.88 89.6239 42.5731 90.4529 42.3811C91.282 42.1891 92.1111 42.093 92.9402 42.093H98.3541V49.9286C98.3541 50.2355 98.4145 50.4922 98.537 50.6968C98.6583 50.902 98.8048 51.0746 98.9758 51.2152C99.1461 51.3564 99.329 51.4524 99.5245 51.5033C99.7194 51.5547 99.8778 51.5798 99.9997 51.5798V63.7942H81.4549ZM95.281 43.8214H94.1477C93.9032 43.8214 93.5254 43.8403 93.0137 43.8792C92.5015 43.9175 91.9892 44.0518 91.4775 44.2821C90.9652 44.5124 90.5139 44.8777 90.1236 45.3766C89.7333 45.8762 89.5384 46.5866 89.5384 47.5086C89.5384 48.3797 89.7153 49.0776 90.0692 49.6016C90.4225 50.1269 90.8552 50.5368 91.3675 50.8311C91.8798 51.1254 92.4154 51.3244 92.9767 51.4261C93.5374 51.529 94.0377 51.5798 94.4764 51.5798H95.281V43.8214ZM96.3785 40.0188C95.7204 40.0188 95.1591 39.7759 94.6958 39.2889C94.2326 38.8032 94.0012 38.2138 94.0012 37.5222C94.0012 36.8306 94.2326 36.2419 94.6958 35.7555C95.1591 35.2691 95.7204 35.0256 96.3785 35.0256C97.0372 35.0256 97.5979 35.2691 98.0612 35.7555C98.5245 36.2419 98.7564 36.8306 98.7564 37.5222C98.7564 38.2138 98.5245 38.8032 98.0612 39.2889C97.5979 39.7759 97.0372 40.0188 96.3785 40.0188ZM90.5994 40.0188C89.9407 40.0188 89.38 39.7759 88.9167 39.2889C88.4535 38.8032 88.2215 38.2138 88.2215 37.5222C88.2215 36.8306 88.4535 36.2419 88.9167 35.7555C89.38 35.2691 89.9407 35.0256 90.5994 35.0256C91.2575 35.0256 91.8182 35.2691 92.2821 35.7555C92.7447 36.2419 92.9767 36.8306 92.9767 37.5222C92.9767 38.2138 92.7447 38.8032 92.2821 39.2889C91.8182 39.7759 91.2575 40.0188 90.5994 40.0188ZM20.5161 63.7942H11.3716V51.5798H11.4816C11.6029 51.5798 11.7559 51.5547 11.9389 51.5033C12.1218 51.4524 12.2981 51.369 12.4691 51.2535C12.6394 51.138 12.7859 50.9911 12.9078 50.8116C13.0298 50.6328 13.0907 50.415 13.0907 50.1589V39.673C13.0907 39.0335 12.9317 38.6042 12.6155 38.3864C12.2981 38.1693 11.9442 38.0601 11.5545 38.0601V36.3317H16.1632V50.1972C16.2122 50.6842 16.4316 51.0363 16.8219 51.2535C17.2117 51.4713 17.541 51.5798 17.8094 51.5798H20.5161H21.5406H27.832C27.8804 51.0941 27.9778 50.614 28.1243 50.1395C28.2708 49.6663 28.5021 49.2502 28.8195 48.8912C28.5021 49.0199 28.1853 49.0832 27.8685 49.0832C27.4046 49.0832 27.0208 48.9816 26.716 48.7763C26.4111 48.5717 26.1613 48.3025 25.9664 47.9693C25.7709 47.6372 25.6311 47.2588 25.5456 46.8364C25.4601 46.4141 25.4177 45.9854 25.4177 45.5499C25.4177 44.1415 25.82 42.9635 26.6245 42.0158C27.4297 41.0688 28.5631 40.595 30.0264 40.595C30.9284 40.595 31.9649 40.8002 33.1353 41.2094C33.9889 41.4918 34.757 41.6707 35.4402 41.7472C36.1223 41.8238 36.8175 41.8627 37.5246 41.8627H44.1089V50.0435C44.1328 50.6071 44.3468 51.0037 44.7491 51.234C45.1514 51.465 45.4861 51.5798 45.7551 51.5798V63.7942H21.5406H20.5161ZM35.6961 51.5798V48.3923C35.4032 48.3923 35.0194 48.4243 34.5436 48.4883C34.0684 48.5523 33.6045 48.6866 33.1538 48.8912C32.7025 49.0964 32.3002 49.4096 31.947 49.8326C31.5931 50.255 31.3916 50.8374 31.3432 51.5798H35.6961ZM29.5511 48.1613C30.3067 47.5726 31.1663 47.176 32.1299 46.9707C33.0929 46.7661 33.9644 46.6638 34.7451 46.6638H38.7685V51.5798H41.0364V45.2806H39.6467C38.9634 45.2806 38.2437 45.2681 37.4882 45.2423C36.732 45.2172 35.9884 45.1595 35.2573 45.0697C34.5257 44.98 33.806 44.8331 33.0988 44.6279C32.3917 44.4233 31.721 44.1547 31.0874 43.8214C30.0867 43.2585 29.1489 42.9761 28.2708 42.9761C27.6855 42.9761 27.1972 43.1367 26.8074 43.4562C26.4171 43.7769 26.2222 44.3078 26.2222 45.0503C26.2222 45.307 26.2342 45.499 26.2587 45.6264C26.6735 45.1407 27.2217 44.8965 27.9049 44.8965C28.4172 44.8965 28.8799 45.0635 29.2947 45.3961C29.7096 45.7293 29.917 46.19 29.917 46.7787C29.917 47.2657 29.7944 47.7264 29.5511 48.1613ZM68.3234 65.3688C68.9821 65.3688 69.5422 65.6117 70.0061 66.0987C70.4688 66.5845 70.7013 67.1738 70.7013 67.8654C70.7013 68.557 70.4688 69.1457 70.0061 69.6321C69.5422 70.1185 68.9821 70.362 68.3234 70.362C67.6653 70.362 67.098 70.1185 66.6228 69.6321C66.147 69.1457 65.9091 68.557 65.9091 67.8654C65.9091 67.1738 66.147 66.5845 66.6228 66.0987C67.098 65.6117 67.6653 65.3688 68.3234 65.3688ZM73.8467 65.3688C74.5048 65.3688 75.0655 65.6117 75.5294 66.0987C75.992 66.5845 76.2246 67.1738 76.2246 67.8654C76.2246 68.557 75.992 69.1457 75.5294 69.6321C75.0655 70.1185 74.5048 70.362 73.8467 70.362C73.1886 70.362 72.6273 70.1185 72.164 69.6321C71.7007 69.1457 71.4694 68.557 71.4694 67.8654C71.4694 67.1738 71.7007 66.5845 72.164 66.0987C72.6273 65.6117 73.1886 65.3688 73.8467 65.3688Z" fill="url(#paint0_linear_474_4060)"/>
<path d="M81.4549 63.7942H80.4674H63.276H62.2514H47.5837V51.5798H55.6307V48.123C55.6307 47.5086 55.4663 47.0862 55.1369 46.8559C54.8081 46.6249 54.4603 46.5101 54.0944 46.5101V44.7817H58.7037V50.1972C58.7521 50.6842 58.9655 51.0363 59.3433 51.2535C59.7211 51.4713 60.0445 51.5798 60.3129 51.5798H62.2514H63.276H75.4558V48.123C75.4558 47.5086 75.2974 47.0862 74.9806 46.8559C74.6632 46.6249 74.3093 46.5101 73.9196 46.5101V44.7817H78.5289V51.5798H80.4674H81.4549H88.2215C87.4654 51.2987 86.9053 50.7608 86.5394 49.9669C86.1736 49.1736 85.9907 48.3408 85.9907 47.4703C85.9907 46.4718 86.1975 45.6333 86.6124 44.9543C87.0266 44.2765 87.5634 43.7254 88.2215 43.303C88.8802 42.88 89.6239 42.5731 90.4529 42.3811C91.282 42.1891 92.1111 42.093 92.9402 42.093H98.3541V49.9286C98.3541 50.2355 98.4145 50.4922 98.537 50.6968C98.6583 50.902 98.8048 51.0746 98.9758 51.2152C99.1461 51.3564 99.329 51.4524 99.5245 51.5033C99.7194 51.5547 99.8778 51.5798 99.9997 51.5798V63.7942H81.4549ZM95.281 43.8214H94.1477C93.9032 43.8214 93.5254 43.8403 93.0137 43.8792C92.5015 43.9175 91.9892 44.0518 91.4775 44.2821C90.9652 44.5124 90.5139 44.8777 90.1236 45.3766C89.7333 45.8762 89.5384 46.5866 89.5384 47.5086C89.5384 48.3797 89.7153 49.0776 90.0692 49.6016C90.4225 50.1269 90.8552 50.5368 91.3675 50.8311C91.8798 51.1254 92.4154 51.3244 92.9767 51.4261C93.5374 51.529 94.0377 51.5798 94.4764 51.5798H95.281V43.8214ZM96.3785 40.0188C95.7204 40.0188 95.1591 39.7759 94.6958 39.2889C94.2326 38.8032 94.0012 38.2138 94.0012 37.5222C94.0012 36.8306 94.2326 36.2419 94.6958 35.7555C95.1591 35.2691 95.7204 35.0256 96.3785 35.0256C97.0372 35.0256 97.5979 35.2691 98.0612 35.7555C98.5245 36.2419 98.7564 36.8306 98.7564 37.5222C98.7564 38.2138 98.5245 38.8032 98.0612 39.2889C97.5979 39.7759 97.0372 40.0188 96.3785 40.0188ZM90.5994 40.0188C89.9407 40.0188 89.38 39.7759 88.9167 39.2889C88.4535 38.8032 88.2215 38.2138 88.2215 37.5222C88.2215 36.8306 88.4535 36.2419 88.9167 35.7555C89.38 35.2691 89.9407 35.0256 90.5994 35.0256C91.2575 35.0256 91.8182 35.2691 92.2821 35.7555C92.7447 36.2419 92.9767 36.8306 92.9767 37.5222C92.9767 38.2138 92.7447 38.8032 92.2821 39.2889C91.8182 39.7759 91.2575 40.0188 90.5994 40.0188ZM20.5161 63.7942H11.3716V51.5798H11.4816C11.6029 51.5798 11.7559 51.5547 11.9389 51.5033C12.1218 51.4524 12.2981 51.369 12.4691 51.2535C12.6394 51.138 12.7859 50.9911 12.9078 50.8116C13.0298 50.6328 13.0907 50.415 13.0907 50.1589V39.673C13.0907 39.0335 12.9317 38.6042 12.6155 38.3864C12.2981 38.1693 11.9442 38.0601 11.5545 38.0601V36.3317H16.1632V50.1972C16.2122 50.6842 16.4316 51.0363 16.8219 51.2535C17.2117 51.4713 17.541 51.5798 17.8094 51.5798H20.5161H21.5406H27.832C27.8804 51.0941 27.9778 50.614 28.1243 50.1395C28.2708 49.6663 28.5021 49.2502 28.8195 48.8912C28.5021 49.0199 28.1853 49.0832 27.8685 49.0832C27.4046 49.0832 27.0208 48.9816 26.716 48.7763C26.4111 48.5717 26.1613 48.3025 25.9664 47.9693C25.7709 47.6372 25.6311 47.2588 25.5456 46.8364C25.4601 46.4141 25.4177 45.9854 25.4177 45.5499C25.4177 44.1415 25.82 42.9635 26.6245 42.0158C27.4297 41.0688 28.5631 40.595 30.0264 40.595C30.9284 40.595 31.9649 40.8002 33.1353 41.2094C33.9889 41.4918 34.757 41.6707 35.4402 41.7472C36.1223 41.8238 36.8175 41.8627 37.5246 41.8627H44.1089V50.0435C44.1328 50.6071 44.3468 51.0037 44.7491 51.234C45.1514 51.465 45.4861 51.5798 45.7551 51.5798V63.7942H21.5406H20.5161ZM35.6961 51.5798V48.3923C35.4032 48.3923 35.0194 48.4243 34.5436 48.4883C34.0684 48.5523 33.6045 48.6866 33.1538 48.8912C32.7025 49.0964 32.3002 49.4096 31.947 49.8326C31.5931 50.255 31.3916 50.8374 31.3432 51.5798H35.6961ZM29.5511 48.1613C30.3067 47.5726 31.1663 47.176 32.1299 46.9707C33.0929 46.7661 33.9644 46.6638 34.7451 46.6638H38.7685V51.5798H41.0364V45.2806H39.6467C38.9634 45.2806 38.2437 45.2681 37.4882 45.2423C36.732 45.2172 35.9884 45.1595 35.2573 45.0697C34.5257 44.98 33.806 44.8331 33.0988 44.6279C32.3917 44.4233 31.721 44.1547 31.0874 43.8214C30.0867 43.2585 29.1489 42.9761 28.2708 42.9761C27.6855 42.9761 27.1972 43.1367 26.8074 43.4562C26.4171 43.7769 26.2222 44.3078 26.2222 45.0503C26.2222 45.307 26.2342 45.499 26.2587 45.6264C26.6735 45.1407 27.2217 44.8965 27.9049 44.8965C28.4172 44.8965 28.8799 45.0635 29.2947 45.3961C29.7096 45.7293 29.917 46.19 29.917 46.7787C29.917 47.2657 29.7944 47.7264 29.5511 48.1613ZM68.3234 65.3688C68.9821 65.3688 69.5422 65.6117 70.0061 66.0987C70.4688 66.5845 70.7013 67.1738 70.7013 67.8654C70.7013 68.557 70.4688 69.1457 70.0061 69.6321C69.5422 70.1185 68.9821 70.362 68.3234 70.362C67.6653 70.362 67.098 70.1185 66.6228 69.6321C66.147 69.1457 65.9091 68.557 65.9091 67.8654C65.9091 67.1738 66.147 66.5845 66.6228 66.0987C67.098 65.6117 67.6653 65.3688 68.3234 65.3688ZM73.8467 65.3688C74.5048 65.3688 75.0655 65.6117 75.5294 66.0987C75.992 66.5845 76.2246 67.1738 76.2246 67.8654C76.2246 68.557 75.992 69.1457 75.5294 69.6321C75.0655 70.1185 74.5048 70.362 73.8467 70.362C73.1886 70.362 72.6273 70.1185 72.164 69.6321C71.7007 69.1457 71.4694 68.557 71.4694 67.8654C71.4694 67.1738 71.7007 66.5845 72.164 66.0987C72.6273 65.6117 73.1886 65.3688 73.8467 65.3688Z" stroke="#FF4600" stroke-width="12" mask="url(#path-22-outside-1_474_4060)"/>
<mask id="path-23-outside-2_474_4060" maskUnits="userSpaceOnUse" x="7.37158" y="31.0256" width="97" height="44" fill="black">
<rect fill="white" x="7.37158" y="31.0256" width="97" height="44"/>
<path d="M81.4549 63.7942H80.4674H63.276H62.2514H47.5837V51.5798H55.6307V48.123C55.6307 47.5086 55.4663 47.0862 55.1369 46.8559C54.8081 46.6249 54.4603 46.5101 54.0944 46.5101V44.7817H58.7037V50.1972C58.7521 50.6842 58.9655 51.0363 59.3433 51.2535C59.7211 51.4713 60.0445 51.5798 60.3129 51.5798H62.2514H63.276H75.4558V48.123C75.4558 47.5086 75.2974 47.0862 74.9806 46.8559C74.6632 46.6249 74.3093 46.5101 73.9196 46.5101V44.7817H78.5289V51.5798H80.4674H81.4549H88.2215C87.4654 51.2987 86.9053 50.7608 86.5394 49.9669C86.1736 49.1736 85.9907 48.3408 85.9907 47.4703C85.9907 46.4718 86.1975 45.6333 86.6124 44.9543C87.0266 44.2765 87.5634 43.7254 88.2215 43.303C88.8802 42.88 89.6239 42.5731 90.4529 42.3811C91.282 42.1891 92.1111 42.093 92.9402 42.093H98.3541V49.9286C98.3541 50.2355 98.4145 50.4922 98.537 50.6968C98.6583 50.902 98.8048 51.0746 98.9758 51.2152C99.1461 51.3564 99.329 51.4524 99.5245 51.5033C99.7194 51.5547 99.8778 51.5798 99.9997 51.5798V63.7942H81.4549ZM95.281 43.8214H94.1477C93.9032 43.8214 93.5254 43.8403 93.0137 43.8792C92.5015 43.9175 91.9892 44.0518 91.4775 44.2821C90.9652 44.5124 90.5139 44.8777 90.1236 45.3766C89.7333 45.8762 89.5384 46.5866 89.5384 47.5086C89.5384 48.3797 89.7153 49.0776 90.0692 49.6016C90.4225 50.1269 90.8552 50.5368 91.3675 50.8311C91.8798 51.1254 92.4154 51.3244 92.9767 51.4261C93.5374 51.529 94.0377 51.5798 94.4764 51.5798H95.281V43.8214ZM96.3785 40.0188C95.7204 40.0188 95.1591 39.7759 94.6958 39.2889C94.2326 38.8032 94.0012 38.2138 94.0012 37.5222C94.0012 36.8306 94.2326 36.2419 94.6958 35.7555C95.1591 35.2691 95.7204 35.0256 96.3785 35.0256C97.0372 35.0256 97.5979 35.2691 98.0612 35.7555C98.5245 36.2419 98.7564 36.8306 98.7564 37.5222C98.7564 38.2138 98.5245 38.8032 98.0612 39.2889C97.5979 39.7759 97.0372 40.0188 96.3785 40.0188ZM90.5994 40.0188C89.9407 40.0188 89.38 39.7759 88.9167 39.2889C88.4535 38.8032 88.2215 38.2138 88.2215 37.5222C88.2215 36.8306 88.4535 36.2419 88.9167 35.7555C89.38 35.2691 89.9407 35.0256 90.5994 35.0256C91.2575 35.0256 91.8182 35.2691 92.2821 35.7555C92.7447 36.2419 92.9767 36.8306 92.9767 37.5222C92.9767 38.2138 92.7447 38.8032 92.2821 39.2889C91.8182 39.7759 91.2575 40.0188 90.5994 40.0188ZM20.5161 63.7942H11.3716V51.5798H11.4816C11.6029 51.5798 11.7559 51.5547 11.9389 51.5033C12.1218 51.4524 12.2981 51.369 12.4691 51.2535C12.6394 51.138 12.7859 50.9911 12.9078 50.8116C13.0298 50.6328 13.0907 50.415 13.0907 50.1589V39.673C13.0907 39.0335 12.9317 38.6042 12.6155 38.3864C12.2981 38.1693 11.9442 38.0601 11.5545 38.0601V36.3317H16.1632V50.1972C16.2122 50.6842 16.4316 51.0363 16.8219 51.2535C17.2117 51.4713 17.541 51.5798 17.8094 51.5798H20.5161H21.5406H27.832C27.8804 51.0941 27.9778 50.614 28.1243 50.1395C28.2708 49.6663 28.5021 49.2502 28.8195 48.8912C28.5021 49.0199 28.1853 49.0832 27.8685 49.0832C27.4046 49.0832 27.0208 48.9816 26.716 48.7763C26.4111 48.5717 26.1613 48.3025 25.9664 47.9693C25.7709 47.6372 25.6311 47.2588 25.5456 46.8364C25.4601 46.4141 25.4177 45.9854 25.4177 45.5499C25.4177 44.1415 25.82 42.9635 26.6245 42.0158C27.4297 41.0688 28.5631 40.595 30.0264 40.595C30.9284 40.595 31.9649 40.8002 33.1353 41.2094C33.9889 41.4918 34.757 41.6707 35.4402 41.7472C36.1223 41.8238 36.8175 41.8627 37.5246 41.8627H44.1089V50.0435C44.1328 50.6071 44.3468 51.0037 44.7491 51.234C45.1514 51.465 45.4861 51.5798 45.7551 51.5798V63.7942H21.5406H20.5161ZM35.6961 51.5798V48.3923C35.4032 48.3923 35.0194 48.4243 34.5436 48.4883C34.0684 48.5523 33.6045 48.6866 33.1538 48.8912C32.7025 49.0964 32.3002 49.4096 31.947 49.8326C31.5931 50.255 31.3916 50.8374 31.3432 51.5798H35.6961ZM29.5511 48.1613C30.3067 47.5726 31.1663 47.176 32.1299 46.9707C33.0929 46.7661 33.9644 46.6638 34.7451 46.6638H38.7685V51.5798H41.0364V45.2806H39.6467C38.9634 45.2806 38.2437 45.2681 37.4882 45.2423C36.732 45.2172 35.9884 45.1595 35.2573 45.0697C34.5257 44.98 33.806 44.8331 33.0988 44.6279C32.3917 44.4233 31.721 44.1547 31.0874 43.8214C30.0867 43.2585 29.1489 42.9761 28.2708 42.9761C27.6855 42.9761 27.1972 43.1367 26.8074 43.4562C26.4171 43.7769 26.2222 44.3078 26.2222 45.0503C26.2222 45.307 26.2342 45.499 26.2587 45.6264C26.6735 45.1407 27.2217 44.8965 27.9049 44.8965C28.4172 44.8965 28.8799 45.0635 29.2947 45.3961C29.7096 45.7293 29.917 46.19 29.917 46.7787C29.917 47.2657 29.7944 47.7264 29.5511 48.1613ZM68.3234 65.3688C68.9821 65.3688 69.5422 65.6117 70.0061 66.0987C70.4688 66.5845 70.7013 67.1738 70.7013 67.8654C70.7013 68.557 70.4688 69.1457 70.0061 69.6321C69.5422 70.1185 68.9821 70.362 68.3234 70.362C67.6653 70.362 67.098 70.1185 66.6228 69.6321C66.147 69.1457 65.9091 68.557 65.9091 67.8654C65.9091 67.1738 66.147 66.5845 66.6228 66.0987C67.098 65.6117 67.6653 65.3688 68.3234 65.3688ZM73.8467 65.3688C74.5048 65.3688 75.0655 65.6117 75.5294 66.0987C75.992 66.5845 76.2246 67.1738 76.2246 67.8654C76.2246 68.557 75.992 69.1457 75.5294 69.6321C75.0655 70.1185 74.5048 70.362 73.8467 70.362C73.1886 70.362 72.6273 70.1185 72.164 69.6321C71.7007 69.1457 71.4694 68.557 71.4694 67.8654C71.4694 67.1738 71.7007 66.5845 72.164 66.0987C72.6273 65.6117 73.1886 65.3688 73.8467 65.3688Z"/>
</mask>
<path d="M81.4549 63.7942H80.4674H63.276H62.2514H47.5837V51.5798H55.6307V48.123C55.6307 47.5086 55.4663 47.0862 55.1369 46.8559C54.8081 46.6249 54.4603 46.5101 54.0944 46.5101V44.7817H58.7037V50.1972C58.7521 50.6842 58.9655 51.0363 59.3433 51.2535C59.7211 51.4713 60.0445 51.5798 60.3129 51.5798H62.2514H63.276H75.4558V48.123C75.4558 47.5086 75.2974 47.0862 74.9806 46.8559C74.6632 46.6249 74.3093 46.5101 73.9196 46.5101V44.7817H78.5289V51.5798H80.4674H81.4549H88.2215C87.4654 51.2987 86.9053 50.7608 86.5394 49.9669C86.1736 49.1736 85.9907 48.3408 85.9907 47.4703C85.9907 46.4718 86.1975 45.6333 86.6124 44.9543C87.0266 44.2765 87.5634 43.7254 88.2215 43.303C88.8802 42.88 89.6239 42.5731 90.4529 42.3811C91.282 42.1891 92.1111 42.093 92.9402 42.093H98.3541V49.9286C98.3541 50.2355 98.4145 50.4922 98.537 50.6968C98.6583 50.902 98.8048 51.0746 98.9758 51.2152C99.1461 51.3564 99.329 51.4524 99.5245 51.5033C99.7194 51.5547 99.8778 51.5798 99.9997 51.5798V63.7942H81.4549ZM95.281 43.8214H94.1477C93.9032 43.8214 93.5254 43.8403 93.0137 43.8792C92.5015 43.9175 91.9892 44.0518 91.4775 44.2821C90.9652 44.5124 90.5139 44.8777 90.1236 45.3766C89.7333 45.8762 89.5384 46.5866 89.5384 47.5086C89.5384 48.3797 89.7153 49.0776 90.0692 49.6016C90.4225 50.1269 90.8552 50.5368 91.3675 50.8311C91.8798 51.1254 92.4154 51.3244 92.9767 51.4261C93.5374 51.529 94.0377 51.5798 94.4764 51.5798H95.281V43.8214ZM96.3785 40.0188C95.7204 40.0188 95.1591 39.7759 94.6958 39.2889C94.2326 38.8032 94.0012 38.2138 94.0012 37.5222C94.0012 36.8306 94.2326 36.2419 94.6958 35.7555C95.1591 35.2691 95.7204 35.0256 96.3785 35.0256C97.0372 35.0256 97.5979 35.2691 98.0612 35.7555C98.5245 36.2419 98.7564 36.8306 98.7564 37.5222C98.7564 38.2138 98.5245 38.8032 98.0612 39.2889C97.5979 39.7759 97.0372 40.0188 96.3785 40.0188ZM90.5994 40.0188C89.9407 40.0188 89.38 39.7759 88.9167 39.2889C88.4535 38.8032 88.2215 38.2138 88.2215 37.5222C88.2215 36.8306 88.4535 36.2419 88.9167 35.7555C89.38 35.2691 89.9407 35.0256 90.5994 35.0256C91.2575 35.0256 91.8182 35.2691 92.2821 35.7555C92.7447 36.2419 92.9767 36.8306 92.9767 37.5222C92.9767 38.2138 92.7447 38.8032 92.2821 39.2889C91.8182 39.7759 91.2575 40.0188 90.5994 40.0188ZM20.5161 63.7942H11.3716V51.5798H11.4816C11.6029 51.5798 11.7559 51.5547 11.9389 51.5033C12.1218 51.4524 12.2981 51.369 12.4691 51.2535C12.6394 51.138 12.7859 50.9911 12.9078 50.8116C13.0298 50.6328 13.0907 50.415 13.0907 50.1589V39.673C13.0907 39.0335 12.9317 38.6042 12.6155 38.3864C12.2981 38.1693 11.9442 38.0601 11.5545 38.0601V36.3317H16.1632V50.1972C16.2122 50.6842 16.4316 51.0363 16.8219 51.2535C17.2117 51.4713 17.541 51.5798 17.8094 51.5798H20.5161H21.5406H27.832C27.8804 51.0941 27.9778 50.614 28.1243 50.1395C28.2708 49.6663 28.5021 49.2502 28.8195 48.8912C28.5021 49.0199 28.1853 49.0832 27.8685 49.0832C27.4046 49.0832 27.0208 48.9816 26.716 48.7763C26.4111 48.5717 26.1613 48.3025 25.9664 47.9693C25.7709 47.6372 25.6311 47.2588 25.5456 46.8364C25.4601 46.4141 25.4177 45.9854 25.4177 45.5499C25.4177 44.1415 25.82 42.9635 26.6245 42.0158C27.4297 41.0688 28.5631 40.595 30.0264 40.595C30.9284 40.595 31.9649 40.8002 33.1353 41.2094C33.9889 41.4918 34.757 41.6707 35.4402 41.7472C36.1223 41.8238 36.8175 41.8627 37.5246 41.8627H44.1089V50.0435C44.1328 50.6071 44.3468 51.0037 44.7491 51.234C45.1514 51.465 45.4861 51.5798 45.7551 51.5798V63.7942H21.5406H20.5161ZM35.6961 51.5798V48.3923C35.4032 48.3923 35.0194 48.4243 34.5436 48.4883C34.0684 48.5523 33.6045 48.6866 33.1538 48.8912C32.7025 49.0964 32.3002 49.4096 31.947 49.8326C31.5931 50.255 31.3916 50.8374 31.3432 51.5798H35.6961ZM29.5511 48.1613C30.3067 47.5726 31.1663 47.176 32.1299 46.9707C33.0929 46.7661 33.9644 46.6638 34.7451 46.6638H38.7685V51.5798H41.0364V45.2806H39.6467C38.9634 45.2806 38.2437 45.2681 37.4882 45.2423C36.732 45.2172 35.9884 45.1595 35.2573 45.0697C34.5257 44.98 33.806 44.8331 33.0988 44.6279C32.3917 44.4233 31.721 44.1547 31.0874 43.8214C30.0867 43.2585 29.1489 42.9761 28.2708 42.9761C27.6855 42.9761 27.1972 43.1367 26.8074 43.4562C26.4171 43.7769 26.2222 44.3078 26.2222 45.0503C26.2222 45.307 26.2342 45.499 26.2587 45.6264C26.6735 45.1407 27.2217 44.8965 27.9049 44.8965C28.4172 44.8965 28.8799 45.0635 29.2947 45.3961C29.7096 45.7293 29.917 46.19 29.917 46.7787C29.917 47.2657 29.7944 47.7264 29.5511 48.1613ZM68.3234 65.3688C68.9821 65.3688 69.5422 65.6117 70.0061 66.0987C70.4688 66.5845 70.7013 67.1738 70.7013 67.8654C70.7013 68.557 70.4688 69.1457 70.0061 69.6321C69.5422 70.1185 68.9821 70.362 68.3234 70.362C67.6653 70.362 67.098 70.1185 66.6228 69.6321C66.147 69.1457 65.9091 68.557 65.9091 67.8654C65.9091 67.1738 66.147 66.5845 66.6228 66.0987C67.098 65.6117 67.6653 65.3688 68.3234 65.3688ZM73.8467 65.3688C74.5048 65.3688 75.0655 65.6117 75.5294 66.0987C75.992 66.5845 76.2246 67.1738 76.2246 67.8654C76.2246 68.557 75.992 69.1457 75.5294 69.6321C75.0655 70.1185 74.5048 70.362 73.8467 70.362C73.1886 70.362 72.6273 70.1185 72.164 69.6321C71.7007 69.1457 71.4694 68.557 71.4694 67.8654C71.4694 67.1738 71.7007 66.5845 72.164 66.0987C72.6273 65.6117 73.1886 65.3688 73.8467 65.3688Z" fill="url(#paint1_linear_474_4060)"/>
<path d="M81.4549 63.7942H80.4674H63.276H62.2514H47.5837V51.5798H55.6307V48.123C55.6307 47.5086 55.4663 47.0862 55.1369 46.8559C54.8081 46.6249 54.4603 46.5101 54.0944 46.5101V44.7817H58.7037V50.1972C58.7521 50.6842 58.9655 51.0363 59.3433 51.2535C59.7211 51.4713 60.0445 51.5798 60.3129 51.5798H62.2514H63.276H75.4558V48.123C75.4558 47.5086 75.2974 47.0862 74.9806 46.8559C74.6632 46.6249 74.3093 46.5101 73.9196 46.5101V44.7817H78.5289V51.5798H80.4674H81.4549H88.2215C87.4654 51.2987 86.9053 50.7608 86.5394 49.9669C86.1736 49.1736 85.9907 48.3408 85.9907 47.4703C85.9907 46.4718 86.1975 45.6333 86.6124 44.9543C87.0266 44.2765 87.5634 43.7254 88.2215 43.303C88.8802 42.88 89.6239 42.5731 90.4529 42.3811C91.282 42.1891 92.1111 42.093 92.9402 42.093H98.3541V49.9286C98.3541 50.2355 98.4145 50.4922 98.537 50.6968C98.6583 50.902 98.8048 51.0746 98.9758 51.2152C99.1461 51.3564 99.329 51.4524 99.5245 51.5033C99.7194 51.5547 99.8778 51.5798 99.9997 51.5798V63.7942H81.4549ZM95.281 43.8214H94.1477C93.9032 43.8214 93.5254 43.8403 93.0137 43.8792C92.5015 43.9175 91.9892 44.0518 91.4775 44.2821C90.9652 44.5124 90.5139 44.8777 90.1236 45.3766C89.7333 45.8762 89.5384 46.5866 89.5384 47.5086C89.5384 48.3797 89.7153 49.0776 90.0692 49.6016C90.4225 50.1269 90.8552 50.5368 91.3675 50.8311C91.8798 51.1254 92.4154 51.3244 92.9767 51.4261C93.5374 51.529 94.0377 51.5798 94.4764 51.5798H95.281V43.8214ZM96.3785 40.0188C95.7204 40.0188 95.1591 39.7759 94.6958 39.2889C94.2326 38.8032 94.0012 38.2138 94.0012 37.5222C94.0012 36.8306 94.2326 36.2419 94.6958 35.7555C95.1591 35.2691 95.7204 35.0256 96.3785 35.0256C97.0372 35.0256 97.5979 35.2691 98.0612 35.7555C98.5245 36.2419 98.7564 36.8306 98.7564 37.5222C98.7564 38.2138 98.5245 38.8032 98.0612 39.2889C97.5979 39.7759 97.0372 40.0188 96.3785 40.0188ZM90.5994 40.0188C89.9407 40.0188 89.38 39.7759 88.9167 39.2889C88.4535 38.8032 88.2215 38.2138 88.2215 37.5222C88.2215 36.8306 88.4535 36.2419 88.9167 35.7555C89.38 35.2691 89.9407 35.0256 90.5994 35.0256C91.2575 35.0256 91.8182 35.2691 92.2821 35.7555C92.7447 36.2419 92.9767 36.8306 92.9767 37.5222C92.9767 38.2138 92.7447 38.8032 92.2821 39.2889C91.8182 39.7759 91.2575 40.0188 90.5994 40.0188ZM20.5161 63.7942H11.3716V51.5798H11.4816C11.6029 51.5798 11.7559 51.5547 11.9389 51.5033C12.1218 51.4524 12.2981 51.369 12.4691 51.2535C12.6394 51.138 12.7859 50.9911 12.9078 50.8116C13.0298 50.6328 13.0907 50.415 13.0907 50.1589V39.673C13.0907 39.0335 12.9317 38.6042 12.6155 38.3864C12.2981 38.1693 11.9442 38.0601 11.5545 38.0601V36.3317H16.1632V50.1972C16.2122 50.6842 16.4316 51.0363 16.8219 51.2535C17.2117 51.4713 17.541 51.5798 17.8094 51.5798H20.5161H21.5406H27.832C27.8804 51.0941 27.9778 50.614 28.1243 50.1395C28.2708 49.6663 28.5021 49.2502 28.8195 48.8912C28.5021 49.0199 28.1853 49.0832 27.8685 49.0832C27.4046 49.0832 27.0208 48.9816 26.716 48.7763C26.4111 48.5717 26.1613 48.3025 25.9664 47.9693C25.7709 47.6372 25.6311 47.2588 25.5456 46.8364C25.4601 46.4141 25.4177 45.9854 25.4177 45.5499C25.4177 44.1415 25.82 42.9635 26.6245 42.0158C27.4297 41.0688 28.5631 40.595 30.0264 40.595C30.9284 40.595 31.9649 40.8002 33.1353 41.2094C33.9889 41.4918 34.757 41.6707 35.4402 41.7472C36.1223 41.8238 36.8175 41.8627 37.5246 41.8627H44.1089V50.0435C44.1328 50.6071 44.3468 51.0037 44.7491 51.234C45.1514 51.465 45.4861 51.5798 45.7551 51.5798V63.7942H21.5406H20.5161ZM35.6961 51.5798V48.3923C35.4032 48.3923 35.0194 48.4243 34.5436 48.4883C34.0684 48.5523 33.6045 48.6866 33.1538 48.8912C32.7025 49.0964 32.3002 49.4096 31.947 49.8326C31.5931 50.255 31.3916 50.8374 31.3432 51.5798H35.6961ZM29.5511 48.1613C30.3067 47.5726 31.1663 47.176 32.1299 46.9707C33.0929 46.7661 33.9644 46.6638 34.7451 46.6638H38.7685V51.5798H41.0364V45.2806H39.6467C38.9634 45.2806 38.2437 45.2681 37.4882 45.2423C36.732 45.2172 35.9884 45.1595 35.2573 45.0697C34.5257 44.98 33.806 44.8331 33.0988 44.6279C32.3917 44.4233 31.721 44.1547 31.0874 43.8214C30.0867 43.2585 29.1489 42.9761 28.2708 42.9761C27.6855 42.9761 27.1972 43.1367 26.8074 43.4562C26.4171 43.7769 26.2222 44.3078 26.2222 45.0503C26.2222 45.307 26.2342 45.499 26.2587 45.6264C26.6735 45.1407 27.2217 44.8965 27.9049 44.8965C28.4172 44.8965 28.8799 45.0635 29.2947 45.3961C29.7096 45.7293 29.917 46.19 29.917 46.7787C29.917 47.2657 29.7944 47.7264 29.5511 48.1613ZM68.3234 65.3688C68.9821 65.3688 69.5422 65.6117 70.0061 66.0987C70.4688 66.5845 70.7013 67.1738 70.7013 67.8654C70.7013 68.557 70.4688 69.1457 70.0061 69.6321C69.5422 70.1185 68.9821 70.362 68.3234 70.362C67.6653 70.362 67.098 70.1185 66.6228 69.6321C66.147 69.1457 65.9091 68.557 65.9091 67.8654C65.9091 67.1738 66.147 66.5845 66.6228 66.0987C67.098 65.6117 67.6653 65.3688 68.3234 65.3688ZM73.8467 65.3688C74.5048 65.3688 75.0655 65.6117 75.5294 66.0987C75.992 66.5845 76.2246 67.1738 76.2246 67.8654C76.2246 68.557 75.992 69.1457 75.5294 69.6321C75.0655 70.1185 74.5048 70.362 73.8467 70.362C73.1886 70.362 72.6273 70.1185 72.164 69.6321C71.7007 69.1457 71.4694 68.557 71.4694 67.8654C71.4694 67.1738 71.7007 66.5845 72.164 66.0987C72.6273 65.6117 73.1886 65.3688 73.8467 65.3688Z" stroke="#14323D" stroke-width="8" mask="url(#path-23-outside-2_474_4060)"/>
<path d="M81.4549 63.7942H80.4674H63.276H62.2514H47.5837V51.5798H55.6307V48.123C55.6307 47.5086 55.4663 47.0862 55.1369 46.8559C54.8081 46.6249 54.4603 46.5101 54.0944 46.5101V44.7817H58.7037V50.1972C58.7521 50.6842 58.9655 51.0363 59.3433 51.2535C59.7211 51.4713 60.0445 51.5798 60.3129 51.5798H62.2514H63.276H75.4558V48.123C75.4558 47.5086 75.2974 47.0862 74.9806 46.8559C74.6632 46.6249 74.3093 46.5101 73.9196 46.5101V44.7817H78.5289V51.5798H80.4674H81.4549H88.2215C87.4654 51.2987 86.9053 50.7608 86.5394 49.9669C86.1736 49.1736 85.9907 48.3408 85.9907 47.4703C85.9907 46.4718 86.1975 45.6333 86.6124 44.9543C87.0266 44.2765 87.5634 43.7254 88.2215 43.303C88.8802 42.88 89.6239 42.5731 90.4529 42.3811C91.282 42.1891 92.1111 42.093 92.9402 42.093H98.3541V49.9286C98.3541 50.2355 98.4145 50.4922 98.537 50.6968C98.6583 50.902 98.8048 51.0746 98.9758 51.2152C99.1461 51.3564 99.329 51.4524 99.5245 51.5033C99.7194 51.5547 99.8778 51.5798 99.9997 51.5798V63.7942H81.4549ZM95.281 43.8214H94.1477C93.9032 43.8214 93.5254 43.8403 93.0137 43.8792C92.5015 43.9175 91.9892 44.0518 91.4775 44.2821C90.9652 44.5124 90.5139 44.8777 90.1236 45.3766C89.7333 45.8762 89.5384 46.5866 89.5384 47.5086C89.5384 48.3797 89.7153 49.0776 90.0692 49.6016C90.4225 50.1269 90.8552 50.5368 91.3675 50.8311C91.8798 51.1254 92.4154 51.3244 92.9767 51.4261C93.5374 51.529 94.0377 51.5798 94.4764 51.5798H95.281V43.8214ZM96.3785 40.0188C95.7204 40.0188 95.1591 39.7759 94.6958 39.2889C94.2326 38.8032 94.0012 38.2138 94.0012 37.5222C94.0012 36.8306 94.2326 36.2419 94.6958 35.7555C95.1591 35.2691 95.7204 35.0256 96.3785 35.0256C97.0372 35.0256 97.5979 35.2691 98.0612 35.7555C98.5245 36.2419 98.7564 36.8306 98.7564 37.5222C98.7564 38.2138 98.5245 38.8032 98.0612 39.2889C97.5979 39.7759 97.0372 40.0188 96.3785 40.0188ZM90.5994 40.0188C89.9407 40.0188 89.38 39.7759 88.9167 39.2889C88.4535 38.8032 88.2215 38.2138 88.2215 37.5222C88.2215 36.8306 88.4535 36.2419 88.9167 35.7555C89.38 35.2691 89.9407 35.0256 90.5994 35.0256C91.2575 35.0256 91.8182 35.2691 92.2821 35.7555C92.7447 36.2419 92.9767 36.8306 92.9767 37.5222C92.9767 38.2138 92.7447 38.8032 92.2821 39.2889C91.8182 39.7759 91.2575 40.0188 90.5994 40.0188ZM20.5161 63.7942H11.3716V51.5798H11.4816C11.6029 51.5798 11.7559 51.5547 11.9389 51.5033C12.1218 51.4524 12.2981 51.369 12.4691 51.2535C12.6394 51.138 12.7859 50.9911 12.9078 50.8116C13.0298 50.6328 13.0907 50.415 13.0907 50.1589V39.673C13.0907 39.0335 12.9317 38.6042 12.6155 38.3864C12.2981 38.1693 11.9442 38.0601 11.5545 38.0601V36.3317H16.1632V50.1972C16.2122 50.6842 16.4316 51.0363 16.8219 51.2535C17.2117 51.4713 17.541 51.5798 17.8094 51.5798H20.5161H21.5406H27.832C27.8804 51.0941 27.9778 50.614 28.1243 50.1395C28.2708 49.6663 28.5021 49.2502 28.8195 48.8912C28.5021 49.0199 28.1853 49.0832 27.8685 49.0832C27.4046 49.0832 27.0208 48.9816 26.716 48.7763C26.4111 48.5717 26.1613 48.3025 25.9664 47.9693C25.7709 47.6372 25.6311 47.2588 25.5456 46.8364C25.4601 46.4141 25.4177 45.9854 25.4177 45.5499C25.4177 44.1415 25.82 42.9635 26.6245 42.0158C27.4297 41.0688 28.5631 40.595 30.0264 40.595C30.9284 40.595 31.9649 40.8002 33.1353 41.2094C33.9889 41.4918 34.757 41.6707 35.4402 41.7472C36.1223 41.8238 36.8175 41.8627 37.5246 41.8627H44.1089V50.0435C44.1328 50.6071 44.3468 51.0037 44.7491 51.234C45.1514 51.465 45.4861 51.5798 45.7551 51.5798V63.7942H21.5406H20.5161ZM35.6961 51.5798V48.3923C35.4032 48.3923 35.0194 48.4243 34.5436 48.4883C34.0684 48.5523 33.6045 48.6866 33.1538 48.8912C32.7025 49.0964 32.3002 49.4096 31.947 49.8326C31.5931 50.255 31.3916 50.8374 31.3432 51.5798H35.6961ZM29.5511 48.1613C30.3067 47.5726 31.1663 47.176 32.1299 46.9707C33.0929 46.7661 33.9644 46.6638 34.7451 46.6638H38.7685V51.5798H41.0364V45.2806H39.6467C38.9634 45.2806 38.2437 45.2681 37.4882 45.2423C36.732 45.2172 35.9884 45.1595 35.2573 45.0697C34.5257 44.98 33.806 44.8331 33.0988 44.6279C32.3917 44.4233 31.721 44.1547 31.0874 43.8214C30.0867 43.2585 29.1489 42.9761 28.2708 42.9761C27.6855 42.9761 27.1972 43.1367 26.8074 43.4562C26.4171 43.7769 26.2222 44.3078 26.2222 45.0503C26.2222 45.307 26.2342 45.499 26.2587 45.6264C26.6735 45.1407 27.2217 44.8965 27.9049 44.8965C28.4172 44.8965 28.8799 45.0635 29.2947 45.3961C29.7096 45.7293 29.917 46.19 29.917 46.7787C29.917 47.2657 29.7944 47.7264 29.5511 48.1613ZM68.3234 65.3688C68.9821 65.3688 69.5422 65.6117 70.0061 66.0987C70.4688 66.5845 70.7013 67.1738 70.7013 67.8654C70.7013 68.557 70.4688 69.1457 70.0061 69.6321C69.5422 70.1185 68.9821 70.362 68.3234 70.362C67.6653 70.362 67.098 70.1185 66.6228 69.6321C66.147 69.1457 65.9091 68.557 65.9091 67.8654C65.9091 67.1738 66.147 66.5845 66.6228 66.0987C67.098 65.6117 67.6653 65.3688 68.3234 65.3688ZM73.8467 65.3688C74.5048 65.3688 75.0655 65.6117 75.5294 66.0987C75.992 66.5845 76.2246 67.1738 76.2246 67.8654C76.2246 68.557 75.992 69.1457 75.5294 69.6321C75.0655 70.1185 74.5048 70.362 73.8467 70.362C73.1886 70.362 72.6273 70.1185 72.164 69.6321C71.7007 69.1457 71.4694 68.557 71.4694 67.8654C71.4694 67.1738 71.7007 66.5845 72.164 66.0987C72.6273 65.6117 73.1886 65.3688 73.8467 65.3688Z" stroke="#14323D" stroke-width="8" mask="url(#path-23-outside-2_474_4060)"/>
<path d="M81.4549 63.7942H80.4674H63.276H62.2514H47.5837V51.5798H55.6307V48.123C55.6307 47.5086 55.4663 47.0862 55.1369 46.8559C54.8081 46.6249 54.4603 46.5101 54.0944 46.5101V44.7817H58.7037V50.1972C58.7521 50.6842 58.9655 51.0363 59.3433 51.2535C59.7211 51.4713 60.0445 51.5798 60.3129 51.5798H62.2514H63.276H75.4558V48.123C75.4558 47.5086 75.2974 47.0862 74.9806 46.8559C74.6632 46.6249 74.3093 46.5101 73.9196 46.5101V44.7817H78.5289V51.5798H80.4674H81.4549H88.2215C87.4654 51.2987 86.9053 50.7608 86.5394 49.9669C86.1736 49.1736 85.9907 48.3408 85.9907 47.4703C85.9907 46.4718 86.1975 45.6333 86.6124 44.9543C87.0266 44.2765 87.5634 43.7254 88.2215 43.303C88.8802 42.88 89.6239 42.5731 90.4529 42.3811C91.282 42.1891 92.1111 42.093 92.9402 42.093H98.3541V49.9286C98.3541 50.2355 98.4145 50.4922 98.537 50.6968C98.6583 50.902 98.8048 51.0746 98.9758 51.2152C99.1461 51.3564 99.329 51.4524 99.5245 51.5033C99.7194 51.5547 99.8778 51.5798 99.9997 51.5798V63.7942H81.4549ZM95.281 43.8214H94.1477C93.9032 43.8214 93.5254 43.8403 93.0137 43.8792C92.5015 43.9175 91.9892 44.0518 91.4775 44.2821C90.9652 44.5124 90.5139 44.8777 90.1236 45.3766C89.7333 45.8762 89.5384 46.5866 89.5384 47.5086C89.5384 48.3797 89.7153 49.0776 90.0692 49.6016C90.4225 50.1269 90.8552 50.5368 91.3675 50.8311C91.8798 51.1254 92.4154 51.3244 92.9767 51.4261C93.5374 51.529 94.0377 51.5798 94.4764 51.5798H95.281V43.8214ZM96.3785 40.0188C95.7204 40.0188 95.1591 39.7759 94.6958 39.2889C94.2326 38.8032 94.0012 38.2138 94.0012 37.5222C94.0012 36.8306 94.2326 36.2419 94.6958 35.7555C95.1591 35.2691 95.7204 35.0256 96.3785 35.0256C97.0372 35.0256 97.5979 35.2691 98.0612 35.7555C98.5245 36.2419 98.7564 36.8306 98.7564 37.5222C98.7564 38.2138 98.5245 38.8032 98.0612 39.2889C97.5979 39.7759 97.0372 40.0188 96.3785 40.0188ZM90.5994 40.0188C89.9407 40.0188 89.38 39.7759 88.9167 39.2889C88.4535 38.8032 88.2215 38.2138 88.2215 37.5222C88.2215 36.8306 88.4535 36.2419 88.9167 35.7555C89.38 35.2691 89.9407 35.0256 90.5994 35.0256C91.2575 35.0256 91.8182 35.2691 92.2821 35.7555C92.7447 36.2419 92.9767 36.8306 92.9767 37.5222C92.9767 38.2138 92.7447 38.8032 92.2821 39.2889C91.8182 39.7759 91.2575 40.0188 90.5994 40.0188ZM20.5161 63.7942H11.3716V51.5798H11.4816C11.6029 51.5798 11.7559 51.5547 11.9389 51.5033C12.1218 51.4524 12.2981 51.369 12.4691 51.2535C12.6394 51.138 12.7859 50.9911 12.9078 50.8116C13.0298 50.6328 13.0907 50.415 13.0907 50.1589V39.673C13.0907 39.0335 12.9317 38.6042 12.6155 38.3864C12.2981 38.1693 11.9442 38.0601 11.5545 38.0601V36.3317H16.1632V50.1972C16.2122 50.6842 16.4316 51.0363 16.8219 51.2535C17.2117 51.4713 17.541 51.5798 17.8094 51.5798H20.5161H21.5406H27.832C27.8804 51.0941 27.9778 50.614 28.1243 50.1395C28.2708 49.6663 28.5021 49.2502 28.8195 48.8912C28.5021 49.0199 28.1853 49.0832 27.8685 49.0832C27.4046 49.0832 27.0208 48.9816 26.716 48.7763C26.4111 48.5717 26.1613 48.3025 25.9664 47.9693C25.7709 47.6372 25.6311 47.2588 25.5456 46.8364C25.4601 46.4141 25.4177 45.9854 25.4177 45.5499C25.4177 44.1415 25.82 42.9635 26.6245 42.0158C27.4297 41.0688 28.5631 40.595 30.0264 40.595C30.9284 40.595 31.9649 40.8002 33.1353 41.2094C33.9889 41.4918 34.757 41.6707 35.4402 41.7472C36.1223 41.8238 36.8175 41.8627 37.5246 41.8627H44.1089V50.0435C44.1328 50.6071 44.3468 51.0037 44.7491 51.234C45.1514 51.465 45.4861 51.5798 45.7551 51.5798V63.7942H21.5406H20.5161ZM35.6961 51.5798V48.3923C35.4032 48.3923 35.0194 48.4243 34.5436 48.4883C34.0684 48.5523 33.6045 48.6866 33.1538 48.8912C32.7025 49.0964 32.3002 49.4096 31.947 49.8326C31.5931 50.255 31.3916 50.8374 31.3432 51.5798H35.6961ZM29.5511 48.1613C30.3067 47.5726 31.1663 47.176 32.1299 46.9707C33.0929 46.7661 33.9644 46.6638 34.7451 46.6638H38.7685V51.5798H41.0364V45.2806H39.6467C38.9634 45.2806 38.2437 45.2681 37.4882 45.2423C36.732 45.2172 35.9884 45.1595 35.2573 45.0697C34.5257 44.98 33.806 44.8331 33.0988 44.6279C32.3917 44.4233 31.721 44.1547 31.0874 43.8214C30.0867 43.2585 29.1489 42.9761 28.2708 42.9761C27.6855 42.9761 27.1972 43.1367 26.8074 43.4562C26.4171 43.7769 26.2222 44.3078 26.2222 45.0503C26.2222 45.307 26.2342 45.499 26.2587 45.6264C26.6735 45.1407 27.2217 44.8965 27.9049 44.8965C28.4172 44.8965 28.8799 45.0635 29.2947 45.3961C29.7096 45.7293 29.917 46.19 29.917 46.7787C29.917 47.2657 29.7944 47.7264 29.5511 48.1613ZM68.3234 65.3688C68.9821 65.3688 69.5422 65.6117 70.0061 66.0987C70.4688 66.5845 70.7013 67.1738 70.7013 67.8654C70.7013 68.557 70.4688 69.1457 70.0061 69.6321C69.5422 70.1185 68.9821 70.362 68.3234 70.362C67.6653 70.362 67.098 70.1185 66.6228 69.6321C66.147 69.1457 65.9091 68.557 65.9091 67.8654C65.9091 67.1738 66.147 66.5845 66.6228 66.0987C67.098 65.6117 67.6653 65.3688 68.3234 65.3688ZM73.8467 65.3688C74.5048 65.3688 75.0655 65.6117 75.5294 66.0987C75.992 66.5845 76.2246 67.1738 76.2246 67.8654C76.2246 68.557 75.992 69.1457 75.5294 69.6321C75.0655 70.1185 74.5048 70.362 73.8467 70.362C73.1886 70.362 72.6273 70.1185 72.164 69.6321C71.7007 69.1457 71.4694 68.557 71.4694 67.8654C71.4694 67.1738 71.7007 66.5845 72.164 66.0987C72.6273 65.6117 73.1886 65.3688 73.8467 65.3688Z" stroke="#14323D" stroke-width="8" mask="url(#path-23-outside-2_474_4060)"/>
<path d="M81.4549 63.7942H80.4674H63.276H62.2514H47.5837V51.5798H55.6307V48.123C55.6307 47.5086 55.4663 47.0862 55.1369 46.8559C54.8081 46.6249 54.4603 46.5101 54.0944 46.5101V44.7817H58.7037V50.1972C58.7521 50.6842 58.9655 51.0363 59.3433 51.2535C59.7211 51.4713 60.0445 51.5798 60.3129 51.5798H62.2514H63.276H75.4558V48.123C75.4558 47.5086 75.2974 47.0862 74.9806 46.8559C74.6632 46.6249 74.3093 46.5101 73.9196 46.5101V44.7817H78.5289V51.5798H80.4674H81.4549H88.2215C87.4654 51.2987 86.9053 50.7608 86.5394 49.9669C86.1736 49.1736 85.9907 48.3408 85.9907 47.4703C85.9907 46.4718 86.1975 45.6333 86.6124 44.9543C87.0266 44.2765 87.5634 43.7254 88.2215 43.303C88.8802 42.88 89.6239 42.5731 90.4529 42.3811C91.282 42.1891 92.1111 42.093 92.9402 42.093H98.3541V49.9286C98.3541 50.2355 98.4145 50.4922 98.537 50.6968C98.6583 50.902 98.8048 51.0746 98.9758 51.2152C99.1461 51.3564 99.329 51.4524 99.5245 51.5033C99.7194 51.5547 99.8778 51.5798 99.9997 51.5798V63.7942H81.4549ZM95.281 43.8214H94.1477C93.9032 43.8214 93.5254 43.8403 93.0137 43.8792C92.5015 43.9175 91.9892 44.0518 91.4775 44.2821C90.9652 44.5124 90.5139 44.8777 90.1236 45.3766C89.7333 45.8762 89.5384 46.5866 89.5384 47.5086C89.5384 48.3797 89.7153 49.0776 90.0692 49.6016C90.4225 50.1269 90.8552 50.5368 91.3675 50.8311C91.8798 51.1254 92.4154 51.3244 92.9767 51.4261C93.5374 51.529 94.0377 51.5798 94.4764 51.5798H95.281V43.8214ZM96.3785 40.0188C95.7204 40.0188 95.1591 39.7759 94.6958 39.2889C94.2326 38.8032 94.0012 38.2138 94.0012 37.5222C94.0012 36.8306 94.2326 36.2419 94.6958 35.7555C95.1591 35.2691 95.7204 35.0256 96.3785 35.0256C97.0372 35.0256 97.5979 35.2691 98.0612 35.7555C98.5245 36.2419 98.7564 36.8306 98.7564 37.5222C98.7564 38.2138 98.5245 38.8032 98.0612 39.2889C97.5979 39.7759 97.0372 40.0188 96.3785 40.0188ZM90.5994 40.0188C89.9407 40.0188 89.38 39.7759 88.9167 39.2889C88.4535 38.8032 88.2215 38.2138 88.2215 37.5222C88.2215 36.8306 88.4535 36.2419 88.9167 35.7555C89.38 35.2691 89.9407 35.0256 90.5994 35.0256C91.2575 35.0256 91.8182 35.2691 92.2821 35.7555C92.7447 36.2419 92.9767 36.8306 92.9767 37.5222C92.9767 38.2138 92.7447 38.8032 92.2821 39.2889C91.8182 39.7759 91.2575 40.0188 90.5994 40.0188ZM20.5161 63.7942H11.3716V51.5798H11.4816C11.6029 51.5798 11.7559 51.5547 11.9389 51.5033C12.1218 51.4524 12.2981 51.369 12.4691 51.2535C12.6394 51.138 12.7859 50.9911 12.9078 50.8116C13.0298 50.6328 13.0907 50.415 13.0907 50.1589V39.673C13.0907 39.0335 12.9317 38.6042 12.6155 38.3864C12.2981 38.1693 11.9442 38.0601 11.5545 38.0601V36.3317H16.1632V50.1972C16.2122 50.6842 16.4316 51.0363 16.8219 51.2535C17.2117 51.4713 17.541 51.5798 17.8094 51.5798H20.5161H21.5406H27.832C27.8804 51.0941 27.9778 50.614 28.1243 50.1395C28.2708 49.6663 28.5021 49.2502 28.8195 48.8912C28.5021 49.0199 28.1853 49.0832 27.8685 49.0832C27.4046 49.0832 27.0208 48.9816 26.716 48.7763C26.4111 48.5717 26.1613 48.3025 25.9664 47.9693C25.7709 47.6372 25.6311 47.2588 25.5456 46.8364C25.4601 46.4141 25.4177 45.9854 25.4177 45.5499C25.4177 44.1415 25.82 42.9635 26.6245 42.0158C27.4297 41.0688 28.5631 40.595 30.0264 40.595C30.9284 40.595 31.9649 40.8002 33.1353 41.2094C33.9889 41.4918 34.757 41.6707 35.4402 41.7472C36.1223 41.8238 36.8175 41.8627 37.5246 41.8627H44.1089V50.0435C44.1328 50.6071 44.3468 51.0037 44.7491 51.234C45.1514 51.465 45.4861 51.5798 45.7551 51.5798V63.7942H21.5406H20.5161ZM35.6961 51.5798V48.3923C35.4032 48.3923 35.0194 48.4243 34.5436 48.4883C34.0684 48.5523 33.6045 48.6866 33.1538 48.8912C32.7025 49.0964 32.3002 49.4096 31.947 49.8326C31.5931 50.255 31.3916 50.8374 31.3432 51.5798H35.6961ZM29.5511 48.1613C30.3067 47.5726 31.1663 47.176 32.1299 46.9707C33.0929 46.7661 33.9644 46.6638 34.7451 46.6638H38.7685V51.5798H41.0364V45.2806H39.6467C38.9634 45.2806 38.2437 45.2681 37.4882 45.2423C36.732 45.2172 35.9884 45.1595 35.2573 45.0697C34.5257 44.98 33.806 44.8331 33.0988 44.6279C32.3917 44.4233 31.721 44.1547 31.0874 43.8214C30.0867 43.2585 29.1489 42.9761 28.2708 42.9761C27.6855 42.9761 27.1972 43.1367 26.8074 43.4562C26.4171 43.7769 26.2222 44.3078 26.2222 45.0503C26.2222 45.307 26.2342 45.499 26.2587 45.6264C26.6735 45.1407 27.2217 44.8965 27.9049 44.8965C28.4172 44.8965 28.8799 45.0635 29.2947 45.3961C29.7096 45.7293 29.917 46.19 29.917 46.7787C29.917 47.2657 29.7944 47.7264 29.5511 48.1613ZM68.3234 65.3688C68.9821 65.3688 69.5422 65.6117 70.0061 66.0987C70.4688 66.5845 70.7013 67.1738 70.7013 67.8654C70.7013 68.557 70.4688 69.1457 70.0061 69.6321C69.5422 70.1185 68.9821 70.362 68.3234 70.362C67.6653 70.362 67.098 70.1185 66.6228 69.6321C66.147 69.1457 65.9091 68.557 65.9091 67.8654C65.9091 67.1738 66.147 66.5845 66.6228 66.0987C67.098 65.6117 67.6653 65.3688 68.3234 65.3688ZM73.8467 65.3688C74.5048 65.3688 75.0655 65.6117 75.5294 66.0987C75.992 66.5845 76.2246 67.1738 76.2246 67.8654C76.2246 68.557 75.992 69.1457 75.5294 69.6321C75.0655 70.1185 74.5048 70.362 73.8467 70.362C73.1886 70.362 72.6273 70.1185 72.164 69.6321C71.7007 69.1457 71.4694 68.557 71.4694 67.8654C71.4694 67.1738 71.7007 66.5845 72.164 66.0987C72.6273 65.6117 73.1886 65.3688 73.8467 65.3688Z" fill="url(#paint2_linear_474_4060)"/>
<defs>
<linearGradient id="paint0_linear_474_4060" x1="55.7078" y1="70.362" x2="55.7078" y2="35.0103" gradientUnits="userSpaceOnUse">
<stop stop-color="#FFD26D"/>
<stop offset="1" stop-color="#F0A202"/>
</linearGradient>
<linearGradient id="paint1_linear_474_4060" x1="55.7078" y1="70.362" x2="55.7078" y2="35.0103" gradientUnits="userSpaceOnUse">
<stop stop-color="#FFD26D"/>
<stop offset="1" stop-color="#F0A202"/>
</linearGradient>
<linearGradient id="paint2_linear_474_4060" x1="55.7078" y1="70.362" x2="55.7078" y2="35.0103" gradientUnits="userSpaceOnUse">
<stop stop-color="#FFD26D"/>
<stop offset="1" stop-color="#F0A202"/>
</linearGradient>
</defs>
</svg>