<?xml version="1.0" encoding="UTF-8"?>
<svg xmlns="http://www.w3.org/2000/svg" xmlns:xlink="http://www.w3.org/1999/xlink" width="1794.38pt" height="554.98pt" viewBox="0 0 1794.38 554.98" version="1.1">
<defs>
<clipPath id="clip1">
  <path d="M 416 487 L 478 487 L 478 554.980469 L 416 554.980469 Z M 416 487 "/>
</clipPath>
<clipPath id="clip2">
  <path d="M 1767 362 L 1794.378906 362 L 1794.378906 485 L 1767 485 Z M 1767 362 "/>
</clipPath>
</defs>
<g id="surface1">
<path style=" stroke:none;fill-rule:nonzero;fill:rgb(16.899109%,14.099121%,13.299561%);fill-opacity:1;" d="M 196.242188 162.453125 C 199.582031 114.976563 225.445313 75.550781 260.351563 60.980469 C 257.425781 54.125 255.746094 46.164063 255.746094 37.53125 C 255.746094 34.746094 255.980469 32.058594 256.3125 29.472656 C 215.035156 47.648438 184.925781 98.148438 183.316406 158.183594 C 185.257813 158.761719 187.222656 159.378906 189.175781 160.003906 C 191.539063 160.777344 193.890625 161.585938 196.242188 162.453125 "/>
<path style=" stroke:none;fill-rule:nonzero;fill:rgb(16.899109%,14.099121%,13.299561%);fill-opacity:1;" d="M 397.152344 158.210938 C 395.574219 98.128906 365.519531 47.671875 324.21875 29.453125 C 324.519531 32.085938 324.765625 34.78125 324.765625 37.511719 C 324.765625 46.144531 323.0625 54.144531 320.1875 61.007813 C 355.070313 75.582031 380.902344 114.957031 384.257813 162.433594 C 386.59375 161.566406 388.960938 160.753906 391.367188 159.984375 C 393.277344 159.367188 395.230469 158.789063 397.152344 158.210938 "/>
<path style=" stroke:none;fill-rule:nonzero;fill:rgb(16.899109%,14.099121%,13.299561%);fill-opacity:1;" d="M 290.230469 75.050781 C 304.238281 75.050781 315.554688 58.269531 315.554688 37.503906 C 315.554688 16.78125 304.238281 0.00390625 290.230469 0.00390625 C 276.289063 0.00390625 264.917969 16.78125 264.917969 37.503906 C 264.917969 58.269531 276.289063 75.050781 290.230469 75.050781 "/>
<path style=" stroke:none;fill-rule:nonzero;fill:rgb(0%,51.399231%,77.2995%);fill-opacity:1;" d="M 530.890625 258.605469 C 527.851563 296.015625 498.746094 332.507813 455.164063 350.539063 C 456.699219 352.511719 458.214844 354.519531 459.765625 356.539063 C 460.910156 358.210938 462.0625 359.839844 463.21875 361.523438 C 519.3125 341.285156 557.59375 297.363281 562.101563 252.707031 C 559.75 253.816406 557.261719 254.816406 554.578125 255.683594 C 546.386719 258.371094 538.273438 259.230469 530.890625 258.605469 "/>
<path style=" stroke:none;fill-rule:nonzero;fill:rgb(0%,51.399231%,77.2995%);fill-opacity:1;" d="M 397.03125 171.835938 C 442.910156 160.808594 487.898438 173.238281 512.371094 201.71875 C 517.953125 196.832031 525.046875 192.804688 533.269531 190.113281 C 535.894531 189.25 538.535156 188.625 541.132813 188.101563 C 511.257813 154.679688 454.40625 141.628906 397.15625 158.226563 C 397.222656 159.855469 397.253906 161.53125 397.253906 163.214844 C 397.253906 166.089844 397.15625 168.960938 397.03125 171.835938 "/>
<path style=" stroke:none;fill-rule:nonzero;fill:rgb(16.899109%,14.099121%,13.299561%);fill-opacity:1;" d="M 384.601563 175.425781 C 385.058594 175.28125 385.414063 175.136719 385.8125 174.992188 C 389.605469 173.789063 393.289063 172.738281 397.03125 171.828125 C 397.183594 168.996094 397.277344 166.117188 397.277344 163.195313 C 397.277344 161.519531 397.222656 159.890625 397.183594 158.210938 C 395.273438 158.789063 393.289063 159.351563 391.382813 159.984375 C 388.976563 160.746094 386.636719 161.566406 384.257813 162.429688 C 384.519531 165.980469 384.644531 169.472656 384.644531 173.121094 C 384.644531 173.890625 384.644531 174.65625 384.601563 175.425781 "/>
<path style=" stroke:none;fill-rule:nonzero;fill:rgb(0%,51.399231%,77.2995%);fill-opacity:1;" d="M 579.644531 211.296875 C 575.328125 198.015625 555.84375 192.402344 536.144531 198.832031 C 516.441406 205.210938 503.914063 221.230469 508.289063 234.511719 C 512.59375 247.792969 532.074219 253.410156 551.777344 247.027344 C 571.492188 240.601563 583.988281 224.632813 579.644531 211.296875 "/>
<path style=" stroke:none;fill-rule:nonzero;fill:rgb(95.698547%,76.899719%,5.499268%);fill-opacity:1;" d="M 450.226563 365.703125 C 474.878906 405.882813 476.992188 452.5 457.402344 484.582031 C 463.78125 488.417969 469.84375 493.882813 474.988281 500.835938 C 476.570313 503.097656 477.996094 505.390625 479.25 507.703125 C 501.8125 468.949219 496.699219 410.875 463.21875 361.53125 C 461.308594 362.203125 459.394531 362.863281 457.457031 363.542969 C 455.078125 364.308594 452.671875 365.023438 450.226563 365.703125 "/>
<path style=" stroke:none;fill-rule:nonzero;fill:rgb(95.698547%,76.899719%,5.499268%);fill-opacity:1;" d="M 289.816406 486.65625 C 326.460938 534.132813 380.3125 557.148438 424.351563 547.605469 C 422.5625 545.695313 420.734375 543.625 419.097656 541.421875 C 414.078125 534.421875 410.710938 526.984375 409.035156 519.746094 C 372.351563 528.429688 328.464844 511.875 297.820313 475.675781 C 296.582031 477.542969 295.234375 479.414063 293.871094 481.28125 C 292.59375 483.105469 291.207031 484.886719 289.816406 486.65625 "/>
<g clip-path="url(#clip1)" clip-rule="nonzero">
<path style=" stroke:none;fill-rule:nonzero;fill:rgb(95.698547%,76.899719%,5.499268%);fill-opacity:1;" d="M 424.996094 490.777344 C 413.667969 498.976563 414.367188 519.257813 426.523438 536.042969 C 438.703125 552.785156 457.789063 559.734375 469.101563 551.539063 C 480.433594 543.285156 479.746094 523 467.550781 506.265625 C 455.339844 489.476563 436.3125 482.527344 424.996094 490.777344 "/>
</g>
<path style=" stroke:none;fill-rule:nonzero;fill:rgb(0%,61.999512%,23.498535%);fill-opacity:1;" d="M 116.703125 361.316406 C 83.761719 410.476563 78.839844 468.117188 101.253906 506.628906 C 102.503906 504.320313 103.902344 502.023438 105.582031 499.761719 C 110.601563 492.816406 116.664063 487.347656 123.027344 483.511719 C 103.710938 451.667969 105.636719 405.527344 129.710938 365.546875 C 127.511719 364.914063 125.296875 364.246094 123.027344 363.476563 C 120.925781 362.808594 118.808594 362.09375 116.703125 361.316406 "/>
<path style=" stroke:none;fill-rule:nonzero;fill:rgb(0%,61.999512%,23.498535%);fill-opacity:1;" d="M 281.898438 475.535156 C 251.265625 511.0625 207.859375 527.273438 171.46875 518.640625 C 169.777344 525.933594 166.460938 533.363281 161.335938 540.320313 C 159.753906 542.566406 157.980469 544.628906 156.203125 546.546875 C 199.898438 556 253.257813 533.363281 289.816406 486.65625 C 288.757813 485.214844 287.660156 483.773438 286.640625 482.339844 C 284.964844 480.085938 283.382813 477.832031 281.898438 475.535156 "/>
<path style=" stroke:none;fill-rule:nonzero;fill:rgb(0%,61.999512%,23.498535%);fill-opacity:1;" d="M 155.546875 489.699219 C 144.203125 481.503906 125.132813 488.40625 112.949219 505.191406 C 100.753906 521.925781 100.097656 542.203125 111.425781 550.46875 C 122.6875 558.660156 141.769531 551.707031 153.949219 534.972656 C 166.1875 518.183594 166.859375 497.90625 155.546875 489.699219 "/>
<path style=" stroke:none;fill-rule:nonzero;fill:rgb(87.5%,2.69928%,14.498901%);fill-opacity:1;" d="M 183.359375 158.191406 C 126.09375 141.597656 69.273438 154.691406 39.394531 188.113281 C 41.980469 188.636719 44.566406 189.269531 47.203125 190.128906 C 55.398438 192.761719 62.453125 196.839844 68.171875 201.683594 C 92.574219 173.195313 137.617188 160.824219 183.507813 171.855469 C 183.359375 168.976563 183.265625 166.101563 183.265625 163.175781 C 183.265625 161.496094 183.265625 159.867188 183.359375 158.191406 "/>
<path style=" stroke:none;fill-rule:nonzero;fill:rgb(87.5%,2.69928%,14.498901%);fill-opacity:1;" d="M 124.722656 350.269531 C 81.507813 332.132813 52.664063 295.835938 49.636719 258.621094 C 42.171875 259.246094 34.089844 258.386719 25.867188 255.695313 C 23.296875 254.832031 20.765625 253.828125 18.398438 252.671875 C 22.882813 297.226563 60.910156 341.015625 116.703125 361.296875 C 118.011719 359.378906 119.386719 357.40625 120.789063 355.492188 C 122.027344 353.722656 123.429688 351.988281 124.722656 350.269531 "/>
<path style=" stroke:none;fill-rule:nonzero;fill:rgb(16.899109%,14.099121%,13.299561%);fill-opacity:1;" d="M 195.855469 175.425781 C 195.855469 174.65625 195.804688 173.890625 195.804688 173.121094 C 195.804688 169.472656 195.953125 165.929688 196.242188 162.429688 C 193.890625 161.566406 191.539063 160.746094 189.148438 159.984375 C 187.195313 159.351563 185.257813 158.734375 183.347656 158.210938 C 183.25 159.835938 183.25 161.519531 183.25 163.195313 C 183.25 166.117188 183.347656 168.996094 183.484375 171.828125 C 187.195313 172.738281 190.894531 173.789063 194.703125 174.992188 C 195.046875 175.136719 195.472656 175.28125 195.855469 175.425781 "/>
<path style=" stroke:none;fill-rule:nonzero;fill:rgb(87.5%,2.69928%,14.498901%);fill-opacity:1;" d="M 72.253906 234.511719 C 76.570313 221.230469 64.117188 205.210938 44.398438 198.785156 C 24.699219 192.40625 5.214844 198.015625 0.855469 211.296875 C -3.476563 224.632813 9.050781 240.601563 28.765625 247.027344 C 48.457031 253.410156 67.921875 247.789063 72.253906 234.511719 "/>
<path style=" stroke:none;fill-rule:nonzero;fill:rgb(0%,61.999512%,23.498535%);fill-opacity:1;" d="M 414.367188 344.527344 C 413.570313 344.675781 412.855469 344.816406 412.101563 344.921875 C 412.636719 345.484375 413.144531 346.015625 413.628906 346.550781 C 417.460938 350.515625 421.121094 354.792969 424.472656 359.398438 C 455.683594 402.410156 453.222656 457.609375 418.988281 482.5 C 384.699219 507.390625 331.4375 492.667969 300.210938 449.644531 C 296.71875 444.902344 293.679688 439.953125 291.054688 434.921875 C 290.671875 434.257813 290.328125 433.53125 289.953125 432.914063 C 289.625 433.53125 289.28125 434.257813 288.9375 434.871094 C 286.394531 439.582031 283.519531 444.132813 280.289063 448.59375 C 249.078125 491.609375 195.761719 506.332031 161.554688 481.449219 C 127.238281 456.554688 124.804688 401.304688 156.011719 358.339844 C 159.132813 354.070313 162.433594 350.089844 165.886719 346.398438 C 166.40625 345.828125 166.972656 345.292969 167.535156 344.769531 C 166.765625 344.625 165.980469 344.527344 165.28125 344.386719 C 160.125 343.421875 155.007813 342.132813 149.882813 340.5 C 99.324219 324.050781 68.886719 277.921875 81.933594 237.679688 C 95.023438 197.410156 146.785156 177.980469 197.398438 194.433594 C 202.855469 196.199219 208.09375 198.359375 213.128906 200.804688 C 213.773438 201.140625 214.472656 201.480469 215.1875 201.816406 C 215.035156 201.054688 214.941406 200.324219 214.804688 199.558594 C 213.949219 193.753906 213.511719 187.757813 213.511719 181.664063 C 213.511719 128.53125 247.898438 85.230469 290.230469 85.230469 C 332.617188 85.230469 367.058594 128.53125 367.058594 181.664063 C 367.058594 187.757813 366.578125 193.753906 365.699219 199.558594 C 365.574219 200.324219 365.476563 201.054688 365.394531 201.816406 C 366.015625 201.480469 366.730469 201.140625 367.402344 200.804688 C 372.449219 198.359375 377.605469 196.199219 383.171875 194.433594 C 433.6875 177.980469 485.421875 197.410156 498.554688 237.636719 C 511.601563 277.921875 481.132813 324.050781 430.605469 340.5 C 425.191406 342.28125 419.71875 343.574219 414.367188 344.527344 M 500.328125 237.0625 C 486.964844 195.8125 434.097656 175.863281 382.566406 192.652344 C 377.371094 194.289063 372.476563 196.300781 367.746094 198.550781 C 368.503906 193.039063 368.941406 187.425781 368.941406 181.664063 C 368.941406 127.488281 333.636719 83.363281 290.230469 83.363281 C 246.894531 83.363281 211.546875 127.488281 211.546875 181.664063 C 211.546875 187.425781 211.984375 193.039063 212.796875 198.550781 C 208.027344 196.300781 203.101563 194.289063 197.976563 192.652344 C 146.375 175.863281 93.578125 195.8125 80.132813 237.113281 C 66.769531 278.347656 97.730469 325.542969 149.304688 342.28125 C 154.089844 343.863281 158.925781 345.105469 163.671875 346.015625 C 160.46875 349.511719 157.402344 353.253906 154.472656 357.234375 C 122.617188 401.070313 125.3125 457.46875 160.398438 482.972656 C 195.597656 508.445313 249.960938 493.53125 281.84375 449.699219 C 284.867188 445.527344 287.5625 441.300781 289.953125 436.941406 C 292.539063 441.644531 295.429688 446.292969 298.6875 450.800781 C 330.527344 494.628906 385.003906 509.535156 420.089844 484.03125 C 455.203125 458.519531 457.800781 402.128906 425.945313 358.300781 C 422.839844 353.980469 419.429688 349.898438 415.882813 346.15625 C 421.011719 345.195313 426.109375 343.953125 431.171875 342.28125 C 482.742188 325.542969 513.71875 278.347656 500.328125 237.0625 "/>
<path style=" stroke:none;fill-rule:nonzero;fill:rgb(30.198669%,45.098877%,25.498962%);fill-opacity:1;" d="M 459.726563 356.566406 C 458.242188 354.503906 456.714844 352.539063 455.121094 350.570313 C 451.589844 352.007813 447.929688 353.40625 444.191406 354.601563 C 443.777344 354.746094 443.378906 354.847656 442.953125 354.984375 C 443.242188 355.320313 443.476563 355.601563 443.777344 355.941406 C 446.074219 359.152344 448.234375 362.417969 450.238281 365.683594 C 452.6875 365.007813 455.039063 364.285156 457.5 363.523438 C 459.394531 362.890625 461.320313 362.230469 463.191406 361.550781 C 462.078125 359.878906 460.882813 358.203125 459.726563 356.566406 "/>
<path style=" stroke:none;fill-rule:nonzero;fill:rgb(20.399475%,53.29895%,22.399902%);fill-opacity:1;" d="M 290.945313 466.957031 C 290.5625 466.425781 290.230469 465.898438 289.886719 465.375 C 289.789063 465.566406 289.691406 465.710938 289.542969 465.898438 C 287.109375 469.253906 284.523438 472.429688 281.910156 475.542969 C 283.410156 477.839844 284.992188 480.09375 286.628906 482.347656 C 287.6875 483.785156 288.730469 485.230469 289.84375 486.664063 C 291.21875 484.890625 292.578125 483.125 293.902344 481.242188 C 295.261719 479.425781 296.554688 477.558594 297.847656 475.6875 C 295.453125 472.855469 293.132813 469.96875 290.945313 466.957031 "/>
<path style=" stroke:none;fill-rule:nonzero;fill:rgb(39.99939%,21.998596%,22.399902%);fill-opacity:1;" d="M 136.339844 354.601563 C 132.351563 353.308594 128.460938 351.863281 124.722656 350.289063 C 123.386719 352.007813 122.039063 353.734375 120.789063 355.515625 C 119.34375 357.433594 118.011719 359.398438 116.703125 361.316406 C 118.820313 362.078125 120.925781 362.808594 123.042969 363.523438 C 125.296875 364.238281 127.457031 364.914063 129.710938 365.53125 C 131.871094 361.941406 134.207031 358.390625 136.765625 354.890625 C 136.820313 354.847656 136.847656 354.792969 136.847656 354.746094 C 136.667969 354.699219 136.515625 354.648438 136.339844 354.601563 "/>
<path style=" stroke:none;fill-rule:nonzero;fill:rgb(0%,61.999512%,23.498535%);fill-opacity:1;" d="M 272.355469 259.878906 C 273.128906 263.617188 275.945313 266.636719 279.644531 267.5 L 279.726563 267.832031 L 283.945313 287.449219 L 278.046875 287.449219 L 283.945313 314.921875 L 278.046875 314.921875 L 283.945313 342.453125 L 295.703125 342.453125 L 301.601563 314.921875 L 295.703125 314.921875 L 301.601563 287.449219 L 295.703125 287.449219 L 299.976563 267.5 C 303.703125 266.636719 306.578125 263.617188 307.289063 259.878906 C 318.785156 263.371094 332.90625 272.242188 340.304688 294.597656 C 340.304688 294.597656 355.261719 256.417969 326.582031 234.886719 C 321.289063 231.003906 316.078125 228.5625 311.277344 227.070313 C 318.660156 224.960938 328.355469 224.914063 340.6875 229.953125 C 340.6875 229.953125 326.914063 202.421875 297.0625 210.1875 C 294.3125 210.910156 291.90625 211.914063 289.84375 213.164063 C 287.742188 211.914063 285.335938 210.910156 282.652344 210.1875 C 252.777344 202.421875 238.988281 229.953125 238.988281 229.953125 C 251.347656 224.914063 261.027344 224.960938 268.371094 227.070313 C 263.527344 228.5625 258.347656 231.003906 253.121094 234.886719 C 224.414063 256.417969 239.355469 294.597656 239.355469 294.597656 C 246.785156 272.242188 260.933594 263.371094 272.355469 259.878906 "/>
<path style=" stroke:none;fill-rule:evenodd;fill:rgb(0%,61.999512%,23.498535%);fill-opacity:1;" d="M 395.628906 333.222656 C 394.734375 333.277344 394.035156 333.277344 393.320313 333.316406 C 375.722656 334.039063 358.507813 336.816406 341.761719 342.472656 C 330.460938 346.367188 319.707031 351.636719 309.878906 358.589844 C 305.753906 361.515625 301.820313 364.734375 298.109375 368.183594 C 297.601563 368.707031 297.445313 368.949219 298.066406 369.53125 C 304.707031 375.617188 311.210938 381.703125 317.78125 387.847656 C 318.484375 388.519531 318.691406 388.230469 319.03125 387.558594 C 319.707031 386.265625 320.09375 384.914063 320.519531 383.574219 C 321.191406 381.464844 322.003906 379.363281 323.640625 377.773438 C 326.265625 375.183594 329.34375 373.988281 332.988281 374.410156 C 336.355469 374.847656 339.230469 378.351563 339.3125 381.804688 C 339.367188 385.300781 336.785156 388.472656 333.304688 389.191406 C 330.679688 389.714844 328.382813 389.097656 326.140625 387.847656 C 325.179688 387.316406 324.835938 387.363281 324.339844 388.324219 C 323.53125 389.902344 323.460938 391.34375 324.617188 392.828125 C 326.460938 395.371094 329.054688 396.808594 331.835938 398.15625 C 333.183594 398.824219 334.144531 398.929688 335.421875 397.621094 C 337.9375 395.226563 341.003906 395.085938 344.167969 396.425781 C 346.753906 397.578125 348.511719 400.40625 348.441406 403.242188 C 348.386719 406.070313 346.601563 408.46875 343.972656 409.375 C 339.066406 411.148438 334.433594 410.339844 329.8125 408.367188 C 325.566406 406.597656 321.824219 403.960938 318.222656 401.125 C 317.699219 400.699219 317.453125 400.644531 316.972656 401.269531 C 313.863281 405.445313 309.972656 408.605469 304.773438 409.898438 C 301.433594 410.714844 298.355469 410.1875 295.59375 407.890625 C 291.988281 404.914063 291.644531 400.308594 294.808594 396.90625 C 297.929688 393.503906 302.054688 393.839844 305.460938 395.902344 C 306.8125 396.671875 307.414063 397.964844 307.335938 399.585938 C 307.265625 401.175781 307.664063 401.414063 309.121094 400.886719 C 310.261719 400.507813 311.074219 399.738281 311.789063 398.773438 C 312.132813 398.351563 311.9375 398.011719 311.746094 397.578125 C 310.027344 394.507813 307.8125 391.816406 305.285156 389.378906 C 301.640625 385.871094 297.542969 382.957031 293.667969 379.734375 C 292.566406 378.777344 291.410156 377.863281 290.367188 376.859375 C 289.96875 376.53125 289.789063 376.480469 289.347656 376.859375 C 285.15625 380.75 280.617188 384.101563 276.355469 387.886719 C 273.25 390.679688 270.390625 393.640625 268.066406 397.097656 C 267.390625 398.109375 267.433594 398.726563 268.257813 399.546875 C 268.976563 400.265625 269.824219 400.742188 270.789063 400.980469 C 271.613281 401.125 272.191406 400.835938 272.4375 400.066406 C 272.660156 399.355469 272.78125 398.640625 273.003906 397.910156 C 273.375 396.519531 274.183594 395.558594 275.558594 395.171875 C 276.523438 394.941406 277.359375 394.652344 278.324219 394.554688 C 282.683594 393.929688 285.460938 396.714844 286.585938 400.21875 C 287.726563 403.671875 286.078125 407.21875 282.640625 408.941406 C 279.105469 410.621094 275.613281 410.53125 272.136719 409.085938 C 268.203125 407.410156 264.972656 404.867188 262.664063 401.269531 C 262.304688 400.644531 262.070313 400.699219 261.523438 401.125 C 257.976563 403.863281 254.34375 406.449219 250.261719 408.316406 C 246.425781 410.050781 242.507813 411.054688 238.273438 410.675781 C 232.566406 410.144531 230.421875 404.578125 232.046875 400.40625 C 234.492188 394.273438 241.199219 394.417969 244.472656 397.8125 C 245.464844 398.824219 246.21875 398.929688 247.445313 398.351563 C 250.414063 396.960938 253.285156 395.460938 255.183594 392.683594 C 256.214844 391.246094 256.214844 389.667969 255.171875 388.230469 C 254.71875 387.558594 254.097656 387.269531 253.230469 387.652344 C 252.226563 388.132813 251.128906 388.519531 250.085938 388.851563 C 245.628906 390.335938 242.6875 388.367188 241.007813 384.289063 C 239.800781 381.226563 240.582031 378.394531 242.976563 376.191406 C 245.324219 374.035156 248.089844 373.644531 251.074219 374.796875 C 251.375 374.894531 251.636719 375.035156 251.953125 375.183594 C 255.5 376.722656 257.976563 379.210938 259.046875 383.046875 C 259.460938 384.683594 260.007813 386.3125 260.820313 387.847656 C 261.039063 388.324219 261.261719 388.414063 261.726563 387.988281 C 268.425781 381.753906 275.050781 375.566406 281.816406 369.378906 C 282.351563 368.898438 282.105469 368.664063 281.71875 368.324219 C 276.835938 363.714844 271.613281 359.597656 265.988281 356.003906 C 251.636719 346.789063 236.046875 340.992188 219.421875 337.394531 C 210.128906 335.378906 200.683594 334.175781 191.085938 333.550781 C 189.132813 333.414063 187.152344 333.367188 185.1875 333.277344 C 184.855469 333.277344 184.527344 333.367188 184.089844 333.027344 C 186.09375 332.699219 187.910156 332.355469 189.835938 332.074219 C 198.277344 330.867188 206.773438 330.628906 215.257813 331.207031 C 223.273438 331.738281 231.191406 333.074219 238.988281 334.898438 C 250.605469 337.632813 261.398438 342.183594 271.65625 348.234375 C 277.839844 351.933594 283.835938 356.003906 289.636719 360.320313 C 290.492188 360.988281 290.792969 360.414063 291.316406 360.03125 C 300.375 352.214844 310.398438 346.074219 321.34375 341.320313 C 330.996094 337.152344 341.085938 334.28125 351.589844 332.601563 C 362.300781 330.867188 372.929688 330.539063 383.710938 331.40625 C 387.421875 331.683594 391.050781 332.21875 394.707031 332.890625 C 395.011719 332.933594 395.285156 332.890625 395.628906 333.222656 "/>
<path style=" stroke:none;fill-rule:nonzero;fill:rgb(19.993591%,19.993591%,19.993591%);fill-opacity:1;" d="M 774.140625 143.246094 C 774.140625 137.296875 778.902344 132.296875 785.09375 132.296875 C 791.285156 132.296875 795.570313 137.058594 795.570313 143.246094 C 795.570313 149.199219 791.523438 154.199219 784.855469 154.199219 C 778.664063 154.199219 774.140625 149.199219 774.140625 143.246094 M 744.859375 143.246094 C 744.859375 137.296875 749.382813 132.296875 755.332031 132.296875 C 761.523438 132.296875 766.046875 137.058594 766.046875 143.246094 C 766.046875 149.199219 761.761719 154.199219 755.332031 154.199219 C 749.144531 154.199219 744.859375 149.199219 744.859375 143.246094 M 784.617188 188.722656 C 780.332031 187.769531 775.808594 187.53125 769.617188 187.53125 C 748.191406 187.53125 731.523438 198.246094 731.523438 220.625 C 731.523438 243.242188 750.097656 252.050781 769.378906 252.050781 C 774.378906 252.050781 779.855469 251.574219 784.617188 251.101563 Z M 832.472656 264.90625 C 832.472656 264.90625 846.28125 280.621094 836.28125 280.621094 L 819.617188 280.621094 C 810.808594 280.621094 798.902344 276.8125 791.757813 264.90625 C 780.332031 266.8125 772.714844 267.289063 767 267.289063 C 738.667969 267.289063 711.765625 253.242188 711.765625 221.101563 C 711.765625 185.390625 742.238281 172.769531 774.378906 172.769531 C 787.472656 172.769531 797.472656 173.484375 803.664063 174.4375 L 803.664063 232.289063 C 803.664063 252.765625 809.855469 264.90625 825.09375 264.90625 L 829.613281 264.90625 "/>
<path style=" stroke:none;fill-rule:nonzero;fill:rgb(19.993591%,19.993591%,19.993591%);fill-opacity:1;" d="M 939.84375 148.011719 C 933.652344 148.011719 929.128906 142.773438 929.128906 136.820313 C 929.128906 130.628906 933.890625 125.628906 940.320313 125.628906 C 946.273438 125.628906 950.796875 130.390625 950.796875 136.820313 C 950.796875 142.773438 946.511719 148.011719 940.082031 148.011719 Z M 951.511719 189.199219 C 910.082031 189.199219 883.179688 223.242188 872.941406 264.910156 L 946.273438 264.910156 C 973.652344 264.910156 988.175781 242.054688 988.410156 224.910156 C 988.410156 214.671875 982.460938 189.199219 951.511719 189.199219 M 830.089844 264.910156 L 847.230469 264.910156 L 847.230469 225.148438 L 866.039063 218.242188 L 861.988281 261.8125 C 869.371094 219.671875 901.511719 173.722656 951.746094 173.722656 C 979.84375 173.722656 1008.410156 190.628906 1008.410156 222.292969 C 1008.410156 249.910156 985.792969 280.621094 947.460938 280.621094 L 836.992188 280.621094 "/>
<path style=" stroke:none;fill-rule:nonzero;fill:rgb(19.993591%,19.993591%,19.993591%);fill-opacity:1;" d="M 1085.070313 264.910156 C 1085.070313 264.910156 1098.878906 280.621094 1088.878906 280.621094 L 1073.410156 280.621094 C 1059.359375 280.621094 1037.21875 271.335938 1037.21875 234.671875 L 1037.21875 132.296875 L 1056.5 125.390625 L 1056.5 232.289063 C 1056.5 252.765625 1062.449219 264.910156 1077.929688 264.910156 L 1082.21875 264.910156 "/>
<path style=" stroke:none;fill-rule:nonzero;fill:rgb(19.993591%,19.993591%,19.993591%);fill-opacity:1;" d="M 1112.929688 326.097656 C 1106.738281 326.097656 1102.449219 321.097656 1102.449219 314.90625 C 1102.449219 308.953125 1106.96875 303.953125 1113.398438 303.953125 C 1119.589844 303.953125 1123.878906 308.714844 1123.878906 314.90625 C 1123.878906 321.097656 1119.589844 326.097656 1113.160156 326.097656 Z M 1081.738281 264.910156 C 1096.980469 264.910156 1104.589844 252.765625 1104.589844 232.289063 L 1104.589844 179.199219 L 1123.878906 172.53125 L 1123.878906 234.671875 C 1123.878906 271.335938 1103.160156 280.621094 1088.878906 280.621094 Z M 1083.410156 326.097656 C 1077.210938 326.097656 1072.929688 321.097656 1072.929688 314.90625 C 1072.929688 308.953125 1077.449219 303.953125 1083.640625 303.953125 C 1089.828125 303.953125 1094.121094 308.714844 1094.121094 314.90625 C 1094.121094 321.097656 1090.070313 326.097656 1083.640625 326.097656 "/>
<path style=" stroke:none;fill-rule:nonzero;fill:rgb(19.993591%,19.993591%,19.993591%);fill-opacity:1;" d="M 1212.921875 264.910156 C 1212.921875 264.910156 1226.730469 280.621094 1216.730469 280.621094 C 1202.199219 280.621094 1192.210938 274.433594 1185.300781 265.621094 L 1185.300781 273.003906 C 1185.300781 307.285156 1171.96875 325.859375 1140.058594 326.808594 L 1137.679688 311.574219 C 1155.78125 309.90625 1167.441406 305.382813 1166.25 265.863281 L 1166.25 201.101563 L 1185.300781 194.199219 L 1185.300781 240.863281 C 1185.300781 252.527344 1196.25 264.671875 1209.820313 264.910156 "/>
<path style=" stroke:none;fill-rule:nonzero;fill:rgb(19.993591%,19.993591%,19.993591%);fill-opacity:1;" d="M 1209.578125 264.910156 C 1224.820313 264.910156 1232.441406 252.765625 1232.441406 232.289063 L 1232.441406 132.296875 L 1251.71875 125.390625 L 1251.71875 234.671875 C 1251.71875 271.335938 1231.011719 280.621094 1216.730469 280.621094 "/>
<path style=" stroke:none;fill-rule:nonzero;fill:rgb(19.993591%,19.993591%,19.993591%);fill-opacity:1;" d="M 1280.289063 132.296875 L 1299.570313 125.394531 L 1299.570313 280.621094 L 1280.289063 280.621094 Z M 1280.289063 132.296875 "/>
<path style=" stroke:none;fill-rule:nonzero;fill:rgb(19.993591%,19.993591%,19.993591%);fill-opacity:1;" d="M 1442.171875 136.34375 C 1442.171875 130.390625 1446.941406 125.390625 1453.128906 125.390625 C 1459.320313 125.390625 1463.601563 130.152344 1463.601563 136.34375 C 1463.601563 142.535156 1459.550781 147.535156 1452.890625 147.535156 C 1446.699219 147.535156 1442.171875 142.535156 1442.171875 136.34375 M 1423.359375 147.535156 C 1417.179688 147.535156 1412.890625 142.535156 1412.890625 136.34375 C 1412.890625 130.390625 1417.410156 125.390625 1423.601563 125.390625 C 1429.558594 125.390625 1434.078125 130.152344 1434.078125 136.34375 C 1434.078125 142.535156 1429.789063 147.535156 1423.601563 147.535156 Z M 1436.941406 266.097656 C 1455.269531 266.097656 1468.839844 248.957031 1468.839844 224.910156 C 1468.839844 207.054688 1460.03125 184.4375 1437.171875 184.4375 C 1414.789063 184.4375 1405.03125 205.386719 1405.03125 225.625 C 1405.03125 248.71875 1418.128906 266.097656 1436.699219 266.097656 Z M 1435.980469 280.621094 C 1407.648438 280.621094 1385.269531 259.671875 1385.269531 226.101563 C 1385.269531 190.863281 1408.601563 169.914063 1437.648438 169.914063 C 1468.121094 169.914063 1488.601563 192.054688 1488.601563 224.199219 C 1488.601563 263.480469 1461.21875 280.621094 1436.21875 280.621094 "/>
<path style=" stroke:none;fill-rule:nonzero;fill:rgb(19.993591%,19.993591%,19.993591%);fill-opacity:1;" d="M 1502.410156 311.574219 C 1520.5 309.90625 1532.171875 305.382813 1530.980469 265.863281 L 1530.980469 201.101563 L 1550.019531 194.199219 L 1550.019531 273.003906 C 1550.019531 307.289063 1536.691406 325.859375 1504.789063 326.808594 "/>
<path style=" stroke:none;fill-rule:nonzero;fill:rgb(19.993591%,19.993591%,19.993591%);fill-opacity:1;" d="M 1578.589844 132.296875 L 1597.871094 125.394531 L 1597.871094 280.621094 L 1578.589844 280.621094 Z M 1578.589844 132.296875 "/>
<path style=" stroke:none;fill-rule:nonzero;fill:rgb(19.993591%,19.993591%,19.993591%);fill-opacity:1;" d="M 1649.769531 169.4375 C 1643.578125 169.4375 1639.300781 164.4375 1639.300781 158.246094 C 1639.300781 152.296875 1643.820313 147.296875 1650.011719 147.296875 C 1656.199219 147.296875 1660.488281 152.058594 1660.488281 158.246094 C 1660.488281 164.4375 1656.441406 169.4375 1650.011719 169.4375 Z M 1612.871094 311.574219 C 1630.960938 309.90625 1642.628906 305.382813 1641.441406 265.863281 L 1641.441406 201.101563 L 1660.488281 194.199219 L 1660.488281 273.003906 C 1660.488281 307.289063 1647.148438 325.859375 1615.25 326.8125 "/>
<path style=" stroke:none;fill-rule:nonzero;fill:rgb(19.993591%,19.993591%,19.993591%);fill-opacity:1;" d="M 1719.050781 227.769531 C 1719.289063 257.289063 1735.949219 267.765625 1755.238281 267.765625 C 1763.089844 267.765625 1769.289063 267.050781 1774.519531 265.859375 L 1774.519531 215.148438 C 1774.519531 202.769531 1768.808594 186.101563 1748.808594 186.101563 C 1728.570313 186.101563 1718.339844 205.148438 1719.050781 227.769531 M 1745.949219 311.574219 C 1764.519531 308.953125 1772.621094 303.238281 1773.808594 280.621094 C 1767.859375 282.050781 1760.949219 282.765625 1752.621094 282.765625 C 1720.238281 282.765625 1700.71875 261.097656 1700.71875 229.433594 C 1700.71875 197.53125 1719.53125 172.53125 1750.480469 172.53125 C 1785 172.53125 1793.808594 194.4375 1793.808594 222.292969 L 1793.808594 271.335938 C 1793.808594 305.621094 1780.949219 326.09375 1748.328125 326.808594 "/>
<path style=" stroke:none;fill-rule:nonzero;fill:rgb(19.993591%,19.993591%,19.993591%);fill-opacity:1;" d="M 808.464844 361.4375 C 812.757813 361.796875 816.289063 363.515625 819.0625 366.601563 C 821.832031 369.6875 823.21875 373.375 823.21875 377.664063 L 823.21875 484.695313 L 813.160156 484.695313 L 813.160156 377.664063 C 813.160156 374.179688 811.234375 372.078125 807.394531 371.363281 C 803.636719 370.648438 801.359375 372.347656 800.554688 376.457031 L 780.4375 475.171875 C 779.71875 478.214844 778.175781 480.761719 775.808594 482.816406 C 773.4375 484.875 770.6875 485.902344 767.558594 485.902344 C 764.339844 485.902344 761.5 484.917969 759.042969 482.949219 C 756.582031 480.984375 755.039063 478.390625 754.414063 475.171875 L 734.429688 376.457031 C 733.628906 372.347656 731.347656 370.648438 727.589844 371.363281 C 723.746094 372.078125 721.824219 374.179688 721.824219 377.664063 L 721.824219 484.695313 L 711.765625 484.695313 L 711.765625 377.664063 C 711.765625 373.375 713.148438 369.6875 715.921875 366.601563 C 718.691406 363.515625 722.226563 361.796875 726.519531 361.4375 C 730.898438 360.992188 734.742188 361.972656 738.050781 364.386719 C 741.359375 366.800781 743.460938 370.15625 744.355469 374.445313 L 764.203125 473.292969 C 764.5625 474.996094 765.683594 475.84375 767.558594 475.84375 C 769.257813 475.84375 770.285156 474.996094 770.644531 473.292969 L 790.628906 374.445313 C 791.519531 370.15625 793.621094 366.800781 796.933594 364.386719 C 800.238281 361.972656 804.085938 360.992188 808.464844 361.4375 "/>
<path style=" stroke:none;fill-rule:nonzero;fill:rgb(19.993591%,19.993591%,19.993591%);fill-opacity:1;" d="M 848.03125 484.695313 L 837.972656 484.695313 L 837.972656 393.359375 L 848.03125 393.359375 Z M 848.03125 377.664063 L 837.972656 377.664063 L 837.972656 362.511719 L 848.03125 362.511719 Z M 848.03125 377.664063 "/>
<path style=" stroke:none;fill-rule:nonzero;fill:rgb(19.993591%,19.993591%,19.993591%);fill-opacity:1;" d="M 899.265625 391.347656 C 909.097656 391.347656 917.640625 394.96875 924.882813 402.210938 C 932.035156 409.367188 935.613281 417.902344 935.613281 427.828125 L 935.613281 484.695313 L 925.6875 484.695313 L 925.6875 427.828125 C 925.6875 420.585938 923.089844 414.371094 917.90625 409.183594 C 912.71875 404 906.507813 401.40625 899.265625 401.40625 C 891.929688 401.40625 885.671875 404 880.488281 409.183594 C 875.300781 414.28125 872.707031 420.496094 872.707031 427.828125 L 872.707031 484.695313 L 862.78125 484.695313 L 862.78125 427.828125 C 862.78125 417.726563 866.3125 409.183594 873.378906 402.210938 C 880.53125 394.96875 889.160156 391.347656 899.265625 391.347656 "/>
<path style=" stroke:none;fill-rule:nonzero;fill:rgb(19.993591%,19.993591%,19.993591%);fill-opacity:1;" d="M 960.421875 484.695313 L 950.363281 484.695313 L 950.363281 393.359375 L 960.421875 393.359375 Z M 960.421875 377.664063 L 950.363281 377.664063 L 950.363281 362.511719 L 960.421875 362.511719 Z M 960.421875 377.664063 "/>
<path style=" stroke:none;fill-rule:nonzero;fill:rgb(19.993591%,19.993591%,19.993591%);fill-opacity:1;" d="M 1001.058594 391.347656 C 1008.300781 391.347656 1014.429688 393.941406 1019.429688 399.125 C 1024.621094 404.132813 1027.210938 410.214844 1027.210938 417.367188 L 1027.210938 423.804688 L 1017.019531 423.804688 L 1017.019531 417.367188 C 1017.019531 412.988281 1015.480469 409.230469 1012.390625 406.101563 C 1009.308594 402.972656 1005.570313 401.40625 1001.191406 401.40625 C 996.902344 401.40625 993.167969 402.925781 989.996094 405.964844 C 986.820313 409.007813 985.234375 412.628906 985.234375 416.828125 C 985.234375 423.625 988.453125 428.277344 994.890625 430.777344 L 1011.121094 437.082031 C 1015.949219 438.960938 1019.789063 442.023438 1022.648438 446.269531 C 1025.511719 450.515625 1026.949219 455.234375 1026.949219 460.417969 C 1026.949219 464.980469 1025.828125 469.226563 1023.589844 473.160156 C 1018.5 481.65625 1011.03125 485.902344 1001.191406 485.902344 C 993.953125 485.902344 987.828125 483.398438 982.820313 478.390625 C 977.722656 473.292969 975.175781 467.125 975.175781 459.882813 L 975.175781 453.445313 L 985.234375 453.445313 L 985.234375 459.882813 C 985.234375 464.265625 986.796875 468.019531 989.929688 471.148438 C 993.058594 474.28125 996.769531 475.84375 1001.058594 475.84375 C 1005.351563 475.84375 1009.078125 474.324219 1012.261719 471.285156 C 1015.429688 468.242188 1017.019531 464.621094 1017.019531 460.417969 C 1017.019531 453.804688 1013.800781 449.152344 1007.359375 446.472656 L 991.136719 440.03125 C 986.21875 438.066406 982.351563 435.003906 979.535156 430.847656 C 976.71875 426.6875 975.308594 422.015625 975.308594 416.828125 C 975.308594 412.183594 976.425781 407.933594 978.664063 404.085938 C 983.757813 395.59375 991.222656 391.347656 1001.058594 391.347656 "/>
<path style=" stroke:none;fill-rule:nonzero;fill:rgb(19.993591%,19.993591%,19.993591%);fill-opacity:1;" d="M 1050.28125 362.511719 L 1050.28125 391.347656 C 1050.28125 392.6875 1050.949219 393.359375 1052.289063 393.359375 L 1067.179688 393.359375 L 1067.179688 403.417969 L 1052.289063 403.417969 C 1050.949219 403.417969 1050.28125 404.042969 1050.28125 405.292969 L 1050.28125 460.6875 C 1050.28125 464.53125 1051.671875 467.820313 1054.441406 470.542969 C 1057.210938 473.273438 1060.519531 474.636719 1064.359375 474.636719 L 1067.179688 474.636719 L 1067.179688 484.695313 L 1064.359375 484.695313 C 1057.570313 484.695313 1051.839844 482.371094 1047.191406 477.71875 C 1042.550781 472.984375 1040.21875 467.304688 1040.21875 460.6875 L 1040.21875 362.511719 "/>
<path style=" stroke:none;fill-rule:nonzero;fill:rgb(19.993591%,19.993591%,19.993591%);fill-opacity:1;" d="M 1118.28125 401.40625 L 1111.710938 401.40625 C 1105.800781 401.40625 1100.75 403.507813 1096.550781 407.710938 C 1092.441406 411.824219 1090.378906 416.828125 1090.378906 422.730469 L 1090.378906 484.695313 L 1080.320313 484.695313 L 1080.320313 422.730469 C 1080.320313 414.148438 1083.359375 406.816406 1089.441406 400.734375 C 1095.699219 394.476563 1103.121094 391.34375 1111.710938 391.34375 L 1118.28125 391.34375 "/>
<path style=" stroke:none;fill-rule:nonzero;fill:rgb(19.993591%,19.993591%,19.993591%);fill-opacity:1;" d="M 1175.679688 515.675781 L 1165.488281 515.675781 L 1171.789063 486.976563 C 1171.878906 486.527344 1171.789063 486.148438 1171.519531 485.835938 C 1171.25 485.519531 1170.898438 485.410156 1170.449219 485.5 C 1170.269531 485.5 1169.761719 485.566406 1168.910156 485.699219 C 1168.058594 485.835938 1167.449219 485.902344 1167.101563 485.902344 C 1162.628906 485.902344 1158.621094 484.472656 1155.089844 481.609375 C 1151.558594 478.75 1149.300781 475.171875 1148.320313 470.878906 L 1131.550781 393.359375 L 1141.75 393.359375 L 1158.109375 468.734375 C 1159 473.382813 1162 475.707031 1167.101563 475.707031 C 1171.828125 475.707031 1174.828125 473.339844 1176.078125 468.601563 L 1192.851563 393.359375 L 1203.179688 393.359375 "/>
<path style=" stroke:none;fill-rule:nonzero;fill:rgb(19.993591%,19.993591%,19.993591%);fill-opacity:1;" d="M 1293.96875 401.40625 C 1283.601563 401.40625 1274.789063 405.027344 1267.550781 412.269531 C 1260.308594 419.601563 1256.691406 428.410156 1256.691406 438.691406 C 1256.691406 448.796875 1260.308594 457.558594 1267.550781 464.980469 C 1274.789063 472.222656 1283.601563 475.84375 1293.96875 475.84375 C 1304.429688 475.84375 1313.238281 472.222656 1320.398438 464.980469 C 1327.730469 457.648438 1331.390625 448.882813 1331.390625 438.691406 C 1331.390625 428.410156 1327.730469 419.601563 1320.398438 412.269531 C 1313.238281 405.027344 1304.429688 401.40625 1293.96875 401.40625 M 1293.96875 391.34375 C 1307.03125 391.34375 1318.199219 395.996094 1327.5 405.296875 C 1336.710938 414.503906 1341.320313 425.636719 1341.320313 438.691406 C 1341.320313 451.746094 1336.710938 462.878906 1327.5 472.089844 C 1318.199219 481.386719 1307.03125 486.035156 1293.96875 486.035156 C 1280.921875 486.035156 1269.789063 481.386719 1260.578125 472.089844 C 1251.371094 462.878906 1246.761719 451.746094 1246.761719 438.691406 C 1246.761719 425.636719 1251.371094 414.503906 1260.578125 405.296875 C 1269.789063 395.996094 1280.921875 391.34375 1293.96875 391.34375 "/>
<path style=" stroke:none;fill-rule:nonzero;fill:rgb(19.993591%,19.993591%,19.993591%);fill-opacity:1;" d="M 1381.421875 372.703125 L 1378.601563 372.703125 C 1374.671875 372.703125 1371.339844 374.066406 1368.609375 376.796875 C 1365.878906 379.523438 1364.519531 382.808594 1364.519531 386.652344 L 1364.519531 391.347656 C 1364.519531 392.6875 1365.191406 393.359375 1366.53125 393.359375 L 1381.421875 393.359375 L 1381.421875 403.28125 L 1366.53125 403.28125 C 1365.191406 403.28125 1364.519531 403.953125 1364.519531 405.296875 L 1364.519531 484.695313 L 1354.460938 484.695313 L 1354.460938 386.652344 C 1354.460938 380.035156 1356.78125 374.402344 1361.441406 369.753906 C 1366.171875 364.925781 1371.898438 362.511719 1378.601563 362.511719 L 1381.421875 362.511719 "/>
<path style=" stroke:none;fill-rule:nonzero;fill:rgb(19.993591%,19.993591%,19.993591%);fill-opacity:1;" d="M 1456.261719 361.4375 C 1464.75 361.4375 1472.171875 364.519531 1478.519531 370.691406 C 1484.691406 376.859375 1487.78125 384.195313 1487.78125 392.6875 L 1487.78125 400.199219 L 1477.71875 400.199219 L 1477.71875 392.6875 C 1477.71875 386.964844 1475.570313 381.957031 1471.28125 377.664063 C 1467.070313 373.464844 1462.070313 371.363281 1456.261719 371.363281 C 1450.53125 371.363281 1445.480469 373.464844 1441.101563 377.664063 C 1436.988281 381.957031 1434.929688 386.964844 1434.929688 392.6875 C 1434.929688 397.515625 1436.25 401.921875 1438.890625 405.898438 C 1441.53125 409.878906 1444.988281 412.894531 1449.28125 414.953125 L 1467.519531 423.265625 C 1473.691406 426.039063 1478.609375 430.265625 1482.28125 435.941406 C 1485.941406 441.621094 1487.78125 447.8125 1487.78125 454.515625 C 1487.78125 463.101563 1484.691406 470.476563 1478.519531 476.648438 C 1472.351563 482.816406 1464.929688 485.902344 1456.261719 485.902344 C 1447.488281 485.902344 1440.070313 482.816406 1433.988281 476.648438 C 1427.910156 470.566406 1424.871094 463.191406 1424.871094 454.515625 L 1424.871094 447.007813 L 1434.929688 447.007813 L 1434.929688 454.515625 C 1434.929688 460.507813 1436.988281 465.5625 1441.101563 469.671875 C 1445.210938 473.789063 1450.269531 475.84375 1456.261719 475.84375 C 1462.25 475.84375 1467.25 473.789063 1471.28125 469.671875 C 1475.570313 465.5625 1477.71875 460.507813 1477.71875 454.515625 C 1477.71875 449.6875 1476.421875 445.285156 1473.828125 441.304688 C 1471.230469 437.328125 1467.789063 434.355469 1463.5 432.386719 L 1444.988281 424.070313 C 1438.910156 421.210938 1434.039063 416.960938 1430.371094 411.332031 C 1426.699219 405.695313 1424.871094 399.484375 1424.871094 392.6875 C 1424.871094 384.105469 1427.910156 376.773438 1433.988281 370.691406 C 1440.160156 364.519531 1447.578125 361.4375 1456.261719 361.4375 "/>
<path style=" stroke:none;fill-rule:nonzero;fill:rgb(19.993591%,19.993591%,19.993591%);fill-opacity:1;" d="M 1548.128906 401.40625 C 1537.761719 401.40625 1528.949219 405.027344 1521.710938 412.269531 C 1514.460938 419.601563 1510.839844 428.410156 1510.839844 438.691406 C 1510.839844 448.796875 1514.460938 457.558594 1521.710938 464.980469 C 1528.949219 472.222656 1537.761719 475.84375 1548.128906 475.84375 C 1558.589844 475.84375 1567.398438 472.222656 1574.550781 464.980469 C 1581.878906 457.648438 1585.550781 448.882813 1585.550781 438.691406 C 1585.550781 428.410156 1581.878906 419.601563 1574.550781 412.269531 C 1567.398438 405.027344 1558.589844 401.40625 1548.128906 401.40625 M 1548.128906 391.34375 C 1561.179688 391.34375 1572.359375 395.996094 1581.660156 405.296875 C 1590.871094 414.503906 1595.46875 425.636719 1595.46875 438.691406 C 1595.46875 451.746094 1590.871094 462.878906 1581.660156 472.089844 C 1572.359375 481.386719 1561.179688 486.035156 1548.128906 486.035156 C 1534 486.035156 1522.058594 480.492188 1512.320313 469.40625 C 1512.140625 469.050781 1511.78125 468.957031 1511.25 469.136719 C 1510.980469 469.40625 1510.839844 469.628906 1510.839844 469.808594 L 1510.839844 515.675781 L 1500.921875 515.675781 L 1500.921875 438.019531 C 1500.921875 425.234375 1505.519531 414.28125 1514.730469 405.160156 C 1523.941406 395.953125 1535.070313 391.34375 1548.128906 391.34375 "/>
<path style=" stroke:none;fill-rule:nonzero;fill:rgb(19.993591%,19.993591%,19.993591%);fill-opacity:1;" d="M 1655.828125 401.40625 C 1645.449219 401.40625 1636.648438 405.027344 1629.398438 412.269531 C 1622.160156 419.601563 1618.539063 428.410156 1618.539063 438.691406 C 1618.539063 448.796875 1622.160156 457.558594 1629.398438 464.980469 C 1636.648438 472.222656 1645.449219 475.84375 1655.828125 475.84375 C 1666.289063 475.84375 1675.089844 472.222656 1682.25 464.980469 C 1689.578125 457.648438 1693.25 448.882813 1693.25 438.691406 C 1693.25 428.410156 1689.578125 419.601563 1682.25 412.269531 C 1675.089844 405.027344 1666.289063 401.40625 1655.828125 401.40625 M 1655.828125 391.34375 C 1668.878906 391.34375 1680.058594 395.996094 1689.359375 405.296875 C 1698.558594 414.503906 1703.171875 425.636719 1703.171875 438.691406 C 1703.171875 451.746094 1698.558594 462.878906 1689.359375 472.089844 C 1680.058594 481.386719 1668.878906 486.035156 1655.828125 486.035156 C 1642.769531 486.035156 1631.640625 481.386719 1622.429688 472.089844 C 1613.21875 462.878906 1608.621094 451.746094 1608.621094 438.691406 C 1608.621094 425.636719 1613.21875 414.503906 1622.429688 405.296875 C 1631.640625 395.996094 1642.769531 391.34375 1655.828125 391.34375 "/>
<path style=" stroke:none;fill-rule:nonzero;fill:rgb(19.993591%,19.993591%,19.993591%);fill-opacity:1;" d="M 1754.269531 401.40625 L 1747.699219 401.40625 C 1741.800781 401.40625 1736.738281 403.507813 1732.539063 407.710938 C 1728.429688 411.824219 1726.371094 416.828125 1726.371094 422.730469 L 1726.371094 484.695313 L 1716.308594 484.695313 L 1716.308594 422.730469 C 1716.308594 414.148438 1719.351563 406.816406 1725.429688 400.734375 C 1731.691406 394.476563 1739.109375 391.34375 1747.699219 391.34375 L 1754.269531 391.34375 "/>
<g clip-path="url(#clip2)" clip-rule="nonzero">
<path style=" stroke:none;fill-rule:nonzero;fill:rgb(19.993591%,19.993591%,19.993591%);fill-opacity:1;" d="M 1777.46875 362.511719 L 1777.46875 391.347656 C 1777.46875 392.6875 1778.140625 393.359375 1779.480469 393.359375 L 1794.371094 393.359375 L 1794.371094 403.417969 L 1779.480469 403.417969 C 1778.140625 403.417969 1777.46875 404.042969 1777.46875 405.292969 L 1777.46875 460.6875 C 1777.46875 464.53125 1778.859375 467.820313 1781.628906 470.542969 C 1784.398438 473.273438 1787.710938 474.636719 1791.550781 474.636719 L 1794.371094 474.636719 L 1794.371094 484.695313 L 1791.550781 484.695313 C 1784.761719 484.695313 1779.03125 482.371094 1774.390625 477.71875 C 1769.738281 472.984375 1767.410156 467.304688 1767.410156 460.6875 L 1767.410156 362.511719 "/>
</g>
</g>
</svg>
